<svg xmlns="http://www.w3.org/2000/svg" width="88.991" height="88.99" viewBox="0 0 88.991 88.99"><defs><style>.a{fill:#06edff;}</style></defs><path class="a" d="M34.59,7.416H30.512a10.218,10.218,0,0,0-19.652,0H6.781A2.8,2.8,0,0,0,4,10.2v5.562a6.52,6.52,0,0,0,6.489,6.489H30.882a6.52,6.52,0,0,0,6.489-6.489V10.2A2.8,2.8,0,0,0,34.59,7.416Z" transform="translate(10.832)"/><path class="a" d="M52.838,3h-.927V7.635a10.191,10.191,0,0,1-10.2,10.2H21.321a10.191,10.191,0,0,1-10.2-10.2V3H10.2A10.191,10.191,0,0,0,0,13.2V59.546a10.191,10.191,0,0,0,10.2,10.2H40.379a26.291,26.291,0,0,1-5.006-12.978H13.9a2.781,2.781,0,1,1,0-5.562H35.374a23.722,23.722,0,0,1,1.557-6.489H13.9a2.781,2.781,0,1,1,0-5.562H39.712a26.511,26.511,0,0,1,6.044-6.489H13.9a2.781,2.781,0,1,1,0-5.562H49.13a2.781,2.781,0,0,1,2.67,2.076A26.513,26.513,0,0,1,62.108,27.1a7.75,7.75,0,0,1,.927.037V13.2A10.191,10.191,0,0,0,52.838,3Z" transform="translate(0 8.124)"/><path class="a" d="M30.967,50.433A19.467,19.467,0,1,1,50.433,30.967,19.488,19.488,0,0,1,30.967,50.433Zm0-31.517A12.051,12.051,0,1,0,43.017,30.967,12.065,12.065,0,0,0,30.967,18.916Z" transform="translate(31.141 31.141)"/><path class="a" d="M34.509,38.217a3.7,3.7,0,0,1-2.622-1.086L19.837,25.08a3.707,3.707,0,0,1,5.243-5.243L37.131,31.888a3.708,3.708,0,0,1-2.621,6.329Z" transform="translate(50.773 50.773)"/></svg>