<svg xmlns="http://www.w3.org/2000/svg" width="1920" height="721" viewBox="0 0 1920 721"><defs><style>.a{fill:#2b388f;}.b{fill:#dfdef9;}.c{fill:#bbbbea;}.d{fill:#fff;}.e{fill:#06edff;}.f{fill:#cf4339;}.g{fill:#e8ae4a;}.h{fill:#5ba69c;}.i{fill:#ec297b;}.j{fill:#7f5e40;}.k{fill:#e0922f;}.l{fill:#2a2760;}.m{fill:#ff9c7d;}.n{fill:#4a4481;}.o{fill:#ffd40f;}.p{fill:#ad5449;}.q{fill:#cb685c;}.r{fill:#f6921e;}.s{fill:#9c7b53;}.t{fill:#42897d;}.u{fill:#9fc54d;}.v{fill:#ea7a5c;}.w{fill:#f2c99e;}.x{fill:#4675b8;}.y{fill:#f1f1f2;}.z{fill:#d0d1d3;}.aa{fill:#6695cc;}.ab{fill:#4f5aa8;}.ac{fill:#333b8c;}.ad{fill:#8f10ff;}.ae{fill:#59595b;}.af{fill:#929496;}</style></defs><path class="a" d="M0,0H1920V686.4L0,721Z"/><g transform="translate(1238.908 86.284)"><path class="b" d="M50.216,371.3s208.933-43.913,363.553-29.695c147.627,13.575,203.939,46.956,157.384,76.359-40.3,25.453-114.963,33.089-180.292,48.361s-201.5,29.695-277.013-18.666S10.34,387.422,50.216,371.3Z" transform="translate(0 69.645)"/><g transform="translate(262.324 83.333)"><path class="c" d="M213,105.682l.636,141.264L478.983,268.58l2.545-166.08Z" transform="translate(-213 -78.108)"/><path class="d" d="M233.661,122.174l-1.995,104.92L445.9,236.27l-.8-113.3Z" transform="translate(-207.911 -72.744)"/><path class="a" d="M326.5,233.5l117.72,10.181v16.544l-117.083-12.09Z" transform="translate(-182.055 -42.391)"/><path class="a" d="M326.5,250.833l117.72,10.181v16.544l-117.083-12.09Z" transform="translate(-182.055 -37.665)"/><path class="d" d="M221.136,118.56l244.348.212V110.5l-244.985.636Z" transform="translate(-210.955 -75.926)"/><path class="e" d="M214,105.393l265.559-2.545.424-19.514L214.424,86.727Z" transform="translate(-212.727 -83.333)"/><ellipse class="f" cx="6.84" cy="6.681" rx="6.84" ry="6.681" transform="translate(240.212 3.394)"/><ellipse class="g" cx="6.204" cy="6.06" rx="6.204" ry="6.06" transform="translate(218.259 4.015)"/><ellipse class="h" cx="4.613" cy="4.506" rx="4.613" ry="4.506" transform="translate(198.533 5.569)"/><path class="i" d="M335.145,178.936,238,175.967l.636-49.421,97.782-.212Z" transform="translate(-206.184 -71.609)"/><g transform="translate(103.541 74.104)"><path class="j" d="M336.021,169.375l-8.59,18.294-23.172-10.076-2.758,7.212s24.87,15.7,27.574,15.7,11.241-13.787,11.241-13.787Z" transform="translate(-292.411 -133.978)"/><path class="k" d="M358.695,165.75l6.522,3.182s-7.264,21.953-5.144,39.983l-27.308-1.485s-4.454-28.316-4.136-37.066c0,0,2.624-2.306,11.851-4.215,1.283-.266,4.252,1.9,5.409,1.829A58.447,58.447,0,0,0,358.695,165.75Z" transform="translate(-285.019 -134.967)"/><path class="d" d="M338.613,167.954l2.068,23.147,7.4-25.294s-7.716,2.624-9.7-.557Z" transform="translate(-282.357 -135.103)"/><path class="j" d="M347.034,162.5s6.84,4.772,5.25,8.59a13.35,13.35,0,0,1-5.568,5.886s2.386,3.818-.8,9.068a29.136,29.136,0,0,1-6.045,7.477Z" transform="translate(-281.948 -135.853)"/><path class="l" d="M340.986,141.563s-6.2-.239-8.671,4.851-.636,7.318-.636,7.318-3.977,3.5-2.545,7.875c0,0-5.727,5.886-.4,11.613s11.533,3.5,14.237-3.739,4.3-25.294,4.3-25.294S346.95,142.438,340.986,141.563Z" transform="translate(-285.604 -141.562)"/><path class="m" d="M333.546,162.11c1.744,3.6,6.787,3.605,6.787,3.605l.636,3.818,6.363-.849L347.12,151.5s-6.9-5.939-12.276-5.434C333.6,146.185,329.436,153.625,333.546,162.11Z" transform="translate(-284.157 -140.341)"/><path class="l" d="M334.25,147.711s1.485,4.879,4.349,6.258,3.818,1.378,3.818,1.378-.636,4.03,1.273,5.3l1.909,1.273s-1.7,10.181,3.287,13.045,9.757.106,11.03-4.985-3.712-8.8-3.712-8.8,1.8-3.818-.106-6.47a10.077,10.077,0,0,0-4.879-3.5s.955-5.409-3.287-7.847S334.25,143.682,334.25,147.711Z" transform="translate(-283.482 -141.321)"/><path class="j" d="M340.327,164.592l1.591,27.149s-6.258-4.242-3.076-12.408c0,0-6.469-6.469-4.242-11.665S340.327,164.592,340.327,164.592Z" transform="translate(-283.514 -135.399)"/><path class="j" d="M358.827,168.25l7.795,28.529,18.877-7.636,2.334,7.423s-18.878,11.241-24.605,11.241-10.818-14.635-10.818-14.635S349.759,171.962,358.827,168.25Z" transform="translate(-278.629 -134.285)"/><path class="j" d="M331.932,198.5l27.1.424.848,5.515-28.21-.424Z" transform="translate(-284.186 -126.038)"/><path class="k" d="M330,210.257l2.121-7.424,28.21.424,4.242,8.7Z" transform="translate(-284.641 -124.856)"/><path class="m" d="M377.816,186.571a9.539,9.539,0,0,1,2.924-4.008,10.463,10.463,0,0,1,4.809-1.616c.4-.034-.172,1.691-1.427,1.96s6.288-.228,7.388.475-.531,1.243-.531,1.243,1.8.482,1.53,1.064-1.76.873-1.76.873,1.6.1.876.881a3.952,3.952,0,0,1-1.747,1.031s1.106.783-.285,1.3-8.226,2.712-8.226,2.712S376.463,192.118,377.816,186.571Z" transform="translate(-271.668 -130.823)"/><path class="m" d="M308.087,177.819s-3.3-3.439-4.211-4.071-1.755-.561-2.947.07c0,0-5.195-2.456-6.037-2.175s-1.052,1.755,2.176,3.159c0,0-.771,1.474-.07,2.386,0,0-.631,1.755,0,2.386,0,0-.491.7.772,1.825a12.9,12.9,0,0,0,4.492,2.456c1.4.421,3.509.913,4.772-.421S309.421,178.451,308.087,177.819Z" transform="translate(-294.358 -133.366)"/></g><g transform="translate(43.589 59.421)"><g transform="translate(3.192 33.63)"><path class="d" d="M250.89,160.64a1.419,1.419,0,0,1-1.115-1.411c-.115-1.107.36-1.352,1.562-1.306a12.624,12.624,0,0,1,1.859.227l0,.7c-.542-.037-1.1-.085-1.642-.1-.766-.024-1-.02-.949.508.047.467.253.513.671.655l1.248.379a1.388,1.388,0,0,1,1.136,1.392c.112,1.184-.448,1.368-1.727,1.32a10.467,10.467,0,0,1-1.707-.2l-.011-.7c.4.053.912.083,1.464.1.938.033,1.2-.056,1.153-.549-.043-.445-.294-.5-.71-.636Z" transform="translate(-249.759 -156.048)"/><path class="d" d="M253.915,156.46a.278.278,0,0,1,.277.291l.051.569c.018.192-.053.291-.224.286l-.411-.011c-.169-.005-.26-.109-.277-.3l-.052-.568c-.017-.172.053-.283.224-.277Zm.009,6.945-.451-4.858.857.025.442,4.864Z" transform="translate(-248.8 -156.449)"/><path class="d" d="M256.046,158.942a2.742,2.742,0,0,1,1.872-.83c.779.023,1.233.513,1.3,1.4l.289,3.664-.87-.032-.272-3.379c-.05-.625-.21-.822-.626-.835a2.755,2.755,0,0,0-1.558.685l.3,3.448-.863-.032-.426-4.873.737.022Z" transform="translate(-248.278 -155.996)"/><path class="d" d="M260.9,158.44a12.879,12.879,0,0,1,2.162-.169c1.044.031,1.624.438,1.7,1.694l.215,3.434-.695-.025-.15-.776a2.186,2.186,0,0,1-1.722.8,1.43,1.43,0,0,1-1.451-1.43l-.037-.512a1.007,1.007,0,0,1,1.172-1.189l1.8.059-.024-.386c-.048-.612-.254-.812-.946-.834-.442-.013-1.2.024-1.891.064Zm.943,3.434c.034.482.248.69.695.705A2.067,2.067,0,0,0,264,161.95l-.057-.89-1.632-.055c-.41.006-.512.234-.486.607Z" transform="translate(-246.722 -155.953)"/><path class="d" d="M268.907,160.912l.088,1.772-.68-.024-.09-1.77-1.716-.057-.041-.734,1.708.055-.093-1.8.7.02.089,1.8,1.731.056.033.738Z" transform="translate(-245.203 -155.93)"/><path class="d" d="M276.111,163.683a4.481,4.481,0,0,1-1.609.215c-1.619-.061-2.232-.775-2.307-2.7-.075-1.952.5-2.641,2.129-2.591a4.567,4.567,0,0,1,1.567.308l-.106.643c-.434-.045-.944-.081-1.27-.092-1.063-.033-1.411.36-1.359,1.764s.425,1.807,1.48,1.845a8.194,8.194,0,0,0,1.369-.064Z" transform="translate(-243.644 -155.861)"/><path class="d" d="M280.329,161.487c.034,1.927-.561,2.625-2.2,2.563s-2.254-.8-2.309-2.715c-.055-1.942.535-2.666,2.185-2.617S280.294,159.533,280.329,161.487Zm-3.535-.118c.037,1.394.345,1.815,1.317,1.85s1.265-.367,1.237-1.765c-.029-1.428-.34-1.845-1.322-1.876S276.757,159.944,276.794,161.368Z" transform="translate(-242.654 -155.831)"/><path class="d" d="M281.222,161.7a1.354,1.354,0,0,1-1.107-1.488c-.018-1.166.537-1.423,1.878-1.373a14.661,14.661,0,0,1,2.059.243l-.074.737c-.6-.039-1.227-.09-1.828-.109-.858-.027-1.122-.024-1.115.532.008.493.233.542.686.692l1.36.4a1.331,1.331,0,0,1,1.133,1.47c.009,1.246-.638,1.439-2.064,1.386a12.235,12.235,0,0,1-1.889-.215l.056-.741c.438.057,1.013.089,1.629.112,1.046.037,1.349-.056,1.345-.575-.005-.468-.28-.531-.733-.671Z" transform="translate(-241.483 -155.798)"/><path class="d" d="M286.016,159.2a15.077,15.077,0,0,1,2.384-.173c1.142.034,1.745.459,1.731,1.769l-.037,3.582-.761-.028-.1-.809a2.645,2.645,0,0,1-1.951.827,1.4,1.4,0,0,1-1.476-1.494v-.533c0-.82.5-1.266,1.38-1.238l1.966.065,0-.4c-.005-.639-.215-.848-.97-.87-.484-.015-1.317.023-2.078.062Zm.762,3.584c0,.5.216.718.705.736a2.5,2.5,0,0,0,1.652-.653l.008-.928-1.783-.06c-.449.005-.58.243-.58.631Z" transform="translate(-239.932 -155.747)"/><path class="d" d="M292.121,160.483l.015-.77,4.546.14-.023.775Zm-.042,2.244.014-.764,4.523.154-.023.767Z" transform="translate(-238.221 -155.559)"/><path class="d" d="M299.868,165.216l.234-5.75a3.712,3.712,0,0,1,.081-.676l-1.766.507-.094-.822,1.849-.717,1.058.029-.323,7.467Z" transform="translate(-236.518 -156.092)"/></g><g transform="translate(0 10.001)"><path class="d" d="M248.582,141.378a1.562,1.562,0,0,1-1.312-1.8c.039-1.414.746-1.732,2.417-1.689a18.923,18.923,0,0,1,2.568.265l-.123.9c-.756-.041-1.535-.094-2.288-.109-1.072-.022-1.4-.015-1.422.662-.017.6.265.657.826.836l1.693.473c.974.293,1.4.7,1.369,1.794-.039,1.546-.868,1.793-2.676,1.741a15.514,15.514,0,0,1-2.382-.247l.112-.918c.55.065,1.275.1,2.051.12,1.322.036,1.71-.083,1.728-.725.015-.578-.331-.652-.9-.82Z" transform="translate(-247.251 -137.882)"/><path class="d" d="M254.641,139.586l.022-.932,5.623.109-.022.94Zm-.066,2.731.022-.932,5.628.134-.02.94Z" transform="translate(-245.254 -137.672)"/></g><g transform="translate(30.383 17.112)"><path class="d" d="M271.34,143.73a12.115,12.115,0,0,1,2.909-.253c1.8.051,2.925.421,2.9,2.13-.017,1.153-.426,1.968-1.7,3.295l-2.666,2.759c.477-.022,1.038-.013,1.5.006l3.107.127-.018,1.324-6.254-.267.014-.851a.706.706,0,0,1,.213-.56l2.657-2.834c1.194-1.218,1.769-2.108,1.754-2.961-.015-.826-.616-.952-1.654-.984a17.4,17.4,0,0,0-2.7.12Z" transform="translate(-271.125 -143.47)"/></g><g transform="translate(18.29)"><path class="d" d="M265.38,130.612c-1.723.817-2.475,2.692-2.535,5.633-.06,2.894.617,4.811,2.314,5.727l-.169.59c-2.4-.96-3.434-2.946-3.364-6.319.071-3.39,1.185-5.339,3.609-6.219Z" transform="translate(-261.622 -130.024)"/><path class="d" d="M265.1,133.3a20.863,20.863,0,0,1,3.127-.277c1.5.011,2.288.521,2.26,2.149l-.078,4.514-1.013-.018-.129-1.024a3.7,3.7,0,0,1-2.605,1.093,1.748,1.748,0,0,1-1.927-1.854l.014-.671c.019-1.026.686-1.6,1.844-1.582l2.594.031.009-.5c0-.794-.274-1.047-1.268-1.058-.634-.005-1.729.064-2.729.132Zm.928,4.445c-.013.634.272.9.919.913a3.512,3.512,0,0,0,2.2-.865l.02-1.166-2.357-.032c-.593.019-.77.319-.779.807Z" transform="translate(-260.775 -129.207)"/><path class="d" d="M274.019,136.269l-.036,2.329-.989-.017.037-2.325-2.478-.031.015-.957,2.463.028.037-2.334,1,.009-.036,2.335,2.5.028-.013.966Z" transform="translate(-259.187 -129.223)"/><path class="d" d="M278.016,133.349a6.338,6.338,0,0,1-.158,1.493,3.556,3.556,0,0,1,2.559-1.15c1.671.013,2.456,1,2.428,3.479-.025,2.231-.713,3.5-3.109,3.455a10.79,10.79,0,0,1-3.145-.531l.122-9.1,1.332.005Zm-.078,5.946a7.682,7.682,0,0,0,1.783.232c1.224.008,1.691-.583,1.727-2.373.005-1.722-.252-2.32-1.516-2.331a3.249,3.249,0,0,0-1.947.9Z" transform="translate(-257.541 -129.76)"/><path class="d" d="M282.056,130.055c2.589.928,3.754,2.975,3.721,6.525-.034,3.533-1.245,5.567-3.864,6.456l-.163-.619c1.854-.878,2.652-2.848,2.683-5.867.031-3.066-.725-5.028-2.553-5.887Z" transform="translate(-256.134 -130.016)"/><path class="d" d="M290.254,133.643a8.463,8.463,0,0,1-.111,1.307,5.522,5.522,0,0,1,3.1-1.147,1.716,1.716,0,0,1,1.919,1.89l-.027,5.1-1.422-.025.027-4.7c.005-.859-.228-1.125-.9-1.131a5.285,5.285,0,0,0-2.617.968l-.034,4.8-1.4-.025.073-9.638,1.411.005Z" transform="translate(-254.216 -129.748)"/></g><path class="d" d="M302.016,141.28l-41.868-.948-.016.751,41.88,1Z" transform="translate(-243.739 -127.214)"/><path class="d" d="M287.373,136.372a.692.692,0,1,1-.687-.676A.684.684,0,0,1,287.373,136.372Z" transform="translate(-236.689 -128.478)"/><path class="d" d="M297.422,141.611a.685.685,0,0,1-.724.666.717.717,0,0,1-.717-.7.686.686,0,0,1,.723-.666A.718.718,0,0,1,297.422,141.611Z" transform="translate(-233.965 -127.055)"/><g transform="translate(65.879 9.41)"><path class="d" d="M300.352,138.611a5.638,5.638,0,0,1,3.267-1.192,1.794,1.794,0,0,1,2.01,1.951v5.219l-1.481-.038,0-4.809c0-.881-.243-1.154-.942-1.167a5.7,5.7,0,0,0-2.721.984l-.01,4.9-1.461-.038.018-6.885,1.231.019Z" transform="translate(-299.016 -137.418)"/></g></g><path class="f" d="M231.25,201.5l214.759,6.681v6.46L231.78,205.466Z" transform="translate(-208.024 -51.116)"/></g><g transform="translate(189.952 133.39)"><path class="i" d="M455.026,138.283,452.334,145a11.659,11.659,0,0,0-2.512.615l-5.872-4.487-4.179,4.8,4.025,5a10.709,10.709,0,0,0-1.1,3.127l-6.9,2.463,2.052,5.948,6.333-.692a11.165,11.165,0,0,0,2.1,2.436l-1.307,6.871,6.615,2.231,3-6.231a11.681,11.681,0,0,0,3.308-.666l5.308,4.615,4.461-4.538-3.692-5.231a10.826,10.826,0,0,0,1.332-4.436l6.9-2.974-2.41-5.82-6.82,1.205a11.383,11.383,0,0,0-2.05-2l.871-7.155ZM453.873,150a6.057,6.057,0,1,1-6.307,6.051A6.184,6.184,0,0,1,453.873,150Z" transform="translate(-79.884 -118.408)"/><path class="n" d="M170.572,143.031l-6.826-.444-.318,4.874a3.171,3.171,0,0,0,3.007,3.324l.407.025a3.171,3.171,0,0,0,3.413-2.905Z" transform="translate(-154.146 -117.235)"/><path class="o" d="M183.537,136.949a13.721,13.721,0,1,0-14.558,12.471A13.556,13.556,0,0,0,183.537,136.949Z" transform="translate(-156.133 -122.666)"/><path class="d" d="M177.544,135.646a8.926,8.926,0,1,0-9.488,8.343A8.934,8.934,0,0,0,177.544,135.646Z" transform="translate(-155.157 -121.724)"/><path class="o" d="M167.451,132.682h0a1.241,1.241,0,0,0-1.318,1.159l-.528,8.122a1.241,1.241,0,0,0,1.156,1.322h0a1.244,1.244,0,0,0,1.32-1.162l.528-8.121A1.241,1.241,0,0,0,167.451,132.682Z" transform="translate(-153.551 -119.936)"/><g transform="translate(252.25 207.439)"><path class="p" d="M357.981,303.592s16.473-8.865,27.913-5.41,21.87,14.577,21.87,14.577L381.548,326.6Z" transform="translate(-353.35 -282.469)"/><path class="o" d="M361.86,312.345l4.429-26.681,39.642,8.56-5.138,27.784S375.4,348.1,361.86,312.345Z" transform="translate(-352.292 -285.664)"/><path class="q" d="M358.969,302.242,354.342,330.9l47.615,9.12,6.832-28.591s-18.987,4.6-26.528,13.342C382.26,324.772,372.977,308.339,358.969,302.242Z" transform="translate(-354.342 -281.144)"/><path class="d" d="M368.1,293.323l29.4,5.476-.26,1.394-29.4-5.476Z" transform="translate(-350.661 -283.576)"/><path class="d" d="M370.068,299.673l22.441,4.179-.26,1.395-22.441-4.179Z" transform="translate(-350.125 -281.845)"/><path class="d" d="M369.293,296.624l24.553,4.574-.266,1.429-24.553-4.573Z" transform="translate(-350.338 -282.676)"/><path class="d" d="M372.013,302.828l15.619,2.909-.266,1.429-15.621-2.909Z" transform="translate(-349.597 -280.984)"/></g></g><g transform="translate(53.186 89.272)"><path class="b" d="M48.667,92.666,148.357,88V191.933L64.787,211.447Z" transform="translate(-48.667 -88)"/><path class="d" d="M55.583,99.258,65.446,150.8l32.771-4.454L95.354,97.667Z" transform="translate(-46.781 -85.364)"/><path class="d" d="M64.333,148.2,139,137.167l-.212,4.03L64.758,152.863Z" transform="translate(-44.395 -74.595)"/><path class="d" d="M64.333,155.7,139,144.667l-.212,4.03L64.758,160.363Z" transform="translate(-44.395 -72.55)"/><path class="d" d="M64.833,163.7,139.5,152.667l-.212,4.03L65.258,168.363Z" transform="translate(-44.259 -70.369)"/><path class="d" d="M92,137.053l37.543-4.242.212-3.394L92,133.659Z" transform="translate(-36.852 -76.708)"/><path class="d" d="M91.5,131.053l37.543-4.242.212-3.394L91.5,127.659Z" transform="translate(-36.988 -78.344)"/><path class="d" d="M91.833,125.386l37.543-4.242.212-3.394-37.755,4.242Z" transform="translate(-36.897 -79.889)"/><path class="d" d="M91.333,119.386l37.543-4.242.212-3.394-37.755,4.242Z" transform="translate(-37.034 -81.525)"/><path class="d" d="M91.333,113.386l37.543-4.242.212-3.394-37.755,4.242Z" transform="translate(-37.034 -83.161)"/><path class="d" d="M90.833,107.386l37.543-4.242.212-3.394-37.755,4.242Z" transform="translate(-37.17 -84.796)"/><path class="r" d="M66.621,128.756,64.5,135.119l14.635,6.575,11.454-39.028-4.878-2.333L75.53,134.907Z" transform="translate(-44.35 -84.637)"/></g><g transform="translate(55.212 178.209)"><g transform="translate(0 194.497)"><path class="s" d="M85.392,365.5s9.439.849,12.833,2.863-12.2,5.514-20.151,5.514S85.392,365.5,85.392,365.5Z" transform="translate(-43.3 -295.774)"/><path class="g" d="M100.248,368.25l-3.182,30.066s-4.772,3.818-13.363,3.022-9.7-2.7-9.7-2.7l-3.5-26.726Z" transform="translate(-44.74 -295.024)"/><path class="t" d="M78,367.173s-12.072-3.159-13.157-7.687,3.436-5.313,9.8-2,4.5-5.737-2.646-8.019S57.9,337.4,62.6,335.274s12.88,6.779,15.11,7.586,3.174-6.82-4.976-10.778-12.459-17.421-5.77-20.852,14.872,11.031,19.356,17.6,4.03,12.555,6.868,13.078-1.424-8.888,4.234-13.1,8.99,6.381,8.214,13.262S94.6,357.244,96.8,359.25s4.734-9.181,9.332-7.113,3.224,8.934-.881,16.931a40.633,40.633,0,0,1-11.285,13.065s-17.108.164-19.946-6.209,3.92-6.652,9.233-3.216S81,366.949,78,367.173Z" transform="translate(-47.311 -310.711)"/><path class="u" d="M76.2,374.393s-10.708.793-12.854-2.592,1.317-5.283,7.423-4.36,2.063-5.924-4.389-5.792-14.838-5.892-11.6-8.938,12.375,1.931,14.417,1.966.683-6.438-7.056-7.389-15-10.712-10.508-15.368,15.181,4.836,20.661,8.933,6.782,9.1,9.237,8.733-3.636-6.839-.2-11.842,9.1,2.69,10.382,8.509-4.758,15.43-2.409,16.449,1.3-8.794,5.616-8.392,5.115,6.376,4,14.03a34.964,34.964,0,0,1-5.547,13.783s-13.882,4.9-17.97.5,1.339-6.508,6.622-5.191S78.59,373.374,76.2,374.393Z" transform="translate(-50.259 -305.272)"/></g><g transform="translate(38.049)"><path class="g" d="M148.01,181.938s-13.761,10.5-11.454,13.2,14.476-4.694,16.623-7.716S148.01,181.938,148.01,181.938Z" transform="translate(-64.85 -151.324)"/><path class="s" d="M368.483,289.5l-14,100.539s-15.272,35-95.449,43.27-141.264-17.181-141.264-17.181L102.5,325.134Z" transform="translate(-74.065 -121.998)"/><path class="s" d="M106.5,254.477l7.318,53.133,6.681-.636-8.909-54.724Z" transform="translate(-72.974 -132.154)"/><path class="s" d="M89.306,233.969c-3.791,8.242,0,28.635,11.03,34.574S123.455,259,127.485,257.3s22.059,8.272,28,1.273,5.555-19.592-.424-36.27C151.029,211.061,99.063,212.758,89.306,233.969Z" transform="translate(-78.051 -142.189)"/><path class="v" d="M200.984,264.337a26.092,26.092,0,0,1-15.927-11.371c-6.362-9.74,5.939-17.8,5.939-17.8s13.363,1.909,13.363,2.757S200.984,264.337,200.984,264.337Z" transform="translate(-52.054 -136.812)"/><path class="l" d="M162.523,212.762c-3.539-8.555,6.8-16.136,13.836-10.116l.308.266c10.3,8.879,35.644,45.668,35.644,45.668L190.9,262.422S172,235.659,162.523,212.762Z" transform="translate(-57.895 -146.268)"/><path class="m" d="M194.09,269.056l-10.133-64.869s-5.4-4.65-6.259-7.757-4.215-4.912-3.033-5.861,5.393,2.6,5.749,3.91c0,0,2.367-7.484,3.642-8.3s2.334.382,2.1,1.826c0,0,1.329-1.15,2.107-1.023s1.354,1.478,1.432,2.4a28.88,28.88,0,0,1,4.394,3.117c1.17,1.218-.784,11.052-.784,11.052s16.305,47.4,17.262,58.964-7.178,15.253-7.178,15.253S195.7,275.937,194.09,269.056Z" transform="translate(-54.457 -150.241)"/><path class="h" d="M160.463,195.875s-18.586,2.281-23.888,27.308S130,314.708,130,314.708l70-15.59s4.03-66.39-8.909-88.025c-7.515-12.566-15.908-12.3-15.908-12.3Z" transform="translate(-66.567 -147.524)"/><path class="w" d="M388.362,304.045c-151.232,79.964-173.043,37.331-252.408,37.331s-70.632-26.726,4.454-45.815c84.761-21.55,93.083-26.671,172.444-25.877C408.3,270.638,400.582,297.584,388.362,304.045Z" transform="translate(-80.156 -127.422)"/><path class="k" d="M179.939,299.38l-.314,2.608,33.248,8.909s13.681-12.408,25.93-14.317l2.545-1.114s5.25-3.659,8.909-4.772a34.174,34.174,0,0,1,7.477-1.273l-.318-2.545s-12.408.954-18.931,6.841c0,0-17.181,3.022-25.93,13.2Z" transform="translate(-53.037 -122.714)"/><path class="x" d="M197.778,286.079l-7.716-11.533,2.625-1.671s8.935,11.216,8.962,11.613S200.879,287.192,197.778,286.079Z" transform="translate(-50.191 -126.531)"/><path class="h" d="M194.423,281.874a1.134,1.134,0,0,0-1.378-.213l-2.121-3.5s.345-.515.756-1.049c1.033-.692,3.182-2.279,3.182-2.279l-1.432-2.174-.583.318s-1.644-2.121-3.023-2.227-.531,2.758.265,3.924l-.8.477.634.779a3.93,3.93,0,0,0,.2,3.239c1.061,1.961,3.076,3.977,3.925,4.136S195.219,282.51,194.423,281.874Z" transform="translate(-50.456 -127.111)"/><path class="x" d="M205.6,289.458l1.537,2.493.263,3.793a.015.015,0,0,1-.022.015l-3.159-1.21-2.386-2.757Z" transform="translate(-46.982 -122.009)"/><path class="m" d="M172.635,167.306c1.717,2.655,3.076,7.636,4.878,11.666s6.576,3.712,6.576,3.712l-2.44,4.56s.743,8.272-2.545,11.559-9.65,2.545-9.65,2.545l-2.7,8.8L154.5,204.32l2.227-10.712s-2.651-15.7,1.485-22.8S170.557,164.1,172.635,167.306Z" transform="translate(-59.887 -155.916)"/><path class="f" d="M149.645,192.658s-10.764-8.378-4.613-21.741,20.1-18.348,31.126-5.833Z" transform="translate(-62.986 -157.883)"/><path class="l" d="M173.676,167.329s-.239,5.33-9.863,8.193c0,0,1.909,4.931-.239,8.909,0,0-.636-2.944-3.42-2.625s-5.409,4.772-3.182,7.636.715,9.068.715,9.068-4.931-.954-9.465-7.795c-4.517-6.815,25.771-27.839,25.771-27.839,4.931,2.969,5.01,5.25,2.7,10.022C176.7,172.9,175.585,168.523,173.676,167.329Z" transform="translate(-61.723 -156.522)"/><path class="l" d="M164.708,174.561s.531-2.7,2.334-2.97a2.238,2.238,0,0,1,2.438,1.114A7.324,7.324,0,0,0,164.708,174.561Z" transform="translate(-57.104 -154.155)"/><path class="l" d="M169.958,177.526c.065,1.257-.274,2.3-.756,2.323s-.926-.975-.991-2.234.275-2.3.757-2.321S169.894,176.269,169.958,177.526Z" transform="translate(-56.151 -153.136)"/><path class="y" d="M180.2,301.391l33.609,8.181s11.719-11.277,24.986-12.824c0,0,9.065-6.855,18.794-7.076l-.443-4.2-29.187-5.97a38.066,38.066,0,0,0-20.121,8.4s-22.112,1.99-29.188,9.951Z" transform="translate(-53.301 -124.724)"/><path class="z" d="M204.167,287.16,231,293.628S214.03,283.66,204.167,287.16Z" transform="translate(-46.345 -122.839)"/><path class="l" d="M176.235,185.41l-5.568,2.122S172.946,183.926,176.235,185.41Z" transform="translate(-55.479 -150.475)"/><path class="l" d="M154.972,194.688l12.169,7.318s-3.341,3.659-7.795,1.75-5.409-7.557-5.409-7.557Z" transform="translate(-60.04 -147.848)"/><path class="m" d="M230.355,298.466c-.213-1.909-6.258-8.7-8.59-8.378s-17.606,3.394-17.606,3.394l-70.207-15.7,8.483-21.635-20.574-3.818s-8.272,29.06-4.667,38.179,84.631,15.06,84.631,15.06c5.409,3.075,18.03,3.924,20.044,3.5a5.126,5.126,0,0,0,3.076-2.334c1.8-.318,1.8-2.757,1.8-2.757,2.44-.954,1.591-3.607,1.591-3.607S230.566,300.375,230.355,298.466Z" transform="translate(-70.306 -132.131)"/><path class="l" d="M168.357,201.568c1.353-.954.557-3.738-2.624-5.568l-1.671,5.409S167.006,202.522,168.357,201.568Z" transform="translate(-57.28 -147.49)"/><path class="l" d="M141.42,211.763c4.676-7.99,16.968-4.33,16.42,4.911-.008.135-.015.27-.024.406-.849,13.575-14.848,56-14.848,56L119,264.381S128.9,233.149,141.42,211.763Z" transform="translate(-69.566 -144.391)"/><g transform="translate(41.798 161.457)"><path class="h" d="M114.641,314.174l30.089,4.147,28.684-6.575-.16-7-26.28-3.058-33.111,2.83Z" transform="translate(-112.764 -280.132)"/><path class="k" d="M114.391,307.112l30.089,4.147,27.371-6.135v-8.909l-25.126-1.591-33.111,2.83Z" transform="translate(-112.832 -282.058)"/><path class="x" d="M113.848,300.128l30.119,3.924,28.635-6.787-.212-7-27.574-5.515L113,290.477Z" transform="translate(-113 -284.75)"/><path class="y" d="M115.412,305.745l.907,6.37,24.658,3.659-.159-5.886Z" transform="translate(-112.342 -279.026)"/><path class="y" d="M115.287,298.12l.907,6.37,26.193,4.3-.581-7.481Z" transform="translate(-112.376 -281.105)"/><path class="y" d="M114.25,291.25l.636,5.727,28.051,3.977-.689-5.568Z" transform="translate(-112.659 -282.978)"/></g><path class="l" d="M212.5,311.053l5.621-1.8,1.7,3.076-4.878,2.333Z" transform="translate(-44.073 -116.613)"/><path class="aa" d="M235.9,303.5l4.242.424-2.015,2.545-19.514,7.424-1.7-3.076Z" transform="translate(-42.869 -118.181)"/><path class="y" d="M255.745,300.316a44.314,44.314,0,0,1-6.1-.331c-3.322-.445-6.694-1.438-6.312-3.7.5-2.838,3.818-3.513,6.083-3.627a15.166,15.166,0,0,1,2.087.025l3.92.2Z" transform="translate(-35.674 -121.144)"/><path class="ab" d="M157.1,181.191s-10.6-13.363-5.091-20.575c0,0-.424-1.06-2.227-.213s-8.485,10.181,2.651,24.393Z" transform="translate(-62.165 -157.285)"/><path class="h" d="M254.435,300.316a44.314,44.314,0,0,1-6.1-.331l-.229-7.33a15.166,15.166,0,0,1,2.087.025l3.92.2Z" transform="translate(-34.365 -121.144)"/><path class="ac" d="M164.291,189.824c-4.835,7.229-14.3,2.074-13.447-8.9S170.541,180.479,164.291,189.824Z" transform="translate(-60.898 -152.879)"/><path class="ab" d="M158.94,186.972c-2.583,3.862-7.64,1.108-7.184-4.756S162.278,181.98,158.94,186.972Z" transform="translate(-60.643 -151.931)"/><path class="g" d="M168.38,205.722c.066,1.276-.631,2.352-1.56,2.4s-1.736-.946-1.8-2.223.631-2.352,1.559-2.4S168.312,204.445,168.38,205.722Z" transform="translate(-57.021 -145.446)"/><path class="g" d="M169.63,211.722c.066,1.276-.631,2.352-1.56,2.4s-1.736-.946-1.8-2.223.631-2.352,1.559-2.4S169.562,210.445,169.63,211.722Z" transform="translate(-56.68 -143.811)"/><path class="aa" d="M257,307.226,287.544,291l5.727,1.591-30.544,17.181Z" transform="translate(-31.941 -121.589)"/></g><g transform="translate(232.459 99.097)"><path class="x" d="M251.065,276.642l8.8-40.892,55.942,3.692-9.087,42.312Z" transform="translate(-227.969 -235.75)"/><path class="x" d="M256.581,267.733l-23.664,8.33.379,3.029,56.226,11.359,21.392-13.063.757-4.354Z" transform="translate(-232.917 -227.03)"/><path class="y" d="M253.5,273.483l47.936,6.151,8.484-36.27-48.573-4.03Z" transform="translate(-227.305 -234.773)"/><path class="aa" d="M256.624,268.75l46.849,6.6-17.419,9.863L236.5,276.068Z" transform="translate(-231.94 -226.753)"/><path class="ad" d="M277.408,256.113l-17.075-1.485,2.333-11.878,16.863,1.06Z" transform="translate(-225.442 -233.841)"/><g transform="translate(43.484 19.463)"><path class="j" d="M278.172,257.836l-3.112,4.319-5.511-3.733-1.063,1.733s5.676,5.27,6.376,5.4,3.58-3.025,3.58-3.025Z" transform="translate(-266.702 -249.192)"/><path class="k" d="M284.259,258.21l1.535,1.14s-2.945,5.33-3.271,10.1l-7-1.709a91.783,91.783,0,0,1,.727-9.8,7.532,7.532,0,0,1,3.272-.517c.345-.006,1.009.7,1.312.736A15.421,15.421,0,0,0,284.259,258.21Z" transform="translate(-264.783 -249.302)"/><path class="d" d="M278.892,257.952l-.587,6.092,3.141-6.189s-2.124.305-2.484-.615Z" transform="translate(-264.025 -249.354)"/><path class="j" d="M281.519,256.874s1.539,1.568.942,2.479a3.515,3.515,0,0,1-1.727,1.254,2.329,2.329,0,0,1-.645,2.309,7.662,7.662,0,0,1-1.928,1.643Z" transform="translate(-264.065 -249.454)"/><path class="l" d="M280.926,251.1a2.55,2.55,0,0,0-2.48.836c-.884,1.2-.519,1.863-.519,1.863a2.134,2.134,0,0,0-1.041,1.915,2.213,2.213,0,0,0-.666,2.987c1.1,1.741,2.816,1.465,3.868-.277a37.814,37.814,0,0,0,2.338-6.339S282.427,251.61,280.926,251.1Z" transform="translate(-264.692 -251.044)"/><path class="m" d="M277.828,256.16c.276,1.017,1.582,1.262,1.582,1.262l-.02,1.019,1.689.089.778-4.458s-1.5-1.873-2.914-2C278.614,252.041,277.175,253.764,277.828,256.16Z" transform="translate(-264.201 -250.764)"/><path class="l" d="M278.658,252.414a3.107,3.107,0,0,0,.822,1.831,3,3,0,0,0,.921.542s-.36,1.012.073,1.434l.433.421s-.933,2.554.219,3.537a1.9,1.9,0,0,0,3.1-.755,2.459,2.459,0,0,0-.535-2.46,1.886,1.886,0,0,0,.286-1.679,2.644,2.644,0,0,0-1.093-1.143,2.071,2.071,0,0,0-.47-2.191C281.431,251.115,278.854,251.37,278.658,252.414Z" transform="translate(-263.929 -250.932)"/><path class="j" d="M279.426,257.122l-.9,7.105a2.683,2.683,0,0,1-.195-3.361s-1.36-1.989-.532-3.226S279.426,257.122,279.426,257.122Z" transform="translate(-264.237 -249.443)"/><path class="j" d="M284.209,258.939l.634,7.763,5.257-1.061.244,2.035s-5.432,1.994-6.914,1.717-2.091-4.313-2.091-4.313S281.681,259.46,284.209,258.939Z" transform="translate(-263.198 -248.891)"/><path class="j" d="M275.6,265.533l6.994,1.424-.048,1.469-7.282-1.478Z" transform="translate(-264.855 -247.093)"/><path class="k" d="M274.271,269.457l1.261-2.812,7.282,1.478.676,2.457Z" transform="translate(-265.125 -246.79)"/><path class="m" d="M288.079,264.592a2.513,2.513,0,0,1,.952-.895,2.758,2.758,0,0,1,1.324-.186c.1.01-.127.429-.464.438a16.321,16.321,0,0,1,1.89.481c.249.235-.2.3-.2.3s.443.213.345.35-.5.14-.5.14.411.1.183.271a1.042,1.042,0,0,1-.5.182s.248.256-.137.323-2.262.3-2.262.3A1.113,1.113,0,0,1,288.079,264.592Z" transform="translate(-261.407 -247.648)"/><path class="m" d="M270.379,259.019s-.687-1.05-.892-1.257a.669.669,0,0,0-.767-.125,6.529,6.529,0,0,0-1.457-.856c-.232.032-.358.4.411.923,0,0-.271.345-.134.615,0,0-.249.424-.116.618,0,0-.162.158.111.509a3.394,3.394,0,0,0,1.044.854c.344.177.864.407,1.256.122S270.694,259.248,270.379,259.019Z" transform="translate(-267.085 -249.48)"/></g></g><g transform="translate(170.101 296.174)"><g transform="translate(31.603 31.205)"><ellipse class="ae" cx="7.556" cy="7.715" rx="7.556" ry="7.715"/><path class="af" d="M219.287,422.507a2.565,2.565,0,1,1-2.519-3.049A2.822,2.822,0,0,1,219.287,422.507Z" transform="translate(-207.25 -413.944)"/></g><g transform="translate(78.267 15.297)"><ellipse class="ae" cx="7.556" cy="7.715" rx="7.556" ry="7.715"/><path class="af" d="M255.954,410.007a2.565,2.565,0,1,1-2.519-3.049A2.822,2.822,0,0,1,255.954,410.007Z" transform="translate(-243.917 -401.444)"/></g><g transform="translate(12.195 25.716)"><ellipse class="ae" cx="7.556" cy="7.715" rx="7.556" ry="7.715"/><path class="af" d="M204.037,418.2a2.565,2.565,0,1,1-2.519-3.049A2.822,2.822,0,0,1,204.037,418.2Z" transform="translate(-192 -409.631)"/></g><path class="k" d="M279.878,399.571c-3.233,7.267-14.763,14.126-32.16,21.24s-53.655,7.241-62.958.382c-1.26-.916-1.056-2.1.267-3.462,8.565-8.718,64.052-24.766,83.142-26.777,1.934-.2,3.627-.318,5.1-.344a.615.615,0,0,1,.153,0,20.128,20.128,0,0,1,4.378.331c2.214.5,3.271,1.527,3.449,3.092v.013C281.431,395.447,280.9,397.293,279.878,399.571Z" transform="translate(-183.917 -390.606)"/><path class="g" d="M281.015,394.035v.013c-2.9,6.1-22.488,21.317-48.233,26.967-23.748,5.218-42.15-.9-47.992-3.283,8.565-8.718,64.052-24.766,83.142-26.777,1.934-.2,3.627-.318,5.1-.344a.615.615,0,0,1,.153,0c1.68.076,3.156.178,4.378.331,2.138.28,3.5.687,3.729,1.285A2.358,2.358,0,0,1,281.015,394.035Z" transform="translate(-183.68 -390.606)"/></g></g></g></svg>