<svg xmlns="http://www.w3.org/2000/svg" width="43.917" height="46" viewBox="0 0 43.917 46"><defs><style>.a{fill:#f6921e;}.b{fill:#ffc107;}.c{fill:#ec297b;}.d{fill:#fff;font-size:15px;font-family:Montserrat-SemiBold, Montserrat;font-weight:600;}</style></defs><g transform="translate(0 -4)"><path class="a" d="M142.728,348.7a7.364,7.364,0,1,1-7.364-7.364A7.364,7.364,0,0,1,142.728,348.7Zm0,0" transform="translate(-116.955 -306.06)"/><path class="b" d="M31.31,60.932a12.856,12.856,0,0,1-9.969-17.914A12.843,12.843,0,0,0,5.523,55.554v5.132a12.344,12.344,0,0,1-4.4,9.449A3.221,3.221,0,0,0,3.221,75.8H33.6a3.222,3.222,0,0,0,2.077-5.685,12.326,12.326,0,0,1-4.363-9.188Zm0,0" transform="translate(0 -33.168)"/><path class="c" d="M298.166,10.417A10.417,10.417,0,1,1,287.749,0,10.417,10.417,0,0,1,298.166,10.417Zm0,0" transform="translate(-254.249 4)"/><text class="d" transform="translate(36.624 19)"><tspan x="-5.715" y="0">1</tspan></text></g></svg>