<svg xmlns="http://www.w3.org/2000/svg" width="36.819" height="40.5" viewBox="0 0 36.819 40.5">
  <g id="Group_2429" data-name="Group 2429" transform="translate(0 -9.5)">
    <path id="Path_1129" data-name="Path 1129" d="M142.728,348.7a7.364,7.364,0,1,1-7.364-7.364A7.364,7.364,0,0,1,142.728,348.7Zm0,0" transform="translate(-116.954 -306.06)" fill="#f6921e"/>
    <path id="Path_1130" data-name="Path 1130" d="M31.31,60.932a12.856,12.856,0,0,1-9.969-17.914A12.843,12.843,0,0,0,5.523,55.554v5.132a12.344,12.344,0,0,1-4.4,9.449A3.221,3.221,0,0,0,3.221,75.8H33.6a3.222,3.222,0,0,0,2.077-5.685,12.326,12.326,0,0,1-4.363-9.188Zm0,0" transform="translate(0 -33.168)" fill="#ffc107"/>
    <path id="Path_1742" data-name="Path 1742" d="M5.508,60.932a12.9,12.9,0,0,0,11.06-12.741,12.8,12.8,0,0,0-1.091-5.173A12.843,12.843,0,0,1,31.3,55.554v5.132a12.344,12.344,0,0,0,4.4,9.449A3.221,3.221,0,0,1,33.6,75.8H3.222A3.222,3.222,0,0,1,1.145,70.12a12.326,12.326,0,0,0,4.363-9.188Zm0,0" transform="translate(0 -33.168)" fill="#ffc107"/>
  </g>
</svg>
