<svg xmlns="http://www.w3.org/2000/svg" width="820.301" height="603.814" viewBox="0 0 820.301 603.814"><defs><style>.a{fill:#e7fbfc;}.b{fill:#dfebfd;}.c{fill:#bed7fb;}.d{fill:#9ec3f6;}.e{fill:#cde0fb;}.f{fill:#fff;}.g{fill:#adcbf9;}.h,.l{fill:#d86713;}.i{fill:#f99746;}.j{fill:#ee9849;}.k{fill:#f1a34f;}.l{opacity:0.4;}.m{fill:#699dee;}.n{fill:#e9f3fe;}.o{fill:#afcdfb;}.p{fill:#2b478b;}.q{fill:#233862;}.r{fill:#c65447;}.s{fill:#ffb27d;}.t{fill:#e2915a;}.u{fill:#fcecdb;}.v{fill:#548ee2;}.w{fill:#f4d2b8;}.x{fill:#568cdb;}.y{fill:#b5453c;}.z{fill:#ed7d2b;}.aa{fill:#ed975d;}.ab{fill:#ebf3ff;}.ac{fill:#2e3552;}.ad{fill:#e3c9fb;}.ae{fill:bisque;}.af{fill:#f8cfe0;}.ag{fill:#f8f4bf;}.ah{fill:#8f10ff;}.ai{fill:#f6921e;}.aj{fill:#ec297b;}.ak{fill:#a7c7d3;}.al{fill:#89b4c9;}.am{fill:#6c96b3;}.an{fill:#618aaa;}.ao{fill:#2f5066;}.ap{fill:#fdb659;}.aq{fill:#83d9ff;}.ar{fill:#5fc9ed;}.as{fill:#38627c;}.at{fill:#4f7693;}.au{fill:#fecbaa;}</style></defs><g transform="translate(-101.819 39.106)"><path class="a" d="M5806.072,6559.212h752.2s34.1-65.955,4.2-133.935-34.788-99.119-33.566-123.68,15.257-105.7,10.375-123.241-16.9-116.86-86-169.486-176.37-60.779-232.065-5.188S6122.2,6209.735,6033.494,6200.1s-71.558-58.146-126.484-46.744-240.646,127.778-102.478,404.076A7.806,7.806,0,0,0,5806.072,6559.212Z" transform="translate(-5652.634 -5994.503)"/><g transform="translate(210.791 439.264)"><rect class="b" width="82.245" height="82.245" transform="matrix(0.736, -0.677, 0.677, 0.736, 0, 55.696)"/><rect class="c" width="82.245" height="16.564" transform="matrix(0.736, -0.677, 0.677, 0.736, 0, 55.696)"/></g><g transform="translate(421.163 177.457)"><path class="d" d="M1337.7,316.108l41.5,5.919-27.537-18.769-1.4,6.017-10.091,1.828Z" transform="translate(-1310.822 -292.694)"/><path class="e" d="M1299.995,319.856l-34.531-17.8-33.844-1.7Z" transform="translate(-1231.62 -290.523)"/><path class="e" d="M1392.791,272.129l27.537,18.769-21.317-29.333Z" transform="translate(-1351.953 -261.565)"/></g><g transform="translate(615.917 224.435)"><path class="f" d="M2191.8,661.273l-10.437,7.49-10.491-7.409a12.847,12.847,0,0,1,20.929-.081Z" transform="translate(-2127.635 -602.974)"/><g transform="translate(28.338 34.693)"><path class="f" d="M2137.462,583.886a31.018,31.018,0,0,0-25.391,13.2l6.625,4.651a22.944,22.944,0,0,1,37.423-.135l6.6-4.732A31.049,31.049,0,0,0,2137.462,583.886Z" transform="translate(-2112.071 -583.886)"/></g><g transform="translate(0 0)"><path class="f" d="M2053.961,446.969a65.635,65.635,0,0,0-53.729,27.906l6.625,4.651a57.612,57.612,0,0,1,93.964-.351l6.571-4.732A65.639,65.639,0,0,0,2053.961,446.969Z" transform="translate(-2000.233 -446.969)"/></g><g transform="translate(15.413 18.982)"><path class="f" d="M2099.378,521.884a46.951,46.951,0,0,0-38.315,19.793l6.624,4.651a38.925,38.925,0,0,1,63.22-.243l6.571-4.705A46.944,46.944,0,0,0,2099.378,521.884Z" transform="translate(-2061.063 -521.884)"/></g></g><path class="g" d="M472.956,418.863l-9.569-.22c3.075,3.985,3.765,7.655,1.851,10.761-1.914,3.169-6.494,5.773-13.334,7.749A123.655,123.655,0,0,0,282.578,282.512l-.016.008c-5.315-1.622-10.492-2.951-15.488-3.963-25.215-5.117-43.109-1.581-50.378,9.958-6.917,10.974-3.151,27.493,10.574,46.76l-.005.009a124.5,124.5,0,0,0-8.189,18.824c-25.789,1.537-39.594,6.076-44.614,14.3-5.835,9.569,2.133,22.412,27.641,34.9,3.514,1.726,7.279,3.42,11.232,5.114A123.609,123.609,0,0,0,449.457,443.21c12.581-2.6,20.864-6.683,24.158-12.079C475.905,427.4,475.623,423.256,472.956,418.863ZM443.433,439.1a190.591,190.591,0,0,1-31.029,2.51,454.616,454.616,0,0,1-63.609-4.286q2.893-6.3,5.664-12.925a174.961,174.961,0,0,0,20.6,5.6,104.345,104.345,0,0,0,20.567,2.287c14.4,0,24.716-4.157,29.811-12.245a21.142,21.142,0,0,0,2.05-4.237h-7.34c-.121.224-.251.444-.386.659-3.785,6.008-12.242,9.111-24.117,9.108a97.963,97.963,0,0,1-19.251-2.151A167.749,167.749,0,0,1,357,418.176q2.651-6.633,5.145-13.5c4.474-12.337,8.3-24.567,11.4-36.311,25.111,3.7,51.346,3.813,76.548,1.913a117.06,117.06,0,0,1,2.4,23.679A115.684,115.684,0,0,1,443.433,439.1ZM290.505,500.366c-3.57-1.295-5.382-6.419-6.274-10.489-1.409-6.433-1.664-15.468-.737-26.129.469-5.392,1.222-11.125,2.237-17.12a317.952,317.952,0,0,1,43.234,14.959c-3.178,5.48-6.392,10.562-9.606,15.169-6.123,8.777-12.11,15.548-17.316,19.582C298.751,498.89,294.076,501.661,290.505,500.366ZM332.2,455.85a324.492,324.492,0,0,0-45.291-15.684q.811-4.175,1.777-8.49,6.4,1.454,12.969,2.812c12.815,2.621,25.6,4.846,38.115,6.647Q336.05,448.827,332.2,455.85Zm-27.72-26.006q-7.427-1.528-14.627-3.189c2.258-9.394,5.031-19.188,8.269-29.168a286.24,286.24,0,0,0,50.154,24.735q-3.05,7.281-6.255,14.168C329.709,434.625,317.114,432.435,304.478,429.844ZM263.371,303.036c9.355,19.167,27.384,34.959,46.787,45.434-4.7,10.243-9.177,21.174-13.294,32.524q-1.151,3.174-2.243,6.337c-24.588-16.005-45.405-34.37-59.061-52.143l-.006-.007A116.948,116.948,0,0,1,263.371,303.036ZM368.507,285.3c3.57,1.295,5.382,6.419,6.274,10.489,1.409,6.433,1.664,15.468.737,26.129a260.728,260.728,0,0,1-6.829,39.036c-17.1-2.942-34.187-7.793-49.92-15.429a265.6,265.6,0,0,1,20.884-36.615c6.123-8.777,12.11-15.548,17.315-19.582,2.716-2.1,6.371-4.358,9.572-4.358A5.734,5.734,0,0,1,368.507,285.3Zm-1.446,82.014c-3.018,11.356-6.736,23.184-11.067,35.126q-2.5,6.9-5.176,13.576A280.23,280.23,0,0,1,300.3,390.944q1.316-3.848,2.718-7.718c4.024-11.1,8.392-21.774,12.971-31.774C332.014,359.218,349.373,364.232,367.061,367.313ZM418.4,311.627a116.043,116.043,0,0,1,30.178,52.192c-26.833,1.962-51.421,1.346-73.4-1.835a266.29,266.29,0,0,0,6.866-39.5c1.137-13.076,1-28.564-4.3-37.281A115.717,115.717,0,0,1,418.4,311.627Zm-82.294-34.1a116.611,116.611,0,0,1,23.749,2.421c-9.145,3.981-18.482,15.06-25.569,25.22a271.886,271.886,0,0,0-21.337,37.368C294.482,332.5,277.043,317.12,268.707,299A116.008,116.008,0,0,1,336.1,277.523ZM222.374,292.092c3.785-6.008,12.242-9.109,24.118-9.109a97.944,97.944,0,0,1,19.251,2.152q4.047.819,8.256,1.928l.007,0A124.177,124.177,0,0,0,231,328.851l-.006.009C220.5,313.28,217.346,300.069,222.374,292.092Zm9.692,49.528,0-.006c14.38,17.973,35.574,36.347,60.337,52.281-3.511,10.687-6.507,21.19-8.925,31.255-20.532-4.968-44.4-11.993-63.243-19.967a115.913,115.913,0,0,1,11.828-63.564ZM207.814,399.6c-22.244-10.855-32.409-21.334-27.86-28.77,3.671-6.024,17.036-10.1,37.492-11.608a124.24,124.24,0,0,0-4.706,42.7C211.045,401.168,209.414,400.384,207.814,399.6Zm74.5,30.592q-.952,4.245-1.756,8.364-2.141-.519-4.285-1.011c-24.148-5.5-42.268-6.614-50.668-6.8a113.8,113.8,0,0,1-4.579-19.22A461.958,461.958,0,0,0,282.31,430.192Zm-54.275,7.192a262.142,262.142,0,0,1,46.781,6.546q2.277.518,4.551,1.077c-1.092,6.368-1.9,12.454-2.395,18.174-.943,10.837-1.009,23.332,2.013,32.255a117.034,117.034,0,0,1-50.951-58.052ZM300.8,504.934c8.612-4.514,17.265-14.881,23.928-24.433,3.437-4.927,6.872-10.379,10.263-16.264A329.015,329.015,0,0,1,391,496.639,116.6,116.6,0,0,1,300.8,504.934Zm117.6-28.656a115.541,115.541,0,0,1-21.175,16.783,335.889,335.889,0,0,0-59.016-34.555c2.839-5.2,5.636-10.7,8.367-16.43a502.935,502.935,0,0,0,53.657,4.4c4.33.125,8.533.125,12.612.094a224.414,224.414,0,0,0,28.048-1.882A115.666,115.666,0,0,1,418.4,476.278Z" transform="translate(-19.811 -90.682)"/><g transform="translate(210.366 236.89)"><path class="h" d="M1081.321,926.863l-17.09,203.208s-1.791,12.318,7.372,12.34c15.065.036,74.984,0,74.984,0s-11.339-2.564-11.2-8.334c.162-6.8,19.975-209.137,19.975-209.137Z" transform="translate(-895.742 -816.284)"/><path class="i" d="M1165.96,1127.859c-2.963.009-60.193.188-74.864,0-6.394-.079-7.515-5.685-7.568-9.313a18.183,18.183,0,0,1,.194-3.025l.445-5.282,1.132-13.461,1-11.893,1.286-15.283,1.083-12.9,12.144-144.393,74.04-1.922s-8.345,84.677-14.247,146.315c-.659,6.868-1.286,13.453-1.865,19.6q-.283,2.944-.545,5.75c-.547,5.832-1.047,11.187-1.483,15.916-.229,2.492-.441,4.808-.633,6.929-.753,8.312-1.195,13.62-1.2,14.63a8.514,8.514,0,0,0,.144,1.645C1156.238,1127.647,1164.848,1127.859,1165.96,1127.859Z" transform="translate(-910.253 -805.419)"/><path class="i" d="M422.463,496.123l41.629,167.215,5.7,22.9,19.389,77.884H849.393l-71.464-268Z" transform="translate(-416.693 -496.123)"/><path class="j" d="M405.461,496.122l-5.769,1.923L464.509,769.94l7.671-5.816Z" transform="translate(-399.691 -496.122)"/><path class="h" d="M655.5,1559.626h358l9.886-5.816H663.169Z" transform="translate(-590.681 -1285.808)"/><rect class="k" width="77.511" height="3.683" transform="translate(268.046 326.204) rotate(180)"/><path class="k" d="M830.244,714.739,771.8,499.665H420.188v-3.543H776.23l58.254,218.139Z" transform="translate(-414.995 -496.122)"/><path class="h" d="M1163.821,1576.76l-.4,2.816-72.9,14.727,1-11.893.477-5.649Z" transform="translate(-915.479 -1302.943)"/><path class="l" d="M1165.967,1700.995c-2.963.009-60.193.188-74.864,0-6.394-.079-7.515-5.685-7.568-9.313l72.551-13.65c-.753,8.312-1.195,13.62-1.2,14.63a8.512,8.512,0,0,0,.144,1.645C1156.245,1700.783,1164.854,1700.995,1165.967,1700.995Z" transform="translate(-910.26 -1378.555)"/><path class="l" d="M786.874,1270.061l-158.235,54.254-19.389-77.885Z" transform="translate(-556.151 -1056.314)"/><path class="m" d="M422.46,496.122H777.927L835.6,711.51H474.25Z" transform="translate(-416.691 -496.122)"/><path class="h" d="M1377.363,1425.441a12.181,12.181,0,0,0-11.424-9.564c-5.282,0-8.732,4.282-7.705,9.564a12.181,12.181,0,0,0,11.423,9.564C1374.939,1435.006,1378.389,1430.724,1377.363,1425.441Z" transform="translate(-1115.219 -1182.826)"/><path class="n" d="M862.227,736.172H529.4L491.709,586.021l-2.888-11.514-2.466-9.822-1.973-7.863-3.808-15.167H808.6l.229.834,3.949,14.333,2.168,7.863,2.71,9.822,3.174,11.514Z" transform="translate(-460.08 -530.118)"/><path class="n" d="M862.227,738.2H529.4L491.709,588.046l-2.888-11.514-2.466-9.822-1.973-7.863-3.808-15.167H808.6l.229.834,3.949,14.333,2.168,7.863,2.71,9.822,3.174,11.514Z" transform="translate(-460.08 -531.63)"/><path class="o" d="M812.78,556.822h-328.4l-3.808-15.167h327.9l.356.834Z" transform="translate(-460.08 -530.118)"/><g transform="translate(29.53 15.057)"><path class="n" d="M516.324,563.1a2.175,2.175,0,0,1,2.161-2.879,3.933,3.933,0,0,1,3.6,2.879,2.175,2.175,0,0,1-2.161,2.879A3.933,3.933,0,0,1,516.324,563.1Z" transform="translate(-516.235 -559.037)"/><ellipse class="n" cx="2.542" cy="3.26" rx="2.542" ry="3.26" transform="translate(8.407 3.811) rotate(-48.551)"/><path class="n" d="M594.725,563.1a2.175,2.175,0,0,1,2.161-2.879,3.933,3.933,0,0,1,3.6,2.879,2.175,2.175,0,0,1-2.161,2.879A3.933,3.933,0,0,1,594.725,563.1Z" transform="translate(-574.771 -559.037)"/></g><g transform="translate(80.332 36.386)"><path class="p" d="M978.145,944.931H945.236c-.315-2.572-.594-5.291-.843-8.127-.442-5.087-.78-10.559-1.029-16.251q-.09-1.97-.161-3.972c-.063-1.7-.118-3.415-.166-5.142-.08-2.931-.143-5.9-.189-8.878a.017.017,0,0,1,0-.011c-.057-3.8-.086-7.631-.095-11.445v0q0-1.428,0-2.853v0c0-.895,0-1.784.005-2.673.029-8.21.152-16.263.327-23.75.378-16.567.992-30.371,1.319-37.007v0c.132-2.724.218-4.239.218-4.239s.006,0,.009,0c.074.011.573.1,1.359.292.576.141,1.308.333,2.139.588h0c.751.227,1.58.508,2.452.837a.01.01,0,0,1,.008,0,28.671,28.671,0,0,1,4.583,2.214l.069.034a13.218,13.218,0,0,1,5.689,6.217c.869,2.268,2.9,14.459,5.36,30.65.069.462.138.926.209,1.4,1.3,8.6,2.7,18.244,4.115,28.094,1.494,10.438,2.988,21.1,4.362,30.979C976.147,930.357,977.233,938.252,978.145,944.931Z" transform="translate(-885.477 -774.749)"/><path class="q" d="M919.16,1212.292H880.854c-.734-3.16-1.422-6.208-2.033-9.068-1.683-7.88-2.79-14.338-2.73-17.808a5.194,5.194,0,0,1,1.7-3.877,8.355,8.355,0,0,1,2.744-1.62c3.232-1.227,7.874-1.428,12.735-1.119,1.652.1,3.326.264,4.978.464a145.1,145.1,0,0,1,17.556,3.358s.565,2.285,1.233,6.28c.5,3,1.061,6.96,1.477,11.64.241,2.719.436,5.681.545,8.838C919.089,1210.33,919.123,1211.3,919.16,1212.292Z" transform="translate(-835.709 -1042.11)"/><path class="r" d="M845.776,1191.3l-.382,2.768-1.855,13.438-.315,2.294-1.15,8.33H802.152c-.31-5.506-.6-10.871-.651-15.548-.006-.519-.009-1.027-.009-1.525,0-7.043.619-12.265,2.638-13.584,2.288-1.494,9.879-1.084,17.963-.095.806.1,1.617.2,2.429.313,4.711.634,9.426,1.417,13.217,2.09,1.967.35,3.685.671,5.021.927C844.648,1191.064,845.776,1191.3,845.776,1191.3Z" transform="translate(-780.014 -1047.944)"/><path class="f" d="M801.494,821.423s21.931-14.181,37.662-6.929c2.507,1.156,5.366,4.38,7.413,6.636,5.686,6.265,16.8,105.794,16.8,105.794s-31.54,10.682-61.872-3.625Z" transform="translate(-780.015 -768.668)"/><path class="p" d="M955.055,819.159s22.2,9.1,25.209,16.09,12.781,49.925,12.781,54.959-17.018,1.126-19.757-6.994c-2.275-6.743-9.948-27.456-13.994-40.557Z" transform="translate(-894.666 -773.692)"/><g transform="translate(28.909)"><path class="s" d="M886.235,788.073a24.98,24.98,0,0,1-17.179-3.5,49.433,49.433,0,0,0,3.661-12.932c.02-.153.035-.3.05-.444a13.2,13.2,0,0,0,.06-2.962h12.531s3.426,1.566,3.426,2.649q0,.868.015,1.661c.025,1.441.083,2.7.158,3.78a34.358,34.358,0,0,0,.642,5.172S891.13,787.113,886.235,788.073Z" transform="translate(-859.367 -735.673)"/><path class="t" d="M898.963,783.134c-9.493,1.834-15-3.353-16.24-4.684-.175-.191-.266-.3-.266-.3.1-.05.205-.1.316-.14,3.534-1.431,11.553-.293,16.032,1.348C898.831,780.8,898.888,782.053,898.963,783.134Z" transform="translate(-869.373 -742.48)"/><path class="s" d="M864.23,692.354c1.7,9.13,13.477,8.83,18.568,8.256,1.433-.159,2.334-.342,2.334-.342,1.616-.431,2.517-2.976,2.936-6.309.831-6.6-.219-16.279-1.333-18.755-1.677-3.727-4.836-7.757-16.7-4.849S862.053,680.656,864.23,692.354Z" transform="translate(-853.98 -661.85)"/><path class="q" d="M864.014,647.982a27.127,27.127,0,0,0-8.182-6.677c-6.709-3.629-15.294.114-15.33.13-9.69,4.261-12.221,11.675-7.083,23.224,5.433,12.212,10.605,10.838,10.605,10.838s-1.1-.683-1-4.489c.006-.216.014-.4.024-.553a2.559,2.559,0,0,0-.808-2.083c-1.2-1.074-1.79-4.323-.782-5.228,1.216-1.091,2.925.234,3.471,1.254a1.488,1.488,0,0,0,2.127.469c3.016-1.907,1.057-5.72,3.939-8.053s8.73-.374,13.054-2.234C869.707,652.472,865.235,649.674,864.014,647.982Z" transform="translate(-830.817 -639.722)"/></g><path class="p" d="M827.267,943.985H779.515c.341-9.9.78-21.725,1.242-33.7.118-3.1.241-6.22.361-9.311.055-1.31.1-2.613.155-3.914,1.055-26.583,2.1-50.589,2.323-51.882.5-2.925.975-5.417,1.488-7.579,1.5-6.3,3.364-9.75,7.43-12.721.4-.3,3.648-1.939,6.513-3.367,2.34-1.161,4.422-2.176,4.485-2.205v0h0a4.592,4.592,0,0,1,1.546,1.867,31.162,31.162,0,0,1,1.723,3.8,204.769,204.769,0,0,1,6.177,20.6.072.072,0,0,1,.006.02.021.021,0,0,1,0,.011v0c1.055,4.138,1.812,7.359,2.028,8.285.367,1.56.849,4.579,1.419,8.669v.011c.771,5.578,1.692,13.146,2.667,21.734v0q.151,1.325.3,2.676.172,1.544.35,3.123v0c.037.338.075.677.109,1.015v0c.376,3.4.754,6.908,1.13,10.479,0,0,0,.009,0,.011.321,2.942,4.783,5.073,5.093,8.07.023.218.046.66.074,1.273.057,1.268.126,3.278.209,5.6.034,1.035.072,2.133.112,3.255.175,4.984.39,10.444.634,13.071.011.123.023.281.031.473.029.525.052,1.3.072,2.265C827.242,937.684,827.262,940.63,827.267,943.985Z" transform="translate(-763.605 -773.803)"/><path class="q" d="M802.811,963.717c-.014.061-.76,26.881,19.414,30.138s6.77,4.119,6.77,4.119-37.958-1.613-38.585-2.616S802.811,963.717,802.811,963.717Z" transform="translate(-771.724 -881.622)"/><path class="q" d="M801.731,1112.1s-.378.268-1.105.737a.256.256,0,0,0-.038.022,94.731,94.731,0,0,1-25.512,10.912q-2.094.567-4.326,1.068c.118-3.1.241-6.218.361-9.31a39,39,0,0,1-5-.692c.053-.409.108-.817.16-1.225,1.692-.695,3.373-1.363,4.995-2,1.321-.516,2.6-1.008,3.809-1.464,5.463-2.075,9.513-3.481,9.513-3.481l16.172,5.123Z" transform="translate(-753.598 -988.35)"/><path class="p" d="M769.14,897.1s-2.078.519-5.386,1.186a.087.087,0,0,0-.035.008c-6.1,1.225-16.355,2.945-25.515,2.852-1.351-.015-2.679-.068-3.965-.168a38.982,38.982,0,0,1-5-.692c-3.348-.707-6.152-1.9-7.987-3.772-13.626-13.879,7.436-63.691,11.864-68.538,5.17-5.659,14.606-7.644,19.816-8.325l.629-.08c1.832-.218,3.007-.263,3.073-.266h0s-.408,1.313-1.093,3.541c-.266.862-.574,1.862-.912,2.977-3.2,10.481-9.376,31.079-12.1,42.694-1,4.251-1.531,7.3-1.288,8.208,1.063,3.967,12.072,6.007,19.046,6.909,2.91.376,5.118.554,5.611.592a.7.7,0,0,1,.1.007l.4,1.654.965,3.967.95,3.9Z" transform="translate(-716.727 -773.8)"/><path class="i" d="M935.674,1042.907l-46.8-1.972,9.494-58.32,46.8,1.971Z" transform="translate(-845.257 -895.732)"/><path class="s" d="M903.542,1075.29s9.109-.635,9.566,1.488c1.065,4.95-7.832,9.014-10.714,8.736S901.445,1074.96,903.542,1075.29Z" transform="translate(-854.261 -964.858)"/><path class="s" d="M1071.37,1032.792s-8.715-2.725-9.651-.765c-2.181,4.569,5.534,10.581,8.4,10.978S1073.486,1032.955,1071.37,1032.792Z" transform="translate(-974.017 -932.093)"/><path class="q" d="M861.013,807.745a17,17,0,0,0-5.754,4.583s14.325,24.872,14.261,24.639S864.678,810.931,861.013,807.745Z" transform="translate(-820.157 -765.171)"/><path class="q" d="M948.381,809.129a10.928,10.928,0,0,1,4.227,4.326l1.7,21.714s-3.636-15.935-5.487-23.138A12.194,12.194,0,0,1,948.381,809.129Z" transform="translate(-889.683 -766.204)"/><path class="r" d="M987.57,980.936a2.125,2.125,0,0,1,2.5-1.43c2.131.188,14.1.777,14.1.777s2.308-.038,2.094,1.441Z" transform="translate(-918.943 -893.399)"/><path class="f" d="M933.395,764.445a5,5,0,0,0,4.06.978c1.486-.26,2.318-2.193,2.318-2.193A11.223,11.223,0,0,0,933.395,764.445Z" transform="translate(-878.494 -731.882)"/></g><g transform="translate(183.782 44.184)"><g transform="translate(127.418)"><path class="f" d="M1673.645,713.412l-34.567.128-11.209-42.914,34.567-.128Z" transform="translate(-1627.869 -670.498)"/><g transform="translate(9.509 5.004)"><path class="g" d="M1687.258,690.881l-14.494.053-.166-.635,14.494-.054Z" transform="translate(-1670.773 -690.246)"/><path class="g" d="M1685.479,697.843l-18.2.067-.166-.635,18.2-.067Z" transform="translate(-1666.681 -695.444)"/><g transform="translate(0 10.498)"><path class="g" d="M1689.2,732.311l-23.636.087-.166-.635,23.636-.087Z" transform="translate(-1665.397 -731.676)"/><path class="g" d="M1691.356,740.569l-23.637.087-.166-.635,23.636-.087Z" transform="translate(-1667.007 -737.842)"/><path class="g" d="M1693.513,748.827l-23.637.087-.166-.635,23.636-.087Z" transform="translate(-1668.618 -744.007)"/><path class="g" d="M1695.67,757.085l-23.636.087-.166-.635,23.636-.087Z" transform="translate(-1670.229 -750.173)"/><path class="g" d="M1697.828,765.343l-23.636.087-.166-.635,23.636-.087Z" transform="translate(-1671.839 -756.338)"/></g><g transform="translate(3.516 23.959)"><path class="g" d="M1703.076,785.438l-23.636.087-.166-.635,23.636-.087Z" transform="translate(-1679.274 -784.803)"/><path class="g" d="M1705.233,793.7l-23.636.087-.166-.635,23.637-.087Z" transform="translate(-1680.884 -790.969)"/><path class="g" d="M1707.39,801.954l-23.637.087-.166-.635,23.636-.087Z" transform="translate(-1682.495 -797.134)"/><path class="g" d="M1709.547,810.212l-23.637.087-.166-.635,23.636-.087Z" transform="translate(-1684.106 -803.3)"/><path class="g" d="M1711.7,818.47l-23.637.087-.166-.635,23.636-.087Z" transform="translate(-1685.716 -809.465)"/></g></g></g><g transform="translate(141.347 53.326)"><path class="f" d="M1728.617,923.867,1694.05,924l-11.21-42.914,34.567-.128Z" transform="translate(-1682.841 -880.953)"/><g transform="translate(9.509 5.004)"><path class="g" d="M1742.23,901.336l-14.494.054-.166-.635,14.494-.053Z" transform="translate(-1725.746 -900.701)"/><path class="g" d="M1740.451,908.3l-18.2.067-.166-.635,18.2-.067Z" transform="translate(-1721.652 -905.899)"/><g transform="translate(0 10.498)"><path class="g" d="M1744.171,942.766l-23.636.087-.166-.635,23.636-.087Z" transform="translate(-1720.369 -942.131)"/><path class="g" d="M1746.328,951.024l-23.636.087-.166-.635,23.637-.087Z" transform="translate(-1721.979 -948.297)"/><path class="g" d="M1748.485,959.282l-23.636.087-.166-.635,23.636-.087Z" transform="translate(-1723.59 -954.462)"/><path class="g" d="M1750.642,967.54l-23.636.087-.166-.635,23.636-.087Z" transform="translate(-1725.2 -960.628)"/><path class="g" d="M1752.8,975.8l-23.637.087-.166-.635,23.636-.087Z" transform="translate(-1726.811 -966.793)"/></g><g transform="translate(3.516 23.959)"><path class="g" d="M1758.048,995.893l-23.636.087-.166-.635,23.636-.087Z" transform="translate(-1734.246 -995.258)"/><path class="g" d="M1760.2,1004.151l-23.636.087-.166-.635,23.636-.087Z" transform="translate(-1735.856 -1001.424)"/><path class="g" d="M1762.362,1012.409l-23.636.087-.166-.635,23.637-.087Z" transform="translate(-1737.466 -1007.589)"/><path class="g" d="M1764.519,1020.667l-23.636.087-.166-.635,23.637-.087Z" transform="translate(-1739.077 -1013.755)"/><path class="g" d="M1766.676,1028.925l-23.636.087-.166-.635,23.637-.087Z" transform="translate(-1740.688 -1019.92)"/></g></g></g><g transform="translate(155.37 107.01)"><path class="f" d="M1783.958,1135.738l-34.567.128-11.21-42.914,34.567-.128Z" transform="translate(-1738.181 -1092.823)"/><g transform="translate(9.509 5.004)"><path class="g" d="M1797.571,1113.206l-14.494.054-.166-.635,14.494-.053Z" transform="translate(-1781.086 -1112.571)"/><path class="g" d="M1795.793,1120.168l-18.2.067-.166-.635,18.2-.067Z" transform="translate(-1776.994 -1117.769)"/><g transform="translate(0 10.498)"><path class="g" d="M1799.512,1154.637l-23.636.087-.166-.635,23.636-.087Z" transform="translate(-1775.71 -1154.002)"/><path class="g" d="M1801.669,1162.895l-23.637.087-.166-.635,23.636-.087Z" transform="translate(-1777.32 -1160.167)"/><path class="g" d="M1803.827,1171.152l-23.637.087-.166-.635,23.636-.087Z" transform="translate(-1778.931 -1166.333)"/><path class="g" d="M1805.984,1179.41l-23.636.087-.166-.635,23.636-.087Z" transform="translate(-1780.542 -1172.498)"/><path class="g" d="M1808.14,1187.668l-23.636.087-.166-.635,23.636-.087Z" transform="translate(-1782.151 -1178.664)"/></g><g transform="translate(3.516 23.959)"><path class="g" d="M1813.389,1207.764l-23.636.087-.166-.635,23.636-.087Z" transform="translate(-1789.587 -1207.129)"/><path class="g" d="M1815.546,1216.022l-23.636.087-.166-.635,23.636-.087Z" transform="translate(-1791.198 -1213.294)"/><path class="g" d="M1817.7,1224.279l-23.636.087-.166-.635,23.636-.087Z" transform="translate(-1792.808 -1219.46)"/><path class="g" d="M1819.861,1232.537l-23.636.087-.166-.635,23.637-.087Z" transform="translate(-1794.418 -1225.625)"/><path class="g" d="M1822.017,1240.8l-23.636.087-.166-.635,23.637-.087Z" transform="translate(-1796.028 -1231.791)"/></g></g></g><g transform="translate(0 0.191)"><path class="f" d="M1280.7,821.348l-120.9.446L1125,688.584l15.75-16.959,100.739-.372Z" transform="translate(-1125.002 -671.252)"/><path class="g" d="M1326.316,754.6l-42.609.157-.487-1.867,42.609-.157Z" transform="translate(-1243.13 -732.085)"/><path class="g" d="M1321.088,775.064l-53.5.2-.488-1.867,53.495-.2Z" transform="translate(-1231.099 -747.366)"/><g transform="translate(34.726 51.506)"><path class="g" d="M1332.022,876.391l-69.485.256-.488-1.867,69.485-.256Z" transform="translate(-1262.05 -874.524)"/><path class="g" d="M1338.364,900.667l-69.485.256-.487-1.867,69.485-.257Z" transform="translate(-1266.784 -892.649)"/><path class="g" d="M1344.7,924.943l-69.485.256-.488-1.867,69.485-.256Z" transform="translate(-1271.518 -910.774)"/><path class="g" d="M1351.046,949.219l-69.485.257-.488-1.867,69.485-.256Z" transform="translate(-1276.253 -928.899)"/><path class="g" d="M1357.387,973.495l-69.485.257-.488-1.867,69.485-.257Z" transform="translate(-1280.987 -947.023)"/></g><g transform="translate(45.062 91.079)"><path class="g" d="M1372.817,1032.57l-69.485.256-.488-1.867,69.485-.256Z" transform="translate(-1302.845 -1030.703)"/><path class="g" d="M1379.158,1056.846l-69.485.256-.488-1.867,69.485-.256Z" transform="translate(-1307.579 -1048.828)"/><path class="g" d="M1385.5,1081.122l-69.485.256-.487-1.867,69.485-.257Z" transform="translate(-1312.313 -1066.953)"/><path class="g" d="M1391.84,1105.4l-69.485.256-.488-1.867,69.485-.256Z" transform="translate(-1317.048 -1085.078)"/><path class="g" d="M1398.181,1129.674l-69.485.256-.488-1.867,69.485-.256Z" transform="translate(-1321.782 -1103.203)"/></g><path class="g" d="M1125,689.68l20.161-.074-4.41-16.885Z" transform="translate(-1125.002 -672.348)"/></g></g></g><g transform="translate(581.696 461.419)"><g transform="translate(0 39.652)"><path class="u" d="M0,0H95.452a17.186,17.186,0,0,1,17.186,17.186v0A17.576,17.576,0,0,1,95.062,34.762H0a0,0,0,0,1,0,0V0A0,0,0,0,1,0,0Z" transform="translate(5.226 0)"/><path class="m" d="M2067.047,1553.04v5.229a15.226,15.226,0,0,1-15.231,15.23H1867.384a2.209,2.209,0,0,1-2.209-2.207v-.783a2.208,2.208,0,0,1,2.209-2.207h112.428a14.2,14.2,0,0,0,3.226-9.017v-6.648a13.84,13.84,0,0,0-3.062-8.7H1867.384a2.209,2.209,0,0,1-2.209-2.209v-.781a2.209,2.209,0,0,1,2.209-2.209h185.36a14.293,14.293,0,0,1,14.3,14.3Z" transform="translate(-1865.175 -1538.737)"/><path class="v" d="M2066.5,1549.1h-83.913a13.873,13.873,0,0,0-2.607-5.162H1867.384a2.209,2.209,0,0,1-2.209-2.209v-.781a2.209,2.209,0,0,1,2.209-2.209h185.36A14.306,14.306,0,0,1,2066.5,1549.1Z" transform="translate(-1865.175 -1538.737)"/><path class="w" d="M1885.8,1607.334l13.656.584-13.656.352Z" transform="translate(-1880.573 -1589.952)"/><path class="w" d="M1885.8,1628.859l32.489.584-32.489.352Z" transform="translate(-1880.573 -1606.024)"/></g><g transform="translate(14.754 74.341)"><g transform="translate(0 0)"><path class="p" d="M0,0H104.775A13.944,13.944,0,0,1,118.72,13.944v0a13.094,13.094,0,0,1-13.094,13.094H0a0,0,0,0,1,0,0V0A0,0,0,0,1,0,0Z" transform="translate(118.72 27.039) rotate(-180)"/><path class="u" d="M0,0H119.188a13.671,13.671,0,0,1,13.671,13.671v0a13.368,13.368,0,0,1-13.368,13.368H0a0,0,0,0,1,0,0V0A0,0,0,0,1,0,0Z" transform="translate(231.949 27.039) rotate(180)"/><path class="p" d="M2277.086,1770.435h144.962a2.022,2.022,0,0,0,2.022-2.022h0a2.021,2.021,0,0,0-2.022-2.022H2277.086a2.021,2.021,0,0,0-2.021,2.022h0A2.022,2.022,0,0,0,2277.086,1770.435Z" transform="translate(-2185.959 -1743.396)"/><path class="p" d="M2277.086,1679.685h144.962a2.022,2.022,0,0,0,2.022-2.022h0a2.021,2.021,0,0,0-2.022-2.022H2277.086a2.021,2.021,0,0,0-2.021,2.022h0A2.021,2.021,0,0,0,2277.086,1679.685Z" transform="translate(-2185.959 -1675.641)"/><path class="w" d="M2791.344,1728.995l-16.107.455,16.107.274Z" transform="translate(-2559.395 -1715.476)"/><path class="w" d="M2725.89,1704.438l-38.32.454,38.32.274Z" transform="translate(-2493.942 -1697.141)"/></g><g transform="translate(194.022 7.661)"><path class="m" d="M2689.125,1705.874a6.307,6.307,0,0,1,2.186,3.072,4.378,4.378,0,0,1,.17,1.068c.091,2.537,0,8.279,0,8.279l4.849-2.871,4.836,2.871v-7.783a6.176,6.176,0,0,0-1.186-3.84,1.835,1.835,0,0,0-1.34-.8Z" transform="translate(-2689.125 -1705.874)"/><path class="x" d="M2689.125,1705.874a6.307,6.307,0,0,1,2.186,3.072l9.717.114s-.382-2.734-2.387-3.185Z" transform="translate(-2689.125 -1705.874)"/></g></g><g transform="translate(10.289 0)"><path class="u" d="M0,0H102.838a20.086,20.086,0,0,1,20.086,20.086v0a19.64,19.64,0,0,1-19.64,19.64H0a0,0,0,0,1,0,0V0A0,0,0,0,1,0,0Z" transform="translate(212.025 39.726) rotate(180)"/><path class="y" d="M1997.4,1397.66v8.549a9.882,9.882,0,0,0,5.018,8.514,9.989,9.989,0,0,0,4.948,1.306H2123.62a2.467,2.467,0,0,1,2.467,2.467v1.009a2.467,2.467,0,0,1-2.467,2.467H1922.79a17.008,17.008,0,0,1-17.009-17.009v-6.746a15.962,15.962,0,0,1,15.97-15.97H2123.62a2.466,2.466,0,0,1,2.467,2.465v1.009a2.467,2.467,0,0,1-2.467,2.467H2007.011a9.632,9.632,0,0,0-7.071,3.084A9.454,9.454,0,0,0,1997.4,1397.66Z" transform="translate(-1905.781 -1382.246)"/><path class="w" d="M2698.643,1460.637l-14.9.668,14.9.4Z" transform="translate(-2486.618 -1440.774)"/><path class="w" d="M2638.084,1424.555l-35.455.668,35.455.4Z" transform="translate(-2426.059 -1413.835)"/><g transform="translate(176.935 11.256)"><path class="i" d="M2604.069,1426.668a7.445,7.445,0,0,1,3.115,3.33,3.727,3.727,0,0,1,.242,1.158c.129,2.751,0,8.977,0,8.977l6.909-3.113,6.89,3.113v-8.439a5.682,5.682,0,0,0-1.689-4.164,2.856,2.856,0,0,0-1.908-.863Z" transform="translate(-2604.069 -1426.668)"/><path class="z" d="M2604.069,1426.668a7.445,7.445,0,0,1,3.115,3.33l13.844.123a4.418,4.418,0,0,0-3.4-3.453Z" transform="translate(-2604.069 -1426.668)"/></g></g></g><g transform="translate(604.58 296.25)"><g transform="translate(0 0)"><path class="q" d="M2326.524,1318.966c6.127,10.665,13.834,14.781,13.834,14.781h32.062S2321.849,1310.831,2326.524,1318.966Z" transform="translate(-2232.281 -1168.527)"/><path class="s" d="M2345.83,1571.4a2.964,2.964,0,0,1,.529,3.17.025.025,0,0,1-.008.015c-.764,2.113-3.291,4.473-6.226,6.83-.375.3-.709.578-1,.833-.076.067-.153.134-.224.2-.059.052-.116.106-.173.156-2.737,2.522-1.707,3.1-6.623,8.22-5.606,5.833-9.466,5.938-10.563,5.406-.929-.453.958-3.546,3.05-7.023.1-.167.2-.337.3-.507.279-.462.556-.931.832-1.4,2.45-4.185,1.821-6.148,1.24-12.376-.472-5.061-7.873-28.272-7.873-28.272l10.743-1.85s3.236,18.483,6.8,21.33c1.906,1.517,4.04,1.536,5.872,2.661.13.078.257.158.381.241A14.1,14.1,0,0,1,2345.83,1571.4Z" transform="translate(-2226.963 -1338.444)"/><path class="q" d="M2352.323,1642.087a2.963,2.963,0,0,1,.528,3.17.024.024,0,0,1-.008.016c-.936,2.111-3.4,4.459-6.236,6.808-.371.308-.7.59-.989.854-.076.067-.153.134-.224.2-.06.052-.116.106-.173.156-2.737,2.523-1.707,3.1-6.623,8.22-5.606,5.833-9.465,5.938-10.563,5.406-.929-.453.958-3.546,3.05-7.023a23.891,23.891,0,0,0,9.993-7.363c3.375-4.308,5.627-9.842,7.925-13.048q.194.118.381.241A14.107,14.107,0,0,1,2352.323,1642.087Z" transform="translate(-2233.456 -1409.135)"/><path class="s" d="M1987.731,1555.054c-.663,3.316-5.39,2.763-10.671,1.472s-4.026.244-11.542-.588-9.793-3.635-10.022-4.752c-.205-.992,3.508-1.341,7.492-1.8.5-.056,1-.118,1.507-.18,4.5-.564,7.791-3.466,11.876-5.85,3.869-2.258,9.644-11.456,9.644-11.456l10.308.817s-5.409,8.215-7.5,11.787c-1.231,2.1-1.165,4.879-1.012,7.024A13.228,13.228,0,0,1,1987.731,1555.054Z" transform="translate(-1955.488 -1328.811)"/><path class="q" d="M1977.06,1608.048c-5.281-1.29-4.026.244-11.542-.588s-9.793-3.635-10.022-4.752c-.205-.992,3.508-1.341,7.492-1.8l.037.077a21.187,21.187,0,0,0,10.764,3.346c5.1.124,10.5-1.337,14.021-1.28a13.228,13.228,0,0,1-.079,3.526C1987.067,1609.892,1982.341,1609.339,1977.06,1608.048Z" transform="translate(-1955.488 -1380.333)"/><path class="q" d="M2238.63,1314.48l9.636,25.928,12.58,33.854a20.375,20.375,0,0,0,6.683-.611,28.97,28.97,0,0,0,6.463-3.146s-3.493-36.35-10.01-57.217c-1.669-5.356-3.542-9.689-5.606-12.127C2248.274,1289.224,2238.63,1314.48,2238.63,1314.48Z" transform="translate(-2166.886 -1154.145)"/><path class="p" d="M2109.4,1185.4c6.313-2.036,24.317.579,42.4,4.119l3.787-6.246,39.065-3.051s12.891,28.587,5.834,46.8a6.605,6.605,0,0,1-6.612,4.451s-.569,0-.57,0-23.251-.014-30.8-.014c-19.428,0-41.116-13.355-43.921-13.915-4.593-.918-6.429,8.266-11.021,17.909s-43.167,42.707-43.167,42.707-5.929.059-8.378-.86a8.252,8.252,0,0,1-3.6-2.271S2095.165,1189.991,2109.4,1185.4Z" transform="translate(-2027.86 -1066.242)"/><path class="q" d="M2424.376,793.624c13.911,7.66,42.132,23.538,42.279,23.436,0,0,10.373,3.908,16.257,0,9.808-6.513,15.068-24.044-2.869-39.13-8.945-7.524-15.3-9.355-16.266-21.37-.524-6.517-9.433-28.028-24.237-26.039-1.237.166-8.852.521-13.856,3.15C2412.931,740.368,2403.521,790.659,2424.376,793.624Z" transform="translate(-2296.416 -730.392)"/><path class="s" d="M2501.282,889.758c-.061.039,6.845,2.4,11.462.352,4.344-1.92,7.635-9.067,7.57-9.071-1.976-.091-4.146-1.819-5.816-13.155l-.841.3-14.149,5.091s1.025,4.54,1.688,8.862C2501.755,885.768,2502.055,889.244,2501.282,889.758Z" transform="translate(-2361.662 -833.046)"/><path class="aa" d="M2499.508,874.167s1.025,4.54,1.688,8.862c8.126-1.463,11.316-9.559,12.46-13.953Z" transform="translate(-2361.662 -833.936)"/><path class="s" d="M2461.91,806.62s19.357-2.6,17.554-14.628-.52-20.467-12.956-19.317-14.143,6.1-14.517,10.262S2456.828,806.986,2461.91,806.62Z" transform="translate(-2326.17 -761.883)"/><path class="q" d="M2454.831,773.209s12.392,10.679,20.82,11.54,11.62-1.845,11.62-1.845a32.916,32.916,0,0,1-7.958-10.782,5.925,5.925,0,0,0-4.885-3.494C2468.408,768.109,2457,767.872,2454.831,773.209Z" transform="translate(-2328.305 -758.75)"/><path class="q" d="M2455.91,776.861s-4.145,4.008-5.451,6.981c-1.26,2.869-1.637,9.731-.635,12.456,0,0-6.458-12.559-2.8-18.661C2450.9,771.166,2455.91,776.861,2455.91,776.861Z" transform="translate(-2321.638 -763.357)"/><path class="f" d="M2442.169,955.692c.585,39.184.161,31,4.447,34.714,1.033.9,3.936,1.429,7.758,1.681,12.015.8,33.136-1.182,33.939-3.4,2.772-7.683.815-10.07,3.127-21.833.241-1.251.54-2.605.889-4.08,1.928-8.079,3.8-10.827-3.036-23.806-6.2-11.757-12.646-21.3-13.225-20.955-16.364,9.714-17.684,1.549-17.684,1.549S2441.882,936.579,2442.169,955.692Z" transform="translate(-2318.849 -870.465)"/><path class="p" d="M2276.658,1385.586l12.58,33.854a20.376,20.376,0,0,0,6.683-.611,28.974,28.974,0,0,0,6.463-3.146s-3.493-36.35-10.009-57.217Z" transform="translate(-2195.279 -1199.323)"/><path class="f" d="M2410.616,924.142s-16.838,2.855-18.816,10.1-13.613,49.87-13.613,49.87,8.56,1.538,12.515-2.417,13.76-36.689,13.76-36.689Z" transform="translate(-2271.082 -875.049)"/><path class="ab" d="M2490.346,1087.943c12.015.8,33.136-1.182,33.939-3.4,2.771-7.683.815-10.07,3.127-21.833l-5.8-16.318s.958,18.171-4.4,22.951-21.942,9.227-24.546,13.22A14.606,14.606,0,0,0,2490.346,1087.943Z" transform="translate(-2354.821 -966.321)"/><path class="s" d="M2482.834,1174.814s-11.854-2.639-13.766-1.587-6.587,4.883-7.172,6.216,4.258-1.012,5.833-1.434c1.02-.274,3.706.66,5.035,1.1,5.594,1.865,9.022.906,9.022.906Z" transform="translate(-2333.543 -1060.834)"/><path class="f" d="M2546.971,918s15.916.981,21.427,8.665c7.756,10.818,23.142,56.921,14.324,63.069-9.93,6.924-45.2,1.812-45.2,1.812s-1.173-5.486.459-8.139,28.167-6.94,29.392-8.164-15.308-23.881-15.308-27.555S2546.971,918,2546.971,918Z" transform="translate(-2389.742 -870.465)"/><path class="s" d="M2474.413,1186.977s-2.484,3.2-3.3,3.586a2.429,2.429,0,0,1-1.34.287l1.674-3.012Z" transform="translate(-2339.463 -1071.286)"/><path class="s" d="M2469.068,1173.956l-7.221,3.506a1.287,1.287,0,0,0,1.2.462,17.232,17.232,0,0,0,3.132-.861Z" transform="translate(-2333.544 -1061.564)"/><g transform="translate(57.348 81.456)"><path class="i" d="M2256.121,1094.593H2199l-17.183-42.73h57.033Z" transform="translate(-2181.817 -1051.863)"/><path class="z" d="M2246.989,1213.929h75.428v1.665h-74.759Z" transform="translate(-2230.476 -1172.864)"/><path class="f" d="M2306.214,1128.167a1.979,1.979,0,0,1,1.94-2.72,3.9,3.9,0,0,1,3.5,2.72,1.979,1.979,0,0,1-1.94,2.719A3.9,3.9,0,0,1,2306.214,1128.167Z" transform="translate(-2274.611 -1106.802)"/></g></g></g><g transform="translate(204.365 421.183)"><g transform="translate(0 0.65)"><path class="o" d="M388.8,1241.4l-1.216.843a2.869,2.869,0,0,1-3.988-.723l-7.075-10.208a2.869,2.869,0,0,1,.723-3.987l1.742-1.208a.561.561,0,0,1,.639.922l-1.742,1.208a1.746,1.746,0,0,0-.44,2.427l7.075,10.207a1.746,1.746,0,0,0,2.427.44l1.217-.843a1.746,1.746,0,0,0,.44-2.427l-4.7-6.776a.561.561,0,0,1,.922-.639l4.7,6.776A2.869,2.869,0,0,1,388.8,1241.4Z" transform="translate(-376.008 -1226.018)"/></g><g transform="translate(1.228)"><path class="o" d="M400.17,1249.551l-2.181,1.512a4.641,4.641,0,0,1-6.4-1.39l-10.637-15.346a.561.561,0,0,1,.922-.639l10.637,15.346a3.52,3.52,0,0,0,4.838,1.106l2.181-1.512a3.521,3.521,0,0,0,.662-4.919l-12.116-17.48a3.521,3.521,0,0,0-4.838-1.106.561.561,0,1,1-.639-.922,4.641,4.641,0,0,1,6.4,1.389l12.116,17.48A4.641,4.641,0,0,1,400.17,1249.551Z" transform="translate(-380.854 -1223.452)"/></g></g><g transform="translate(212.874 518.518)"><g transform="translate(0.039 5.208)"><path class="o" d="M436.372,1631.852l.263,2.162a4.221,4.221,0,0,1-3.677,4.693l-18.138,2.2a4.221,4.221,0,0,1-4.693-3.677l-.376-3.1a.825.825,0,1,1,1.638-.2l.376,3.1a2.569,2.569,0,0,0,2.856,2.238l18.138-2.2a2.568,2.568,0,0,0,2.238-2.856l-.262-2.162a2.569,2.569,0,0,0-2.856-2.238l-12.041,1.462a.825.825,0,0,1-.2-1.638l12.041-1.461A4.221,4.221,0,0,1,436.372,1631.852Z" transform="translate(-409.744 -1628.143)"/></g><path class="o" d="M454.679,1613.323l.47,3.875a6.828,6.828,0,0,1-6.2,7.374l-27.269,3.309a.825.825,0,1,1-.2-1.638l27.269-3.309a5.181,5.181,0,0,0,4.76-5.537l-.471-3.875a5.18,5.18,0,0,0-5.946-4.238l-31.061,3.77a5.18,5.18,0,0,0-4.76,5.537.825.825,0,0,1-1.638.2,6.828,6.828,0,0,1,6.2-7.374l31.062-3.769A6.828,6.828,0,0,1,454.679,1613.323Z" transform="translate(-409.59 -1607.591)"/></g><circle class="i" cx="2.514" cy="2.514" r="2.514" transform="translate(548.109 272.631) rotate(-76.717)"/><rect class="ac" width="734.868" height="1.949" rx="0.975" transform="translate(156.712 562.609)"/><rect class="ad" width="78" height="77" rx="4" transform="translate(455.288 74.894)"/><rect class="ae" width="76" height="77" rx="4" transform="translate(566.288 -39.106)"/><rect class="af" width="77" height="77" rx="4" transform="translate(723.288 -39.106)"/><rect class="ag" width="78" height="77" rx="4" transform="translate(828.288 74.894)"/><g transform="translate(473.741 88.359)"><path class="ah" d="M145.854,178.465h-5.807v5.74h5.807a2.1,2.1,0,0,0,2.1-2.1v-1.543a2.1,2.1,0,0,0-2.1-2.1Zm0,0" transform="translate(-122.866 -156.539)"/><path class="ah" d="M145.854,119.742h-5.807v5.74h5.807a2.1,2.1,0,0,0,2.1-2.1V121.84a2.1,2.1,0,0,0-2.1-2.1Zm0,0" transform="translate(-122.866 -105.031)"/><path class="ah" d="M1.723,21.871H.2A21.068,21.068,0,0,0,5.877,35.549L6.946,34.48a.737.737,0,0,1,1.042,1.042L6.919,36.591A21.071,21.071,0,0,0,20.6,42.267V40.745a.737.737,0,1,1,1.474,0v1.522a21.025,21.025,0,0,0,6.049-1.1A9.455,9.455,0,0,1,26.9,36.53a16.357,16.357,0,1,1,9.783-9.708c.056,0,.112,0,.168,0a10.1,10.1,0,0,1,4.525,1.066,21.031,21.031,0,0,0,1.087-6.013H40.944a.737.737,0,1,1,0-1.474h1.522A21.068,21.068,0,0,0,36.791,6.719L35.722,7.788a.737.737,0,1,1-1.042-1.042l1.069-1.069A21.069,21.069,0,0,0,22.071,0V1.523a.737.737,0,0,1-1.474,0V0A21.067,21.067,0,0,0,6.919,5.676L7.988,6.745A.737.737,0,1,1,6.945,7.788L5.876,6.719A21.07,21.07,0,0,0,.2,20.4H1.723a.737.737,0,1,1,0,1.474Zm0,0" transform="translate(-0.2 -0.001)"/><path class="ah" d="M80.965,65.857a14.881,14.881,0,1,0-9.182,13.76,9.849,9.849,0,0,1,7.99-7.911,14.764,14.764,0,0,0,1.193-5.85ZM71.5,63.077a3.568,3.568,0,0,1-1.4,2.835,3.568,3.568,0,0,1,1.4,2.835v1.544A3.576,3.576,0,0,1,68.2,73.852v1.655a.737.737,0,1,1-1.474,0V73.864H64.786v1.643a.737.737,0,0,1-1.474,0V73.864H61.381a.737.737,0,0,1-.737-.737V58.7a.737.737,0,0,1,.737-.737h1.932V56.206a.737.737,0,0,1,1.474,0v1.755h1.941V56.206a.737.737,0,1,1,1.474,0v1.767a3.577,3.577,0,0,1,3.3,3.561Zm0,0" transform="translate(-44.936 -44.724)"/><path class="ah" d="M278.31,276.895a.738.738,0,0,1-.7.5h-1.564l1.248.882a.737.737,0,0,1,.274.836l-.487,1.459,1.3-.921a.737.737,0,0,1,.851,0l1.3.921-.487-1.459a.737.737,0,0,1,.274-.836l1.247-.882h-1.564a.738.738,0,0,1-.7-.5l-.5-1.5Zm0,0" transform="translate(-242.156 -241.56)"/><path class="ah" d="M253.785,363.059v12.328l5.126-3.012a.737.737,0,0,1,.747,0l5.126,3.012V363.059a10.137,10.137,0,0,1-11,0Zm0,0" transform="translate(-222.63 -318.454)"/><path class="ah" d="M229.543,238.508a8.481,8.481,0,1,0,8.477-8.23A8.366,8.366,0,0,0,229.543,238.508Zm9.177-5.248,1.032,3.09H243.1a.737.737,0,0,1,.426,1.339l-2.694,1.905,1.027,3.075a.737.737,0,0,1-1.125.836l-2.716-1.921L235.3,243.5a.737.737,0,0,1-1.125-.835l1.027-3.075-2.695-1.905a.737.737,0,0,1,.426-1.339h3.352l1.032-3.09a.737.737,0,0,1,1.4,0Zm0,0" transform="translate(-201.366 -201.986)"/></g><g transform="translate(586.78 -20.342)"><path class="ai" d="M39.366,12.4,31.2,20.279,29.523,18.5l6.181-5.96a1.5,1.5,0,0,0,.038-2.125L30.224,4.7A1.507,1.507,0,0,0,28.1,4.657l-4.871,4.7,4.23,4.38a.943.943,0,0,1-.044,1.311.954.954,0,0,1-.942.217L20.333,8.755l8.028-7.749a1.237,1.237,0,0,1,1.737.046l9.28,9.62A1.233,1.233,0,0,1,39.366,12.4ZM11.64,35.752a1.48,1.48,0,0,1-1.068.419,1.519,1.519,0,0,1-1.058-.456L4,29.989a1.5,1.5,0,0,1,.038-2.122L6.572,30.5a.911.911,0,0,0,1.286.026.9.9,0,0,0,.019-1.282L5.342,26.608l.675-.653,2.538,2.637a.907.907,0,1,0,1.3-1.261L7.324,24.7,8,24.045l2.535,2.634a.908.908,0,1,0,1.308-1.258L9.306,22.787l.675-.653,2.538,2.632a.907.907,0,0,0,1.543-.435l-4.7-4.988L.373,28.007A1.236,1.236,0,0,0,.357,29.74l9.28,9.626a1.228,1.228,0,0,0,1.732.04l8.856-8.537-1.674-1.776ZM27.855,12.1a3.05,3.05,0,1,1,4.31.076A3.049,3.049,0,0,1,27.855,12.1Zm1.31-1.263A1.228,1.228,0,1,0,29.2,9.1,1.238,1.238,0,0,0,29.165,10.837Zm4.929,15.626-7.987,7.526L8.307,15.1,16.3,7.577ZM17.636,12.843a.687.687,0,0,0-.189-.491l-.87-.92a.688.688,0,0,0-.97-.029l-.471.442a.687.687,0,0,0-.03.97l.865.926a.681.681,0,0,0,.484.214c.182.008.964-.63.964-.63A.706.706,0,0,0,17.636,12.843ZM30,26.677a.684.684,0,0,0,.028-.972l-10-10.608a.669.669,0,0,0-.481-.217.691.691,0,0,0-.49.185l-.472.446a.684.684,0,0,0-.029.97l10,10.61a.7.7,0,0,0,.485.218.689.689,0,0,0,.494-.188ZM7.5,14.242l7.987-7.528L13.423,4.525,5.438,12.055ZM1.877,8.272a2.37,2.37,0,0,1,.1-3.357L6.5.65a2.37,2.37,0,0,1,3.357.1l2.806,2.976L4.679,11.249ZM3.3,6.634,4.768,8.193,9.61,3.632,8.14,2.075ZM38.145,37.213A1.18,1.18,0,0,1,36.6,38.672l-9.479-3.617L35.1,27.527Zm-2.533-3.251-1.2-3.809-4.638,4.375,3.732,1.424Z" transform="translate(-0.01 0)"/></g><g transform="translate(735.683 -26.298)"><g transform="translate(3.185)"><path class="aj" d="M73.722,3.5H54.61V1.593a1.593,1.593,0,0,0-3.185,0V3.5H32.313A1.564,1.564,0,0,0,30.72,5.1V31.8H75.315V5.1A1.564,1.564,0,0,0,73.722,3.5Z" transform="translate(-30.72)"/></g><g transform="translate(0 34.455)"><path class="aj" d="M49.373,332.288H1.593A1.633,1.633,0,0,0,0,333.881a1.564,1.564,0,0,0,1.593,1.593H22.244l-9.4,9.928a1.577,1.577,0,1,0,2.283,2.177l8.76-9.237v8.866a1.593,1.593,0,0,0,3.185,0V338.34l8.76,9.237a1.577,1.577,0,1,0,2.283-2.177l-9.4-9.928H49.373a1.593,1.593,0,1,0,0-3.185Z" transform="translate(0 -332.288)"/></g></g><g transform="translate(837.913 80.309)"><g transform="translate(4.216 0)"><path class="ak" d="M80.4,285.445H72.614a2.3,2.3,0,0,0-2.3,2.3v9.314a2.3,2.3,0,0,0-2.3-2.3H60.225a2.3,2.3,0,0,0-2.3,2.3v6.14a2.3,2.3,0,0,0-2.3-2.3H47.836a2.3,2.3,0,0,0-2.3,2.3v5.716a2.3,2.3,0,0,0-2.3-2.3H35.447a2.3,2.3,0,0,0-2.3,2.3v4.371H82.7V287.747a2.3,2.3,0,0,0-2.3-2.3Zm0,0" transform="translate(-33.144 -249.139)"/><path class="ak" d="M345.129,37.278a.972.972,0,0,1-.973-.972V.972a.973.973,0,0,1,1.945,0V36.306A.973.973,0,0,1,345.129,37.278Zm0,0" transform="translate(-304.599 0)"/><path class="ak" d="M45.534,458.563H33.145v-4.371a2.3,2.3,0,0,1,2.3-2.3h7.784a2.3,2.3,0,0,1,2.3,2.3Zm0,0" transform="translate(-33.145 -394.414)"/></g><path class="al" d="M142.94,419.338H130.551V409.251a2.3,2.3,0,0,1,2.3-2.3h7.784a2.3,2.3,0,0,1,2.3,2.3Zm0,0" transform="translate(-113.946 -355.189)"/><path class="am" d="M240.346,377.2H227.957V360.974a2.3,2.3,0,0,1,2.3-2.3h7.784a2.3,2.3,0,0,1,2.3,2.3Zm0,0" transform="translate(-198.963 -313.052)"/><path class="an" d="M337.753,313.288H325.364V287.747a2.3,2.3,0,0,1,2.3-2.3h7.784a2.3,2.3,0,0,1,2.3,2.3Zm0,0" transform="translate(-283.981 -249.139)"/><path class="ao" d="M57.206,498.656H.973a.972.972,0,0,1,0-1.945H57.206a.972.972,0,0,1,0,1.945Zm0,0" transform="translate(0 -433.534)"/><path class="ap" d="M351.8,26.831h12.461a.419.419,0,0,0,.277-.733l-3.237-2.851a.418.418,0,0,1,0-.628l3.237-2.85a.419.419,0,0,0-.277-.733H351.8Zm0,0" transform="translate(-307.059 -16.614)"/><path class="aq" d="M235.141,109.012l-13.5,7.332c-1.2.654-1.534,1.8-1.954,3.285L217,129.123l3.545,1.218,3.033-3.914,2.553-7.719,6.793-4.128a4.972,4.972,0,0,0,2.212-5.568Zm0,0" transform="translate(-189.403 -95.147)"/><path class="ar" d="M235.141,109.012l-1.558.846a4.969,4.969,0,0,1-2.3,3.3l-6.19,3.761a1.922,1.922,0,0,0-.826,1.037l-.884,2.672a10.019,10.019,0,0,1-5.712,6.124L217,129.123l6.579-2.7,2.553-7.719,6.793-4.128a4.972,4.972,0,0,0,2.212-5.568Zm0,0" transform="translate(-189.403 -95.147)"/><path class="as" d="M223.583,245.93l3.887,4.595c.644.853,1.2,1.453,1.089,2.391l-.909,7.35h-2.372l-.62-6.318a1.055,1.055,0,0,0-.632-.866L217,248.626Zm0,0" transform="translate(-189.404 -214.65)"/><path class="at" d="M182.518,248.626l-.379,6.966a3.066,3.066,0,0,1-.17,1.4l-4.477,9.42h2.516l6.731-8.942a3.643,3.643,0,0,0,.572-1.652l1.785-9.886Zm0,0" transform="translate(-154.917 -214.65)"/><path class="au" d="M232.351,113.138l1.1,2.155a2.061,2.061,0,0,1-.895,2.773l-.853.437a2.06,2.06,0,0,1-2.773-.895l-1.1-2.155a2.06,2.06,0,0,1,.895-2.773l.853-.437A2.061,2.061,0,0,1,232.351,113.138Zm0,0" transform="translate(-198.654 -97.769)"/></g></g></svg>