<svg xmlns="http://www.w3.org/2000/svg" width="30" height="30" viewBox="0 0 30 30"><defs><style>.a{fill:#f6921e;}.b{fill:#fff;}</style></defs><g transform="translate(-30 -319)"><rect class="a" width="30" height="30" rx="4" transform="translate(30 319)"/><path class="b" d="M6.958,19.553.3,12.9a1.024,1.024,0,0,1,0-1.449L1.748,10A1.024,1.024,0,0,1,3.2,10l4.485,4.485,9.606-9.606a1.024,1.024,0,0,1,1.449,0l1.448,1.449a1.024,1.024,0,0,1,0,1.449L8.406,19.553A1.024,1.024,0,0,1,6.958,19.553Z" transform="translate(35.147 321.629)"/></g></svg>