<svg xmlns="http://www.w3.org/2000/svg" width="26" height="26" viewBox="0 0 26 26" fill="none"><path fill-rule="evenodd" clip-rule="evenodd" d="M6.5 0H19.5C23.088 0 26 2.91199 26 6.5V19.5C26 23.088 23.088 26 19.5 26H6.5C2.91199 26 0 23.088 0 19.5V6.5C0 2.91199 2.91199 0 6.5 0ZM17.738 17.6988L17.7585 17.7192C18.1614 18.1222 18.1614 18.5902 17.7585 18.9932C17.7309 19.0177 17.7041 19.043 17.6776 19.0686C17.6479 19.0972 17.6189 19.1263 17.5897 19.1553L17.5649 19.1803C17.5178 19.2273 17.4703 19.2739 17.4205 19.3182C17.2604 19.4689 17.1003 19.6264 16.9451 19.7907C16.886 19.8532 16.8278 19.9167 16.7705 19.9812C16.4065 20.3972 15.9385 20.5662 15.2885 20.5402C14.5085 20.5013 13.7025 20.2673 12.7534 19.7993C10.9594 18.9282 9.39945 17.7062 8.09945 16.1592C7.05939 14.9372 6.31846 13.6893 5.83746 12.3893C5.52548 11.5833 5.42153 10.9462 5.46041 10.3353C5.49945 9.90623 5.65544 9.56822 5.94141 9.29527C6.16246 9.08722 6.37051 8.87926 6.57839 8.65828C6.6498 8.58695 6.72439 8.5157 6.79897 8.44445C6.87388 8.37272 6.94878 8.30099 7.02051 8.22926C7.21538 8.03423 7.42343 7.94322 7.64448 7.94322C7.85253 7.94322 8.07343 8.03423 8.26846 8.22926C8.39858 8.35074 8.523 8.47801 8.64932 8.60726L8.75104 8.71105L8.84038 8.80126L9.95852 9.91924C10.3745 10.3353 10.3745 10.7902 9.95852 11.2062L9.89346 11.2842C9.78507 11.3925 9.67827 11.5008 9.57131 11.6091C9.43563 11.7467 9.29995 11.8842 9.16141 12.0217C9.08159 12.1009 9.00082 12.18 8.91846 12.2592C8.76246 12.4023 8.73644 12.5583 8.78849 12.7662C9.00939 13.2863 9.32153 13.7803 9.7765 14.3393C10.6344 15.3923 11.5315 16.1983 12.4935 16.8092C12.5352 16.8358 12.5769 16.8602 12.619 16.8833C12.6671 16.9097 12.7156 16.9345 12.7651 16.9592C12.8205 16.9867 12.877 17.014 12.9354 17.0432C13.0135 17.0823 13.1044 17.1212 13.1955 17.1733C13.2355 17.1946 13.275 17.2105 13.3139 17.2208C13.384 17.2393 13.452 17.2396 13.517 17.221C13.5518 17.2111 13.5857 17.1959 13.6187 17.1751C13.6565 17.1514 13.6932 17.1205 13.7284 17.0823C14.0794 16.7182 14.4435 16.3673 14.7945 16.0162C15.1844 15.6263 15.6525 15.6263 16.0424 16.0162C16.6077 16.5686 17.1728 17.1336 17.738 17.6988ZM20.0075 13.5592H19.9685C19.6825 13.5333 19.4744 13.2863 19.5005 13.0002C19.5084 12.8961 19.5163 12.7872 19.5214 12.6793C19.5246 12.612 19.5265 12.5452 19.5265 12.4803C19.5265 9.17823 16.8484 6.50024 13.5465 6.50024L13.4385 6.50048L13.3801 6.50103C13.2595 6.50278 13.143 6.50833 13.0265 6.52626C12.7275 6.55229 12.4674 6.33123 12.4414 6.04527C12.4154 5.75923 12.6234 5.51223 12.9094 5.48628L12.9441 5.48414C13.1393 5.47184 13.324 5.46025 13.5205 5.46025C17.3945 5.46025 20.5404 8.60623 20.5404 12.4803C20.5404 12.6788 20.5288 12.8655 20.5164 13.0629L20.5145 13.0912C20.5015 13.3513 20.2674 13.5592 20.0075 13.5592ZM17.0955 12.8573C17.0955 13.1432 17.3294 13.3773 17.6154 13.3773C17.9015 13.3773 18.1354 13.1432 18.1354 12.8573C18.1354 10.1013 15.8995 7.86522 13.1435 7.86522C12.8575 7.86522 12.6234 8.09929 12.6234 8.38525C12.6234 8.67122 12.8575 8.90528 13.1435 8.90528C15.3145 8.90528 17.0955 10.6733 17.0955 12.8573Z" fill="white"></path></svg>