<svg xmlns="http://www.w3.org/2000/svg" width="34.767" height="34.767" viewBox="0 0 34.767 34.767"><defs><style>.a{fill:#ec297b;}</style></defs><g transform="translate(-2 -2)"><path class="a" d="M33.29,2.579A.579.579,0,0,0,32.71,2H6.056A4.061,4.061,0,0,0,2,6.056V33.869a2.9,2.9,0,0,0,2.9,2.9H32.71a.579.579,0,0,0,.579-.579V22.28h2.318V18.8H33.29V17.645h3.477V14.168H33.29V13.009h2.318V9.533H33.29V8.374h3.477V4.9H33.29ZM3.159,26.039v-.862a1.091,1.091,0,0,1,1.159-1.159V22.86a2.364,2.364,0,0,0-1.159.282V10.112A1.091,1.091,0,0,1,4.318,8.953V7.794a2.364,2.364,0,0,0-1.159.282V6.056A2.9,2.9,0,0,1,5.477,3.217V30.972H4.9a2.867,2.867,0,0,0-1.738.595V28.075a1.091,1.091,0,0,1,1.159-1.159V25.757a2.364,2.364,0,0,0-1.159.282Zm9.271,9.568H4.9a1.738,1.738,0,1,1,0-3.477H7.215V33.29h-2.9v1.159h2.9v.579a.579.579,0,0,0,.838.521l2.059-1.033,2.059,1.033a.579.579,0,0,0,.838-.521v-.579H32.131v1.159Zm19.7-3.477V33.29H13.009V32.131Zm-23.757,0h3.477v1.96l-1.479-.74a.579.579,0,0,0-.518,0l-1.479.74ZM34.449,19.963v1.159H33.29V19.963Zm1.159-4.636v1.159H33.29V15.327Zm-1.159-4.636v1.159H33.29V10.692Zm-2.318,20.28H6.636V3.159h25.5ZM35.608,6.056V7.215H33.29V6.056Z"/><path class="a" d="M22.65,12H20.332a.579.579,0,0,0-.559.427L18.035,18.8l1.118.3.673-2.47h3.329l.673,2.47,1.118-.3-1.738-6.374A.579.579,0,0,0,22.65,12Zm-2.507,3.477.632-2.318h1.432l.632,2.318Z" transform="translate(-6.744 -4.206)"/><path class="a" d="M31,17h2.9v1.159H31Z" transform="translate(-12.196 -6.308)"/><path class="a" d="M42.11,12.911A.579.579,0,0,0,41.635,12H37v1.159h3.523L37.1,18.042a.579.579,0,0,0,.475.911h4.636V17.794H38.692Z" transform="translate(-14.719 -4.206)"/><path class="a" d="M14,19.589H34.86V8H14Zm1.159-10.43H33.7V18.43H15.159Z" transform="translate(-5.047 -2.523)"/><path class="a" d="M19,33.477H34.065V30H19Zm1.159-2.318H32.907v1.159H20.159Z" transform="translate(-7.149 -11.776)"/><path class="a" d="M17,39h2.318v1.159H17Z" transform="translate(-6.308 -15.561)"/><path class="a" d="M23,39H33.43v1.159H23Z" transform="translate(-8.832 -15.561)"/><path class="a" d="M43,39h2.318v1.159H43Z" transform="translate(-17.243 -15.561)"/><path class="a" d="M15,43H34.7v1.159H15Z" transform="translate(-5.467 -17.243)"/><path class="a" d="M15,47H34.7v1.159H15Z" transform="translate(-5.467 -18.925)"/></g></svg>