<svg xmlns="http://www.w3.org/2000/svg" width="9.136" height="16.898" viewBox="0 0 9.136 16.898"><defs><style>.a{fill:#3b5998;}</style></defs><g transform="translate(-22.077)"><path class="a" d="M30.869,0,28.678,0a3.848,3.848,0,0,0-4.053,4.159V6.076h-2.2a.345.345,0,0,0-.345.345V9.2a.345.345,0,0,0,.345.345h2.2v7.01a.344.344,0,0,0,.345.345h2.875a.345.345,0,0,0,.345-.345V9.543h2.576a.344.344,0,0,0,.345-.345V6.421a.345.345,0,0,0-.345-.345H28.189V4.451c0-.781.186-1.178,1.2-1.178h1.476a.345.345,0,0,0,.344-.345V.348A.345.345,0,0,0,30.869,0Z"/></g></svg>