<svg xmlns="http://www.w3.org/2000/svg" width="471.18" height="439.91" viewBox="0 0 471.18 439.91"><defs><style>.a{fill:#e7fbfc;}.b{fill:#b2e3e5;}.c{fill:#27debf;}.d{fill:#bc1f61;}.e{fill:#fff;}.f{fill:#ec297b;}.g{fill:#bf165d;}.h{fill:#455a64;}.i{fill:#3f4fba;}.j{fill:#1b2568;}.k{fill:#2b388f;}.l{fill:#1a2255;}.m{fill:#3543a2;}.n{fill:#fafafa;}.o{fill:#b21e5d;}.p{fill:#e65c96;}.q{fill:#263238;}.r{fill:#ffa8a7;}.s{opacity:0.52;}.t{fill:#b16668;}.u{fill:#f28f8f;}.v{fill:#f9ec31;}.w{fill:#37474f;}</style></defs><g transform="translate(-14.41 -38.019)"><ellipse class="a" cx="235.59" cy="136.018" rx="235.59" ry="136.018" transform="translate(14.41 205.893)"/><ellipse class="b" cx="81.241" cy="46.904" rx="81.241" ry="46.904" transform="translate(120.006 351.179)"/><path class="c" d="M432.276,339.4l-9.527-5.5s-2.333-20.4-.78-36.2c2.181-22.2,16.52-48.917,33.625-42.643s-7.843,28.885-13.4,47.716S432.276,339.4,432.276,339.4Z"/><path class="d" d="M432.276,339.4l-9.527-5.5s-2.333-20.4-.78-36.2c2.181-22.2,16.52-48.917,33.625-42.643s-7.843,28.885-13.4,47.716S432.276,339.4,432.276,339.4Z"/><path class="e" d="M427.266,337.088h.019a.577.577,0,0,0,.557-.6c-1.673-49.333,22.885-74.149,23.133-74.393a.577.577,0,0,0-.809-.822c-.253.249-25.167,25.422-23.477,75.255A.577.577,0,0,0,427.266,337.088Z"/><path class="f" d="M438.265,342.833l-6.778-3.914s-1.153-14,5.711-31.007c5.975-14.806,20.8-27.089,28.259-24.508s7.271,7.869,3.636,13.416S443.338,315.588,438.265,342.833Z"/><path class="e" d="M434.69,341.345h0a.576.576,0,0,0,.574-.579c-.134-31.192,29.154-52.274,29.451-52.484a.576.576,0,1,0-.667-.94c-.3.212-30.074,21.643-29.937,53.429A.577.577,0,0,0,434.69,341.345Z"/><path class="g" d="M79.66,327.146l8.8-5.936s3.872-23.046.274-43.289c-5.058-28.46-24.685-37.932-31.69-34.958s-8.5,11.463,4.567,27.712C69.318,280.261,79.39,300.648,79.66,327.146Z"/><path class="e" d="M82.681,315.746a.888.888,0,0,1-.089-.005.636.636,0,0,1-.557-.707c3.177-26.8-8.137-55.872-20.441-67.44a.637.637,0,1,1,.874-.928C75,258.444,86.524,287.991,83.3,315.184A.638.638,0,0,1,82.681,315.746Z"/><path class="f" d="M56.62,342.688c-1.4.837-5.477-2.19-6.606-2.916a13.479,13.479,0,0,1-4.582-5.058,12.632,12.632,0,0,1-1.268-7.563,29.942,29.942,0,0,1,.881-4.051l1.05-3.937a9.922,9.922,0,0,0,.5-3.96c-.394-2.67-2.807-4.5-5-6.076-2.424-1.743-4.958-4.056-5.006-7.28a11.343,11.343,0,0,1,2.709-6.8c1.5-1.982,3.3-3.742,4.653-5.829a7.92,7.92,0,0,0,1.525-5.04,8.261,8.261,0,0,0-1.151-3.108c-1.179-2.077-2.718-3.97-3.546-6.21s-.771-5.046.957-6.693c1.419-1.352,3.562-1.578,5.52-1.487a12.738,12.738,0,0,1,5.193,1.716c5.172,2.747,8.21,8.751,13.682,10.836,2.111.8,4.409.944,6.6,1.479s4.442,1.607,5.492,3.607c2.07,3.942-1.534,8.921-.051,13.12,1.312,3.715,4.973,5.077,7.079,8.408A7.994,7.994,0,0,1,86.3,310.72a23.479,23.479,0,0,1-1.9,8.313,73.676,73.676,0,0,1-4.371,7.869S56.833,342.559,56.62,342.688Z"/><path class="e" d="M70.138,334.4h-.017a.642.642,0,0,1-.633-.652c.564-25.317-11.894-53.014-20.718-60.961a.638.638,0,1,1,.853-.948c9,8.107,21.711,36.263,21.141,61.937A.638.638,0,0,1,70.138,334.4Z"/><path class="e" d="M65.474,303.554a.618.618,0,0,1-.189-.025c-8.176-2.356-18.314-2.6-18.415-2.6a.639.639,0,0,1-.624-.651.62.62,0,0,1,.652-.624c.1,0,10.4.254,18.74,2.656a.637.637,0,0,1-.164,1.249Z"/><path class="h" d="M301.159,309.744l-3.794-2.192A4.79,4.79,0,0,1,295.2,303.8V146.284a4.787,4.787,0,0,1,2.165-3.75L402.71,81.714a4.784,4.784,0,0,1,4.33,0l3.795,2.191A4.783,4.783,0,0,1,413,87.653V245.17a4.784,4.784,0,0,1-2.165,3.75L305.488,309.746A4.782,4.782,0,0,1,301.159,309.744Z"/><path class="i" d="M412.982,87.3c-.15-1.12-1.06-1.53-2.15-.9l-105.34,60.83a4.481,4.481,0,0,0-1.53,1.61l-8.13-4.69a4.431,4.431,0,0,1,1.53-1.62l105.35-60.82a4.787,4.787,0,0,1,4.33,0l3.79,2.19A4.831,4.831,0,0,1,412.982,87.3Z"/><path class="j" d="M305.122,309.919a4.83,4.83,0,0,1-3.96-.17l-3.8-2.2a4.8,4.8,0,0,1-2.16-3.75V146.282a4.43,4.43,0,0,1,.63-2.13l8.13,4.69a4.375,4.375,0,0,0-.64,2.14V308.5C303.322,309.739,304.1,310.309,305.122,309.919Z"/><path class="k" d="M303.323,150.98V308.5c0,1.38.97,1.94,2.165,1.25L410.835,248.92A4.784,4.784,0,0,0,413,245.17V87.653c0-1.38-.969-1.94-2.165-1.249L305.488,147.23A4.786,4.786,0,0,0,303.323,150.98Z"/><path class="l" d="M278.722,211.022c-1.36-.81-7.67-4.4-8-4.59a2.018,2.018,0,0,1-.43-3.09l24.91-26.72,8.12,4.66-24.9,26.73A2.008,2.008,0,0,0,278.722,211.022Z"/><path class="m" d="M303.324,181.286l-24.9,26.723a2,2,0,0,0,1.63,3.362l23.274-1.917Z"/><path class="f" d="M358.161,133.2c12.278-7.089,22.231-1.343,22.231,12.834s-9.953,31.416-22.231,38.505-22.23,1.342-22.23-12.835S345.884,140.29,358.161,133.2Z"/><path class="e" d="M358.005,144.359c3.983-2.3,7.213-.436,7.213,4.163a15.944,15.944,0,0,1-7.213,12.493c-3.983,2.3-7.212.435-7.212-4.165A15.94,15.94,0,0,1,358.005,144.359Z"/><path class="e" d="M372.219,168.884c0-7.557-5.306-10.62-11.849-6.841l-4.091,2.361c-6.543,3.778-11.849,12.967-11.849,20.523v2.061a12.154,12.154,0,0,0,3.819.59,20.049,20.049,0,0,0,9.912-3.037,43.8,43.8,0,0,0,14.058-13.9Z"/><path class="f" d="M344.079,254.73l28.166-16.262c1.2-.69,2.165-.131,2.165,1.25v9.071a4.786,4.786,0,0,1-2.165,3.75L344.079,268.8c-1.2.69-2.165.131-2.165-1.25V258.48A4.784,4.784,0,0,1,344.079,254.73Z"/><path class="n" d="M330.3,234.466l55.734-32.178c1.435-.828,2.6-.157,2.6,1.5v3.376a5.743,5.743,0,0,1-2.6,4.5l-55.735,32.178c-1.434.828-2.6.157-2.6-1.5v-3.376A5.742,5.742,0,0,1,330.3,234.466Z"/><path class="n" d="M336.812,211.178q1.137-.658,1.768-.195t.63,2.053a5.939,5.939,0,0,1-.63,2.8,4.525,4.525,0,0,1-1.768,1.862l-1.505.868v3.229a.744.744,0,0,1-.075.319.464.464,0,0,1-.179.218l-.761.44a.136.136,0,0,1-.18-.012.31.31,0,0,1-.075-.231v-9.354a.744.744,0,0,1,.075-.319.474.474,0,0,1,.18-.219Zm-1.505,5.574,1.457-.842a2.408,2.408,0,0,0,.857-.82,2.45,2.45,0,0,0,.319-1.32q0-.812-.319-.938a1.028,1.028,0,0,0-.857.184l-1.457.841Z"/><path class="n" d="M343.4,207.371c.1-.057.176-.06.226-.007a.7.7,0,0,1,.132.293l2.3,7.822a.414.414,0,0,1,.009.1.744.744,0,0,1-.075.319.464.464,0,0,1-.179.218l-.677.391c-.125.072-.213.082-.263.03a.431.431,0,0,1-.1-.18l-.4-1.373L341.4,216.7l-.4,1.84a1.535,1.535,0,0,1-.1.3.615.615,0,0,1-.263.276l-.677.39a.137.137,0,0,1-.179-.014.306.306,0,0,1-.075-.23.511.511,0,0,1,.01-.107l2.3-10.482a2.172,2.172,0,0,1,.131-.445.537.537,0,0,1,.226-.253Zm.517,6.059-1.034-3.529-1.035,4.722Z"/><path class="n" d="M349.574,203.664a2.457,2.457,0,0,1,1.109-.379,1.355,1.355,0,0,1,.8.19,1.3,1.3,0,0,1,.485.582,2.19,2.19,0,0,1,.183.784.622.622,0,0,1-.07.323.511.511,0,0,1-.184.214l-.659.38c-.106.062-.185.076-.239.045a.429.429,0,0,1-.147-.168.741.741,0,0,0-.426-.384,1.125,1.125,0,0,0-.852.224,2.563,2.563,0,0,0-.465.348,2.477,2.477,0,0,0-.385.455,2.2,2.2,0,0,0-.259.517,1.661,1.661,0,0,0-.094.547,1.031,1.031,0,0,0,.089.492.38.38,0,0,0,.3.188,1.724,1.724,0,0,0,.559-.041c.232-.047.521-.112.865-.2a3.566,3.566,0,0,1,.974-.119,1.121,1.121,0,0,1,.667.222,1.221,1.221,0,0,1,.386.6,3.215,3.215,0,0,1,.127.983,4.846,4.846,0,0,1-.188,1.318,5.485,5.485,0,0,1-.536,1.265,5.775,5.775,0,0,1-.856,1.124,5.182,5.182,0,0,1-1.138.889,3.028,3.028,0,0,1-1.006.385,1.513,1.513,0,0,1-.851-.073,1.233,1.233,0,0,1-.6-.546,2.217,2.217,0,0,1-.253-1.011.626.626,0,0,1,.07-.324.509.509,0,0,1,.183-.214l.659-.379c.107-.063.188-.081.244-.055a.307.307,0,0,1,.142.178,1.533,1.533,0,0,0,.16.285.482.482,0,0,0,.253.186.835.835,0,0,0,.4.009,1.976,1.976,0,0,0,.6-.252,3.8,3.8,0,0,0,.546-.38,2.7,2.7,0,0,0,.461-.483,2.63,2.63,0,0,0,.319-.561,1.635,1.635,0,0,0,.122-.629.61.61,0,0,0-.131-.444.524.524,0,0,0-.4-.116,3.335,3.335,0,0,0-.663.107c-.263.065-.568.13-.912.194a2.745,2.745,0,0,1-.824.062.963.963,0,0,1-.582-.25,1.289,1.289,0,0,1-.343-.62,4.067,4.067,0,0,1-.113-1.058,4.748,4.748,0,0,1,.188-1.308,5.57,5.57,0,0,1,.518-1.24,5.477,5.477,0,0,1,.785-1.069A4.261,4.261,0,0,1,349.574,203.664Z"/><path class="n" d="M356.138,199.875a2.472,2.472,0,0,1,1.109-.38,1.367,1.367,0,0,1,.8.19,1.3,1.3,0,0,1,.483.582,2.2,2.2,0,0,1,.184.784.619.619,0,0,1-.071.323.5.5,0,0,1-.183.214l-.659.381c-.107.061-.186.076-.24.045a.445.445,0,0,1-.145-.169.747.747,0,0,0-.428-.384,1.124,1.124,0,0,0-.851.224,2.625,2.625,0,0,0-.851.8,2.282,2.282,0,0,0-.259.518,1.678,1.678,0,0,0-.094.547,1.038,1.038,0,0,0,.089.491.38.38,0,0,0,.3.189,1.757,1.757,0,0,0,.56-.041q.348-.07.865-.2a3.569,3.569,0,0,1,.973-.12,1.117,1.117,0,0,1,.667.222,1.214,1.214,0,0,1,.386.6,3.222,3.222,0,0,1,.127.984,4.861,4.861,0,0,1-.187,1.318,5.477,5.477,0,0,1-.536,1.264,5.787,5.787,0,0,1-.857,1.125,5.194,5.194,0,0,1-1.137.888,3.028,3.028,0,0,1-1.006.385,1.5,1.5,0,0,1-.851-.073,1.224,1.224,0,0,1-.6-.546,2.216,2.216,0,0,1-.254-1.011.612.612,0,0,1,.072-.323.492.492,0,0,1,.182-.215l.659-.379c.106-.062.187-.081.244-.054a.3.3,0,0,1,.141.178,1.735,1.735,0,0,0,.16.285.492.492,0,0,0,.254.185.837.837,0,0,0,.4.009,2.006,2.006,0,0,0,.6-.251,3.748,3.748,0,0,0,.545-.381,2.7,2.7,0,0,0,.782-1.044,1.626,1.626,0,0,0,.121-.628.61.61,0,0,0-.131-.445.531.531,0,0,0-.4-.116,3.435,3.435,0,0,0-.663.107c-.262.066-.567.13-.912.2a2.8,2.8,0,0,1-.823.062.969.969,0,0,1-.582-.25,1.293,1.293,0,0,1-.344-.621,4.057,4.057,0,0,1-.112-1.057,4.759,4.759,0,0,1,.187-1.309,5.589,5.589,0,0,1,.518-1.24,5.52,5.52,0,0,1,.785-1.069A4.309,4.309,0,0,1,356.138,199.875Z"/><path class="n" d="M363.427,201.126l-.809,4.8a2.344,2.344,0,0,1-.118.422.5.5,0,0,1-.211.26l-.763.44c-.094.054-.168.052-.22-.011a.553.553,0,0,1-.108-.291l-1.2-8.441a.87.87,0,0,1-.009-.11.763.763,0,0,1,.075-.32.475.475,0,0,1,.179-.218l.7-.4a.191.191,0,0,1,.18-.015c.056.025.094.1.112.239l.79,5.683.7-4.268a1.862,1.862,0,0,1,.09-.313.528.528,0,0,1,.239-.3l.77-.446c.114-.065.194-.057.241.022a.683.683,0,0,1,.088.208l.7,3.465.79-6.6a.889.889,0,0,1,.113-.37.533.533,0,0,1,.179-.19l.7-.4a.137.137,0,0,1,.179.014.307.307,0,0,1,.075.231,1.114,1.114,0,0,1-.009.12l-1.2,9.832a1.534,1.534,0,0,1-.107.417.55.55,0,0,1-.222.266l-.762.439c-.1.055-.165.05-.212-.014a.891.891,0,0,1-.118-.287Z"/><path class="n" d="M368.11,196.887a9.556,9.556,0,0,1,.2-1.645,7.187,7.187,0,0,1,.513-1.541,6.062,6.062,0,0,1,.846-1.328,4.508,4.508,0,0,1,1.205-1.007,2.376,2.376,0,0,1,1.193-.385,1.191,1.191,0,0,1,.847.351,2.2,2.2,0,0,1,.516.947,5.7,5.7,0,0,1,.208,1.415c.006.18.011.38.014.6s.005.448.005.685,0,.466-.005.69-.008.43-.014.616a9.434,9.434,0,0,1-.2,1.645,7.15,7.15,0,0,1-.512,1.541,5.879,5.879,0,0,1-.851,1.324,4.578,4.578,0,0,1-1.2,1,2.41,2.41,0,0,1-1.205.392,1.2,1.2,0,0,1-.846-.345,2.1,2.1,0,0,1-.513-.949,6.048,6.048,0,0,1-.2-1.41c-.006-.18-.011-.379-.014-.6s0-.448,0-.684,0-.467,0-.691S368.1,197.074,368.11,196.887Zm4.261-2.388a1.864,1.864,0,0,0-.438-1.362c-.266-.227-.619-.215-1.057.039a2.708,2.708,0,0,0-1.059,1.184,4.486,4.486,0,0,0-.437,1.866q-.02.561-.02,1.235c0,.449.007.852.02,1.212a1.83,1.83,0,0,0,.437,1.355c.267.222.619.207,1.059-.046a2.719,2.719,0,0,0,1.057-1.175,4.459,4.459,0,0,0,.438-1.86c.013-.374.018-.786.018-1.235S372.384,194.86,372.371,194.5Z"/><path class="n" d="M378.032,187.379q1.174-.678,1.786-.191a2.468,2.468,0,0,1,.612,1.978,6.134,6.134,0,0,1-.315,1.985,4.972,4.972,0,0,1-.927,1.642l1.3,2.827a.38.38,0,0,1,.028.144.609.609,0,0,1-.061.26.386.386,0,0,1-.146.177l-.8.461c-.125.073-.218.08-.278.024a.556.556,0,0,1-.127-.18l-1.231-2.664-1.251.723v3.374a.747.747,0,0,1-.075.317.485.485,0,0,1-.179.221l-.762.439a.137.137,0,0,1-.178-.013.3.3,0,0,1-.076-.231v-9.353a.728.728,0,0,1,.076-.319.483.483,0,0,1,.178-.221Zm-1.411,5.376,1.363-.787a2.545,2.545,0,0,0,.857-.784,2.269,2.269,0,0,0,.319-1.285q0-.81-.319-.9a1.186,1.186,0,0,0-.857.22l-1.363.787Z"/><path class="n" d="M384.7,183.529a2.664,2.664,0,0,1,1.208-.415,1.155,1.155,0,0,1,.856.31,2.077,2.077,0,0,1,.527.955,6.588,6.588,0,0,1,.221,1.524q.037,1.049,0,2.142a10.424,10.424,0,0,1-.221,1.778,7.256,7.256,0,0,1-.522,1.562,5.491,5.491,0,0,1-.842,1.289,4.624,4.624,0,0,1-1.18.964l-2.37,1.368a.136.136,0,0,1-.179-.013.307.307,0,0,1-.075-.231v-9.354a.74.74,0,0,1,.075-.318.481.481,0,0,1,.179-.22Zm1.542,3.106a3.44,3.44,0,0,0-.117-.793,1.166,1.166,0,0,0-.292-.526.669.669,0,0,0-.484-.185,1.476,1.476,0,0,0-.7.236l-1.26.727v6.516l1.307-.754a2.539,2.539,0,0,0,.668-.553,3.219,3.219,0,0,0,.47-.728,3.985,3.985,0,0,0,.287-.86,5.663,5.663,0,0,0,.117-.936C386.266,188.049,386.266,187.336,386.242,186.635Z"/><path class="f" d="M247.377,38.4a18.553,18.553,0,0,1,4.942,1.855,14.237,14.237,0,0,1,3.931,3.123,11.26,11.26,0,0,1,2.317,4.2,9.94,9.94,0,0,1,.1,5.082,10.12,10.12,0,0,1-1.555,3.722,12.142,12.142,0,0,1-2.439,2.561,19.708,19.708,0,0,1-2.9,1.873q-1.524.8-2.883,1.525a16.381,16.381,0,0,0-2.459,1.592,4.671,4.671,0,0,0-1.538,2.058,2.229,2.229,0,0,1-.736.948,1.3,1.3,0,0,1-1.1.224l-4.24-.939a1.566,1.566,0,0,1-.988-.687,1.267,1.267,0,0,1-.184-1.151,9.957,9.957,0,0,1,1.766-3.617,13.921,13.921,0,0,1,2.606-2.524A20.155,20.155,0,0,1,245,56.414q1.543-.77,2.877-1.5a12.952,12.952,0,0,0,2.271-1.544,3.6,3.6,0,0,0,1.2-1.987,4.312,4.312,0,0,0-1.012-3.881,7.788,7.788,0,0,0-4.439-2.416q-4.74-1.05-8.02,3.2a3.231,3.231,0,0,1-.788.79,1.458,1.458,0,0,1-1.1.079l-4.516-1a1.261,1.261,0,0,1-.79-.527,1.185,1.185,0,0,1-.166-.972,8.833,8.833,0,0,1,2.083-3.722,13.922,13.922,0,0,1,3.881-3,16.905,16.905,0,0,1,5.118-1.7A14.875,14.875,0,0,1,247.377,38.4Zm-4.783,32.172a1.561,1.561,0,0,1,1.171,1.838l-1.087,4.908a1.561,1.561,0,0,1-1.838,1.173l-4.8-1.062a1.563,1.563,0,0,1-1.174-1.84l1.087-4.908A1.559,1.559,0,0,1,237.8,69.5Z"/><path class="c" d="M252.716,85.305a12.756,12.756,0,0,1,3.643-.076,9.829,9.829,0,0,1,3.32.994,7.783,7.783,0,0,1,2.559,2.1,6.857,6.857,0,0,1,1.368,3.232,6.989,6.989,0,0,1-.045,2.785,8.375,8.375,0,0,1-.908,2.267,13.575,13.575,0,0,1-1.381,1.943q-.77.906-1.457,1.716a11.3,11.3,0,0,0-1.169,1.65,3.214,3.214,0,0,0-.459,1.712,1.541,1.541,0,0,1-.229.8.906.906,0,0,1-.65.426l-2.958.483a1.086,1.086,0,0,1-.81-.187.874.874,0,0,1-.412-.692,6.837,6.837,0,0,1,.207-2.77,9.572,9.572,0,0,1,1.024-2.285,13.817,13.817,0,0,1,1.443-1.934q.793-.888,1.461-1.7a9.009,9.009,0,0,0,1.061-1.57,2.5,2.5,0,0,0,.262-1.583,2.979,2.979,0,0,0-1.644-2.228,5.37,5.37,0,0,0-3.464-.413,5.18,5.18,0,0,0-4.324,4.1,2.186,2.186,0,0,1-.3.708,1,1,0,0,1-.684.332l-3.151.516a.874.874,0,0,1-.643-.135.822.822,0,0,1-.355-.582A6.088,6.088,0,0,1,244.4,92a9.588,9.588,0,0,1,1.72-2.918,11.654,11.654,0,0,1,2.844-2.4A10.253,10.253,0,0,1,252.716,85.305Zm5.168,21.849a1.075,1.075,0,0,1,1.222.878l.56,3.426a1.078,1.078,0,0,1-.879,1.222l-3.347.547a1.076,1.076,0,0,1-1.222-.878l-.56-3.426a1.08,1.08,0,0,1,.879-1.223Z"/><path class="o" d="M252.716,85.305a12.756,12.756,0,0,1,3.643-.076,9.829,9.829,0,0,1,3.32.994,7.783,7.783,0,0,1,2.559,2.1,6.857,6.857,0,0,1,1.368,3.232,6.989,6.989,0,0,1-.045,2.785,8.375,8.375,0,0,1-.908,2.267,13.575,13.575,0,0,1-1.381,1.943q-.77.906-1.457,1.716a11.3,11.3,0,0,0-1.169,1.65,3.214,3.214,0,0,0-.459,1.712,1.541,1.541,0,0,1-.229.8.906.906,0,0,1-.65.426l-2.958.483a1.086,1.086,0,0,1-.81-.187.874.874,0,0,1-.412-.692,6.837,6.837,0,0,1,.207-2.77,9.572,9.572,0,0,1,1.024-2.285,13.817,13.817,0,0,1,1.443-1.934q.793-.888,1.461-1.7a9.009,9.009,0,0,0,1.061-1.57,2.5,2.5,0,0,0,.262-1.583,2.979,2.979,0,0,0-1.644-2.228,5.37,5.37,0,0,0-3.464-.413,5.18,5.18,0,0,0-4.324,4.1,2.186,2.186,0,0,1-.3.708,1,1,0,0,1-.684.332l-3.151.516a.874.874,0,0,1-.643-.135.822.822,0,0,1-.355-.582A6.088,6.088,0,0,1,244.4,92a9.588,9.588,0,0,1,1.72-2.918,11.654,11.654,0,0,1,2.844-2.4A10.253,10.253,0,0,1,252.716,85.305Zm5.168,21.849a1.075,1.075,0,0,1,1.222.878l.56,3.426a1.078,1.078,0,0,1-.879,1.222l-3.347.547a1.076,1.076,0,0,1-1.222-.878l-.56-3.426a1.08,1.08,0,0,1,.879-1.223Z"/><path class="c" d="M280.991,90.689a1.275,1.275,0,0,1,.3,1.759L278.907,95.8a1.278,1.278,0,0,1-1.76.3l-3.274-2.328a1.276,1.276,0,0,1-.3-1.759l2.382-3.352a1.278,1.278,0,0,1,1.759-.3Zm13.853-22.712a15.083,15.083,0,0,1,3.132,2.971,11.6,11.6,0,0,1,1.966,3.6,9.211,9.211,0,0,1,.408,3.9,8.12,8.12,0,0,1-1.542,3.864,8.26,8.26,0,0,1-2.356,2.307,9.863,9.863,0,0,1-2.653,1.153,16.245,16.245,0,0,1-2.783.488q-1.405.119-2.659.23a13.237,13.237,0,0,0-2.358.416,3.819,3.819,0,0,0-1.815,1.061,1.818,1.818,0,0,1-.857.479,1.061,1.061,0,0,1-.9-.182l-2.895-2.058a1.287,1.287,0,0,1-.526-.832,1.038,1.038,0,0,1,.228-.927,8.149,8.149,0,0,1,2.484-2.162,11.471,11.471,0,0,1,2.767-1.071,16.383,16.383,0,0,1,2.826-.427q1.408-.087,2.645-.213a10.6,10.6,0,0,0,2.2-.439,2.954,2.954,0,0,0,1.537-1.114,3.528,3.528,0,0,0,.473-3.247,6.363,6.363,0,0,0-2.573-3.233q-3.238-2.3-7.062-.147a2.637,2.637,0,0,1-.846.344,1.192,1.192,0,0,1-.853-.291l-3.085-2.193a1.028,1.028,0,0,1-.428-.648.969.969,0,0,1,.186-.785,7.2,7.2,0,0,1,2.754-2.141,11.381,11.381,0,0,1,3.881-1.025,13.806,13.806,0,0,1,4.4.346A12.177,12.177,0,0,1,294.844,67.977Z"/><path class="p" d="M280.991,90.689a1.275,1.275,0,0,1,.3,1.759L278.907,95.8a1.278,1.278,0,0,1-1.76.3l-3.274-2.328a1.276,1.276,0,0,1-.3-1.759l2.382-3.352a1.278,1.278,0,0,1,1.759-.3Zm13.853-22.712a15.083,15.083,0,0,1,3.132,2.971,11.6,11.6,0,0,1,1.966,3.6,9.211,9.211,0,0,1,.408,3.9,8.12,8.12,0,0,1-1.542,3.864,8.26,8.26,0,0,1-2.356,2.307,9.863,9.863,0,0,1-2.653,1.153,16.245,16.245,0,0,1-2.783.488q-1.405.119-2.659.23a13.237,13.237,0,0,0-2.358.416,3.819,3.819,0,0,0-1.815,1.061,1.818,1.818,0,0,1-.857.479,1.061,1.061,0,0,1-.9-.182l-2.895-2.058a1.287,1.287,0,0,1-.526-.832,1.038,1.038,0,0,1,.228-.927,8.149,8.149,0,0,1,2.484-2.162,11.471,11.471,0,0,1,2.767-1.071,16.383,16.383,0,0,1,2.826-.427q1.408-.087,2.645-.213a10.6,10.6,0,0,0,2.2-.439,2.954,2.954,0,0,0,1.537-1.114,3.528,3.528,0,0,0,.473-3.247,6.363,6.363,0,0,0-2.573-3.233q-3.238-2.3-7.062-.147a2.637,2.637,0,0,1-.846.344,1.192,1.192,0,0,1-.853-.291l-3.085-2.193a1.028,1.028,0,0,1-.428-.648.969.969,0,0,1,.186-.785,7.2,7.2,0,0,1,2.754-2.141,11.381,11.381,0,0,1,3.881-1.025,13.806,13.806,0,0,1,4.4.346A12.177,12.177,0,0,1,294.844,67.977Z"/><path class="q" d="M206.526,179.212H171V93.127A28.188,28.188,0,0,1,199.187,64.94h3.282a28.188,28.188,0,0,1,28.188,28.187v61.955A24.13,24.13,0,0,1,206.526,179.212Z"/><path class="q" d="M167.545,386.44a66.228,66.228,0,0,0-1.029,10.8c-.125,6.558-1.33,8.886-1.489,14.268-.182,6.151.88,8.452,3.376,11.909s9.045,6.593,11.814.75c2.8-5.914,2.412-9.671,1.527-15.7-.916-6.237-1.032-9.682-1.562-14.439-.467-4.193-1.027-7.378-1.027-7.378Z"/><path class="r" d="M186.162,342.87l-21.6-.391c.321,14.421,2.613,30.429,2.987,43.961.07,2.547-.064,19.792.9,25.033,1.443,7.874,10.79,6.811,11.285,2.1s-.6-24.846-.572-26.922c-.082-8.678,3.985-23.327,6.118-38.9C185.378,346.979,186.063,343.616,186.162,342.87Z"/><path class="q" d="M213.914,375.217s-.853-.458-1.029.452c-.209,1.083-.521,3.315-.971,5.093-.625,2.471-1.145,6.541-.77,8.554s5.068,4.606,8.116,5.541A24.842,24.842,0,0,1,229.3,400.81c3.018,2.84,9.531,5.524,13.966,5.492,5.248-.038,8.907-1.748,10.636-4.558,1.806-2.935-1.576-3.151-7.574-7.042-1.362-.884-2.912-1.883-4.656-3.023-9.5-6.207-12.981-9.533-15.669-15.741Z"/><path class="r" d="M226.082,371.374c-.16-4.465,2.9-42.346,2.9-42.346l-20.517,9.353c4.394,26.224,5.33,32.407,5.408,36.7h0a3.719,3.719,0,0,0-.116,1.1c.019,5.1,5.768,7.843,10.253,11.239a83.571,83.571,0,0,0,12.131,7.919c3.258,1.638,9.876,1.787,10.7-.31-5.459-4.167-13.4-10.4-17.737-15.164C227.029,377.588,226.242,375.84,226.082,371.374Z"/><path class="h" d="M173.41,202.157c-7.876,17.3-7.875,30.674-6.574,52.744,1.194,20.245,3.1,38.068,3.1,38.068-.3,3.593-5.3,10.6-5.944,26.477-.6,14.842,1.022,33.709,1.022,33.709s11.208,6.213,19.5-.054c0,0,8-38.188,10.341-56.767,2.045-16.213,5.6-36.929,5.6-36.929l7.528,36.842a96.488,96.488,0,0,0-3.534,16c-1.058,10.928,5.053,32.386,5.053,32.386s11.582,3.456,18.654-2.816c0,0,2.645-34.888,3.632-48.052,1.322-17.628-1.457-65.351-3.633-90.616Z"/><path class="q" d="M200.449,259.4l3.112-27.732s13.94-1.863,20.255-7.8a22.882,22.882,0,0,1-16.426,10.382l-4.5,25.8,5.086,36.187Z"/><path class="r" d="M256.9,195.343a117.648,117.648,0,0,0,.76-15.252c-.3-4.4-1.092-5.117-7.244-12.915-8.307-10.528-15.4-19.99-22.894-29.4-5.354-6.721-10.98-7.756-16.477-7.451-3.842.212,3.655,18.682,7.431,29.61l21.552,23.181a4.622,4.622,0,0,1,.857,3.166l-1.323,19.734,6.453,8.633S255.785,206.219,256.9,195.343Z"/><path class="c" d="M190.281,130.919h0c-4.167.287-11.748.954-11.748.954-4.374,2.441-5.479,4.442-6.293,10.252-.346,2.471,1.669,9.065,3.4,18.433l3.283,17.374-.356,8.616c-1.705,5.257-5.559,11.792-8.954,21.424,16.7,9.318,30.7,9.663,43.4,8.033,9.684-1.243,14.808-3.587,16.517-5.9-.356-9.516-1.03-15.392-1.2-25.333-.069-4.176.182-8.388.344-13.194,6.5-5.337,6.571-14.213,3.027-19.95-8.234-13.329-16.238-21.721-21.54-21.291Z"/><path class="k" d="M190.281,130.919h0c-4.167.287-11.748.954-11.748.954-4.374,2.441-5.479,4.442-6.293,10.252-.346,2.471,1.669,9.065,3.4,18.433l3.283,17.374-.356,8.616c-1.705,5.257-5.559,11.792-8.954,21.424,16.7,9.318,30.7,9.663,43.4,8.033,9.684-1.243,14.808-3.587,16.517-5.9-.356-9.516-1.03-15.392-1.2-25.333-.069-4.176.182-8.388.344-13.194,6.5-5.337,6.571-14.213,3.027-19.95-8.234-13.329-16.238-21.721-21.54-21.291Z"/><path class="s" d="M215.751,171.72s-7.626,5.918-16.328,2.831a14.9,14.9,0,0,1-9.973-10.694s-.924,9.949,10.054,13.342C210.1,180.473,215.751,171.72,215.751,171.72Z"/><path class="r" d="M226.091,103.61c-.328,14.437-5.014,18.006-7.362,19.031s-6.881.4-11.279-.328v8.664s5.075,5.322,4.7,9.29-7.978,4.42-13.679.534a43.373,43.373,0,0,1-8.429-7.611,3.079,3.079,0,0,1-.728-1.994V110.808s-2.409,2.553-6.675-.369a7.865,7.865,0,0,1-2.02-11.423c1.856-2.184,6.573-2.338,8.839,1.056,1.271,2.492,1.446,4.994,2.871,3.958,3.8-2.738,1.764-8.962,6.357-12.038.011,0,.011-.01.021-.01a32.141,32.141,0,0,1,4.676-2.041c8.193-2.83,15.288-5.209,17-10.807C223.61,81.051,226.491,86.578,226.091,103.61Z"/><circle class="t" cx="1.895" cy="1.895" r="1.895" transform="translate(208.048 112.719)"/><path class="q" d="M208.675,101.421a2,2,0,1,1-2.1-1.977A2.029,2.029,0,0,1,208.675,101.421Z"/><path class="q" d="M223.83,101.618a1.844,1.844,0,0,1-1.719,1.97,1.741,1.741,0,0,1-1.907-1.8,1.816,1.816,0,1,1,3.626-.172Z"/><path class="h" d="M206.107,106.562a6.511,6.511,0,0,1-6.5-6.5c0-4.422,4.557-4.422,6.5-4.422s6.5,0,6.5,4.422A6.511,6.511,0,0,1,206.107,106.562Zm0-9.9c-3.943,0-5.479.952-5.479,3.4a5.479,5.479,0,0,0,10.957,0C211.585,97.614,210.049,96.662,206.107,96.662Z"/><path class="h" d="M222.618,106.562a6.511,6.511,0,0,1-6.5-6.5c0-4.422,4.557-4.422,6.5-4.422s6.5,0,6.5,4.422A6.511,6.511,0,0,1,222.618,106.562Zm0-9.9c-3.943,0-5.479.952-5.479,3.4a5.478,5.478,0,0,0,10.957,0C228.1,97.614,226.56,96.662,222.618,96.662Z"/><path class="u" d="M213.621,97.962l.321,12.145,6.392-1.98Z"/><path class="u" d="M207.445,122.31c-4.643-.609-14.2-3.353-15.684-7.129a9.776,9.776,0,0,0,3.35,4.819c2.853,2.445,12.334,5.2,12.334,5.2Z"/><path class="q" d="M207.665,92.064l-4.235,2.582a2.6,2.6,0,0,1,.862-3.5A2.42,2.42,0,0,1,207.665,92.064Z"/><path class="q" d="M224.921,94.943l-4.72-1.649a2.4,2.4,0,0,1,3.1-1.585A2.627,2.627,0,0,1,224.921,94.943Z"/><path class="h" d="M212.1,100.576a.516.516,0,0,1-.512-.517c0-.833,1.646-1.37,3.123-1.37s2.431.537,2.431,1.37a.513.513,0,0,1-1.025,0,2.066,2.066,0,0,0-1.406-.345,5.807,5.807,0,0,0-2.1.354A.508.508,0,0,1,212.1,100.576Z"/><path class="h" d="M200.133,100.143l-.058,0L188.644,99.1a5.647,5.647,0,0,0-1.873-1.216l13.418,1.238a.513.513,0,0,1-.056,1.023Z"/><path class="r" d="M153.2,112.056c3.738-4.994,6.287-8.768,9.7-13.049,1.938-2.43,3.176-4.165,5.04-6.66,1.282-1.717,2.035-3.165,3.457-3.7a11.945,11.945,0,0,0,4.172-2.864,25.989,25.989,0,0,0,1.973-2.517,37.567,37.567,0,0,1,7.552-7.606c3.009-2.268,6.352-4,9.439-6.156,1.843-1.289,3.817-3.43,1.576-5.429a5.26,5.26,0,0,0-2.395-1.144c-5.441-1.189-10.189.687-15.512,2.048a44.161,44.161,0,0,0-6.776,2.289,11.758,11.758,0,0,0-3,1.722,15.681,15.681,0,0,0-3.084,4.415c-2.393,4.216-7.35,7.936-10.839,11.217-4.093,3.85-7.751,7.38-12.42,11.628-4.2,3.823-8.313,7.348-12.167,11.523-3.188,3.454-2.028,6.156-1.574,7.09,2.6,5.344,5.507,7.259,8.982,10.57,6.019,5.734,26.752,22.228,33.629,27.672a11.32,11.32,0,0,1,3.371,4.4l1.313,3.05c7.84,1.442,13.071-10.328,6.578-24.5a14.773,14.773,0,0,0-4.767-5.746C169.264,124.341,153.2,112.056,153.2,112.056Z"/><path class="u" d="M153.2,112.056a20.7,20.7,0,0,1-9.582,6.6s5,1.276,11.846-4.867Z"/><path class="h" d="M254.861,184.908l.026,0L253.6,183.8v.017a1.451,1.451,0,0,0-1.318-.147L238.4,187.451a5.11,5.11,0,0,0-3.12,2.916L225.289,219.2a1.318,1.318,0,0,0,.184,1.473l-.011,0,1.322,1.139v-.017a1.44,1.44,0,0,0,1.33.157L242,218.175a5.113,5.113,0,0,0,3.12-2.916c1.963-5.666,8.031-23.164,9.993-28.829C255.358,185.719,255.236,185.185,254.861,184.908Z"/><path class="v" d="M226.575,220.3l9.992-28.829a5.113,5.113,0,0,1,3.12-2.916l13.885-3.776c1.287-.35,1.976.388,1.54,1.648-1.962,5.666-8.03,23.163-9.992,28.829A5.117,5.117,0,0,1,242,218.175l-13.885,3.776C226.827,222.3,226.138,221.563,226.575,220.3Z"/><path class="w" d="M238.176,189.359a5.006,5.006,0,0,0-1.611,2.118l-10,28.82a1.379,1.379,0,0,0,.139,1.446l-1.243-1.065.013-.013a1.305,1.305,0,0,1-.19-1.471l10-28.833a4.89,4.89,0,0,1,1.485-2Z"/><path class="u" d="M251.047,198.045c-.979,2.937-4.469,4.9-10.2,6.255s-8.912,7.449-7.985,9.3,10.193,3.575,13.9,3.045,7.436-5.888,8.558-7.546,2.43-13.239,1.239-14.827-3.695-1.345-3.695-1.345Z"/></g></svg>