<svg xmlns="http://www.w3.org/2000/svg" width="18.519" height="18.519" viewBox="0 0 18.519 18.519"><defs><style>.a{fill:#fbbd00;}.b{fill:#0f9d58;}.c{fill:#31aa52;}.d{fill:#3c79e6;}.e{fill:#cf2d48;}.f{fill:#eb4132;}</style></defs><path class="a" d="M4.34,105.85a4.889,4.889,0,0,1,.692-2.513v-3.122H1.911a9.264,9.264,0,0,0,0,11.269H5.032v-3.122A4.889,4.889,0,0,1,4.34,105.85Z" transform="translate(0 -96.59)"/><path class="b" d="M198.17,373.65,196,375.82l2.17,2.17a9.189,9.189,0,0,0,5.635-1.911v-3.118h-3.118A4.918,4.918,0,0,1,198.17,373.65Z" transform="translate(-188.911 -359.471)"/><path class="c" d="M55.945,325.477,52.823,328.6a9.414,9.414,0,0,0,.8.913,9.2,9.2,0,0,0,6.547,2.712v-4.34A4.921,4.921,0,0,1,55.945,325.477Z" transform="translate(-50.912 -313.705)"/><path class="d" d="M265.259,199.446a9.338,9.338,0,0,0-.152-1.677l-.081-.445H256v4.34h4.393a4.9,4.9,0,0,1-1.877,2.012l3.118,3.118a9.4,9.4,0,0,0,.913-.8A9.2,9.2,0,0,0,265.259,199.446Z" transform="translate(-246.741 -190.187)"/><path class="e" d="M201.648,5.781l.384.384L205.1,3.1l-.384-.384A9.2,9.2,0,0,0,198.17,0L196,2.17l2.17,2.17A4.887,4.887,0,0,1,201.648,5.781Z" transform="translate(-188.911)"/><path class="f" d="M60.171,4.34V0a9.2,9.2,0,0,0-6.547,2.712,9.4,9.4,0,0,0-.8.913l3.122,3.122A4.921,4.921,0,0,1,60.171,4.34Z" transform="translate(-50.911 0)"/></svg>