<svg xmlns="http://www.w3.org/2000/svg" width="117.013" height="119" viewBox="0 0 117.013 119"><defs><style>.a,.b,.c,.e{fill:#fff;}.a,.b{stroke:#06edff;}.b{stroke-width:7px;}.d,.h{fill:#06edff;}.f,.h{stroke:none;}.g{fill:none;}</style></defs><g transform="translate(-1175.4 -2741)"><g class="a" transform="translate(1178 2753)"><circle class="f" cx="52.5" cy="52.5" r="52.5"/><circle class="g" cx="52.5" cy="52.5" r="52"/></g><g class="b" transform="translate(1190 2765)"><circle class="f" cx="40.5" cy="40.5" r="40.5"/><circle class="g" cx="40.5" cy="40.5" r="37"/></g><rect class="c" width="10" height="14" transform="translate(1225 2746)"/><rect class="c" width="15" height="14" transform="translate(1246 2846)"/><g class="a" transform="translate(1198 2741)"><circle class="f" cx="6.5" cy="6.5" r="6.5"/><circle class="g" cx="6.5" cy="6.5" r="6"/></g><circle class="d" cx="3.5" cy="3.5" r="3.5" transform="translate(1201 2744)"/><path class="d" d="M4.125,0V4.125H0v2.75H4.125V11h2.75V6.875H11V4.125H6.875V0Z" transform="translate(1175.4 2760)"/><path class="d" d="M4.125,0V4.125H0v2.75H4.125V11h2.75V6.875H11V4.125H6.875V0Z" transform="translate(1282.887 2830.987) rotate(30)"/><g class="e" transform="translate(1269.5 2757)"><path class="f" d="M 5.535571098327637 7.5 L 2.464429140090942 7.5 L 0.5391758680343628 5.023717880249023 L 1.228312253952026 1.926775217056274 L 4 0.5576725006103516 L 6.771687984466553 1.926775217056274 L 7.460824012756348 5.023717880249023 L 5.535571098327637 7.5 Z"/><path class="h" d="M 4 1.115345001220703 L 1.664388179779053 2.269043445587158 L 1.078361988067627 4.902615547180176 L 2.709030628204346 7 L 5.290969848632813 7 L 6.921638488769531 4.902615547180176 L 6.335611820220947 2.269043445587158 L 4 1.115345001220703 M 4 0 L 7.207749843597412 1.584499835968018 L 8 5.144829750061035 L 5.78016996383667 8 L 2.21983003616333 8 L 0 5.144829750061035 L 0.7922501564025879 1.584499835968018 L 4 0 Z"/></g></g></svg>