<svg xmlns="http://www.w3.org/2000/svg" width="104.044" height="97.745" viewBox="0 0 104.044 97.745"><defs><style>.a{fill:#06edff;}</style></defs><g transform="translate(0 -15.5)"><path class="a" d="M82.649,15.5H21.4a21.4,21.4,0,0,0-.128,42.792h9.61V41.528A13.63,13.63,0,0,1,44.493,27.913h.03A13.637,13.637,0,0,1,58.108,41.528V58.292h24.54a21.4,21.4,0,0,0,0-42.792ZM88.7,33.912,76.511,46.1a3.048,3.048,0,0,1-4.311,0l-6.1-6.1A3.048,3.048,0,0,1,70.414,35.7l3.941,3.941L84.393,29.6A3.048,3.048,0,1,1,88.7,33.912Z"/><path class="a" d="M140.711,139.442l-19.623-2.04V114.1a7.519,7.519,0,1,0-15.038,0v39h-.068l-7.422-6.2a7.232,7.232,0,1,0-9.269,11.1l15.065,12.571h44.368v-22.06A9.144,9.144,0,0,0,140.711,139.442Z" transform="translate(-69.076 -72.572)"/><path class="a" d="M181.95,457.6A3.048,3.048,0,0,0,185,460.645h36.578a3.048,3.048,0,0,0,3.048-3.048v-6.1H181.95Z" transform="translate(-144.976 -347.4)"/></g></svg>