<svg xmlns="http://www.w3.org/2000/svg" width="16.243" height="16.246" viewBox="0 0 16.243 16.246"><defs><style>.a{fill:#06edff;}</style></defs><g transform="translate(-0.449)"><path class="a" d="M16.65,4.776a5.936,5.936,0,0,0-.378-1.971A4.162,4.162,0,0,0,13.9.428,5.952,5.952,0,0,0,11.925.051C11.055.01,10.779,0,8.573,0S6.091.01,5.225.048A5.938,5.938,0,0,0,3.254.425a3.964,3.964,0,0,0-1.441.939A4,4,0,0,0,.877,2.8,5.952,5.952,0,0,0,.5,4.773C.458,5.643.449,5.919.449,8.125s.01,2.482.048,3.348a5.936,5.936,0,0,0,.378,1.971,4.161,4.161,0,0,0,2.377,2.377,5.952,5.952,0,0,0,1.971.378c.866.038,1.143.048,3.348.048s2.482-.009,3.348-.048a5.935,5.935,0,0,0,1.971-.378,4.155,4.155,0,0,0,2.377-2.377,5.956,5.956,0,0,0,.378-1.971c.038-.866.048-1.143.048-3.348s0-2.482-.041-3.348Zm-1.463,6.633a4.453,4.453,0,0,1-.279,1.507,2.7,2.7,0,0,1-1.542,1.542,4.469,4.469,0,0,1-1.507.279c-.857.038-1.114.048-3.282.048s-2.428-.009-3.282-.048a4.451,4.451,0,0,1-1.507-.279,2.5,2.5,0,0,1-.933-.606,2.526,2.526,0,0,1-.606-.933,4.469,4.469,0,0,1-.279-1.507c-.038-.857-.048-1.114-.048-3.282s.009-2.428.048-3.282a4.451,4.451,0,0,1,.279-1.507,2.469,2.469,0,0,1,.609-.933A2.522,2.522,0,0,1,3.79,1.8,4.472,4.472,0,0,1,5.3,1.523c.857-.038,1.114-.048,3.282-.048s2.428.01,3.282.048a4.453,4.453,0,0,1,1.507.279,2.5,2.5,0,0,1,.933.606,2.525,2.525,0,0,1,.606.933,4.471,4.471,0,0,1,.279,1.507c.038.857.048,1.114.048,3.282s-.01,2.422-.048,3.278Zm0,0" transform="translate(0 0)"/><path class="a" d="M129.122,124.5a4.173,4.173,0,1,0,4.173,4.173A4.174,4.174,0,0,0,129.122,124.5Zm0,6.881a2.707,2.707,0,1,1,2.707-2.707A2.708,2.708,0,0,1,129.122,131.381Zm0,0" transform="translate(-120.549 -120.549)"/><path class="a" d="M364.4,89.576a.974.974,0,1,1-.974-.974A.974.974,0,0,1,364.4,89.576Zm0,0" transform="translate(-350.512 -85.79)"/></g></svg>