<svg xmlns="http://www.w3.org/2000/svg" width="26" height="26" viewBox="0 0 26 26" fill="none"><path d="M12.9998 7.40983C9.91885 7.40983 7.40983 9.91885 7.40983 12.9998C7.40983 16.0808 9.91885 18.5899 12.9998 18.5899C16.0808 18.5899 18.5899 16.0808 18.5899 12.9998C18.5899 9.91885 16.0808 7.40983 12.9998 7.40983Z" fill="white"></path><path fill-rule="evenodd" clip-rule="evenodd" d="M6.5 0H19.5C23.088 0 26 2.91199 26 6.5V19.5C26 23.088 23.088 26 19.5 26H6.5C2.91199 26 0 23.088 0 19.5V6.5C0 2.91199 2.91199 0 6.5 0ZM5.88904 13C5.88904 16.926 9.07397 20.111 13 20.111C16.926 20.111 20.111 16.926 20.111 13C20.111 9.07397 16.926 5.88899 13 5.88899C9.07397 5.88899 5.88904 9.07397 5.88904 13ZM19.1098 5.34303C19.1098 4.62802 19.6949 4.04303 20.4098 4.04303C21.1248 4.04303 21.7098 4.61501 21.7098 5.34303C21.7098 6.05804 21.1248 6.64303 20.4098 6.64303C19.6949 6.64303 19.1098 6.05804 19.1098 5.34303Z" fill="white"></path></svg>