<svg xmlns="http://www.w3.org/2000/svg" xmlns:xlink="http://www.w3.org/1999/xlink" width="820.301" height="702.845" viewBox="0 0 820.301 702.845"><defs><style>.a{fill:none;}.b{fill:#e7fbfc;}.c{opacity:0.8;}.d{opacity:0.5;}.e{fill:#ced3e6;}.f{fill:#fff;}.g{fill:#585859;}.h{fill:#39393b;}.i{fill:#df615c;}.j{fill:#5392f3;}.k{fill:#d2dcec;}.l{clip-path:url(#a);}.m{fill:#ea9b7a;}.n{fill:#d96c63;}.o{fill:#faaf3a;}.p{fill:#c77e2e;}.q{fill:#0875f7;}.r{fill:#084fc7;}.s{fill:#21b573;}.t{fill:#217c58;}.u{fill:#b11722;}</style><clipPath id="a"><path class="a" d="M342.214,267.493c-1.317,4.029-1.317,4.732-1.317,4.029l.043-115.116c0-.7-.043-.593-.043-83.947h258.87l.034,195.026Z"/></clipPath></defs><g transform="translate(-24.699 -4981.203)"><path class="b" d="M5806.072,6668.386h752.2s34.1-78.084,4.2-158.565-34.788-117.348-33.566-146.425,15.257-125.134,10.375-145.9-16.9-138.351-86-200.654-176.37-71.956-232.065-6.143-99.014,243.946-187.715,232.539-71.558-68.84-126.484-55.34-240.646,151.275-102.478,478.385A8.935,8.935,0,0,0,5806.072,6668.386Z" transform="translate(-5729.754 -984.338)"/><g transform="translate(72.699 5159)"><g class="c"><g class="d"><path class="e" d="M384.886,173.444a145.475,145.475,0,0,1-66.317-28.106c-29.292-22.109-90.592-59.731-149.067-40.991C88.846,130.2,88.485,204.971,109.494,245.589S279.485,405.155,472.627,386.228c172.835-16.936,206.515-210.8,114.337-245.878C507.015,109.924,479.739,187.448,384.886,173.444Z"/></g><g class="d"><ellipse class="e" cx="7.494" cy="8.066" rx="7.494" ry="8.066" transform="translate(626.209 136.684)"/></g><path class="e" d="M144.422,91.614a4.86,4.86,0,0,1,5.436,3.043c1.381,3.743-2.235,7.935-7.1,6.055h0C138.557,97.6,140.385,92.357,144.422,91.614Z"/><circle class="e" cx="9.762" cy="9.762" r="9.762" transform="translate(602.039 80.719) rotate(-80.754)"/><g class="c"><path class="e" d="M174.015,83.916a9.862,9.862,0,1,1-12.158-6.834A9.862,9.862,0,0,1,174.015,83.916Z"/></g><path class="e" d="M564.211,377.728a4.86,4.86,0,0,1,5.907,1.98c2.053,3.42-.72,8.211-5.852,7.27h0C559.563,384.7,560.382,379.209,564.211,377.728Z"/><path class="e" d="M591.857,364.661a9.863,9.863,0,1,1-13.218-4.454A9.862,9.862,0,0,1,591.857,364.661Z"/><circle class="e" cx="6.005" cy="6.005" r="6.005" transform="translate(588.846 51.707)"/></g><g class="c"><path class="e" d="M616.854,166.51c-.008-53.652-44.68-112.442-100.277-115.993q-1.466-.093-2.959-.163c-79.7-3.715-85.777,93.5-157.891,104.461s-127.184-44.386-213.472-8.273c-77.5,32.433-98.489,214.682,129.214,221.99C453.65,374.379,616.878,326.582,616.854,166.51Z"/></g><ellipse class="e" cx="175.706" cy="9.064" rx="175.706" ry="9.064" transform="translate(298.29 415.415)"/><path class="e" d="M593.009,399.108H568.66v25.323h28.473v-21.2A4.124,4.124,0,0,0,593.009,399.108Z"/><rect class="e" width="84.52" height="54.261" transform="translate(438.408 344.848)"/><path class="f" d="M15.922,0H217.246a15.922,15.922,0,0,1,15.922,15.922v9.4a0,0,0,0,1,0,0H0a0,0,0,0,1,0,0v-9.4A15.922,15.922,0,0,1,15.922,0Z" transform="translate(354.382 399.108)"/><rect class="f" width="84.52" height="54.261" transform="translate(428.049 344.848)"/><path class="e" d="M428.049,361.509l84.52-6.767.013-9.894H428.16Z"/><rect class="e" width="383.464" height="235.372" rx="11.293" transform="translate(279.117 109.49)"/><path class="g" d="M662.581,120.783v197.05H627.67V109.49h23.619A11.293,11.293,0,0,1,662.581,120.783Z"/><path class="f" d="M648.223,120.783V333.569a11.294,11.294,0,0,1-11.293,11.293H290.41a11.294,11.294,0,0,1-11.293-11.293V120.783A11.294,11.294,0,0,1,290.41,109.49H636.93c.169,0,.335,0,.5.011.124.006.245.012.366.023h.014c.087.006.175.014.262.025.146.012.29.031.436.051.1.011.189.025.285.045.045.006.09.014.135.023.093.014.183.031.276.053A11.3,11.3,0,0,1,648.223,120.783Z"/><path class="h" d="M639.205,109.721c-.093-.022-.183-.039-.276-.053-.045-.009-.09-.017-.135-.023-.1-.02-.189-.034-.285-.045-.146-.02-.29-.039-.436-.051-.087-.011-.175-.019-.262-.025H637.8c-.121-.011-.242-.017-.366-.023-.166-.008-.332-.011-.5-.011H290.41a11.294,11.294,0,0,0-11.293,11.293v197.05H648.223V120.783A11.3,11.3,0,0,0,639.205,109.721ZM633.582,298.15a3.07,3.07,0,0,1-3.071,3.072H296.829a3.069,3.069,0,0,1-3.071-3.072V127.2a3.069,3.069,0,0,1,3.071-3.071H630.511a3.069,3.069,0,0,1,3.071,3.071Z"/><rect class="e" width="339.825" height="177.092" rx="3.072" transform="translate(293.758 124.131)"/><path class="f" d="M633.582,127.2v16.133H293.758V127.2a3.069,3.069,0,0,1,3.071-3.071H630.511A3.069,3.069,0,0,1,633.582,127.2Z"/><path class="i" d="M607.261,133.475a2.609,2.609,0,1,1-2.609-2.61A2.609,2.609,0,0,1,607.261,133.475Z"/><circle class="j" cx="2.609" cy="2.609" r="2.609" transform="translate(610.499 130.865)"/><path class="k" d="M2.434,0H267.909a2.435,2.435,0,0,1,2.435,2.435v.652a2.434,2.434,0,0,1-2.434,2.434H2.434A2.434,2.434,0,0,1,0,3.087V2.434A2.434,2.434,0,0,1,2.434,0Z" transform="translate(323.431 130.714)"/><path d="M306.027,133.475v2.555a.468.468,0,0,1-.7.406l-2.213-1.278-2.213-1.277a.469.469,0,0,1,0-.812l2.213-1.278,2.213-1.277a.468.468,0,0,1,.7.4Z"/><path d="M309.915,133.475v2.555a.469.469,0,0,0,.7.406l2.213-1.278,2.213-1.277a.468.468,0,0,0,0-.812l-2.213-1.278-2.213-1.277a.468.468,0,0,0-.7.4Z"/><rect class="h" width="6.265" height="1.474" rx="0.654" transform="translate(618.656 135.075) rotate(-45)"/><rect class="h" width="1.474" height="6.265" rx="0.654" transform="translate(618.656 131.687) rotate(-45)"/><rect class="f" width="262.088" height="147.115" rx="6.422" transform="translate(332.171 147.229)"/><path class="e" d="M408.03,222.5H350.567a1.6,1.6,0,0,1-1.6-1.6h0a1.6,1.6,0,0,1,1.6-1.6H408.03a1.6,1.6,0,0,1,1.6,1.6h0A1.6,1.6,0,0,1,408.03,222.5Z"/><path class="e" d="M408.03,208.995H350.567a1.6,1.6,0,0,1-1.6-1.6h0a1.6,1.6,0,0,1,1.6-1.6H408.03a1.6,1.6,0,0,1,1.6,1.6h0A1.6,1.6,0,0,1,408.03,208.995Z"/><path class="e" d="M408.03,236.008H350.567a1.6,1.6,0,0,1-1.6-1.6h0a1.6,1.6,0,0,1,1.6-1.6H408.03a1.6,1.6,0,0,1,1.6,1.6h0A1.6,1.6,0,0,1,408.03,236.008Z"/><path class="e" d="M584.595,222.5H527.131a1.6,1.6,0,0,1-1.6-1.6h0a1.6,1.6,0,0,1,1.6-1.6h57.464a1.6,1.6,0,0,1,1.6,1.6h0A1.6,1.6,0,0,1,584.595,222.5Z"/><path class="e" d="M584.595,208.995H527.131a1.6,1.6,0,0,1-1.6-1.6h0a1.6,1.6,0,0,1,1.6-1.6h57.464a1.6,1.6,0,0,1,1.6,1.6h0A1.6,1.6,0,0,1,584.595,208.995Z"/><path class="e" d="M584.595,236.008H527.131a1.6,1.6,0,0,1-1.6-1.6h0a1.6,1.6,0,0,1,1.6-1.6h57.464a1.6,1.6,0,0,1,1.6,1.6h0A1.6,1.6,0,0,1,584.595,236.008Z"/><path class="h" d="M332.171,271.5H594.258v21.488a1.36,1.36,0,0,1-1.361,1.358H333.532a1.36,1.36,0,0,1-1.361-1.358Z"/><path class="f" d="M568.515,279.966v-1.937h2.424v-1.723h-3.286a.862.862,0,0,0-.861.861v2.8Z"/><path class="f" d="M568.515,283.413h-1.723v2.946a.862.862,0,0,0,.861.862h3.286V285.5h-2.424Z"/><path class="f" d="M575.983,279.966h1.724v-2.8a.862.862,0,0,0-.862-.861h-3.159v1.723h2.3Z"/><path class="f" d="M575.983,283.413V285.5h-2.3v1.724h3.159a.862.862,0,0,0,.862-.862v-2.946Z"/><path class="f" d="M347.438,282.134v-5.443l4.714,2.722,4.714,2.722-4.714,2.722-4.714,2.722Z"/><rect class="f" width="2.922" height="9.91" rx="0.841" transform="translate(371.491 277.237)"/><rect class="f" width="2.922" height="9.91" rx="0.841" transform="translate(377.595 277.237)"/><rect class="e" width="262.088" height="4.296" transform="translate(332.171 267.202)"/><rect class="i" width="134.48" height="4.296" transform="translate(332.171 267.204)"/><path class="h" d="M552.35,250.486h2.956v6.477h3.959v2.293H552.35Z"/><path class="h" d="M560.079,250.486h2.957v8.77h-2.957Z"/><path class="h" d="M573.835,250.486l-3.709,8.77H567.22l-3.709-8.77h3.182l2.093,5.124,2.142-5.124Z"/><path class="h" d="M581.414,257.026v2.23h-7.292v-8.77h7.129v2.23h-4.222v1.027h3.708v2.13h-3.708v1.153Z"/><path class="i" d="M547.482,254.8a3.607,3.607,0,1,1-3.606-3.606A3.606,3.606,0,0,1,547.482,254.8Z"/><path class="h" d="M364.183,257.24c0,2-1.9,3.3-4.622,3.3s-4.622-1.3-4.622-3.3a2.69,2.69,0,0,1,1.384-2.369,2.512,2.512,0,0,1-1.016-2.032c0-1.869,1.752-3.076,4.254-3.076s4.254,1.207,4.254,3.076a2.509,2.509,0,0,1-1.016,2.032A2.69,2.69,0,0,1,364.183,257.24Zm-3.488-.117a1.135,1.135,0,1,0-1.134,1.074A1.044,1.044,0,0,0,360.7,257.123Zm-1.958-4.137a.826.826,0,1,0,.824-.883A.805.805,0,0,0,358.737,252.986Z"/><path class="h" d="M364.829,255.15c0-3.415,1.943-5.387,4.667-5.387s4.666,1.972,4.666,5.387-1.943,5.388-4.666,5.388S364.829,258.565,364.829,255.15Zm5.844,0c0-1.987-.5-2.6-1.177-2.6s-1.178.618-1.178,2.6.5,2.606,1.178,2.606S370.673,257.138,370.673,255.15Z"/><path class="i" d="M348.9,252.257a3.167,3.167,0,1,1-3.167-3.167A3.167,3.167,0,0,1,348.9,252.257Z"/><path class="i" d="M351.653,260.273H339.811a6.127,6.127,0,0,1,5.831-3.763c.033,0,.061,0,.09,0s.057,0,.09,0A6.127,6.127,0,0,1,351.653,260.273Z"/><g class="l"><path class="m" d="M382.123,180.744s-1.584,9.662-8.7,11.393c-5.746,1.4-11.163-4.124-13.035-6.3-.448-.52-.691-.848-.691-.848a9.816,9.816,0,0,1-1.067.035c-1.5-.02-4.161-.326-5.2-2.168-1.486-2.625,3.922-4.418,3.922-4.418s-2.773-2.476-2.078-4.277c.684-1.77,4.4-2.14,4.4-2.14s-4-2.6-2.665-4.869c2.017-3.41,6.16.342,6.49.548-.262-.3-5.451-5.669-2.611-6.634,2.479-.844,6.555,1.946,9.236,4.709.425.437.665.691.665.691s.16-.122.443-.31c1.341-.9,5.455-3.3,8.077-1.108C382.479,167.7,382.123,180.744,382.123,180.744Z"/><path class="n" d="M374.7,186.677a.565.565,0,0,1-.716-.823,5.08,5.08,0,0,0,.86-4.23c-.938-3.618-5.777-6.121-5.826-6.146a.565.565,0,1,1,.513-1.006c.217.111,5.342,2.764,6.407,6.869a6.161,6.161,0,0,1-1.017,5.143A.566.566,0,0,1,374.7,186.677Z"/><path class="n" d="M369.758,172.75a1.756,1.756,0,0,1-.8,1.539,1.99,1.99,0,0,1-.366.186,4.14,4.14,0,0,1-1.018.23,4.061,4.061,0,0,1,.724.59,1.94,1.94,0,0,1,.436.663,1.474,1.474,0,0,1-.25,1.425c-.907,1.2-3,1.692-4.7,1.893a5.965,5.965,0,0,1,2.631,2.676,1.764,1.764,0,0,1-.218,1.721,3.346,3.346,0,0,1-1.224.9,18.513,18.513,0,0,1-4.583,1.268c-.451-.521-.692-.85-.692-.85a9.662,9.662,0,0,1-1.07.038.55.55,0,0,1,.293-.119c2.091-.244,5.671-.977,6.375-1.913a.651.651,0,0,0,.055-.666c-.387-1.079-2.417-2.507-4.173-2.94a.564.564,0,0,1,.142-1.111c1.4.026,5.238-.213,6.262-1.577.148-.2.11-.3.087-.36a1.872,1.872,0,0,0-.855-.782,13.936,13.936,0,0,0-3.344-1.257.533.533,0,0,1-.291-.177.547.547,0,0,1-.128-.5.565.565,0,0,1,.683-.419c.2.047.6.148,1.1.305a12.655,12.655,0,0,0,2.554.093,2.241,2.241,0,0,0,.956-.261.646.646,0,0,0,.283-.6,3.612,3.612,0,0,0-.608-1.713.554.554,0,0,1,.046-.631.065.065,0,0,0,.012-.015.553.553,0,0,1,.91.058A4.733,4.733,0,0,1,369.758,172.75Z"/><path class="h" d="M365.618,162.178a15.424,15.424,0,0,1,2.646,1.944c.8.765,1.311,1.151,1.861,1.656.038-.064-.038.06,0,0l-10.857-46.06a.558.558,0,0,0-1.093.224l7.443,42.236Z"/><path class="h" d="M375.056,187.756c-3.763,2.428-4.818.631-4.818.631l-1.908-10.818a2.333,2.333,0,0,0,.157-.186,1.474,1.474,0,0,0,.25-1.425,1.94,1.94,0,0,0-.436-.663,3.324,3.324,0,0,0-.439-.387l-.041-.235a3.952,3.952,0,0,0,.774-.2,1.99,1.99,0,0,0,.366-.186,1.659,1.659,0,0,0,.7-.913,2.805,2.805,0,0,0,1.692.759,3.821,3.821,0,0,0,.547.017Z"/><path class="n" d="M378.327,170.866a18.594,18.594,0,0,1-3.707,2.489,6.349,6.349,0,0,1-3.269.781,2.818,2.818,0,0,1-2.043-1.155c-1.79-2.4-.258-5.544.817-7.2.425.437.665.691.665.691s.16-.122.443-.31c-.925,1.366-2.471,4.2-1.019,6.147a1.7,1.7,0,0,0,1.254.706c1.991.21,5.088-2.089,6.112-2.992a.564.564,0,0,1,.747.846Z"/><path class="o" d="M436.444,159.693l0-.02c0-.005,0-.023,0-.005l-.013.062-.029.136-.068.332-.15.734c-.05.25-.106.506-.164.766s-.115.518-.178.782c-.239,1.05-.5,2.123-.789,3.192-.585,2.138-1.207,4.288-1.933,6.4s-1.478,4.219-2.334,6.274c-.436,1.023-.865,2.049-1.331,3.054-.44,1.018-.931,2.006-1.4,3-.99,1.968-2.024,3.906-3.144,5.775-.264.478-.564.93-.846,1.395s-.559.933-.865,1.378c-.6.9-1.184,1.812-1.816,2.681-1.22,1.778-2.567,3.438-3.909,5.093-1.393,1.6-2.806,3.19-4.319,4.659-.377.368-.747.746-1.128,1.109l-1.171,1.059-.584.532-.145.133.074-.067.1-.087a4.072,4.072,0,0,1,.436-.308,6.873,6.873,0,0,1,2.105-.975c.18-.046.33-.1.5-.125.083-.015.167-.028.251-.038l.212-.036a3.555,3.555,0,0,1,.418-.032,2.259,2.259,0,0,1,.329-.012c.05,0,.118.01.155.007s.077,0,.115,0a2.156,2.156,0,0,1,.222.026.7.7,0,0,1,.137.017l.064.018a.131.131,0,0,1,.028,0c.165.052-.164,0-.652-.212a16.406,16.406,0,0,1-1.883-.984c-.723-.429-1.505-.946-2.306-1.517-1.61-1.135-3.3-2.5-4.984-3.947s-3.388-3.014-5.076-4.634-3.381-3.286-5.043-5-3.337-3.457-4.975-5.23c-.826-.881-1.647-1.769-2.454-2.66l-2.357-2.583-18.224,13.669.607.919.576.851,1.151,1.671q1.164,1.65,2.354,3.27c1.6,2.152,3.239,4.281,4.943,6.378s3.47,4.165,5.316,6.211c.926,1.02,1.866,2.036,2.837,3.045s1.969,2.006,3,3a84.481,84.481,0,0,0,6.71,5.86c1.235.955,2.538,1.9,3.965,2.833a40.423,40.423,0,0,0,4.8,2.7,29.087,29.087,0,0,0,6.558,2.241l.495.1c.172.031.357.058.535.086.361.055.722.1,1.083.15s.783.068,1.173.093l.592.03c.2.01.422.006.632.006q.642-.006,1.283-.035c.448-.031.912-.081,1.366-.136.23-.029.454-.057.686-.1s.478-.09.717-.139c.48-.1.946-.2,1.429-.343a19.651,19.651,0,0,0,5.549-2.585c.408-.284.8-.582,1.194-.888l.29-.232.262-.215.209-.186.836-.745,1.667-1.493c.544-.509,1.073-1.034,1.609-1.551,2.155-2.062,4.133-4.28,6.062-6.53,1.877-2.285,3.689-4.623,5.331-7.055,1.682-2.411,3.191-4.916,4.63-7.447l1.043-1.915c.345-.639.661-1.291.991-1.936s.654-1.293.956-1.949l.92-1.962a106.348,106.348,0,0,0,5.787-16.18c.731-2.762,1.389-5.541,1.892-8.375.253-1.418.491-2.84.681-4.3.049-.361.094-.729.137-1.1s.086-.74.125-1.12.078-.766.112-1.156l.105-1.392Z"/><path class="p" d="M379.225,190.733a1.572,1.572,0,1,0,1.432-1.7A1.571,1.571,0,0,0,379.225,190.733Z"/><path class="p" d="M411.895,217.735a.671.671,0,0,0,.651-.508,50.572,50.572,0,0,0,1.094-11.637.671.671,0,0,0-1.342.038,50.168,50.168,0,0,1-1.054,11.273.671.671,0,0,0,.488.814A.655.655,0,0,0,411.895,217.735Z"/><path class="p" d="M416.191,212.874a.672.672,0,0,0,.6-.971,54.6,54.6,0,0,0-3.287-5.816.671.671,0,1,0-1.052.834,55.53,55.53,0,0,1,3.138,5.581A.671.671,0,0,0,416.191,212.874Z"/><path class="p" d="M374.4,203.775a.669.669,0,0,0,.482-.2c5.621-5.8,18.308-14.955,18.436-15.046a.672.672,0,0,0-.785-1.09c-.128.093-12.911,9.321-18.614,15.2a.672.672,0,0,0,.481,1.139Z"/><path class="p" d="M379.828,198.819a.672.672,0,0,0,.516-1.1l-6.785-8.142a.671.671,0,1,0-1.031.86l6.784,8.141A.672.672,0,0,0,379.828,198.819Z"/><path class="h" d="M453.033,357.239l9.1-53.683.746-4.388-26.186-9.243L435.2,289.4l-6.236-2.2s-.5,2.295-1.273,6.243c-.093.476-.191.978-.291,1.5-2.457,12.7-7.065,38.861-8.318,62.3Z"/><path class="g" d="M448.391,357.239c3.934-21.4,8.992-52.685,9.287-54.51a.707.707,0,1,0-1.4-.225c-.073.45-5.324,32.923-9.334,54.735Z"/><path class="h" d="M506.013,270.061s1.971,18.7-2.282,29.1-59.317,5.052-73.35-4.316c-5.756-3.842,6.5-39.3,6.5-39.3Z"/><path class="g" d="M427.395,294.945a16.043,16.043,0,0,0,2.437-.627,16.325,16.325,0,0,0,3.622-1.753,19.082,19.082,0,0,0,3.234-2.638c6.07-6.124,7.857-15.38,7.942-15.832a.708.708,0,1,0-1.391-.26c-.02.11-1.88,9.737-8.043,15.563a16.928,16.928,0,0,1-2.514,1.982,14.959,14.959,0,0,1-3.458,1.649,14.752,14.752,0,0,1-1.538.412C427.593,293.919,427.494,294.42,427.395,294.945Z"/><path class="g" d="M461.369,300.174a.7.7,0,0,0,.668.716h.006a.7.7,0,0,0,.739-.647c.124-2.556.275-5.174.439-7.789.029-.46.058-.92.09-1.38.555-8.545,1.261-16.933,1.794-22.855.044-.479.084-.944.126-1.39.119-1.3.226-2.452.318-3.428-.468-.073-.937-.148-1.4-.226-.092.975-.2,2.139-.319,3.452-.043.446-.083.911-.127,1.389-.527,5.871-1.228,14.186-1.784,22.679-.032.468-.062.939-.094,1.407C461.655,294.812,461.5,297.528,461.369,300.174Z"/><path class="g" d="M459.355,291.157a18.5,18.5,0,0,0,2.47.945,14.228,14.228,0,0,0,1.4.352,9.979,9.979,0,0,0,1.338.174,4.866,4.866,0,0,0,2.371-.371,2.891,2.891,0,0,0,1.609-2.159c.514-2.635,1.593-13.52,2.319-21.218.047-.473.09-.936.132-1.384.115-1.231.218-2.352.306-3.3-.468-.057-.937-.113-1.406-.175-.088.957-.192,2.091-.311,3.338q-.063.669-.129,1.384c-.728,7.679-1.8,18.548-2.3,21.1a1.519,1.519,0,0,1-.852,1.193,4.991,4.991,0,0,1-2.986.039c-.476-.1-.95-.237-1.392-.379a16.962,16.962,0,0,1-1.939-.76.717.717,0,0,0-.947.307A.675.675,0,0,0,459.355,291.157Z"/><path class="h" d="M499.169,357.239c2.178-19.925,4.7-46.586,6.121-62.034.046-.484.088-.951.129-1.413.628-6.815,1.015-11.108,1.015-11.108-3.379-1.408-9.507-.44-16.027,1.411-.472.132-.943.266-1.417.411a194.781,194.781,0,0,0-23.864,9.328v63.4Z"/><path class="g" d="M495.841,357.239c1.882-22.15,4.112-54.152,4.142-54.573a.707.707,0,1,0-1.411-.1c-.03.421-2.267,32.541-4.15,54.671Z"/><path class="g" d="M485.085,274.1a37.023,37.023,0,0,0,3.9,10.409,22.825,22.825,0,0,0,7.272,8.061,16.54,16.54,0,0,0,9.03,2.641c.045-.484.088-.953.13-1.414a15.216,15.216,0,0,1-8.394-2.414,21.186,21.186,0,0,1-6.619-7.283,36.335,36.335,0,0,1-3.932-10.258.707.707,0,1,0-1.391.258Z"/><path class="o" d="M428.451,268.881c15.243,14.229,51.288,21.794,79.071,8.265,3.048-8.329,6.4-38.054,7.3-46.939.182-1.77.325-3.539.442-5.311a233.191,233.191,0,0,0,.029-26.09c-.023-.489-.047-.977-.07-1.468-.363-7.388-.907-15.053-1.418-23.187-1.015-16.1-6.391-26.028-15.729-27.514a38.1,38.1,0,0,1-10.309-3.109c-.31-.146-.6-.289-.886-.436a29.13,29.13,0,0,1-4.717-2.918H461.332a15.887,15.887,0,0,1-6.484,5.419c-.269.129-.541.251-.816.371-7.393,3.191-16.015,2.556-17.793,11.474-1.117,5.6,3.17,17.114,2.72,40.464q-.05,2.571-.179,5.331-.123,2.589-.327,5.352c-.126,1.714-.281,3.487-.462,5.306q-.237,2.389-.541,4.9-.312,2.58-.7,5.288C435.364,233.787,431.644,256.4,428.451,268.881Z"/><path class="p" d="M499.84,273.745a.625.625,0,0,1-.6-.79c11.569-42.418,9.234-85.533,9.209-85.964a.625.625,0,1,1,1.248-.072c.025.433,2.371,43.753-9.251,86.365A.626.626,0,0,1,499.84,273.745Z"/><path class="p" d="M437.066,218.653a.671.671,0,0,0,.666-.6c1.384-12.268,1.4-36.675,1.4-36.92a.671.671,0,0,0-1.343,0c0,.244-.016,24.576-1.391,36.769a.67.67,0,0,0,.592.742A.646.646,0,0,0,437.066,218.653Z"/><path class="p" d="M465.6,264.858a1.571,1.571,0,1,0,1.432-1.7A1.572,1.572,0,0,0,465.6,264.858Z"/><path class="p" d="M465.35,272.455a1.571,1.571,0,1,0,1.431-1.7A1.571,1.571,0,0,0,465.35,272.455Z"/><path class="p" d="M447.011,188.882c-4.089-4.749-2.556-15.321-2.488-15.769a.67.67,0,0,1,.663-.572h13.872a.67.67,0,0,1,.663.572c.068.448,1.6,11.02-2.488,15.769a6.881,6.881,0,0,1-10.222,0Zm-1.233-15c-.256,2.233-.937,10.42,2.25,14.122a5.539,5.539,0,0,0,8.187,0c3.185-3.7,2.506-11.889,2.251-14.123Z"/><path class="h" d="M484.042,88.816c-3.884-2.513-16.106-3.774-16.106-3.774s-2.013-5.285-4.278-6.795c-5.15-3.434-5.788,3.523-5.788,3.523s-5.033-7.046-9.563-5.033,1.258,8.556,1.258,8.556-6.8-1.258-6.04,4.53,7.3,8.305,7.3,8.305a12.694,12.694,0,0,0-1.006,8.556c1.006,5.285,3.271,5.537,3.271,5.537l28.186,2.516s5.788,0,7.3-7.3-3.523-10.318-3.523-10.318S488.32,91.585,484.042,88.816Z"/><path class="m" d="M461.018,136.631v5.295a16.583,16.583,0,0,0,1.874,1.313c9.194,5.521,19.113-1.313,19.113-1.313V123.568l-18.484,11.5Z"/><path class="h" d="M461.018,136.479v5.447a16.583,16.583,0,0,0,1.874,1.313c7.829-3.1,13.527-11.313,13.527-11.313l-12.9,3.147Z"/><path class="o" d="M481.958,136.547a10.475,10.475,0,0,1,7.885,8.117c-6.027,6.306-11.357,11.774-19.982,13.371V145.368A22.319,22.319,0,0,0,481.958,136.547Z"/><path class="o" d="M460.825,138.377s-5.526,1.186-7.674,8.256c5.571,6.779,8.547,9.33,16.71,11.4V145.368S465.31,145.295,460.825,138.377Z"/><path class="h" d="M457.711,236.829l3.582,8.648v0l1.608,3.885,4.545,10.978,2.193-4.239.779-1.5,1.761-3.4.776-1.5,1.761-3.4.776-1.5,1.761-3.4v0l.779-1.5,1.654-3.2-.035-.346-.258-2.534-.585-5.745-.258-2.537-.585-5.745-.258-2.535-.585-5.745-.258-2.534-.585-5.748-.258-2.534-.585-5.745-.258-2.535-.585-5.745-.258-2.537-.585-5.743-.258-2.537-.585-5.745-.258-2.535-.6-5.939-4.39-.172-.129.988-.266,2.011-.6,4.559-.266,2.011-.6,4.559-.266,2.014-.6,4.559-.266,2.011-.6,4.559-.266,2.011-.6,4.561-.266,2.011-.6,4.559-.266,2.011-.6,4.559-.266,2.014-.6,4.559-.266,2.011-.6,4.559-.266,2.014-.6,4.559-.266,2.011-.6,4.559-.266,2.014Z"/><path class="g" d="M467.261,164.468l5.646,5.646-.258-2.535-5.123-5.122Z"/><path class="g" d="M466.393,171.038l7.356,7.359-.258-2.537-6.833-6.833Z"/><path class="g" d="M465.526,177.61l9.067,9.067-.258-2.537-8.543-8.543Z"/><path class="g" d="M464.659,184.18l10.777,10.777-.258-2.535-10.253-10.253Z"/><path class="g" d="M463.792,190.75l12.487,12.487-.258-2.534-11.963-11.963Z"/><path class="g" d="M462.925,197.322l14.2,14.2-.258-2.534L463.19,195.311Z"/><path class="g" d="M462.058,203.892,477.965,219.8l-.258-2.535-15.384-15.384Z"/><path class="g" d="M461.19,210.464l17.617,17.618-.258-2.537L461.456,208.45Z"/><path class="g" d="M460.323,217.034l19.328,19.328-.258-2.534-18.8-18.8Z"/><path class="g" d="M459.456,223.606l17.8,17.795.779-1.5-18.31-18.31Z"/><path class="g" d="M458.589,230.176,474.716,246.3l.776-1.5-16.638-16.638Z"/><path class="g" d="M457.722,236.748,472.179,251.2l.776-1.5-14.968-14.968Z"/><path class="g" d="M461.292,245.479l1.608,3.885,6.739,6.739.779-1.5Z"/><path class="g" d="M472.046,161.642l-2.185,3.248-2.2-3.42-.386,2.922,2.556,2.6,2.45-3.089Z"/><path class="h" d="M475.717,156.185l-5.856,8.7-5.612-8.7,5.612-7.27Z"/><path class="p" d="M479.118,162.14a.673.673,0,0,0,.419-.146c5.8-4.622,10.734-16.569,10.942-17.075a.672.672,0,1,0-1.243-.509c-.047.117-4.7,11.366-10,16.084l-8.818-11.977a.671.671,0,0,0-1.089.012l-8.228,11.68c-1.255-2.267-4.558-8.291-7.333-13.875a.671.671,0,0,0-1.2.6c3.5,7.048,7.84,14.788,7.883,14.866a.671.671,0,0,0,1.134.058l8.307-11.792,8.69,11.8a.673.673,0,0,0,.452.268A.88.88,0,0,0,479.118,162.14Z"/><path class="p" d="M469.875,149.586a.671.671,0,0,0,.672-.671v-3a.671.671,0,0,0-1.343,0v3A.671.671,0,0,0,469.875,149.586Z"/><path class="n" d="M454.4,113.166s-3.007-3.552-4.706,0-.393,10.744,4.183,9.568Z"/><path class="m" d="M451.194,125.625s-.015,10.947,11.371,10.922c11.316-.021,19.027-8.907,19.428-9.319l.013-.011.123-2.3.644-11.942.344-6.382S484.563,95.1,473.641,93c-7.98-1.532-15.463-.206-19.24,3.957-.121.134-.24.272-.351.413a9.818,9.818,0,0,0-2.149,5.353l-.353,11.464L451.461,117Z"/><path class="h" d="M464.268,105.969s4.777,3.558,7.621,1.289-3.781-4.74-5.959-4.553S462.849,105.162,464.268,105.969Z"/><path class="h" d="M459.068,105.969s-4.777,3.558-7.621,1.289,3.781-4.74,5.959-4.553S460.487,105.162,459.068,105.969Z"/><path class="n" d="M462.832,127.055a4.74,4.74,0,0,0,3.256-1.044.5.5,0,0,0-.656-.764,3.485,3.485,0,0,1-3.5.544.5.5,0,0,0-.409.92A4.1,4.1,0,0,0,462.832,127.055Z"/><path class="f" d="M467.768,119.24s-6.947,1.4-10.456,1.084c0,0,1.3,5.171,6.475,3.865A5.177,5.177,0,0,0,467.768,119.24Z"/><path class="h" d="M454.05,97.374c1.786-.632,3.076-.044,5.859,1.179,4.024,1.767,8.523.177,12.5-1.855s6.362.795,5.006,2.65-1.207,3.357.3,5.723-2.841,3.465-.441,5.321a2.458,2.458,0,0,1,.542,3.037,1.638,1.638,0,0,0,1.843,2.17h0c1.295-.329,3.121-2.624,3.121-2.624l.344-6.382S484.563,95.1,473.641,93c-7.98-1.532-15.463-.206-19.24,3.957C454.28,97.1,454.161,97.233,454.05,97.374Z"/><path class="n" d="M466.4,115.6c0,.8,1.642,1.444,3.667,1.444s3.666-.647,3.666-1.444-1.641-1.443-3.666-1.443S466.4,114.8,466.4,115.6Z"/><path class="n" d="M451.461,117a8.677,8.677,0,0,0,.883.043c2.023,0,3.665-.647,3.665-1.444s-1.642-1.443-3.665-1.443c-.274,0-.541.012-.8.035Z"/><path class="h" d="M464.811,111.213c0,1.094.5,1.982,1.109,1.982s1.109-.888,1.109-1.982-.5-1.982-1.109-1.982S464.811,110.118,464.811,111.213Z"/><path class="h" d="M453.811,111.213c0,1.094.5,1.982,1.109,1.982s1.109-.888,1.109-1.982-.5-1.982-1.109-1.982S453.811,110.118,453.811,111.213Z"/><path class="h" d="M478.429,122.787c.052.121,1.493,3.463,3.565,4.441l.011-.011.123-2.3A7.861,7.861,0,0,1,478.429,122.787Z"/><path class="m" d="M480.434,115.184s4.377-5.879,7.583-1.259c2.643,3.807-2.353,13.728-7.583,10.329Z"/><path class="h" d="M481.033,122.483a.451.451,0,0,0,.447-.4,7.525,7.525,0,0,1,4.372-6.065.45.45,0,0,0-.334-.836,8.426,8.426,0,0,0-4.934,6.8.451.451,0,0,0,.4.5Z"/><path class="h" d="M485.235,119.753a.45.45,0,0,0,.285-.8c-.18-.147-1.795-1.418-3.147-1.073a.451.451,0,0,0,.223.873c.777-.2,1.964.581,2.356.9A.449.449,0,0,0,485.235,119.753Z"/><path class="h" d="M461.256,116.723a.45.45,0,1,0,0-.9,3.1,3.1,0,0,1-2.688-1.254c1.8-3.7,3.581-7.435,3.6-7.473a.45.45,0,1,0-.812-.388c-.019.038-1.872,3.914-3.7,7.685a.445.445,0,0,0,0,.387A3.847,3.847,0,0,0,461.256,116.723Z"/><path class="m" d="M570.207,157.31s6.063,6.123,12.049,3.736c4.834-1.93,5.9-8.65,6.139-11.164.056-.6.064-.961.064-.961a8.7,8.7,0,0,0,.782-.519c1.065-.778,2.819-2.356,2.628-4.209-.273-2.64-5.067-1.168-5.067-1.168s.727-3.191-.69-4.129c-1.394-.921-4.25.711-4.25.711s1.546-3.908-.572-4.851c-3.185-1.418-4.244,3.386-4.375,3.7.034-.349,1.551-15.076-.979-14.321-2.208.659-4.242,12.969-4.755,16.318-.083.53-.125.835-.125.835s-.178-.006-.476,0c-1.419.04-5.6.416-6.359,3.323C563.3,148.132,570.207,157.31,570.207,157.31Z"/><path class="n" d="M582.611,146.9a5.265,5.265,0,0,0-.522,3.263,1.552,1.552,0,0,0,1.036,1.123,2.933,2.933,0,0,0,1.334.02,16.264,16.264,0,0,0,3.935-1.428c.058-.6.064-.961.064-.961a8.362,8.362,0,0,0,.785-.519.487.487,0,0,0-.271.064c-1.623.891-4.565,2.191-5.548,1.877a.57.57,0,0,1-.379-.447c-.273-.971.455-3.032,1.493-4.237a.5.5,0,0,0-.669-.725c-.988.73-3.864,2.517-5.294,2.062-.208-.067-.236-.163-.248-.214a1.673,1.673,0,0,1,.216-1,12.221,12.221,0,0,1,1.758-2.606.5.5,0,0,0-.046-.7.5.5,0,0,0-.7.046,13.466,13.466,0,0,0-1.791,2.588,4.234,4.234,0,0,0-.419,1.241,1.727,1.727,0,0,0,.026.7,1.29,1.29,0,0,0,.905.893C579.538,148.344,581.288,147.631,582.611,146.9Z"/><path class="n" d="M575.01,142.72a.487.487,0,0,1,.355.428,3.208,3.208,0,0,0,.437,1.54.572.572,0,0,0,.511.287,1.977,1.977,0,0,0,.818-.3,14.614,14.614,0,0,0,2.659-2.208.482.482,0,0,1-.119.274,12.222,12.222,0,0,0-1.758,2.606c-.1.066-.2.126-.3.182a3.785,3.785,0,0,1-.9.386,1.794,1.794,0,0,1-.356.053,1.545,1.545,0,0,1-1.357-.7,4.137,4.137,0,0,1-.628-2.049.486.486,0,0,1,.624-.506Z"/><path class="n" d="M567.892,148.288a16.313,16.313,0,0,0,3.928-.1,5.587,5.587,0,0,0,2.743-1.106,2.482,2.482,0,0,0,.877-1.87c.058-2.638-2.643-4.109-4.259-4.751-.083.53-.125.835-.125.835s-.178-.006-.476,0c1.36.508,3.914,1.752,3.866,3.889a1.5,1.5,0,0,1-.539,1.146c-1.322,1.166-4.716,1.1-5.911.971a.5.5,0,1,0-.1.987Z"/><path class="n" d="M578.559,157.779a.5.5,0,0,0,.094-.956,4.467,4.467,0,0,1-2.774-2.6c-1.172-3.074,1.023-7.337,1.045-7.38a.5.5,0,0,0-.882-.46c-.1.19-2.422,4.707-1.092,8.195a5.423,5.423,0,0,0,3.352,3.17A.5.5,0,0,0,578.559,157.779Z"/><path class="o" d="M504.783,150.164l10.364,9q2.484,2.32,4.987,4.606c1.661,1.53,3.321,3.054,4.989,4.554s3.33,2.992,4.994,4.455,3.331,2.89,4.981,4.262,3.287,2.707,4.827,3.851c.763.567,1.505,1.087,2.107,1.479l.4.256.163.1a.267.267,0,0,1,.059.051,1.057,1.057,0,0,1,.13.136c.053.071.045.125.114.18a.771.771,0,0,0,.512.079,7.849,7.849,0,0,0,2.906-1.129,24.924,24.924,0,0,0,3.982-2.975,53.882,53.882,0,0,0,4.093-4.11,101.432,101.432,0,0,0,7.727-9.954c2.461-3.551,4.2-6.291,6.423-10.069a16.638,16.638,0,0,0,15.1,5.774,134.549,134.549,0,0,1-5.84,13.477,104.514,104.514,0,0,1-7.685,13.057,66.475,66.475,0,0,1-4.988,6.348,46.781,46.781,0,0,1-6.493,6.065,32.654,32.654,0,0,1-4.231,2.745,27.7,27.7,0,0,1-5.248,2.188,24,24,0,0,1-6.334,1,23.042,23.042,0,0,1-6.711-.855,24.46,24.46,0,0,1-3.1-1.1l-.72-.325-.606-.3c-.209-.1-.381-.194-.57-.291s-.38-.2-.546-.288c-1.4-.758-2.6-1.489-3.752-2.217-2.281-1.453-4.333-2.893-6.343-4.348s-3.918-2.939-5.816-4.422-3.758-2.975-5.586-4.495-3.646-3.035-5.441-4.569-3.563-3.091-5.328-4.648-3.5-3.139-5.233-4.731l-2.586-2.4-1.285-1.218c-.435-.412-.847-.808-1.3-1.252Z"/><path class="p" d="M514.673,192.675a.617.617,0,0,1-.358-.113c-6.842-4.788-19.008-14.878-19.13-14.98a.625.625,0,0,1,.8-.962c.122.1,12.248,10.159,19.048,14.918a.625.625,0,0,1-.359,1.137Z"/><path class="p" d="M500.52,181.762a.556.556,0,0,1-.09-.007l-4.82-.7a.625.625,0,1,1,.179-1.237l4.82.7a.625.625,0,0,1-.089,1.244Z"/><path class="p" d="M580.277,168.49a.637.637,0,0,0-.43-1.187c-9.076,1.977-13.6-6.68-13.641-6.768a.636.636,0,0,0-.856-.278l-.005,0a.637.637,0,0,0-.273.854c.049.1,5.02,9.618,15.046,7.434A.638.638,0,0,0,580.277,168.49Z"/><path class="p" d="M575.611,168.657a.64.64,0,0,0,.292-.314l2.988-6.977a.637.637,0,1,0-1.171-.5l-2.988,6.977a.636.636,0,0,0,.879.815Z"/><path class="p" d="M570.26,161.95a1.1,1.1,0,1,0,.47-1.489A1.1,1.1,0,0,0,570.26,161.95Z"/><path class="p" d="M541.458,190.937a.638.638,0,0,0,.335-.461,27.5,27.5,0,0,1,1.858-6.338.637.637,0,1,0-1.135-.577,28.215,28.215,0,0,0-1.979,6.707.636.636,0,0,0,.921.669Z"/><path class="p" d="M545.592,189.505a.636.636,0,0,0,.2-.974,11.682,11.682,0,0,1-2.213-4.237.637.637,0,1,0-1.248.254,12.8,12.8,0,0,0,2.485,4.8A.636.636,0,0,0,545.592,189.505Z"/></g><ellipse class="e" cx="144.84" cy="8.814" rx="144.84" ry="8.814" transform="translate(41.824 454.372)"/><path class="m" d="M177.629,217.852l14.63,53.495-5.215-6.011a26.541,26.541,0,0,0,6.643,2.37,47.849,47.849,0,0,0,7.991,1.024c2.821.147,5.762.122,8.768,0s6.08-.351,9.2-.617h.016a8.361,8.361,0,0,1,2.027,16.588c-3.216.513-6.488,1-9.844,1.386s-6.8.679-10.359.76a66.665,66.665,0,0,1-11.067-.609,45.966,45.966,0,0,1-11.618-3.211,9.1,9.1,0,0,1-5.03-5.456l-.185-.556L156.033,224.4a11.288,11.288,0,1,1,21.415-7.145C177.51,217.443,177.577,217.665,177.629,217.852Z"/><path class="p" d="M183.263,411.788a1.93,1.93,0,0,1-.656-.115L105.962,384.04a1.934,1.934,0,0,1,1.312-3.638l76.644,27.633a1.934,1.934,0,0,1-.655,3.753Z"/><path class="p" d="M103.434,411.788a1.934,1.934,0,0,1-.658-3.752l77.554-28.088a1.934,1.934,0,0,1,1.317,3.636l-77.555,28.088A1.947,1.947,0,0,1,103.434,411.788Z"/><path class="o" d="M190.079,461.172a3.309,3.309,0,0,1-3.275-2.87L172.96,354.937H115.03L101.4,458.3a3.308,3.308,0,0,1-6.56-.866L108.849,351.2a3.308,3.308,0,0,1,3.28-2.876h63.726a3.308,3.308,0,0,1,3.279,2.869l14.228,106.235a3.313,3.313,0,0,1-3.283,3.748Z"/><path class="o" d="M157.4,351.628H116.01c-13.112,0-27.154-7.176-29.167-20.132a245.771,245.771,0,0,1-2.606-49.5,60.275,60.275,0,0,1,22.855-44.411h0s8.267,36.029-2.129,85.756C108.933,342.234,157.4,351.628,157.4,351.628Z"/><path class="h" d="M148.773,140.316s-4.923-11.856-17.946-9.623c-9.1,1.561-12.982,12.9-12.446,30.416.781,25.49-7.842,40.85-7.842,40.85l11.444,2.6S151.114,160.864,148.773,140.316Z"/><path class="h" d="M253.15,416.88H234.664s-4.278-20.519-5.713-32.025-2.181-38.784-2.181-38.784-14.733,4.785-45.571,2.981c-68.33-3.991-42.421-54.192-42.421-54.192,2.309,3.188,16.45.977,26.116,2.5,29.666,2.847,55.394,14.49,70.834,21.152a76.951,76.951,0,0,1,9.919,5.085c3.723,2.3,6.052,9.256,7.455,18.413C257.321,369.533,253.15,416.88,253.15,416.88Z"/><path class="g" d="M236.957,406.992a.661.661,0,0,1-.648-.531c-2.666-13.2-3.562-29.629-4.281-42.83-.6-10.946-1.16-21.285-2.566-22.528-1.139-1.006-5.868-.221-11.855.773-11.909,1.977-29.906,4.965-49.753.347-10.811-2.515-18.758-7.767-23.622-15.608-8.387-13.523-4.564-30.288-4.524-30.456a.662.662,0,1,1,1.288.3c-.038.163-3.733,16.415,4.367,29.464,4.672,7.526,12.34,12.575,22.791,15.007,19.59,4.558,37.431,1.6,49.236-.363,7.07-1.174,11.337-1.883,12.948-.459,1.74,1.537,2.229,9.1,3.011,23.447.718,13.159,1.61,29.535,4.257,42.64a.661.661,0,0,1-.517.78A.671.671,0,0,1,236.957,406.992Z"/><path class="g" d="M253.5,407.34h-.014l-20.557-.441a.662.662,0,0,1-.647-.676.653.653,0,0,1,.676-.647l20.556.441a.662.662,0,0,1-.014,1.323Z"/><path class="m" d="M252.64,440.564H239.592l-2.513-15.309-1.376-8.376h16.211l.257,8.376Z"/><path class="o" d="M252.64,440.564H239.592l-1.872-11.4-.641-3.912h15.092l.125,4.055Z"/><path class="p" d="M252.3,429.311l-14.576-.143-.641-3.912h15.092Z"/><path class="q" d="M284.84,461.172H235.487a6.911,6.911,0,0,1-.648-2.741c-.309-4.175,1.021-10.837,1.674-15.037.08-.492.148-.949.2-1.363a14.522,14.522,0,0,0,.148-1.717c0-3.427,3.034-2.84,3.034-2.84,4.994,4.9,10.648-2.445,13.951-.037,0,0,.134.1.436.335.278.218.7.557,1.283,1.048.842.7,2.022,1.724,3.621,3.161,3.916,3.525,10.58,5.852,16.254,8.224.724.3,1.395.605,2.018.9.473.228.919.458,1.339.685,4.638,2.5,6.114,4.9,6.448,6.636A3.849,3.849,0,0,1,284.84,461.172Z"/><path class="r" d="M278.8,451.8c-1.271,1.012-4.1,3.036-6.365,3.036-.1,0-.2,0-.3-.011-1.6-.134-7.483-3.025-12.268-5.654-2.743-1.508-5.247-2.991-7.048-4.18-2.955-1.947-3.466-2.691-3.582-3.207-.432-1.947,2.788-3.3,5.046-4.007.278.218.7.557,1.283,1.048-2.8.764-5.108,1.963-5,2.645.275.578,3.2,2.8,10.18,6.627,5.329,2.916,10.382,5.275,11.5,5.368,1.52.123,3.753-1.26,5.211-2.35C277.931,451.338,278.377,451.568,278.8,451.8Z"/><path class="r" d="M284.84,461.172H235.488a6.914,6.914,0,0,1-.649-2.741h50.406A3.857,3.857,0,0,1,284.84,461.172Z"/><path class="r" d="M240.523,461.172h-1.466a10.832,10.832,0,0,0,2.653-7.9,13.914,13.914,0,0,0-5.2-9.876c.08-.491.147-.949.2-1.363a15.117,15.117,0,0,1,6.172,11.18A11.97,11.97,0,0,1,240.523,461.172Z"/><path class="f" d="M258.349,444.892a.813.813,0,0,1-.2-1.6l3.083-.765a.813.813,0,1,1,.391,1.579l-3.082.765A.836.836,0,0,1,258.349,444.892Z"/><path class="f" d="M255.285,442.326a.814.814,0,0,1-.2-1.6l3.083-.766a.813.813,0,0,1,.392,1.579l-3.083.765A.788.788,0,0,1,255.285,442.326Z"/><path class="f" d="M261.432,446.684a.813.813,0,0,1-.2-1.6l3.082-.766a.813.813,0,1,1,.392,1.579l-3.083.765A.822.822,0,0,1,261.432,446.684Z"/><path class="f" d="M264.515,448.407a.814.814,0,0,1-.2-1.6l3.083-.765a.813.813,0,1,1,.392,1.578l-3.083.765A.786.786,0,0,1,264.515,448.407Z"/><path class="f" d="M267.876,450a.813.813,0,0,1-.2-1.6l3.083-.765a.813.813,0,1,1,.391,1.578l-3.082.766A.836.836,0,0,1,267.876,450Z"/><path class="f" d="M271.521,451.359a.814.814,0,0,1-.2-1.6l3.083-.765a.813.813,0,1,1,.392,1.578l-3.083.765A.788.788,0,0,1,271.521,451.359Z"/><path class="r" d="M104.559,278.946s-.585,3.986,4.757,5.107l55.676,1.856a6.278,6.278,0,0,0,3.084-6.554S144.568,266.153,104.559,278.946Z"/><path class="m" d="M165.755,297.361c-28.9,15.9-60.456,3.1-60.456,3.1a87.824,87.824,0,0,0,3.517-13.282c.963-5.027,1.5-9.466,1.749-11.8,12.295-.675,42.428-1.956,54.235.844l.094,4.731Z"/><path class="n" d="M144.408,289.736c-.214,1.49-.887,2.626-1.5,2.538s-.943-1.369-.729-2.858.887-2.627,1.5-2.538S144.622,288.246,144.408,289.736Z"/><path class="n" d="M164.894,280.95c-12.306-.748-36.523-1.007-56.078,6.225.963-5.027,1.5-9.466,1.749-11.8,12.295-.675,42.428-1.956,54.235.844Z"/><path class="q" d="M178.624,258.085a6.833,6.833,0,0,1-.415,1c-.059.118-.12.236-.184.351a27.314,27.314,0,0,1-5.95,7.129c-.417.366-.818.7-1.189,1-.741.6-1.37,1.069-1.8,1.378-.4.285-.631.432-.631.432,0,.027-.005.054-.007.086-.023.214-.04.44-.059.678-.069.909-.131,1.994-.175,3.229-.039.995-.066,2.085-.093,3.256-.015.87-.032,1.778-.042,2.724-16.333-7.3-49.968-2.692-63.516-.41q.372-1.758.682-3.436a107.021,107.021,0,0,0,1.71-13.985,147.216,147.216,0,0,0-1.538-25.154c-.083-.626-.172-1.247-.263-1.873-.058-.408-.12-.813-.186-1.221-.462-3.023-1-6.051-1.614-8.988-2.671-12.816-.795-26.268,12.2-27.859.943-.116,1.874-.221,2.775-.317,6.124-.654,11.163-.877,12.563-.931l.388-.015,25.119,7.3,2.39.693c1.373.442,2.642.869,3.816,1.286.5.182.987.359,1.454.533,1.218.457,2.323.9,3.325,1.346a27.791,27.791,0,0,1,4.864,2.652c5.511,3.912,4.656,8.332,4.516,17.062,0,.04,0,.079,0,.118,0,.111,0,.221,0,.337,0,.049,0,.1,0,.149-.005.357-.005.713,0,1.069q.01,1.691.115,3.371c.093,1.648.241,3.286.42,4.892q.106.966.223,1.918c.074.6.15,1.191.229,1.778C178.745,247.309,179.99,254.006,178.624,258.085Z"/><path class="r" d="M176.758,226.153c0,.111,0,.221,0,.337,0,.049,0,.1,0,.149-.005.357-.005.713,0,1.069l-5.278,3.312a.736.736,0,1,1-.783-1.247l5.6-3.512A.737.737,0,0,1,176.758,226.153Z"/><path class="r" d="M141.956,254.426a.737.737,0,0,1-.493-1.285l4.912-4.42a.736.736,0,0,1,.985,1.1l-4.911,4.42A.734.734,0,0,1,141.956,254.426Z"/><path class="r" d="M177.738,239.667l-3.364,3.028a.737.737,0,1,1-.988-1.1l4.123-3.711C177.583,238.486,177.659,239.08,177.738,239.667Z"/><path class="r" d="M132,236.653a.737.737,0,0,1,.774-1.137l6.432,1.515a.737.737,0,1,1-.339,1.434l-6.431-1.515A.738.738,0,0,1,132,236.653Z"/><path class="r" d="M109.05,249.269a.736.736,0,0,1-.493-1.284l4.911-4.421a.737.737,0,1,1,.986,1.1l-4.912,4.42A.732.732,0,0,1,109.05,249.269Z"/><path class="r" d="M166.214,248.217a.736.736,0,0,1,1.374-.061l2.638,6.058a.736.736,0,0,1-1.35.588l-2.639-6.058A.735.735,0,0,1,166.214,248.217Z"/><path class="r" d="M178.624,258.085a6.833,6.833,0,0,1-.415,1c-.059.118-.12.236-.184.351l-3.587-1.132a.738.738,0,0,1-.482-.923.738.738,0,0,1,.924-.482Z"/><path class="r" d="M158.345,258.613a.737.737,0,0,1,.62,1.228l-4.441,4.893a.737.737,0,1,1-1.091-.99l4.441-4.893A.735.735,0,0,1,158.345,258.613Z"/><path class="r" d="M155.73,247.331a.737.737,0,0,1-.265-1.35l5.6-3.513a.737.737,0,0,1,.784,1.248l-5.6,3.513A.733.733,0,0,1,155.73,247.331Z"/><path class="r" d="M159.3,226.052a.737.737,0,0,1-.629,1.223l-6.569-.715a.737.737,0,0,1,.16-1.465l6.568.716A.731.731,0,0,1,159.3,226.052Z"/><path class="r" d="M149.745,211.8a.737.737,0,0,1,1.365-.174l3.127,5.821a.737.737,0,1,1-1.3.7l-3.127-5.821A.735.735,0,0,1,149.745,211.8Z"/><path class="r" d="M172.075,266.569c-.417.366-.818.7-1.189,1l-.864-2.2a.736.736,0,1,1,1.37-.54Z"/><path class="r" d="M111.677,255.375a.737.737,0,0,1,.9-1.042l6.218,2.237a.737.737,0,0,1-.5,1.386l-6.217-2.237A.733.733,0,0,1,111.677,255.375Z"/><path class="r" d="M114.723,263.778a.737.737,0,0,1,.482,1.289l-4.949,4.378a.737.737,0,0,1-.977-1.1l4.95-4.378A.738.738,0,0,1,114.723,263.778Z"/><path class="r" d="M123.689,270.731a.736.736,0,0,1-.7,1.183l-6.514-1.109a.737.737,0,0,1,.248-1.453l6.513,1.11A.733.733,0,0,1,123.689,270.731Z"/><path class="r" d="M129.137,208.871a.736.736,0,0,1,1.11-.812l5.553,3.582a.737.737,0,1,1-.8,1.238l-5.552-3.582A.738.738,0,0,1,129.137,208.871Z"/><path class="r" d="M167.021,213.092a.737.737,0,0,1,1.045.894l-2.209,6.227a.737.737,0,0,1-1.389-.492l2.21-6.227A.732.732,0,0,1,167.021,213.092Z"/><path class="r" d="M164.055,204.975l-3.414,4.376a.736.736,0,1,1-1.161-.906l3.121-4C163.1,204.624,163.588,204.8,164.055,204.975Z"/><path class="r" d="M130.684,265.413a.608.608,0,0,0,.761.381,34.7,34.7,0,0,1,22.042,1.162,37.611,37.611,0,0,0,14.9,3.191c.017-.239.035-.465.057-.678l.008-.085s.233-.149.631-.433a35.868,35.868,0,0,1-15.135-3.107,35.3,35.3,0,0,0-22.884-1.192A.6.6,0,0,0,130.684,265.413Z"/><path class="r" d="M156.394,202.464c-1.406,2.182-4.312,4.654-10.192,4.227-8.111-.589-13.449-8.327-15.314-11.509.254-.01.387-.013.387-.013Z"/><path class="f" d="M147.766,216.822a5.936,5.936,0,0,0,.718.1,6.254,6.254,0,0,0,5.4-1.933c3.9-4.262,2.3-13.976,2.229-14.388a.6.6,0,1,0-1.185.2c.016.1,1.573,9.548-1.932,13.375a5.051,5.051,0,0,1-4.414,1.546c-7.862-.633-16.667-20.6-16.756-20.8a.6.6,0,1,0-1.1.481C131.085,196.236,139.436,215.134,147.766,216.822Z"/><path class="m" d="M172.246,208.973a43.834,43.834,0,0,0,4.619,22.107q-.132-2.213-.113-4.441c0-.049,0-.1,0-.15,0-.153.006-.3.009-.452C176.9,217.307,177.754,212.884,172.246,208.973Z"/><path class="m" d="M126.039,219.113c-2.882,11.119-13.417,20.042-20.623,17.258-.086-.625-.174-1.247-.265-1.873-.059-.407-.121-.812-.185-1.221-.461-3.023-1-6.05-1.615-8.988-2.671-12.815-.795-26.267,12.2-27.859.944-.115,1.874-.221,2.777-.317C124.831,198.885,129.358,206.309,126.039,219.113Z"/><path class="m" d="M127.524,210.634l16.885,61.739-6.018-6.938a30.7,30.7,0,0,0,7.666,2.736,55.48,55.48,0,0,0,9.223,1.182c3.255.169,6.65.14,10.119-.005s7.017-.4,10.616-.712h.019a9.65,9.65,0,0,1,2.339,19.144c-3.712.592-7.488,1.152-11.361,1.6s-7.844.784-11.956.877a77.063,77.063,0,0,1-12.772-.7,53.028,53.028,0,0,1-13.408-3.706,10.5,10.5,0,0,1-5.8-6.3l-.214-.641L102.6,218.193a13.027,13.027,0,0,1,24.715-8.245C127.388,210.162,127.465,210.418,127.524,210.634Z"/><path class="n" d="M135.081,270.4a.5.5,0,0,1-.249-.935,21.078,21.078,0,0,1,7.712-2.473.5.5,0,0,1,.077,1,20.433,20.433,0,0,0-7.294,2.345A.5.5,0,0,1,135.081,270.4Z"/><path class="n" d="M141.215,268.168a.5.5,0,0,1-.258-.073,13.174,13.174,0,0,0-5.176-1.629.5.5,0,1,1,.071-1,14,14,0,0,1,5.623,1.771.5.5,0,0,1-.26.928Z"/><path class="r" d="M156.272,235.626c7.473,1.514,10.742-6.212,10.774-6.291a.6.6,0,0,0-1.113-.457c-.12.292-2.936,6.884-9.422,5.569-6.806-1.379-19.506-14.774-19.633-14.909a.6.6,0,1,0-.875.825C136.534,220.926,149.1,234.172,156.272,235.626Z"/><path class="h" d="M144.525,187s-11.991-2.257-15.371-14.358c-3.219-11.522-.742-17.5,2.606-23.723,2.522-4.687,10.518-11.021,21.734-8.749,11.324,2.295,19.787,8.106,21.038,17.416C176.873,175.008,162.817,196.262,144.525,187Z"/><path class="o" d="M129.724,174.507a.625.625,0,0,1-.544-.315A27.15,27.15,0,0,1,128.1,152.8a19.576,19.576,0,0,1,11.637-12.281,21.028,21.028,0,0,1,7.843-1.448.625.625,0,0,1-.061,1.249h0a20.147,20.147,0,0,0-7.379,1.383,18.176,18.176,0,0,0-10.86,11.512,26.382,26.382,0,0,0,.981,20.36.625.625,0,0,1-.542.934Z"/><path class="n" d="M167.782,174.7s3.9-3.082,4.928,1-1.869,11.333-6.41,9.13Z"/><path class="o" d="M163.973,182.2a6.2,6.2,0,0,0-4.088,4.494,5.876,5.876,0,1,0,9.082-3.679,5.815,5.815,0,0,0-2.156-.913l-.058-.01a.963.963,0,0,0,.163.972,4.963,4.963,0,1,1-6.137,3.811,4.819,4.819,0,0,1,3.655-3.771Z"/><path class="m" d="M155.96,192.186,154.325,202.4s-7.647,7.806-21.617-6.2c3.751-2.794,5.182-9.266,4.744-13.451a20.3,20.3,0,0,1,2.8,2.2,10.982,10.982,0,0,0,1.173.818C145.115,188.28,150.772,191.547,155.96,192.186Z"/><path class="h" d="M155.96,192.186l-.775,4.843c-4.19-1.867-11.6-5.86-14.935-12.079q.546.39,1.173.818C145.115,188.28,150.772,191.547,155.96,192.186Z"/><path class="m" d="M171.561,172.241c-.218,1.081-.424,2.11-.627,3.087q-.327,1.593-.638,3c-1.546,7.071-2.822,10.857-4.884,12.275-10.428,7.171-27.4-7.35-27.947-7.818l-.014-.014c-.014-.832-.014-1.657,0-2.468a63.8,63.8,0,0,1,3.156-18.772,14.407,14.407,0,0,1,12-12.181c6.46-.972,11.319,2.767,14.359,4.421C171.561,156.277,173.358,163.226,171.561,172.241Z"/><path class="h" d="M140.968,155.122s7.3-14.037,21.859-10.12,15.334,10.68,15.59,14.061-7.54-2.609-7.54-2.609-.267,6.763-2.866,4.679c-3.187-2.555-6.754-8.07-6.754-8.07s-8.671,8.523-16.912,6.224C139.664,157.982,140.968,155.122,140.968,155.122Z"/><path class="n" d="M158.855,186.01a4.905,4.905,0,0,1-3.255-1.375.52.52,0,0,1,.746-.726,3.6,3.6,0,0,0,3.551.883.52.52,0,1,1,.337.984A4.243,4.243,0,0,1,158.855,186.01Z"/><path class="f" d="M154.495,177.51s7.023,2.081,10.664,2.081c0,0-1.821,5.2-7.022,3.381A5.351,5.351,0,0,1,154.495,177.51Z"/><path class="h" d="M167.529,162.894s-1.824-.186-1.528,1.581,4.251.687,6.206,4.228C172.207,168.7,174.1,164.991,167.529,162.894Z"/><path class="h" d="M159.423,161.251s1.753.54.793,2.052-4.183-1.022-7.363,1.478C152.853,164.781,152.558,160.627,159.423,161.251Z"/><path class="n" d="M156.258,173.922c-.17.835-2.025,1.163-4.146.734s-3.7-1.455-3.533-2.289,2.025-1.163,4.146-.733S156.427,173.088,156.258,173.922Z"/><path class="f" d="M176.981,174.472l-5.671-.967a7.171,7.171,0,0,1-.142.712.6.6,0,0,1-.041.115l5.712.974a.424.424,0,0,0,.488-.346A.413.413,0,0,0,176.981,174.472Z"/><path class="f" d="M161.843,169.628a6.349,6.349,0,0,0-.052-.863,7.154,7.154,0,0,0-1.911-4.06,7.076,7.076,0,0,0-3.664-2.067.444.444,0,0,0-.07-.017,7.155,7.155,0,0,0-7.941,4.02,6.16,6.16,0,0,0-.306.793,6.8,6.8,0,0,0-.2.736,7.144,7.144,0,0,0,13.992,2.893l0-.019A7.06,7.06,0,0,0,161.843,169.628Zm-8.418,6.156c-.035-.007-.068-.014-.1-.024a6.287,6.287,0,0,1-4.519-8.351.439.439,0,0,0,.021-.057,6.312,6.312,0,0,1,5.5-4.022,6.281,6.281,0,0,1,4.719,1.731,6.294,6.294,0,0,1-5.617,10.723Z"/><path class="f" d="M174.545,166.708c-.193-.1-.39-.194-.6-.281a6.734,6.734,0,0,0-.745-.256c-.176-.053-.353-.1-.536-.135a7.109,7.109,0,0,0-1-.134,6.882,6.882,0,0,0-1.194.026,7.158,7.158,0,0,0-5.468,3.589,6.427,6.427,0,0,0-.406.834.21.21,0,0,0-.016.046,6.96,6.96,0,0,0-.357,1.189,7.151,7.151,0,0,0,2.629,7.1,7.063,7.063,0,0,0,2.322,1.192c.131.039.263.075.4.1.065.02.133.034.2.048a7.067,7.067,0,0,0,2.047.121c.108-.006.215-.018.321-.032a7.2,7.2,0,0,0,2.4-.761,7.141,7.141,0,0,0,0-12.648Zm2.845,7.6c-.028.136-.058.27-.1.4a4.816,4.816,0,0,1-.182.556,6.273,6.273,0,0,1-2.577,3.123,6.409,6.409,0,0,1-1.357.634,6.339,6.339,0,0,1-.918.225c-.092.015-.18.028-.272.037a6.251,6.251,0,0,1-2.04-.082l-.188-.041c-.038-.01-.076-.02-.114-.027a6.253,6.253,0,0,1-2.639-1.427q-.164-.144-.314-.3a6.287,6.287,0,0,1-1.636-5.643,6.414,6.414,0,0,1,.442-1.35,6.333,6.333,0,0,1,5.729-3.676c.152,0,.3.009.459.019a6.214,6.214,0,0,1,.812.114c.2.042.389.089.576.147a6.021,6.021,0,0,1,.76.29,5.623,5.623,0,0,1,.567.293A6.307,6.307,0,0,1,177.39,174.306Z"/><path class="f" d="M139.171,167.927a.411.411,0,0,1-.143-.058.422.422,0,0,1-.128-.584c2.839-4.438,9.665-.454,9.734-.413a.423.423,0,0,1-.432.727c-.062-.037-6.19-3.609-8.589.142A.426.426,0,0,1,139.171,167.927Z"/><path class="f" d="M164.913,170.6a.422.422,0,0,1-.269-.184c-.908-1.4-2.852-.774-2.871-.767a.423.423,0,0,1-.268-.8,3.352,3.352,0,0,1,3.849,1.109.423.423,0,0,1-.441.644Z"/><g class="c"><path class="n" d="M170.934,175.328q-.327,1.593-.638,3c-1.928-.466-3.318-1.421-3.16-2.207S168.964,175,170.934,175.328Z"/></g><path class="h" d="M157.748,169.731c-.232,1.146-.94,1.97-1.581,1.84s-.973-1.165-.741-2.311.94-1.97,1.582-1.84S157.98,168.585,157.748,169.731Z"/><path class="h" d="M169.088,172.028c-.232,1.147-.94,1.971-1.582,1.841s-.973-1.165-.74-2.311.94-1.97,1.581-1.84S169.32,170.882,169.088,172.028Z"/><path class="h" d="M163.234,175.1a4.223,4.223,0,0,0,.972.093.48.48,0,0,0,.452-.546l-.731-5.352a.481.481,0,0,0-.954.131l.652,4.765a3.789,3.789,0,0,1-1.847-.807.481.481,0,1,0-.615.74A4.689,4.689,0,0,0,163.234,175.1Z"/><path class="h" d="M142.136,178.9c-.08.117-2.3,3.307-4.671,3.894h0l-.009-.014c-.016-.834-.014-1.658,0-2.47A8.951,8.951,0,0,0,142.136,178.9Z"/><path class="m" d="M141.649,170.509s-3.335-7.084-7.673-2.927c-3.574,3.426-.448,14.874,5.749,12.424Z"/><path class="o" d="M133.439,176.617a6.2,6.2,0,0,0-4.087,4.493,5.873,5.873,0,1,0,6.925-4.592l-.057-.009a.963.963,0,0,0,.162.971,4.892,4.892,0,0,1,1.727.844,4.962,4.962,0,1,1-7.863,2.968,4.82,4.82,0,0,1,3.655-3.772Z"/><path class="h" d="M139.474,178.026a.488.488,0,0,0,.576-.428,9,9,0,0,0-3.723-8.17.481.481,0,1,0-.527.805h0a8.035,8.035,0,0,1,3.291,7.278A.483.483,0,0,0,139.474,178.026Z"/><path class="h" d="M135.653,174.275a.475.475,0,0,0,.318-.045c.478-.249,1.887-.814,2.657-.441a.481.481,0,0,0,.42-.866c-1.345-.65-3.3.34-3.523.455a.481.481,0,0,0,.128.9Z"/><path class="h" d="M145.953,158.5s-4.488,12.19-4.734,14.645c-.334,3.348-4.76-8.125-.3-17.929Z"/><path class="h" d="M220.966,416.943H202.481s-4.278-20.519-5.713-32.025-2.181-38.784-2.181-38.784-14.734,4.785-45.571,2.982c-68.33-3.992-42.421-54.193-42.421-54.193,2.309,3.189,19.625,7.583,29.291,9.107,29.666,2.847,52.219,7.885,67.659,14.546a76.937,76.937,0,0,1,9.918,5.086c3.724,2.3,6.052,9.256,7.456,18.413C225.137,369.6,220.966,416.943,220.966,416.943Z"/><path class="g" d="M204.773,407.056a.663.663,0,0,1-.648-.531c-2.665-13.2-3.561-29.629-4.281-42.83-.6-10.946-1.16-21.285-2.566-22.528-1.139-1.006-5.868-.221-11.855.773-11.909,1.977-29.906,4.965-49.753.347-10.81-2.516-18.758-7.767-23.621-15.608-8.388-13.523-4.564-30.289-4.524-30.457a.662.662,0,0,1,1.288.3c-.038.163-3.734,16.415,4.366,29.464,4.672,7.527,12.34,12.576,22.791,15.008,19.591,4.558,37.431,1.6,49.236-.364,7.071-1.173,11.338-1.882,12.948-.458,1.74,1.537,2.23,9.1,3.012,23.447.717,13.158,1.61,29.534,4.257,42.64a.666.666,0,0,1-.65.793Z"/><path class="g" d="M221.32,407.4h-.014l-20.557-.442a.662.662,0,1,1,.028-1.323l20.557.442a.662.662,0,0,1-.014,1.323Z"/><path class="m" d="M220.457,440.628H207.409L204.9,425.319l-1.376-8.376h16.211l.257,8.376Z"/><path class="o" d="M220.457,440.628H207.409l-1.872-11.4-.641-3.912h15.092l.125,4.055Z"/><path class="p" d="M220.113,429.375l-14.576-.143-.641-3.912h15.092Z"/><path class="q" d="M252.657,461.236H203.3a6.916,6.916,0,0,1-.648-2.741c-.31-4.176,1.021-10.837,1.674-15.038.079-.491.148-.948.2-1.362a14.521,14.521,0,0,0,.148-1.717c0-3.428,3.034-2.841,3.034-2.841,4.994,4.9,10.648-2.445,13.95-.036,0,0,.135.1.437.334.277.218.7.557,1.283,1.049.841.7,2.022,1.724,3.62,3.161,3.917,3.525,10.581,5.852,16.255,8.224q1.084.453,2.017.9c.473.227.919.457,1.34.685,4.637,2.5,6.113,4.9,6.448,6.636A3.857,3.857,0,0,1,252.657,461.236Z"/><path class="r" d="M246.614,451.859c-1.271,1.012-4.1,3.036-6.366,3.036-.1,0-.2,0-.3-.012-1.6-.134-7.482-3.024-12.268-5.654-2.742-1.508-5.246-2.99-7.048-4.18-2.954-1.947-3.466-2.69-3.582-3.207-.432-1.946,2.789-3.3,5.047-4.007.277.218.7.557,1.283,1.049-2.805.764-5.108,1.962-5,2.645.275.577,3.2,2.8,10.179,6.627,5.329,2.916,10.383,5.274,11.5,5.367,1.519.123,3.753-1.26,5.21-2.349C245.747,451.4,246.193,451.631,246.614,451.859Z"/><path class="r" d="M252.656,461.236H203.3a6.9,6.9,0,0,1-.649-2.741h50.406A3.856,3.856,0,0,1,252.656,461.236Z"/><path class="r" d="M208.34,461.236h-1.466a10.835,10.835,0,0,0,2.653-7.9,13.918,13.918,0,0,0-5.2-9.876c.079-.49.147-.949.2-1.363a15.124,15.124,0,0,1,6.172,11.181A11.978,11.978,0,0,1,208.34,461.236Z"/><path class="f" d="M226.166,444.956a.814.814,0,0,1-.2-1.6l3.083-.765a.813.813,0,1,1,.392,1.578l-3.083.766A.834.834,0,0,1,226.166,444.956Z"/><path class="f" d="M223.1,442.389a.813.813,0,0,1-.2-1.6l3.083-.765a.813.813,0,1,1,.391,1.579l-3.082.765A.835.835,0,0,1,223.1,442.389Z"/><path class="f" d="M229.248,446.748a.814.814,0,0,1-.2-1.6l3.083-.765a.813.813,0,1,1,.392,1.578l-3.083.765A.788.788,0,0,1,229.248,446.748Z"/><path class="f" d="M232.331,448.47a.813.813,0,0,1-.195-1.6l3.083-.766a.813.813,0,0,1,.392,1.579l-3.083.765A.836.836,0,0,1,232.331,448.47Z"/><path class="f" d="M235.693,450.063a.813.813,0,0,1-.2-1.6l3.083-.765a.813.813,0,1,1,.392,1.578l-3.083.765A.779.779,0,0,1,235.693,450.063Z"/><path class="f" d="M239.338,451.422a.813.813,0,0,1-.195-1.6l3.083-.765a.813.813,0,0,1,.392,1.578l-3.083.766A.836.836,0,0,1,239.338,451.422Z"/><path class="s" d="M289.065,294.187v4.1c0,2.358-1.425,4.269-3.184,4.269H64.419c-1.758,0-3.183-1.911-3.183-4.269v-4.1c0-2.357,1.425-4.267,3.183-4.267H285.881C287.64,289.92,289.065,291.83,289.065,294.187Z"/><rect class="t" width="227.829" height="1.875" transform="translate(61.236 295.485)"/><path class="t" d="M282.41,313.087H74.237a1.687,1.687,0,0,1-1.688-1.687v-8.895H284.1V311.4A1.687,1.687,0,0,1,282.41,313.087Z"/><rect class="t" width="186.166" height="7.255" transform="translate(86.894 365.332)"/><path class="s" d="M73.47,462.527l36.043-149.44H96.855L60.812,462.527Z"/><path class="s" d="M286.236,462.527l-36.043-149.44h12.658l36.043,149.44Z"/><rect class="o" width="3.954" height="29.808" transform="translate(77.556 256.16) rotate(-8.711)"/><path class="m" d="M81.464,255.562l-3.908.6.86-2.985.446-1.545.888,1.34Z"/><rect class="h" width="3.954" height="2.166" transform="translate(81.742 283.484) rotate(-8.711)"/><path class="i" d="M85.979,286.772l-3.388.519a.263.263,0,0,1-.3-.22l-.221-1.447,3.908-.6.221,1.446A.263.263,0,0,1,85.979,286.772Z"/><path class="h" d="M79.75,252.971l-1.334.2.446-1.545Z"/><rect class="p" width="3.954" height="1.553" transform="translate(81.507 281.948) rotate(-8.708)"/><path class="p" d="M78.75,257.463l3.342,21.82a.3.3,0,0,0,.345.252h0a.3.3,0,0,0,.253-.344l-3.343-21.82a.3.3,0,0,0-.344-.252h0A.3.3,0,0,0,78.75,257.463Z"/><path class="p" d="M80.279,257.227l3.342,21.82a.3.3,0,0,0,.344.253h0a.3.3,0,0,0,.253-.344l-3.342-21.82a.3.3,0,0,0-.345-.253h0A.3.3,0,0,0,80.279,257.227Z"/><rect class="s" width="3.954" height="29.808" transform="translate(84.576 255.71) rotate(-0.188)"/><path class="m" d="M88.531,255.7l-3.954.013,1.293-2.824.67-1.462.68,1.457Z"/><rect class="h" width="3.954" height="2.166" transform="translate(84.667 283.352) rotate(-0.188)"/><path class="i" d="M88.37,287.232l-3.427.011a.262.262,0,0,1-.264-.262l0-1.463,3.954-.013,0,1.463A.262.262,0,0,1,88.37,287.232Z"/><path class="h" d="M87.219,252.882l-1.35,0,.67-1.462Z"/><rect class="t" width="3.954" height="1.553" transform="translate(84.662 281.799) rotate(-0.188)"/><path class="t" d="M85.564,257.176l.073,22.074a.3.3,0,0,0,.3.3h0a.3.3,0,0,0,.3-.3l-.072-22.073a.3.3,0,0,0-.3-.3h0A.3.3,0,0,0,85.564,257.176Z"/><path class="t" d="M87.111,257.169l.072,22.074a.3.3,0,0,0,.3.3h0a.3.3,0,0,0,.3-.3l-.072-22.074a.3.3,0,0,0-.3-.3h0A.3.3,0,0,0,87.111,257.169Z"/><rect class="q" width="29.808" height="3.954" transform="translate(87.245 285.073) rotate(-81.915)"/><path class="m" d="M95.352,256.117l-3.915-.556,1.686-2.609L94,251.6l.463,1.54Z"/><rect class="h" width="3.954" height="2.166" transform="translate(87.55 282.929) rotate(8.085)"/><path class="i" d="M90.656,287.3l-3.393-.482a.264.264,0,0,1-.224-.3l.206-1.448,3.915.556-.206,1.448A.264.264,0,0,1,90.656,287.3Z"/><path class="h" d="M94.46,253.142l-1.336-.19L94,251.6Z"/><rect class="r" width="1.553" height="3.954" transform="translate(87.55 282.928) rotate(-81.912)"/><path class="r" d="M92.2,257.153,89.1,279.008a.3.3,0,0,0,.257.342h0a.3.3,0,0,0,.341-.257L92.8,257.238a.3.3,0,0,0-.256-.341h0A.3.3,0,0,0,92.2,257.153Z"/><path class="r" d="M93.736,257.369l-3.105,21.855a.3.3,0,0,0,.256.342h0a.3.3,0,0,0,.342-.257l3.105-21.855a.3.3,0,0,0-.257-.341h0A.3.3,0,0,0,93.736,257.369Z"/><path class="i" d="M96.636,267.488l-.206,1.6-.188,1.451-.285,2.206-.184,1.435-.287,2.224L95.3,277.82l-.289,2.242-.181,1.4-.292,2.26-.177,1.381-.294,2.278-.177,1.363-.152,1.179H78.2l-.152-1.179-.177-1.363-.294-2.278-.177-1.381-.293-2.26-.18-1.4-.289-2.242-.184-1.417-.287-2.224-.184-1.435-.285-2.206-.188-1.451-.206-1.6Z"/><path class="u" d="M96.43,269.087l-.188,1.451H75.7l-.188-1.451Z"/><path class="u" d="M95.957,272.744l-.184,1.435h-19.6l-.184-1.435Z"/><path class="u" d="M95.486,276.4,95.3,277.82H76.64l-.184-1.417Z"/><path class="u" d="M95.013,280.062l-.181,1.4H77.11l-.18-1.4Z"/><path class="u" d="M94.54,283.719l-.177,1.381H77.579l-.177-1.381Z"/><path class="u" d="M94.069,287.378l-.177,1.363H78.05l-.177-1.363Z"/><path class="h" d="M287.775,210.668,274.524,266.7l-.349,1.473-.891,3.775a3.616,3.616,0,0,1-3.522,2.787H180.5a3.621,3.621,0,0,1-3.524-4.452L191.468,209a3.614,3.614,0,0,1,3.521-2.785h89.262A3.619,3.619,0,0,1,287.775,210.668Z"/><path class="g" d="M274.524,266.7l-.349,1.473H181.493V266.7Z"/><path class="o" d="M216.473,220.084a9.069,9.069,0,0,1-8.533,7.192,5.8,5.8,0,0,1-5.85-7.192,9.069,9.069,0,0,1,8.534-7.191A5.8,5.8,0,0,1,216.473,220.084Z"/><path class="h" d="M208.35,218.708c-.148.8-.548,1.439-.893,1.439s-.506-.644-.357-1.439.548-1.438.893-1.438S208.5,217.914,208.35,218.708Z"/><path class="h" d="M212.1,218.708c-.149.8-.549,1.439-.894,1.439s-.505-.644-.357-1.439.548-1.438.894-1.438S212.251,217.914,212.1,218.708Z"/><path class="h" d="M208.691,223.586a3.189,3.189,0,0,1-3.225-3.123.39.39,0,0,1,.309-.372.256.256,0,0,1,.327.239,2.653,2.653,0,0,0,2.706,2.631,4.256,4.256,0,0,0,3.687-2.631.385.385,0,0,1,.417-.238.26.26,0,0,1,.169.371C213.069,220.495,211.784,223.586,208.691,223.586Z"/><path class="i" d="M257.736,253.66c.078,3.72,6.381,8.378,6.381,8.378s7.32-4.658,8.209-8.378c.965-4.032-3.641-5.269-7.052-2.229C262.528,248.391,257.651,249.628,257.736,253.66Z"/><path class="g" d="M244.4,242.874a8,8,0,0,1-7.754,6.984,6.135,6.135,0,0,1-6.215-6.984,8,8,0,0,1,7.754-6.984A6.136,6.136,0,0,1,244.4,242.874Z"/><path class="g" d="M198.526,206.217,183.1,274.739h-2.6a3.62,3.62,0,0,1-3.523-4.452L191.467,209a3.619,3.619,0,0,1,3.523-2.786Z"/><path class="f" d="M224.382,274.738l-2.708,15.227h8.943l2.708-15.227Z"/><path class="f" d="M208.289,287.346l1.831-2.574a3.485,3.485,0,0,1,2.839-1.465h24.522a3.486,3.486,0,0,1,3.088,1.87l1.234,2.362a1.658,1.658,0,0,1-1.469,2.427H209.64A1.659,1.659,0,0,1,208.289,287.346Z"/><path class="f" d="M157.2,289.959h73.66l.8-2.779a2.735,2.735,0,0,0-2.629-3.491H161.062a2.734,2.734,0,0,0-2.628,1.978Z"/><rect class="i" width="37.155" height="24.593" rx="2.288" transform="translate(218.924 163.319)"/><path class="i" d="M251.842,184.229l-2.973,11.219L243.677,184.9Z"/><path class="f" d="M245.729,173.8c-.665,4.2-8.51,9.463-8.51,9.463s-7.552-5.27-7.981-9.475c-.465-4.558,4.932-5.953,8.316-2.514C241.13,167.839,246.45,169.241,245.729,173.8Z"/><ellipse class="e" cx="55.476" cy="5.482" rx="55.476" ry="5.482" transform="translate(604.877 458.112)"/><rect class="h" width="74.857" height="5.929" rx="2.411" transform="translate(621.871 418.033)"/><path class="g" d="M2.06,0H70.486a2.059,2.059,0,0,1,2.059,2.059v8.407a2.06,2.06,0,0,1-2.06,2.06H2.06A2.06,2.06,0,0,1,0,10.466V2.06A2.06,2.06,0,0,1,2.06,0Z" transform="translate(623.102 352.335)"/><path class="s" d="M641.318,299.042s-28.852-5.7-36.9-25.834,21.388-35.227,36.9-24.418C657.919,260.354,641.318,299.042,641.318,299.042Z"/><path class="h" d="M658.475,351.926a.523.523,0,0,1-.516-.446c-2.764-18.7-13.9-45.6-22.764-64.872-9.608-20.9-18.675-37.582-18.765-37.748a.522.522,0,1,1,.917-.5c.091.166,9.174,16.878,18.8,37.811,8.888,19.336,20.067,46.336,22.849,65.155a.523.523,0,0,1-.44.593A.509.509,0,0,1,658.475,351.926Z"/><path class="h" d="M640.235,297.094a.522.522,0,0,1-.46-.275c-12.549-23.375-32.929-40.333-33.133-40.5a.522.522,0,1,1,.664-.8c.206.17,20.739,17.252,33.389,40.813a.522.522,0,0,1-.46.769Z"/><path class="h" d="M640.8,298.767a.522.522,0,0,1-.4-.184,100.2,100.2,0,0,0-24.776-21.191,62.076,62.076,0,0,0-11.494-5.552.522.522,0,1,1,.316-1,61.887,61.887,0,0,1,11.677,5.63A101.213,101.213,0,0,1,641.2,297.907a.522.522,0,0,1-.06.736A.516.516,0,0,1,640.8,298.767Z"/><path class="h" d="M638.266,292.64a.523.523,0,0,1-.494-.354c-7.035-20.646-4.447-45.738-4.42-45.989a.522.522,0,0,1,1.038.111c-.027.249-2.589,25.118,4.37,45.541a.522.522,0,0,1-.494.691Z"/><path class="h" d="M640.036,296.727a.523.523,0,0,1-.515-.438,72.672,72.672,0,0,1,1.269-30.372,48.224,48.224,0,0,1,4.417-11.444.522.522,0,0,1,.9.535,48.3,48.3,0,0,0-4.317,11.22,71.648,71.648,0,0,0-1.235,29.892.523.523,0,0,1-.431.6A.621.621,0,0,1,640.036,296.727Z"/><path class="s" d="M671.755,304.3s29.139-3.986,38.369-23.6-19.266-36.431-35.4-26.56C657.473,264.7,671.755,304.3,671.755,304.3Z"/><path class="h" d="M660.7,350.215H660.7a.522.522,0,0,1-.516-.528c.115-9.629,2.215-20.6,6.242-32.6a214.6,214.6,0,0,1,13.217-30.519A280.966,280.966,0,0,1,698.7,255.1a.522.522,0,0,1,.845.613,279.916,279.916,0,0,0-18.992,31.353c-8.678,16.666-19.077,41.061-19.334,62.636A.521.521,0,0,1,660.7,350.215Z"/><path class="h" d="M672.982,302.421a.522.522,0,0,1-.444-.8c14.021-22.771,35.53-38.608,35.745-38.765a.522.522,0,0,1,.616.844c-.214.156-21.561,15.878-35.472,38.469A.522.522,0,0,1,672.982,302.421Z"/><path class="h" d="M672.314,304.058a.522.522,0,0,1-.377-.883,101.235,101.235,0,0,1,26.3-19.912,61.783,61.783,0,0,1,11.991-4.928.522.522,0,1,1,.256,1.012,62.212,62.212,0,0,0-11.8,4.862A100.212,100.212,0,0,0,672.691,303.9.519.519,0,0,1,672.314,304.058Z"/><path class="h" d="M675.211,298.092a.523.523,0,0,1-.483-.72c8.155-19.976,7.069-44.953,7.058-45.2a.522.522,0,1,1,1.043-.049c.012.252,1.11,25.453-7.134,45.647A.524.524,0,0,1,675.211,298.092Z"/><path class="h" d="M673.2,302.067a.579.579,0,0,1-.116-.013.523.523,0,0,1-.394-.625,71.658,71.658,0,0,0,.536-29.912,48.3,48.3,0,0,0-3.645-11.457.522.522,0,0,1,.927-.481,48.257,48.257,0,0,1,3.732,11.686,72.673,72.673,0,0,1-.532,30.395A.522.522,0,0,1,673.2,302.067Z"/><path class="s" d="M660.534,266.34s-24.689-15.982-24.715-37.663,32.912-24.8,43.323-9.017C690.281,236.55,660.534,266.34,660.534,266.34Z"/><path class="h" d="M657.083,321.855a.553.553,0,0,1-.12-.014.523.523,0,0,1-.388-.629c4.356-18.391,3.968-47.505,2.875-68.69-1.184-22.973-3.43-41.825-3.453-42.013a.522.522,0,0,1,1.037-.124c.022.188,2.272,19.075,3.459,42.083,1.1,21.253,1.482,50.474-2.9,68.985A.523.523,0,0,1,657.083,321.855Z"/><path class="h" d="M660.442,264.166a.522.522,0,0,1-.518-.463c-3-26.36-15.653-49.659-15.78-49.891a.522.522,0,1,1,.915-.5c.129.234,12.877,23.705,15.9,50.275a.524.524,0,0,1-.46.578A.6.6,0,0,1,660.442,264.166Z"/><path class="h" d="M660.353,265.932a.524.524,0,0,1-.5-.356,100.183,100.183,0,0,0-15.168-28.859,62.217,62.217,0,0,0-8.621-9.414.522.522,0,0,1,.662-.808,61.952,61.952,0,0,1,8.763,9.554,101.261,101.261,0,0,1,15.354,29.194.523.523,0,0,1-.329.662A.533.533,0,0,1,660.353,265.932Z"/><path class="h" d="M660.264,259.3h-.027a.522.522,0,0,1-.495-.548c1.11-21.783,12.806-44.134,12.924-44.357a.522.522,0,0,1,.923.488c-.117.221-11.706,22.374-12.8,43.922A.522.522,0,0,1,660.264,259.3Z"/><path class="h" d="M660.4,263.752a.492.492,0,0,1-.113-.013.523.523,0,0,1-.4-.622,73.666,73.666,0,0,1,12.457-27.876,49.613,49.613,0,0,1,8.372-9.128.522.522,0,0,1,.642.823,49.67,49.67,0,0,0-8.2,8.959A72.623,72.623,0,0,0,660.9,263.341.522.522,0,0,1,660.4,263.752Z"/><path class="q" d="M690.7,319.048l-.861,2.284-.544,1.447-1.561,4.144-.546,1.448-1.6,4.256-.543,1.445-6.878,18.263H640.587l-6.878-18.263-.543-1.445-1.6-4.256-.546-1.448-1.561-4.144-.543-1.447-.862-2.284a2.392,2.392,0,0,1,2.239-3.237h58.172A2.394,2.394,0,0,1,690.7,319.048Z"/><path class="r" d="M689.839,321.332l-.544,1.447h-59.84l-.543-1.447Z"/><path class="r" d="M687.734,326.923l-.546,1.447H631.562l-.546-1.447Z"/><path class="r" d="M685.584,332.627l-.544,1.445H633.709l-.544-1.445Z"/><path class="h" d="M649.309,364.862l-2.084,6.718-29.006,93.5h-5.67l18.4-91.591,1.733-8.627Z"/><path class="h" d="M706.37,465.079H700.7l-29.865-96.267-1.226-3.951h16.629l.42,2.095h0Z"/><rect class="g" width="74.857" height="5.929" rx="2.411" transform="translate(621.871 405.141)"/><ellipse class="e" cx="27.115" cy="26.779" rx="27.115" ry="26.779" transform="translate(210.51 71.034)"/><ellipse class="q" cx="27.115" cy="26.779" rx="27.115" ry="26.779" transform="translate(210.51 67.547)"/><ellipse class="f" cx="22.044" cy="21.77" rx="22.044" ry="21.77" transform="translate(215.581 72.556)"/><path class="e" d="M259.669,94.326q0,.87-.068,1.721a22.068,22.068,0,0,0-43.951,0q-.067-.85-.068-1.721a22.045,22.045,0,0,1,44.087,0Z"/><path class="h" d="M237.626,96.591a.552.552,0,0,1-.443-.22L226.369,81.993a.54.54,0,0,1,.114-.762.555.555,0,0,1,.771.113l10.552,14.029,11.992-5.2a.555.555,0,0,1,.727.28.542.542,0,0,1-.284.718l-12.394,5.372A.558.558,0,0,1,237.626,96.591Z"/></g></g></svg>