<svg xmlns="http://www.w3.org/2000/svg" width="17.581" height="17.583" viewBox="0 0 17.581 17.583"><defs><style>.a{fill:#06edff;}</style></defs><g transform="translate(0.42 0.417)"><g transform="translate(-0.131 5.276)"><rect class="a" width="3.867" height="11.889"/></g><g transform="translate(5.273 5.276)"><path class="a" d="M169,160.139c-.041-.013-.08-.027-.123-.039s-.1-.022-.157-.03a3.466,3.466,0,0,0-.694-.07,5.373,5.373,0,0,0-4.156,2.273V160H160v11.889h3.867V165.4s2.922-4.07,4.156-1.081v7.566h3.866v-8.023A3.856,3.856,0,0,0,169,160.139Z" transform="translate(-160 -160)"/></g><g transform="translate(-0.42 -0.418)"><circle class="a" cx="2" cy="2" r="2" transform="translate(0 0)"/></g></g></svg>