<svg xmlns="http://www.w3.org/2000/svg" width="30" height="30" viewBox="0 0 30 30" fill="none"><path d="M22.5 0H7.5C3.36 0 0 3.36 0 7.5V22.5C0 26.64 3.36 30 7.5 30H22.5C26.64 30 30 26.64 30 22.5V7.5C30 3.36 26.64 0 22.5 0ZM16.995 18.96L13.2 22.77C11.55 24.42 8.88 24.42 7.23 22.77C5.58 21.12 5.58 18.45 7.23 16.8L11.025 13.005C11.04 12.99 11.04 12.99 11.055 12.975C10.845 14.43 11.25 15.315 11.325 15.69L8.715 18.3C7.89 19.125 7.89 20.46 8.715 21.285C9.54 22.11 10.875 22.11 11.7 21.285C11.775 21.21 15.375 17.61 15.495 17.49C16.32 16.665 16.29 15.3 15.495 14.505C15.405 14.415 15.315 14.355 15.225 14.28C15.21 13.92 15.075 13.425 15.495 13.005L16.14 12.36C16.44 12.54 16.725 12.75 16.995 13.005C18.585 14.58 18.675 17.295 16.995 18.96ZM22.77 13.2L19.245 16.725C19.23 16.74 19.23 16.74 19.215 16.755C19.425 15.3 19.02 14.415 18.945 14.04L21.27 11.715C22.095 10.89 22.095 9.555 21.27 8.73C20.445 7.905 19.11 7.905 18.285 8.73C18.21 8.805 14.88 12.135 14.76 12.255C13.935 13.08 13.965 14.445 14.76 15.24C14.85 15.33 14.94 15.39 15.03 15.465C15.045 15.825 15.18 16.32 14.76 16.74L14.115 17.385C13.815 17.205 13.53 16.995 13.26 16.74C11.715 15.195 11.55 12.48 13.26 10.77L16.785 7.245C18.435 5.595 21.105 5.595 22.755 7.245C24.405 8.88 24.405 11.55 22.77 13.2Z" fill="white"></path></svg>