<svg xmlns="http://www.w3.org/2000/svg" width="135" height="87" viewBox="0 0 135 87"><defs><style>.a{fill:#2b388f;}.b{fill:#fff;}.c,.i{fill:#f6921e;}.d{fill:#f9ec31;}.d,.e,.f,.g,.h,.i{fill-rule:evenodd;}.e{fill:#ec297b;}.f{fill:#d9ef0a;}.g{fill:#8f10ff;}.h{fill:#06edff;}</style></defs><g transform="translate(0.245 0.313)"><rect class="a" width="135" height="87" transform="translate(-0.245 -0.313)"/><g transform="translate(19.447 14.368)"><g transform="translate(34.675 13.338)"><path class="b" d="M425.663,252.18a46.738,46.738,0,0,1,3.5-3.587,43.9,43.9,0,0,1,3.791-3.182,15.054,15.054,0,0,1,5.37-2.716q1.476-.365,1.722-.2c.054.027.027.162-.083.405a1.384,1.384,0,0,1-.369.526,5.139,5.139,0,0,1-.922.669,9.76,9.76,0,0,0-.84.548,8.309,8.309,0,0,0-1.312,1.377q-.82,1.014-1.106,1.338-.206.2-.636.608a8.356,8.356,0,0,0-.635.649,2.351,2.351,0,0,0-.308.426c-.123.2-.212.344-.266.426q-.451.527-1.578,1.722t-1.7,1.845l-.41.486c.082.108.219.278.41.507s.3.358.328.385a7.163,7.163,0,0,1,.512.73,4.123,4.123,0,0,0,.471.649,2.755,2.755,0,0,0,.512.547,4.1,4.1,0,0,1,.595.629c.027.054.055.081.082.081a85.808,85.808,0,0,1,5.9,7.62,17.485,17.485,0,0,1,2.418,4.459,2.354,2.354,0,0,1,.123,1.216c-.027.054-.143.081-.348.081a1.089,1.089,0,0,1-.471-.081,3.287,3.287,0,0,1-.349-.3,4.606,4.606,0,0,1-.389-.445,4.659,4.659,0,0,0-.369-.426,8.043,8.043,0,0,0-1.25-.993,11.067,11.067,0,0,1-1.414-1.115,5.239,5.239,0,0,1-.635-.668q-.39-.466-.594-.669a3.21,3.21,0,0,0-.431-.324,3.074,3.074,0,0,1-.431-.324,24.111,24.111,0,0,1-1.742-1.885q-1.128-1.316-1.619-1.824t-1.517-1.8a16.4,16.4,0,0,1-1.476-1.946,12.756,12.756,0,0,1-.7-1.5c-.274.27-.519.5-.738.688q-.083.083-1.8,1.257a12.022,12.022,0,0,1-1.844,1.176,1.451,1.451,0,0,1-.41.122c0,.162-.007.392-.02.689s-.021.513-.021.649q0,2.554-.041,2.837-.042.406-.185,1.2c-.1.527-.171.885-.225,1.074a7,7,0,0,1-.061.749c-.041.339-.082.629-.123.871a5.98,5.98,0,0,1-.143.649,5.083,5.083,0,0,1-.513,1.054,2.522,2.522,0,0,1-.594.77,1.229,1.229,0,0,1-.779.082,1.617,1.617,0,0,1-.861-.447,7.34,7.34,0,0,1-.164-.973q-.123-.931-.246-3.242a9.724,9.724,0,0,1,.02-1.4q.062-.871.061-1.115a8.564,8.564,0,0,0-.081-.933,8.856,8.856,0,0,1-.082-1.094v-.081q-.04-3.4.533-10.376a53.706,53.706,0,0,1,.779-6.364,5.721,5.721,0,0,0,.123-.629,6.01,6.01,0,0,1,.184-.83,1.4,1.4,0,0,1,.144-.365c.054-.027.13.007.225.1a3.2,3.2,0,0,1,.307.365,1.112,1.112,0,0,1,.205.426,18.934,18.934,0,0,1,.328,2.513,13.08,13.08,0,0,0,.39,2.006,17.407,17.407,0,0,1,.431,2.169c.026.243.047.595.061,1.053s.02.785.02.974a2.466,2.466,0,0,0,.1.547q.1.386.144.587.04.852.041,2.554l.164-.163a10.382,10.382,0,0,1,.861-.831q.573-.507.779-.709.163-.2.512-.689a5.981,5.981,0,0,1,.635-.77Z" transform="translate(-418.65 -241.79)"/><path class="b" d="M541.273,247.389a11.057,11.057,0,0,1,1.619-.466,7,7,0,0,0,1.455-.445,1.043,1.043,0,0,0,.574-.71,1.323,1.323,0,0,1,.7-.973,3.187,3.187,0,0,1,1.127-1.5,1.336,1.336,0,0,1,1.537,0q.861.487.164,5.067a4.508,4.508,0,0,1-.082.486,14.534,14.534,0,0,0-.123,1.824,3.607,3.607,0,0,0,.082.628,3.765,3.765,0,0,1,.082.588v2.777q0,2.088.082,2.979,0,.2.083,2.838,0,.446.061,1.479t.062,1.56c0,.189-.008.574-.021,1.155s-.021,1.033-.021,1.358q.041.365.144,1.175t.143,1.135a9.3,9.3,0,0,1-.1,1.2,3.029,3.029,0,0,1-.225.953,1.339,1.339,0,0,1-.615.445,1.161,1.161,0,0,1-.553.041,1.181,1.181,0,0,1-.471-.122,3.519,3.519,0,0,1-.615-1.013,15.77,15.77,0,0,1-1.229-3.729,7.828,7.828,0,0,1-.184-1.013q-.062-.527-.082-1.156t-.021-.871q-.042-.244-.164-1.014a8.425,8.425,0,0,1-.123-1.3v-.122a53.031,53.031,0,0,1,.368-10.254q-.451.162-1.065.365a3.414,3.414,0,0,1-1.517.162q-1.148-.04-1.353-.041a6.231,6.231,0,0,1-1.045,0,7.556,7.556,0,0,1-.964-.081,1.92,1.92,0,0,1-.86-2.148,1.964,1.964,0,0,1,.574-.385,4.455,4.455,0,0,1,.943-.385,1.26,1.26,0,0,1,.369-.06,1.868,1.868,0,0,0,.409-.061,2.875,2.875,0,0,0,.329-.1,2.174,2.174,0,0,0,.307-.142C541.144,247.457,541.218,247.417,541.273,247.389Z" transform="translate(-510.979 -242.512)"/><path class="b" d="M613.921,241.654a11.029,11.029,0,0,1,2.029,5.31,9.561,9.561,0,0,1-.882,5.472q-.287.486-.656,1.014t-.677.912a10.383,10.383,0,0,1-.8.872l-.779.77a11.564,11.564,0,0,1-.9.77l-.819.648c-.138.109-.424.325-.862.649s-.7.513-.778.568q-5.042,3.85-6.476,7.052a.12.12,0,0,1-.041.081,3.528,3.528,0,0,1,.778-.1q.492-.02.533-.02c.082-.027.273-.074.574-.142a3.637,3.637,0,0,1,.779-.1h.081a28.244,28.244,0,0,1,7.091,1.136,26.946,26.946,0,0,1,3.771,1.256.993.993,0,0,0,.595.06,1.162,1.162,0,0,0,.471-.182l.082.325a1.062,1.062,0,0,1-.738,1.134q-.041.122-.676.082c-.424-.027-.663-.041-.718-.041a11.41,11.41,0,0,0-1.271.264,6.367,6.367,0,0,1-1.435.223q-.246,0-.7-.04c-.3-.028-.519-.041-.656-.041a.7.7,0,0,0-.389.041,1.53,1.53,0,0,1-.389.08q-.533-.04-1.721-.162t-1.763-.122q-.246,0-.779-.02t-.779-.02q-.246,0-.758.041c-.342.027-.581.041-.716.041a3.052,3.052,0,0,1-.534-.061q-.329-.06-.492-.1-.082,0-.389.04c-.2.027-.322.027-.348,0a2.421,2.421,0,0,1-.943-.608c-.192-.188-.369-.377-.533-.568a.643.643,0,0,0-.122-.162v-.041a2.125,2.125,0,0,1-.247-.608,1.36,1.36,0,0,1,.369-.487,1.761,1.761,0,0,1,.41-.365.165.165,0,0,0,.041-.122q.041-.122.185-1.459a7.086,7.086,0,0,1,.512-2.148,20.852,20.852,0,0,1,4.714-5.958q.368-.364,1.229-1.095t1.271-1.094q.164-.162,1.107-1.418,2.664-3.405,2.664-6.08a2.564,2.564,0,0,0-.9-2.229,3.433,3.433,0,0,0-2.3-.324,7.94,7.94,0,0,0-3.034.892,12.925,12.925,0,0,0-2.705,2.189c-.137.162-.368.425-.7.791s-.629.7-.9.992a4.387,4.387,0,0,1-.533.527.968.968,0,0,1-.82.121,1.045,1.045,0,0,1-.43-.426,1.11,1.11,0,0,1-.225-.547,2.464,2.464,0,0,1,.143-.871,5.954,5.954,0,0,1,.389-1.074,12.536,12.536,0,0,1,1.927-2.8,12.187,12.187,0,0,1,2.5-2.188,10.138,10.138,0,0,1,4.878-1.5,7.908,7.908,0,0,1,3.976.851A1.823,1.823,0,0,0,613.921,241.654Z" transform="translate(-558.827 -240.668)"/></g><g transform="translate(34.563 44.855)"><path class="c" d="M419.9,383.729q.007-.356.137-1.823a6.809,6.809,0,0,1,.137-.925c-.173,0-.314.012-.424.022q-.036,0-.5.028l-.483.021a.8.8,0,0,1-.1-.007c-.036,0-.075-.01-.115-.017l-.1-.018a1.751,1.751,0,0,1-.209-.029.245.245,0,0,1-.061-.085.251.251,0,0,1-.033-.1.439.439,0,0,1,.036-.128.362.362,0,0,0,.022-.15.061.061,0,0,1,.014-.043.747.747,0,0,1,.259-.078.978.978,0,0,1,.191-.014h.155l.155-.024c.074-.012.14-.02.2-.025h.021a15.477,15.477,0,0,1,2.138.007,2.891,2.891,0,0,1,.921.157c.077.033.123.067.136.1a.213.213,0,0,1-.017.06c-.012.031-.023.049-.033.053a.122.122,0,0,1-.065.025c-.024,0-.056,0-.1,0a.386.386,0,0,0-.09.008,1.389,1.389,0,0,0-.288.057,2.429,2.429,0,0,1-.352.071c-.044,0-.109.009-.2.011s-.149.006-.187.011-.069.013-.119.024-.087.021-.112.025c-.1.01-.221.017-.374.022v.107a1.908,1.908,0,0,0,.054.366,2.691,2.691,0,0,1,.061.367c0,.038.008.1.011.178s0,.137,0,.17a.432.432,0,0,0,.018.1c.012.046.02.08.025.1q.007.164-.007.517c-.01.235-.014.374-.014.416,0,.062,0,.147-.008.256s-.007.175-.007.2c0,.039-.007.116-.007.232s0,.2-.007.26c-.005.037-.013.1-.025.188s-.02.155-.025.2a1.512,1.512,0,0,0,0,.192,1.168,1.168,0,0,1,0,.178,1.45,1.45,0,0,1-.057.192.491.491,0,0,1-.072.15.325.325,0,0,1-.13.049.428.428,0,0,1-.094-.014.184.184,0,0,1-.072-.029.787.787,0,0,1-.064-.171,3.09,3.09,0,0,1-.122-.59.75.75,0,0,1-.015-.157c0-.056,0-.116,0-.178s0-.107,0-.135,0-.084-.01-.164-.011-.15-.011-.208v-.007A.017.017,0,0,0,419.9,383.729Z" transform="translate(-418.153 -380.177)"/><path class="c" d="M440.137,382.312s0,.077.014.224.024.308.043.484.043.356.072.541a2.453,2.453,0,0,0,.345.968.827.827,0,0,0,.346.3.879.879,0,0,0,.481.075,1.74,1.74,0,0,0,.551-.153,1.385,1.385,0,0,0,.442-.31,1.733,1.733,0,0,0,.411-.925q.057-.328.09-.623c.022-.2.036-.371.043-.523a2.432,2.432,0,0,1,.018-.256c.009-.124.024-.3.043-.524s.037-.423.054-.594.034-.31.054-.42a.662.662,0,0,0,0-.138.334.334,0,0,1,0-.11.069.069,0,0,1,.04-.007.184.184,0,0,1,.076.021.18.18,0,0,1,.064.05,1.322,1.322,0,0,1,.1.5c0,.067.024.231.057.494s.053.473.058.63a2.114,2.114,0,0,1,0,.242c-.005.1-.007.168-.007.206a.383.383,0,0,0,.014.092.4.4,0,0,1,.014.079,3.847,3.847,0,0,1-.151,1.274,2.239,2.239,0,0,1-.659,1.018,2.591,2.591,0,0,1-1.191.641,1.291,1.291,0,0,1-.752-.057,1.536,1.536,0,0,1-.644-.427,2.366,2.366,0,0,1-.5-1.053,9.444,9.444,0,0,1-.18-1.125c-.01-.057-.024-.235-.043-.534-.005-.029-.013-.107-.025-.235s-.018-.225-.018-.292a2.359,2.359,0,0,1,0-.274c0-.121.009-.2.014-.239,0-.3.01-.474.014-.512a.661.661,0,0,1,.087-.211.473.473,0,0,1,.108-.145.225.225,0,0,1,.137,0,.361.361,0,0,1,.087.032.316.316,0,0,1,.065.039c0,.01.009.065.029.164.01.056.02.123.032.2s.024.162.036.257.021.166.026.213a2.55,2.55,0,0,1,.032.3c.007.127.011.2.011.232s.016.092.032.174a2.009,2.009,0,0,1,.033.218v.017Z" transform="translate(-434.579 -380.196)"/><path class="c" d="M460.5,383.729q.008-.356.137-1.823a6.808,6.808,0,0,1,.137-.925c-.173,0-.314.012-.425.022q-.036,0-.5.028l-.482.021a.8.8,0,0,1-.1-.007c-.036,0-.075-.01-.115-.017l-.1-.018a1.76,1.76,0,0,1-.21-.029.24.24,0,0,1-.061-.085.25.25,0,0,1-.033-.1.445.445,0,0,1,.037-.128.364.364,0,0,0,.021-.15.059.059,0,0,1,.014-.043.73.73,0,0,1,.259-.078.982.982,0,0,1,.191-.014h.155l.155-.024c.073-.012.14-.02.2-.025h.021a15.465,15.465,0,0,1,2.137.007,2.891,2.891,0,0,1,.922.157c.077.033.123.067.137.1a.234.234,0,0,1-.018.06c-.012.031-.023.049-.033.053a.123.123,0,0,1-.065.025c-.024,0-.056,0-.1,0a.384.384,0,0,0-.09.008,1.382,1.382,0,0,0-.288.057,2.426,2.426,0,0,1-.353.071c-.043,0-.108.009-.194.011s-.149.006-.187.011-.069.013-.119.024-.087.021-.111.025c-.1.01-.221.017-.375.022v.107a1.886,1.886,0,0,0,.054.366,2.692,2.692,0,0,1,.061.367c0,.038.008.1.011.178s0,.137,0,.17a.428.428,0,0,0,.018.1c.012.046.02.08.025.1,0,.109,0,.281-.007.517s-.015.374-.015.416c0,.062,0,.147-.007.256s-.007.175-.007.2a2.133,2.133,0,0,0-.008.232c0,.116,0,.2-.007.26,0,.037-.013.1-.025.188s-.02.155-.025.2a1.354,1.354,0,0,0,0,.192,1.15,1.15,0,0,1,0,.178,1.583,1.583,0,0,1-.058.192.464.464,0,0,1-.072.15.323.323,0,0,1-.129.049.415.415,0,0,1-.093-.014.191.191,0,0,1-.073-.029.816.816,0,0,1-.065-.171,3.143,3.143,0,0,1-.122-.59.741.741,0,0,1-.014-.157c0-.056,0-.116,0-.178s0-.107,0-.135,0-.084-.011-.164-.01-.15-.01-.208v-.007A.018.018,0,0,0,460.5,383.729Z" transform="translate(-449.552 -380.177)"/><path class="c" d="M483.733,380.985a.05.05,0,0,0,.007-.022c.01,0,.022.008.04.036a1.134,1.134,0,0,1,.053.1.393.393,0,0,1,.036.11,4.969,4.969,0,0,1,.071.655c.005.056.015.144.029.26s.025.214.033.295.01.178.01.292a2.19,2.19,0,0,1-.022.32,2.831,2.831,0,0,1-.2.606q-.129.312-.136.32a1.363,1.363,0,0,1-.119.166,3.115,3.115,0,0,1-.241.26,3.387,3.387,0,0,1-.407.335,3.532,3.532,0,0,1-.529.312,1.933,1.933,0,0,1-.731.157,2.37,2.37,0,0,1-.816-.114,2.144,2.144,0,0,1-.72-.391,2.579,2.579,0,0,1-.583-.662,2.917,2.917,0,0,1-.314-.745,3.019,3.019,0,0,1-.111-.793,2.793,2.793,0,0,1,.115-.816,1.835,1.835,0,0,1,.324-.637,4.28,4.28,0,0,1,.619-.6,4.1,4.1,0,0,1,.512-.359,2.286,2.286,0,0,1,.287-.134,2.719,2.719,0,0,1,.72-.165,2.321,2.321,0,0,1,.806.05,2.119,2.119,0,0,1,.611.306,1.882,1.882,0,0,1,.5.47A1.247,1.247,0,0,1,483.733,380.985Zm-1.994-.52a2.655,2.655,0,0,0-.328.075,3.481,3.481,0,0,0-1.155.679,1.354,1.354,0,0,0-.345.513,2,2,0,0,0-.144.675,2.333,2.333,0,0,0,.09.72,2.1,2.1,0,0,0,.3.655,1.852,1.852,0,0,0,.511.495,1.587,1.587,0,0,0,.619.245,1.983,1.983,0,0,0,.669-.028,1.39,1.39,0,0,0,.561-.249,2.562,2.562,0,0,0,.619-.644,2.359,2.359,0,0,0,.295-.573,3.337,3.337,0,0,0,.1-.47c.026-.171.053-.381.08-.634s.042-.41.046-.476a.419.419,0,0,0,.015-.079c0-.038.007-.064.007-.078a.02.02,0,0,1-.015.008.176.176,0,0,1-.1,0,.211.211,0,0,1-.09-.039.44.44,0,0,1-.072-.081.9.9,0,0,0-.108-.118,2.251,2.251,0,0,0-.6-.441,2.226,2.226,0,0,0-.5-.164.585.585,0,0,0-.2,0c-.125.009-.2.014-.231.014Z" transform="translate(-465.277 -379.761)"/><path class="c" d="M506.744,380.225a1.96,1.96,0,0,1,.77.733,1.012,1.012,0,0,1,.13.919,1.818,1.818,0,0,1-.835.9c.043.033.084.066.123.1a.754.754,0,0,1,.089.089,1.223,1.223,0,0,1,.087.118c.031.047.049.075.054.085s.037.041.083.093a.716.716,0,0,1,.1.136.022.022,0,0,1,.007.014,4.205,4.205,0,0,1,.432,1.239,3.245,3.245,0,0,1,.058.491c0,.01,0,.034.014.072a.3.3,0,0,1,.022.071c0,.014-.016.031-.048.05a.11.11,0,0,1-.076.021.358.358,0,0,1-.172-.142l-.129-.125a1,1,0,0,1-.159-.181.63.63,0,0,1-.047-.1c-.017-.045-.03-.077-.039-.1a.164.164,0,0,0-.04-.054.153.153,0,0,1-.039-.054c-.024-.048-.063-.137-.116-.27s-.1-.232-.129-.3q-.144-.27-.144-.278c-.02-.033-.049-.079-.089-.139a1.236,1.236,0,0,1-.083-.132l-.054-.106a.691.691,0,0,0-.068-.114.366.366,0,0,0-.072-.1.465.465,0,0,1-.073-.089.253.253,0,0,1-.028-.064,2.219,2.219,0,0,1-.634.089,4.049,4.049,0,0,1-.59-.029c-.154-.022-.358-.053-.612-.1q-.014.471-.051.9a4.62,4.62,0,0,1-.195,1.117,1.051,1.051,0,0,1-.129.3c-.01,0-.027-.014-.054-.057a.31.31,0,0,1-.046-.114.514.514,0,0,1-.015-.124c0-.045,0-.1,0-.156s0-.106,0-.139a2.024,2.024,0,0,0-.05-.359c-.034-.163-.055-.286-.065-.366a1.544,1.544,0,0,1-.007-.175,1.609,1.609,0,0,0-.007-.173.383.383,0,0,0-.018-.1c-.012-.043-.02-.075-.025-.1q-.014-.15-.022-.473t-.014-.459c-.005-.09-.007-.244-.007-.463,0-.274,0-.445.014-.512,0-.013.029-.151.087-.413a3.533,3.533,0,0,1,.1-.391.253.253,0,0,1,.036-.071.022.022,0,0,0-.014-.006.178.178,0,0,1-.1-.1.146.146,0,0,1,.007-.1.182.182,0,0,1,.05-.093,1.337,1.337,0,0,1,.317-.12c.1-.019.2-.035.309-.047s.235-.022.374-.032.231-.016.274-.021a5.915,5.915,0,0,1,.828,0,4.018,4.018,0,0,1,.691.092Zm-2.3,1.793q.007.264.008.591.035,0,.5.071a2.026,2.026,0,0,0,1.044-.135,2.266,2.266,0,0,0,.489-.271,1.055,1.055,0,0,0,.216-.22q.453-.548.3-.833a.6.6,0,0,0-.194-.192,1.059,1.059,0,0,0-.274-.136,3.722,3.722,0,0,0-.741-.12c-.3-.024-.523-.039-.662-.044q-.546-.006-.669-.021l-.008-.007c0,.067,0,.161,0,.285s0,.2,0,.242c0,.057-.005.133-.015.228s-.015.161-.015.2,0,.087.011.16a1.878,1.878,0,0,1,.011.188Z" transform="translate(-484.343 -380.026)"/><path class="c" d="M536.228,380.642a1.31,1.31,0,0,0-1.058.249,2.362,2.362,0,0,0-.609.793,2.453,2.453,0,0,0-.263,1.086,1.753,1.753,0,0,0,.292,1.007,1.872,1.872,0,0,0,.709.687,1.584,1.584,0,0,0,.515.167,1.627,1.627,0,0,0,.414.022,1.262,1.262,0,0,0,.231-.046,2.713,2.713,0,0,0,1.065-.789,1.637,1.637,0,0,0,.1-.154c.045-.073.087-.142.126-.206a.409.409,0,0,1,.072-.1c.019-.009.026.043.021.157a.622.622,0,0,1-.021.178,1.97,1.97,0,0,1-.331.64c-.092.118-.163.211-.216.277a2.486,2.486,0,0,1-.227.239,1.749,1.749,0,0,1-.291.224,2.069,2.069,0,0,1-.439.135c-.009,0-.046.016-.108.035a.545.545,0,0,1-.143.028,1.744,1.744,0,0,1-.242,0,2.48,2.48,0,0,1-.457-.1,2.252,2.252,0,0,1-.591-.267,2.542,2.542,0,0,1-.8-.847,2.329,2.329,0,0,1-.36-1.181,3.057,3.057,0,0,1,.792-2.185,2.322,2.322,0,0,1,.7-.552,2.176,2.176,0,0,1,.565-.21,2.086,2.086,0,0,1,.683.028,2.7,2.7,0,0,1,.828.328c.115.066.2.117.259.153a1.8,1.8,0,0,1,.223.171,1.158,1.158,0,0,1,.216.238.66.66,0,0,1,.072.4.613.613,0,0,1-.137.331.974.974,0,0,1-.248.17.547.547,0,0,1-.234.086.173.173,0,0,1-.115-.071.2.2,0,0,1-.029-.1.224.224,0,0,1,0-.082.454.454,0,0,1,.054-.078.783.783,0,0,0,.076-.114c.057-.108.079-.168.065-.178a3.431,3.431,0,0,1-.36-.228,2.305,2.305,0,0,0-.317-.2.865.865,0,0,0-.144-.057c-.048-.014-.1-.028-.169-.043a1.234,1.234,0,0,1-.155-.043Z" transform="translate(-507.458 -379.875)"/><path class="c" d="M559.082,380.985a.048.048,0,0,0,.008-.022c.009,0,.023.008.04.036s.034.062.054.1a.4.4,0,0,1,.037.11,5.039,5.039,0,0,1,.071.655c.005.056.015.144.029.26s.025.214.032.295.011.178.011.292a2.22,2.22,0,0,1-.022.32,2.9,2.9,0,0,1-.2.606q-.13.312-.137.32a1.356,1.356,0,0,1-.119.166,3.248,3.248,0,0,1-.241.26,3.382,3.382,0,0,1-.407.335,3.532,3.532,0,0,1-.529.312,1.931,1.931,0,0,1-.731.157,2.367,2.367,0,0,1-.817-.114,2.134,2.134,0,0,1-.72-.391,2.555,2.555,0,0,1-.583-.662,2.877,2.877,0,0,1-.313-.745,3,3,0,0,1-.112-.793,2.793,2.793,0,0,1,.115-.816,1.837,1.837,0,0,1,.324-.637,4.233,4.233,0,0,1,.619-.6,4.064,4.064,0,0,1,.511-.359,2.316,2.316,0,0,1,.288-.134,2.718,2.718,0,0,1,.72-.165,2.315,2.315,0,0,1,.806.05,2.109,2.109,0,0,1,.612.306,1.894,1.894,0,0,1,.5.47A1.236,1.236,0,0,1,559.082,380.985Zm-1.994-.52a2.5,2.5,0,0,0-.328.075,3.479,3.479,0,0,0-1.154.679,1.356,1.356,0,0,0-.346.513,2,2,0,0,0-.144.675,2.317,2.317,0,0,0,.09.72,2.1,2.1,0,0,0,.3.655,1.842,1.842,0,0,0,.511.495,1.584,1.584,0,0,0,.619.245,1.98,1.98,0,0,0,.669-.028,1.39,1.39,0,0,0,.562-.249,2.57,2.57,0,0,0,.619-.644,2.343,2.343,0,0,0,.295-.573,3.341,3.341,0,0,0,.1-.47c.026-.171.053-.381.079-.634s.042-.41.047-.476a.6.6,0,0,0,.014-.079.749.749,0,0,0,.007-.078.021.021,0,0,1-.015.008.176.176,0,0,1-.1,0,.209.209,0,0,1-.09-.039.405.405,0,0,1-.072-.081.837.837,0,0,0-.108-.118,1.987,1.987,0,0,0-1.1-.6.586.586,0,0,0-.2,0c-.125.009-.2.014-.23.014Z" transform="translate(-523.554 -379.761)"/><path class="c" d="M581.987,384.06a16.388,16.388,0,0,1,.259-2.491,3.076,3.076,0,0,1,.316-1.024.42.42,0,0,1,.065-.079.216.216,0,0,1,.065-.05.1.1,0,0,1,.057.033.139.139,0,0,1,.043.053.618.618,0,0,1,.008.075.821.821,0,0,1-.011.092c-.008.045-.013.08-.018.1a2.539,2.539,0,0,0,.014.345,3.211,3.211,0,0,1,.015.4c0,.048,0,.118-.015.213s-.014.169-.014.221a.5.5,0,0,0,0,.128,1.126,1.126,0,0,1,.011.128c0,.119-.017.32-.036.605s-.031.5-.035.655q0,.106-.007.31c-.005.134-.01.229-.014.28v.275c0,.14,0,.242-.007.309s-.015.122-.029.21-.024.146-.029.174,0,.063,0,.1-.005.075-.007.1a.216.216,0,0,1-.018.071.3.3,0,0,1-.068.089.315.315,0,0,1-.091.068,1.324,1.324,0,0,1-.129.035h-.1c-.036,0-.056,0-.061-.007s-.031-.028-.051-.071a.373.373,0,0,1-.086-.071,1.1,1.1,0,0,1-.094-.125l-.1-.167c-.04-.067-.068-.113-.083-.142a3.741,3.741,0,0,0-.263-.342q-.19-.226-.277-.348c-.028-.043-.065-.1-.111-.181s-.08-.137-.1-.175c-.014-.018-.04-.048-.076-.088s-.061-.07-.075-.089c-.062-.1-.156-.248-.281-.46s-.218-.366-.281-.466c-.014-.019-.108-.168-.281-.448q-.3-.484-.3-.5c-.029-.052-.065-.128-.108-.227l-.093-.214c-.015-.029-.035-.069-.059-.121a3.213,3.213,0,0,1,.015.406,1.71,1.71,0,0,1-.018.21,1.805,1.805,0,0,0-.018.2c0,.028,0,.07.007.124s.007.094.007.118c0,.113-.019.3-.043.559s-.039.457-.043.595c0,.07,0,.168-.011.291s-.013.209-.017.256,0,.117-.007.25-.01.23-.015.292-.016.114-.032.2-.028.145-.032.178,0,.059-.007.1-.009.084-.011.114a.276.276,0,0,1-.018.082.342.342,0,0,1-.072.107.29.29,0,0,1-.094.079.384.384,0,0,1-.136.021.286.286,0,0,1-.158-.021.341.341,0,0,1-.043-.1,2.245,2.245,0,0,1-.08-.448,1.452,1.452,0,0,1,0-.231c.007-.131.01-.2.01-.218,0-.033,0-.093-.01-.181a1.375,1.375,0,0,1,0-.224V384a15.266,15.266,0,0,1,.288-2.292,4.017,4.017,0,0,1,.309-1.054.462.462,0,0,1,.036-.057.137.137,0,0,1,.007-.056.174.174,0,0,1,.1-.092.163.163,0,0,1,.1-.018.209.209,0,0,1,.08.014,1.485,1.485,0,0,1,.133.153q.137.157.4.534a2.612,2.612,0,0,1,.158.249c.062.109.1.175.115.2s.064.086.119.157a1.893,1.893,0,0,1,.133.192l.007.014a17.878,17.878,0,0,1,1.036,1.922q.26.547.382.883c0-.138.008-.214.008-.229s0-.09-.011-.185-.011-.179-.011-.249v-.022Z" transform="translate(-542.24 -380.268)"/><path class="c" d="M602.954,384.06a16.432,16.432,0,0,1,.259-2.491,3.084,3.084,0,0,1,.317-1.024.405.405,0,0,1,.065-.079.224.224,0,0,1,.064-.05.1.1,0,0,1,.058.033.142.142,0,0,1,.043.053.67.67,0,0,1,.007.075.712.712,0,0,1-.011.092c-.007.045-.013.08-.018.1a2.563,2.563,0,0,0,.015.345,3.193,3.193,0,0,1,.014.4c0,.048,0,.118-.014.213s-.015.169-.015.221a.491.491,0,0,0,0,.128,1.156,1.156,0,0,1,.011.128c-.005.119-.017.32-.036.605s-.031.5-.036.655c0,.07,0,.174-.007.31s-.01.229-.015.28v.275c0,.14,0,.242-.007.309s-.014.122-.029.21-.024.146-.028.174,0,.063,0,.1-.005.075-.007.1a.2.2,0,0,1-.018.071.293.293,0,0,1-.068.089.313.313,0,0,1-.09.068c-.043.014-.087.026-.13.035h-.1c-.036,0-.057,0-.062-.007s-.031-.028-.05-.071a.364.364,0,0,1-.086-.071,1.013,1.013,0,0,1-.094-.125c-.029-.045-.064-.1-.1-.167s-.068-.113-.082-.142a4.056,4.056,0,0,0-.263-.342q-.191-.226-.278-.348c-.029-.043-.066-.1-.112-.181s-.08-.137-.1-.175c-.015-.018-.04-.048-.076-.088s-.061-.07-.075-.089c-.063-.1-.156-.248-.281-.46s-.218-.366-.28-.466c-.014-.019-.108-.168-.281-.448q-.3-.484-.3-.5c-.029-.052-.064-.128-.108-.227s-.075-.171-.094-.214-.033-.069-.057-.121a3.317,3.317,0,0,1,.015.406,1.819,1.819,0,0,1-.018.21,1.711,1.711,0,0,0-.018.2c0,.028,0,.07.007.124s.007.094.007.118c0,.113-.019.3-.043.559s-.038.457-.043.595c0,.07,0,.168-.01.291s-.014.209-.018.256,0,.117-.007.25-.01.23-.015.292-.015.114-.032.2-.028.145-.033.178,0,.059-.007.1-.008.084-.011.114a.263.263,0,0,1-.018.082.32.32,0,0,1-.071.107.3.3,0,0,1-.094.079.388.388,0,0,1-.137.021.285.285,0,0,1-.158-.021.351.351,0,0,1-.043-.1,2.273,2.273,0,0,1-.08-.448,1.735,1.735,0,0,1,0-.231c.007-.131.011-.2.011-.218,0-.033,0-.093-.011-.181a1.574,1.574,0,0,1,0-.224V384a15.234,15.234,0,0,1,.288-2.292,4.025,4.025,0,0,1,.31-1.054.336.336,0,0,1,.036-.057.158.158,0,0,1,.007-.056.175.175,0,0,1,.1-.092.162.162,0,0,1,.1-.018.209.209,0,0,1,.08.014,1.357,1.357,0,0,1,.133.153q.137.157.4.534a2.326,2.326,0,0,1,.158.249l.115.2c.024.034.064.086.119.157a2.074,2.074,0,0,1,.133.192l.007.014a17.985,17.985,0,0,1,1.036,1.922q.259.547.382.883c0-.138.007-.214.007-.229s0-.09-.011-.185-.011-.179-.011-.249v-.022Z" transform="translate(-558.456 -380.268)"/><path class="c" d="M622.8,384.859a7.955,7.955,0,0,1,1.447.156c.048.01.116.022.205.036l.234.039a1.39,1.39,0,0,1,.172.039.434.434,0,0,0,.094.006.2.2,0,0,1,.087.011c.01.008.014.028.014.064a.133.133,0,0,1-.022.082.511.511,0,0,1-.238.113,1.976,1.976,0,0,0-.2.075,1.268,1.268,0,0,1-.277.082.6.6,0,0,1-.129,0,.508.508,0,0,0-.13,0,.3.3,0,0,0-.079.014.347.347,0,0,1-.072.014q-.116,0-.36-.018c-.164-.012-.288-.018-.375-.018h-.353c-.043,0-.107,0-.191.008s-.145.007-.183.007-.076,0-.141-.007-.114-.008-.147-.008-.066,0-.126.011a1.186,1.186,0,0,1-.126.011,1.064,1.064,0,0,1-.141-.035.321.321,0,0,1-.119-.057.35.35,0,0,1-.072-.114h-.015c-.01,0-.021-.018-.036-.053a.163.163,0,0,1-.014-.089.54.54,0,0,1,.032-.15.984.984,0,0,0,.04-.149,1.215,1.215,0,0,0,0-.339c-.017-.159-.025-.267-.025-.323,0-.029,0-.085,0-.168s0-.145,0-.188c0-.024-.011-.059-.021-.107s-.017-.083-.021-.107c-.006-.095-.012-.261-.022-.5s-.019-.42-.029-.548c-.009-.1-.019-.276-.028-.527-.014-.3-.019-.489-.014-.555,0-.048.029-.19.072-.427a2.507,2.507,0,0,1,.087-.391.681.681,0,0,1,.079-.114.078.078,0,0,1,.014-.022.018.018,0,0,0,.014-.007.345.345,0,0,1,.138-.1.292.292,0,0,1,.129.021.019.019,0,0,1,.015.008,2.111,2.111,0,0,1,.3-.05,1.07,1.07,0,0,1,.187-.014h.159a.712.712,0,0,0,.114-.018.773.773,0,0,1,.144-.018h.008a5.262,5.262,0,0,1,1.238.122,2.808,2.808,0,0,1,.712.206l.072.029a.779.779,0,0,1,.1.043.117.117,0,0,1,.047.035c0,.009-.013.029-.04.057a.222.222,0,0,1-.075.057.341.341,0,0,1-.086.017.705.705,0,0,1-.112,0l-.09,0a1.633,1.633,0,0,0-.234.049,1.605,1.605,0,0,1-.248.05l-.112,0a.531.531,0,0,0-.112,0,.235.235,0,0,0-.065.014l-.065.021-.291,0c-.142,0-.246,0-.313,0h-.31l-.18.007a.823.823,0,0,1-.173,0,1.033,1.033,0,0,1-.155-.018l-.148-.024a.765.765,0,0,0-.13-.008v.149c0,.052,0,.128,0,.228s0,.17,0,.213a1.409,1.409,0,0,0,.018.175,1.473,1.473,0,0,1,.018.211v.021c.015.162.024.334.029.519.029,0,.091-.009.187-.014a.819.819,0,0,1,.115.01l.1.015a.346.346,0,0,0,.09-.007.609.609,0,0,1,.1-.011h.014a5.488,5.488,0,0,1,1.08.114,1.358,1.358,0,0,1,.533.185.456.456,0,0,1,.115.1.174.174,0,0,1-.019.064.1.1,0,0,1-.031.05.162.162,0,0,1-.051.021.145.145,0,0,1-.057,0,.211.211,0,0,0-.065,0,.516.516,0,0,0-.169.049,1.113,1.113,0,0,1-.191.065h-.1a.529.529,0,0,0-.1.007.167.167,0,0,0-.061.018.177.177,0,0,1-.062.018,2.676,2.676,0,0,1-.273,0c-.144,0-.245,0-.3,0s-.137,0-.281-.007a1.882,1.882,0,0,1-.3-.022.439.439,0,0,1-.072-.021l-.082-.033a.352.352,0,0,1-.069-.032.08.08,0,0,1-.043-.014q-.014.6-.064,1.025a2.655,2.655,0,0,1-.237.818,1.269,1.269,0,0,1,.237-.077.48.48,0,0,1,.122-.029c.043-.005.091-.009.144-.011s.09,0,.111-.007.066-.009.133-.021a1.027,1.027,0,0,1,.173-.018Z" transform="translate(-575.363 -380.283)"/><path class="c" d="M642.2,380.642a1.313,1.313,0,0,0-1.059.249,2.363,2.363,0,0,0-.608.793,2.458,2.458,0,0,0-.262,1.086,1.748,1.748,0,0,0,.292,1.007,1.867,1.867,0,0,0,.708.687,1.589,1.589,0,0,0,.515.167,1.625,1.625,0,0,0,.414.022,1.248,1.248,0,0,0,.23-.046,2.7,2.7,0,0,0,1.065-.789,1.45,1.45,0,0,0,.1-.154c.045-.073.087-.142.126-.206a.427.427,0,0,1,.072-.1c.019-.009.026.043.022.157a.61.61,0,0,1-.022.178,1.947,1.947,0,0,1-.331.64c-.091.118-.163.211-.216.277a2.4,2.4,0,0,1-.227.239,1.718,1.718,0,0,1-.292.224,2.047,2.047,0,0,1-.439.135c-.01,0-.046.016-.108.035a.544.544,0,0,1-.144.028,1.731,1.731,0,0,1-.241,0,2.463,2.463,0,0,1-.457-.1,2.246,2.246,0,0,1-.591-.267,2.543,2.543,0,0,1-.8-.847,2.326,2.326,0,0,1-.36-1.181,3.058,3.058,0,0,1,.792-2.185,2.323,2.323,0,0,1,.7-.552,2.171,2.171,0,0,1,.565-.21,2.086,2.086,0,0,1,.684.028,2.7,2.7,0,0,1,.828.328c.115.067.2.117.259.153a1.8,1.8,0,0,1,.223.171,1.161,1.161,0,0,1,.216.238.657.657,0,0,1,.072.4.614.614,0,0,1-.137.331.96.96,0,0,1-.248.17.549.549,0,0,1-.234.086.174.174,0,0,1-.115-.071.2.2,0,0,1-.029-.1.23.23,0,0,1,0-.082.434.434,0,0,1,.055-.078.944.944,0,0,0,.076-.114c.057-.108.079-.168.065-.178a3.376,3.376,0,0,1-.36-.228,2.3,2.3,0,0,0-.316-.2.883.883,0,0,0-.144-.057c-.048-.014-.1-.028-.169-.043a1.22,1.22,0,0,1-.155-.043Z" transform="translate(-589.42 -379.875)"/><path class="c" d="M661.456,383.729q.007-.356.137-1.823a6.643,6.643,0,0,1,.137-.925c-.174,0-.315.012-.425.022q-.036,0-.5.028l-.482.021a.8.8,0,0,1-.1-.007c-.036,0-.075-.01-.115-.017l-.1-.018a1.76,1.76,0,0,1-.209-.029.338.338,0,0,1-.093-.185.438.438,0,0,1,.036-.128.358.358,0,0,0,.022-.15.062.062,0,0,1,.014-.043.742.742,0,0,1,.259-.078.976.976,0,0,1,.191-.014h.154l.155-.024c.074-.012.14-.02.2-.025h.022a15.465,15.465,0,0,1,2.137.007,2.892,2.892,0,0,1,.921.157c.077.033.123.067.137.1a.244.244,0,0,1-.017.06c-.013.031-.023.049-.033.053a.122.122,0,0,1-.065.025c-.024,0-.056,0-.1,0a.385.385,0,0,0-.09.008,1.438,1.438,0,0,0-.288.057,2.444,2.444,0,0,1-.352.071c-.043,0-.108.009-.195.011s-.149.006-.188.011-.068.013-.118.024-.088.021-.112.025c-.1.01-.22.017-.374.022v.107a1.89,1.89,0,0,0,.054.366,2.68,2.68,0,0,1,.062.367c0,.038.008.1.011.178s0,.137,0,.17a.444.444,0,0,0,.018.1c.012.046.02.08.025.1q.007.164-.007.517t-.014.416c0,.062,0,.147-.007.256s-.007.175-.007.2c0,.039-.007.116-.007.232s0,.2-.007.26c0,.037-.013.1-.026.188s-.02.155-.025.2a1.38,1.38,0,0,0,0,.192,1.185,1.185,0,0,1,0,.178,1.557,1.557,0,0,1-.057.192.494.494,0,0,1-.072.15.324.324,0,0,1-.129.049.422.422,0,0,1-.094-.014.183.183,0,0,1-.072-.029.747.747,0,0,1-.065-.171,3.109,3.109,0,0,1-.122-.59.754.754,0,0,1-.015-.157c0-.056,0-.116,0-.178s0-.107,0-.135,0-.084-.01-.164-.011-.15-.011-.208v-.007A.018.018,0,0,0,661.456,383.729Z" transform="translate(-604.974 -380.177)"/></g><rect class="c" width="2.527" height="22.859" transform="translate(11.209 27.906)"/><path class="d" d="M321.143,412.526h.046L318.8,406.5h5.137Z" transform="translate(-306.752 -355.583)"/><path class="b" d="M290.109,205.32a5.943,5.943,0,0,0-4.712,2.317q0-.964,0-1.928a3.05,3.05,0,0,0-.016-.311v-6.461a3.462,3.462,0,0,1,1.016-2.144,3.553,3.553,0,0,1,4.979,0A3.473,3.473,0,0,1,292.4,199.4l1.188.049a4.645,4.645,0,0,0-1.375-3.487,4.753,4.753,0,0,0-6.662,0,4.641,4.641,0,0,0-1.364,2.9v4.417a3.1,3.1,0,0,0-1.207-.577V192.682a2.692,2.692,0,0,1,.789-1.661,2.762,2.762,0,0,1,3.871,0,2.694,2.694,0,0,1,.8,2.025l1.188.049a3.87,3.87,0,0,0-1.147-2.907,3.963,3.963,0,0,0-5.553,0,3.866,3.866,0,0,0-1.135,2.418l0,10.011c-.48-.005-.961-.009-1.442-.007V186.14A3.467,3.467,0,0,1,281.37,184a3.554,3.554,0,0,1,4.98,0,3.471,3.471,0,0,1,1.028,2.606l1.188.048a4.637,4.637,0,0,0-1.376-3.487,4.753,4.753,0,0,0-6.661,0,4.646,4.646,0,0,0-1.363,2.9l0,16.557a3.024,3.024,0,0,0-1.682.614v-9.809l0-.049a4.64,4.64,0,0,0-1.364-2.9,4.754,4.754,0,0,0-6.66,0,4.639,4.639,0,0,0-1.376,3.487l1.187-.048a3.473,3.473,0,0,1,1.029-2.607,3.554,3.554,0,0,1,4.98,0,3.467,3.467,0,0,1,1.017,2.144V202.2a5.937,5.937,0,0,0-10.676,3.5,5.854,5.854,0,0,0,1.915,4.316l.806-.865a4.714,4.714,0,1,1,7.953-3.451h0v.258h.04c0,.78.008,1.559.006,2.34q-.013,3.985-.03,7.971-.015,4.13-.027,8.26c-.009,2.621-.022,5.242-.022,7.863a1.285,1.285,0,0,0,.139.58q1.492,2.852,3.008,5.692c.275.52.547,1.041.836,1.552a.614.614,0,0,0,1.127.016c.037-.061.069-.127.1-.19,1.229-2.321,2.449-4.646,3.7-6.957a1.881,1.881,0,0,0,.235-.947q-.01-6.087-.009-12.174,0-4.644,0-9.288a4.745,4.745,0,0,1,9.455.509,4.678,4.678,0,0,1-1.532,3.452l.806.865a5.852,5.852,0,0,0-4.016-10.181Zm-12.654,3.7,2.725.006q.022,11.457.043,22.988l-2.727-.035C277.482,224.358,277.469,216.681,277.455,209.022Zm3.35,29.735-2.9-5.451h5.8C282.743,235.111,281.8,236.891,280.8,238.757Zm.583-6.764c-.015-7.63-.029-15.308-.044-23.091l2.726.054q.021,11.566.042,23.066C283.188,232.012,282.308,232,281.388,231.993Zm2.722-24.316a1.335,1.335,0,0,1-.024.171l-6.622-.041c0-.45-.007-.867-.008-1.283,0-.188,0-.377.005-.565h.022V205.4a1.834,1.834,0,0,1,1.843-1.627c.98-.018,1.96,0,2.94-.012a1.855,1.855,0,0,1,1.844,1.763C284.123,206.242,284.112,206.96,284.11,207.677Z" transform="translate(-265.616 -181.802)"/><path class="d" d="M282.046,274.4a3.977,3.977,0,1,1-3.976-3.931A3.955,3.955,0,0,1,282.046,274.4Z" transform="translate(-272.171 -250.38)"/><path class="e" d="M364.06,298.08a3.977,3.977,0,1,1-3.977-3.932A3.956,3.956,0,0,1,364.06,298.08Z" transform="translate(-335.602 -268.692)"/><path class="f" d="M290.161,225.327a2.874,2.874,0,1,1-2.874-2.841A2.859,2.859,0,0,1,290.161,225.327Z" transform="translate(-280.154 -213.268)"/><path class="g" d="M339.566,192.7a2.747,2.747,0,1,1-2.747-2.716A2.732,2.732,0,0,1,339.566,192.7Z" transform="translate(-318.561 -188.127)"/><path class="h" d="M349.531,224.135a2.051,2.051,0,1,1-2.051-2.027A2.039,2.039,0,0,1,349.531,224.135Z" transform="translate(-327.345 -212.975)"/><path class="i" d="M361.349,249.278a2.874,2.874,0,1,1-2.874-2.842A2.858,2.858,0,0,1,361.349,249.278Z" transform="translate(-335.212 -231.791)"/></g></g></svg>