<svg xmlns="http://www.w3.org/2000/svg" width="171" height="110" viewBox="0 0 171 110"><defs><style>.a{fill:#2b388f;}.b{fill:#fff;}.c,.i{fill:#f6921e;}.d{fill:#f9ec31;}.d,.e,.f,.g,.h,.i{fill-rule:evenodd;}.e{fill:#ec297b;}.f{fill:#d9ef0a;}.g{fill:#8f10ff;}.h{fill:#06edff;}</style></defs><rect class="a" width="171" height="110"/><g transform="translate(24.672 18.226)"><g transform="translate(44.004 16.926)"><path class="b" d="M427.549,254.887A59.316,59.316,0,0,1,432,250.334a55.7,55.7,0,0,1,4.811-4.038,19.1,19.1,0,0,1,6.814-3.446q1.873-.463,2.185-.256c.069.034.035.206-.1.514a1.756,1.756,0,0,1-.468.668,6.521,6.521,0,0,1-1.17.849,12.386,12.386,0,0,0-1.066.7,10.543,10.543,0,0,0-1.665,1.748q-1.04,1.287-1.4,1.7-.262.259-.807.772a10.614,10.614,0,0,0-.806.823,2.984,2.984,0,0,0-.391.54c-.156.257-.269.436-.338.541q-.572.668-2,2.185t-2.159,2.341l-.52.617c.1.137.278.352.52.643s.382.455.417.489a9.1,9.1,0,0,1,.65.926,5.227,5.227,0,0,0,.6.823,3.5,3.5,0,0,0,.65.694,5.206,5.206,0,0,1,.755.8c.034.069.07.1.1.1a108.9,108.9,0,0,1,7.49,9.67,22.188,22.188,0,0,1,3.069,5.659,2.987,2.987,0,0,1,.156,1.543c-.035.069-.181.1-.442.1a1.382,1.382,0,0,1-.6-.1,4.169,4.169,0,0,1-.443-.386,5.843,5.843,0,0,1-.494-.565,5.905,5.905,0,0,0-.469-.541,10.208,10.208,0,0,0-1.586-1.26,14.04,14.04,0,0,1-1.795-1.415,6.644,6.644,0,0,1-.806-.848q-.494-.591-.753-.849a4.077,4.077,0,0,0-.547-.411,3.9,3.9,0,0,1-.547-.411,30.6,30.6,0,0,1-2.21-2.392q-1.432-1.67-2.055-2.314t-1.925-2.289a20.807,20.807,0,0,1-1.872-2.469,16.178,16.178,0,0,1-.884-1.9q-.522.515-.936.873-.106.1-2.289,1.595a15.258,15.258,0,0,1-2.341,1.492,1.84,1.84,0,0,1-.52.154c0,.205-.009.5-.025.874s-.027.652-.027.823q0,3.241-.051,3.6-.053.515-.235,1.518t-.286,1.363a8.872,8.872,0,0,1-.078.951c-.052.431-.1.8-.156,1.106a7.583,7.583,0,0,1-.182.824,6.45,6.45,0,0,1-.651,1.338,3.2,3.2,0,0,1-.754.977,1.56,1.56,0,0,1-.988.1,2.052,2.052,0,0,1-1.093-.567,9.315,9.315,0,0,1-.208-1.234q-.156-1.181-.312-4.115a12.344,12.344,0,0,1,.026-1.774q.078-1.106.077-1.414a10.864,10.864,0,0,0-.1-1.184,11.25,11.25,0,0,1-.1-1.389v-.1q-.051-4.32.677-13.168a68.157,68.157,0,0,1,.988-8.076,7.259,7.259,0,0,0,.156-.8,7.633,7.633,0,0,1,.234-1.054,1.778,1.778,0,0,1,.182-.463c.069-.034.164.009.286.129a4.056,4.056,0,0,1,.39.463,1.411,1.411,0,0,1,.26.541,24.016,24.016,0,0,1,.416,3.189,16.6,16.6,0,0,0,.495,2.546,22.088,22.088,0,0,1,.546,2.752c.033.308.06.755.078,1.336s.026,1,.026,1.236a3.129,3.129,0,0,0,.13.694q.129.49.182.745.05,1.081.051,3.242l.208-.206a13.173,13.173,0,0,1,1.092-1.054q.727-.643.988-.9.207-.257.65-.874a7.591,7.591,0,0,1,.806-.977Z" transform="translate(-418.65 -241.702)"/><path class="b" d="M542.146,248.556a14.03,14.03,0,0,1,2.055-.591,8.89,8.89,0,0,0,1.847-.565,1.324,1.324,0,0,0,.728-.9,1.679,1.679,0,0,1,.885-1.234,4.044,4.044,0,0,1,1.43-1.9,1.7,1.7,0,0,1,1.951,0q1.092.618.208,6.43a5.729,5.729,0,0,1-.1.617,18.451,18.451,0,0,0-.157,2.315,4.576,4.576,0,0,0,.1.8,4.782,4.782,0,0,1,.1.746v3.524q0,2.649.1,3.781,0,.257.1,3.6,0,.566.078,1.877t.079,1.98c0,.24-.01.729-.026,1.466s-.026,1.311-.026,1.723q.052.464.183,1.492t.181,1.441a11.809,11.809,0,0,1-.131,1.517,3.843,3.843,0,0,1-.286,1.209,1.7,1.7,0,0,1-.78.564,1.473,1.473,0,0,1-.7.052,1.5,1.5,0,0,1-.6-.154,4.465,4.465,0,0,1-.781-1.285,20.011,20.011,0,0,1-1.56-4.733,9.908,9.908,0,0,1-.234-1.285q-.078-.668-.1-1.467t-.026-1.1q-.053-.309-.208-1.286a10.7,10.7,0,0,1-.156-1.646v-.154a67.3,67.3,0,0,1,.468-13.013q-.573.206-1.352.463a4.333,4.333,0,0,1-1.925.205q-1.457-.05-1.716-.052a7.908,7.908,0,0,1-1.326,0,9.6,9.6,0,0,1-1.223-.1,2.436,2.436,0,0,1-1.092-2.726,2.492,2.492,0,0,1,.728-.489,5.649,5.649,0,0,1,1.2-.489,1.6,1.6,0,0,1,.468-.076,2.369,2.369,0,0,0,.52-.078,3.647,3.647,0,0,0,.417-.129,2.754,2.754,0,0,0,.39-.18C541.982,248.642,542.077,248.591,542.146,248.556Z" transform="translate(-503.702 -242.367)"/><path class="b" d="M617.694,241.919a14,14,0,0,1,2.575,6.739,12.133,12.133,0,0,1-1.119,6.944q-.365.617-.832,1.286t-.859,1.157a13.16,13.16,0,0,1-1.015,1.106l-.988.977a14.675,14.675,0,0,1-1.144.977l-1.04.822c-.175.138-.538.412-1.093.824s-.884.651-.988.721q-6.4,4.886-8.218,8.949a.152.152,0,0,1-.052.1,4.476,4.476,0,0,1,.988-.129q.624-.025.676-.025c.1-.034.347-.094.729-.18a4.617,4.617,0,0,1,.989-.129h.1a35.842,35.842,0,0,1,9,1.441,34.19,34.19,0,0,1,4.786,1.594,1.26,1.26,0,0,0,.755.076,1.475,1.475,0,0,0,.6-.231l.1.412a1.347,1.347,0,0,1-.937,1.44q-.052.155-.857.1c-.539-.034-.842-.052-.911-.052a14.493,14.493,0,0,0-1.613.334,8.079,8.079,0,0,1-1.821.283q-.312,0-.885-.051c-.381-.035-.659-.052-.832-.052a.889.889,0,0,0-.494.052,1.939,1.939,0,0,1-.494.1q-.677-.051-2.185-.205t-2.237-.154q-.312,0-.989-.026t-.988-.026q-.312,0-.962.052c-.434.034-.737.052-.909.052a3.871,3.871,0,0,1-.677-.078q-.417-.076-.624-.128-.1,0-.494.051c-.26.035-.409.035-.442,0a3.073,3.073,0,0,1-1.2-.772c-.243-.239-.468-.479-.676-.72a.817.817,0,0,0-.156-.205V275.3a2.7,2.7,0,0,1-.313-.771,1.724,1.724,0,0,1,.468-.617,2.233,2.233,0,0,1,.521-.463A.21.21,0,0,0,601,273.3q.051-.154.235-1.852a8.993,8.993,0,0,1,.65-2.726,26.459,26.459,0,0,1,5.983-7.561q.467-.462,1.56-1.389t1.613-1.389q.208-.206,1.4-1.8,3.38-4.321,3.381-7.716a3.254,3.254,0,0,0-1.145-2.829,4.357,4.357,0,0,0-2.913-.411,10.076,10.076,0,0,0-3.85,1.132,16.4,16.4,0,0,0-3.433,2.778c-.174.206-.468.539-.884,1s-.8.883-1.144,1.259a5.578,5.578,0,0,1-.676.669,1.229,1.229,0,0,1-1.041.154,1.326,1.326,0,0,1-.546-.54,1.408,1.408,0,0,1-.286-.694,3.126,3.126,0,0,1,.182-1.106,7.557,7.557,0,0,1,.494-1.363,15.909,15.909,0,0,1,2.445-3.55,15.468,15.468,0,0,1,3.173-2.777,12.867,12.867,0,0,1,6.191-1.9,10.036,10.036,0,0,1,5.045,1.08A2.319,2.319,0,0,0,617.694,241.919Z" transform="translate(-547.779 -240.668)"/></g><g transform="translate(43.861 56.921)"><path class="c" d="M420.373,384.651q.009-.452.174-2.314a8.637,8.637,0,0,1,.173-1.174c-.219.006-.4.015-.539.028q-.046,0-.64.036l-.612.027a1.008,1.008,0,0,1-.123-.009c-.046-.005-.095-.013-.146-.022l-.123-.022a2.229,2.229,0,0,1-.265-.037.31.31,0,0,1-.077-.108.319.319,0,0,1-.042-.127.557.557,0,0,1,.046-.163.461.461,0,0,0,.028-.19.077.077,0,0,1,.018-.054.948.948,0,0,1,.329-.1,1.244,1.244,0,0,1,.242-.018h.2l.2-.031c.094-.015.178-.026.252-.032h.026a19.633,19.633,0,0,1,2.713.009,3.668,3.668,0,0,1,1.169.2c.1.042.156.085.173.127a.271.271,0,0,1-.022.077c-.016.039-.029.062-.041.067a.156.156,0,0,1-.082.032c-.03,0-.071,0-.123,0a.488.488,0,0,0-.114.01,1.76,1.76,0,0,0-.365.072,3.088,3.088,0,0,1-.447.09c-.055.005-.138.011-.248.014s-.189.008-.237.014-.087.016-.151.031-.111.027-.142.032c-.122.012-.28.022-.475.028v.135a2.422,2.422,0,0,0,.069.465,3.412,3.412,0,0,1,.078.465c.006.048.01.123.014.226s0,.174,0,.216a.55.55,0,0,0,.023.131c.015.058.026.1.032.131q.009.208-.009.655c-.012.3-.018.474-.018.528,0,.078,0,.186-.01.325s-.009.223-.009.252c-.006.049-.009.147-.009.294s0,.257-.009.33c-.007.047-.017.127-.032.239s-.026.2-.032.258a1.913,1.913,0,0,0,0,.244,1.482,1.482,0,0,1,0,.226,1.843,1.843,0,0,1-.073.244.623.623,0,0,1-.092.19.412.412,0,0,1-.164.063.543.543,0,0,1-.119-.018.232.232,0,0,1-.091-.036,1,1,0,0,1-.082-.217,3.918,3.918,0,0,1-.155-.749.952.952,0,0,1-.018-.2c0-.072,0-.148,0-.226s.005-.135.005-.171-.005-.106-.013-.208-.014-.191-.014-.263v-.008A.022.022,0,0,0,420.373,384.651Z" transform="translate(-418.153 -380.144)"/><path class="c" d="M440.337,382.848s.005.1.018.285.03.391.055.614.055.451.092.687a3.113,3.113,0,0,0,.438,1.228,1.05,1.05,0,0,0,.439.384,1.116,1.116,0,0,0,.611.095,2.21,2.21,0,0,0,.7-.194,1.758,1.758,0,0,0,.561-.393,2.2,2.2,0,0,0,.521-1.174q.073-.416.115-.79c.027-.25.046-.471.055-.664a3.083,3.083,0,0,1,.023-.325c.011-.157.03-.377.055-.665s.047-.537.068-.754.044-.394.068-.533a.845.845,0,0,0,0-.176.422.422,0,0,1,0-.14.087.087,0,0,1,.05-.009.233.233,0,0,1,.1.027.227.227,0,0,1,.081.064,1.677,1.677,0,0,1,.129.632c.006.085.03.294.073.627s.067.6.073.8a2.67,2.67,0,0,1,0,.307c-.007.126-.009.214-.009.262a.487.487,0,0,0,.018.117.509.509,0,0,1,.018.1,4.881,4.881,0,0,1-.192,1.616,2.841,2.841,0,0,1-.836,1.292,3.288,3.288,0,0,1-1.512.813,1.638,1.638,0,0,1-.954-.072,1.949,1.949,0,0,1-.818-.541,3,3,0,0,1-.64-1.336,12,12,0,0,1-.228-1.427c-.012-.073-.031-.3-.055-.677-.007-.036-.017-.136-.032-.3s-.023-.286-.023-.371a3,3,0,0,1,0-.347c.005-.153.012-.254.018-.3.006-.385.012-.6.018-.65a.839.839,0,0,1,.11-.267.6.6,0,0,1,.137-.185.286.286,0,0,1,.173,0,.46.46,0,0,1,.11.041.4.4,0,0,1,.082.049c0,.012.012.082.036.209.012.071.026.156.041.252s.03.2.046.326.026.21.032.271a3.238,3.238,0,0,1,.04.383c.009.161.014.258.014.294s.02.117.041.221a2.537,2.537,0,0,1,.041.276v.022Z" transform="translate(-433.285 -380.161)"/><path class="c" d="M460.971,384.651q.01-.452.174-2.314a8.64,8.64,0,0,1,.174-1.174c-.22.006-.4.015-.539.028q-.046,0-.64.036l-.611.027a1.014,1.014,0,0,1-.124-.009c-.045-.005-.095-.013-.146-.022l-.123-.022a2.243,2.243,0,0,1-.266-.037.3.3,0,0,1-.077-.108.317.317,0,0,1-.041-.127.563.563,0,0,1,.047-.163.463.463,0,0,0,.027-.19.075.075,0,0,1,.018-.054.926.926,0,0,1,.328-.1,1.249,1.249,0,0,1,.243-.018h.2l.2-.031c.093-.015.178-.026.251-.032h.027a19.619,19.619,0,0,1,2.712.009,3.668,3.668,0,0,1,1.169.2c.1.042.156.085.173.127a.3.3,0,0,1-.022.077c-.016.039-.029.062-.041.067a.157.157,0,0,1-.082.032c-.031,0-.072,0-.123,0a.486.486,0,0,0-.115.01,1.751,1.751,0,0,0-.365.072,3.083,3.083,0,0,1-.448.09c-.055.005-.137.011-.246.014s-.189.008-.237.014-.087.016-.152.031-.111.027-.141.032q-.183.018-.475.028v.135a2.4,2.4,0,0,0,.069.465,3.414,3.414,0,0,1,.078.465c.006.048.01.123.013.226s0,.174,0,.216a.545.545,0,0,0,.023.131c.015.058.026.1.032.131.006.139,0,.357-.009.655s-.019.474-.019.528c0,.078,0,.186-.009.325s-.009.223-.009.252a2.711,2.711,0,0,0-.01.294c0,.147,0,.257-.009.33-.006.047-.017.127-.032.239s-.026.2-.032.258a1.722,1.722,0,0,0-.005.244,1.453,1.453,0,0,1,0,.226,2,2,0,0,1-.074.244.588.588,0,0,1-.091.19.41.41,0,0,1-.164.063.526.526,0,0,1-.118-.018.242.242,0,0,1-.092-.036,1.037,1.037,0,0,1-.082-.217,3.988,3.988,0,0,1-.154-.749.936.936,0,0,1-.018-.2c0-.072,0-.148,0-.226s0-.135,0-.171,0-.106-.014-.208-.013-.191-.013-.263v-.008A.023.023,0,0,0,460.971,384.651Z" transform="translate(-447.078 -380.144)"/><path class="c" d="M484.984,381.314a.064.064,0,0,0,.009-.028c.012,0,.028.01.05.046a1.437,1.437,0,0,1,.068.13.5.5,0,0,1,.046.14,6.292,6.292,0,0,1,.091.831c.007.072.019.182.037.33s.032.271.042.374.013.226.013.371a2.782,2.782,0,0,1-.028.406,3.593,3.593,0,0,1-.256.769q-.164.4-.173.406a1.718,1.718,0,0,1-.151.211,3.95,3.95,0,0,1-.305.33,4.306,4.306,0,0,1-.516.425,4.48,4.48,0,0,1-.671.4,2.452,2.452,0,0,1-.928.2,3.007,3.007,0,0,1-1.036-.145,2.721,2.721,0,0,1-.914-.5,3.272,3.272,0,0,1-.74-.84,3.7,3.7,0,0,1-.4-.945,3.831,3.831,0,0,1-.141-1.006,3.543,3.543,0,0,1,.146-1.035,2.328,2.328,0,0,1,.411-.808,5.429,5.429,0,0,1,.785-.764,5.2,5.2,0,0,1,.649-.456,2.907,2.907,0,0,1,.365-.171,3.45,3.45,0,0,1,.914-.209,2.945,2.945,0,0,1,1.023.063,2.69,2.69,0,0,1,.776.389,2.389,2.389,0,0,1,.63.6A1.582,1.582,0,0,1,484.984,381.314Zm-2.53-.66a3.365,3.365,0,0,0-.417.1,4.417,4.417,0,0,0-1.466.862,1.718,1.718,0,0,0-.438.651,2.537,2.537,0,0,0-.183.857,2.961,2.961,0,0,0,.114.913,2.666,2.666,0,0,0,.379.831,2.35,2.35,0,0,0,.648.628,2.013,2.013,0,0,0,.786.311,2.516,2.516,0,0,0,.849-.036,1.764,1.764,0,0,0,.712-.316,3.252,3.252,0,0,0,.786-.817,2.994,2.994,0,0,0,.374-.728,4.227,4.227,0,0,0,.132-.6c.033-.216.068-.484.1-.8s.053-.52.059-.6a.534.534,0,0,0,.018-.1c.006-.049.009-.081.009-.1a.026.026,0,0,1-.019.01.224.224,0,0,1-.132,0,.266.266,0,0,1-.114-.05.555.555,0,0,1-.091-.1,1.149,1.149,0,0,0-.137-.15,2.858,2.858,0,0,0-.758-.56,2.827,2.827,0,0,0-.639-.208.741.741,0,0,0-.255,0c-.159.012-.256.017-.293.017Z" transform="translate(-461.563 -379.761)"/><path class="c" d="M507.553,380.257a2.487,2.487,0,0,1,.977.93,1.284,1.284,0,0,1,.164,1.166,2.308,2.308,0,0,1-1.06,1.138c.055.042.107.084.156.127a.956.956,0,0,1,.113.113,1.541,1.541,0,0,1,.11.149c.039.059.063.1.068.107s.047.052.1.118a.907.907,0,0,1,.124.172.027.027,0,0,1,.009.017,5.337,5.337,0,0,1,.548,1.572,4.12,4.12,0,0,1,.073.623c-.006.013,0,.043.018.091a.386.386,0,0,1,.028.09c0,.018-.02.039-.06.064a.14.14,0,0,1-.1.027.454.454,0,0,1-.219-.18l-.164-.159a1.268,1.268,0,0,1-.2-.23.8.8,0,0,1-.06-.131c-.021-.057-.038-.1-.05-.121a.208.208,0,0,0-.05-.068.2.2,0,0,1-.05-.068c-.031-.06-.079-.174-.147-.343s-.121-.295-.164-.379q-.183-.343-.183-.352c-.025-.041-.062-.1-.114-.176a1.568,1.568,0,0,1-.105-.167l-.069-.135a.884.884,0,0,0-.086-.145.465.465,0,0,0-.091-.122.593.593,0,0,1-.092-.113.321.321,0,0,1-.036-.081,2.817,2.817,0,0,1-.8.113,5.143,5.143,0,0,1-.749-.037c-.195-.027-.454-.068-.776-.122q-.018.6-.064,1.139a5.863,5.863,0,0,1-.247,1.418,1.335,1.335,0,0,1-.164.379c-.012.006-.034-.018-.069-.072a.394.394,0,0,1-.059-.145A.652.652,0,0,1,504,386.3c0-.057,0-.123.005-.2s0-.134,0-.177a2.566,2.566,0,0,0-.063-.456c-.043-.206-.07-.363-.082-.464a1.981,1.981,0,0,1-.009-.222,2.044,2.044,0,0,0-.009-.22.484.484,0,0,0-.023-.128c-.015-.054-.025-.1-.032-.126q-.018-.19-.027-.6t-.018-.583c-.007-.115-.009-.31-.009-.588,0-.348.006-.565.018-.65,0-.017.037-.192.11-.524a4.487,4.487,0,0,1,.128-.5.322.322,0,0,1,.046-.09.027.027,0,0,0-.018-.008.226.226,0,0,1-.128-.127.185.185,0,0,1,.009-.127.23.23,0,0,1,.064-.118,1.7,1.7,0,0,1,.4-.153c.122-.025.252-.044.393-.059s.3-.028.475-.04.293-.02.347-.027a7.5,7.5,0,0,1,1.05,0,5.1,5.1,0,0,1,.877.117Zm-2.923,2.276q.009.335.01.75.045,0,.639.091a2.57,2.57,0,0,0,1.324-.172,2.876,2.876,0,0,0,.621-.344,1.341,1.341,0,0,0,.274-.279q.575-.7.383-1.057a.765.765,0,0,0-.247-.244,1.341,1.341,0,0,0-.347-.172,4.724,4.724,0,0,0-.941-.152q-.574-.046-.84-.056-.694-.008-.848-.027l-.01-.009c0,.085,0,.2,0,.361s0,.258,0,.307c0,.072-.006.169-.018.29s-.018.2-.018.253,0,.11.013.2a2.385,2.385,0,0,1,.014.239Z" transform="translate(-479.127 -380.005)"/><path class="c" d="M536.929,380.84a1.663,1.663,0,0,0-1.342.316,3,3,0,0,0-.772,1.007,3.114,3.114,0,0,0-.333,1.378,2.225,2.225,0,0,0,.37,1.278,2.375,2.375,0,0,0,.9.872,2.01,2.01,0,0,0,.653.211,2.067,2.067,0,0,0,.525.028,1.6,1.6,0,0,0,.293-.059,3.442,3.442,0,0,0,1.352-1,2.066,2.066,0,0,0,.132-.2c.058-.093.11-.181.159-.262a.521.521,0,0,1,.092-.131c.024-.012.033.055.027.2a.787.787,0,0,1-.027.226,2.5,2.5,0,0,1-.42.813c-.116.15-.207.268-.274.352a3.148,3.148,0,0,1-.288.3,2.223,2.223,0,0,1-.37.284,2.624,2.624,0,0,1-.558.172c-.012.006-.058.02-.137.045a.691.691,0,0,1-.182.036,2.214,2.214,0,0,1-.307,0,3.147,3.147,0,0,1-.58-.126,2.859,2.859,0,0,1-.749-.338,3.225,3.225,0,0,1-1.014-1.075,2.954,2.954,0,0,1-.457-1.5,3.879,3.879,0,0,1,1.005-2.773,2.947,2.947,0,0,1,.89-.7,2.761,2.761,0,0,1,.717-.266,2.649,2.649,0,0,1,.867.036,3.423,3.423,0,0,1,1.051.416c.146.084.256.149.328.194a2.29,2.29,0,0,1,.283.217,1.469,1.469,0,0,1,.274.3.838.838,0,0,1,.092.511.778.778,0,0,1-.173.42,1.232,1.232,0,0,1-.315.216.7.7,0,0,1-.3.109.22.22,0,0,1-.146-.091.257.257,0,0,1-.036-.122.284.284,0,0,1,0-.1.574.574,0,0,1,.068-.1,1,1,0,0,0,.1-.145c.073-.138.1-.214.082-.226a4.363,4.363,0,0,1-.456-.289,2.918,2.918,0,0,0-.4-.252,1.1,1.1,0,0,0-.183-.073c-.06-.018-.133-.036-.215-.054a1.566,1.566,0,0,1-.2-.054Z" transform="translate(-500.42 -379.866)"/><path class="c" d="M560.333,381.314a.061.061,0,0,0,.01-.028c.012,0,.03.01.05.046s.044.079.068.13a.511.511,0,0,1,.047.14,6.4,6.4,0,0,1,.09.831c.006.072.019.182.037.33s.032.271.041.374.014.226.014.371a2.825,2.825,0,0,1-.028.406,3.68,3.68,0,0,1-.255.769c-.11.264-.168.4-.174.406a1.71,1.71,0,0,1-.151.211,4.113,4.113,0,0,1-.306.33,4.306,4.306,0,0,1-.516.425,4.475,4.475,0,0,1-.671.4,2.449,2.449,0,0,1-.927.2,3,3,0,0,1-1.036-.145,2.709,2.709,0,0,1-.913-.5,3.245,3.245,0,0,1-.74-.84,3.652,3.652,0,0,1-.4-.945,3.806,3.806,0,0,1-.142-1.006,3.545,3.545,0,0,1,.146-1.035,2.33,2.33,0,0,1,.411-.808,5.367,5.367,0,0,1,.785-.764,5.149,5.149,0,0,1,.649-.456,2.941,2.941,0,0,1,.365-.171,3.448,3.448,0,0,1,.914-.209,2.937,2.937,0,0,1,1.022.063,2.678,2.678,0,0,1,.776.389,2.4,2.4,0,0,1,.631.6A1.57,1.57,0,0,1,560.333,381.314Zm-2.53-.659a3.174,3.174,0,0,0-.416.095,4.415,4.415,0,0,0-1.465.862,1.722,1.722,0,0,0-.439.651,2.542,2.542,0,0,0-.182.857,2.939,2.939,0,0,0,.115.913,2.661,2.661,0,0,0,.379.831,2.339,2.339,0,0,0,.649.628,2.011,2.011,0,0,0,.786.311,2.512,2.512,0,0,0,.849-.036,1.764,1.764,0,0,0,.713-.316,3.261,3.261,0,0,0,.786-.817,2.974,2.974,0,0,0,.374-.728,4.235,4.235,0,0,0,.133-.6c.033-.216.067-.484.1-.8s.054-.52.06-.6a.768.768,0,0,0,.018-.1.962.962,0,0,0,.009-.1.027.027,0,0,1-.018.01.224.224,0,0,1-.132,0,.264.264,0,0,1-.114-.05.512.512,0,0,1-.091-.1,1.069,1.069,0,0,0-.137-.15,2.521,2.521,0,0,0-1.4-.767.741.741,0,0,0-.256,0c-.158.012-.255.018-.292.018Z" transform="translate(-515.247 -379.761)"/><path class="c" d="M582.9,385.041a20.8,20.8,0,0,1,.329-3.161,3.907,3.907,0,0,1,.4-1.3.535.535,0,0,1,.082-.1.272.272,0,0,1,.083-.063.125.125,0,0,1,.073.041.176.176,0,0,1,.055.067.778.778,0,0,1,.01.095,1.022,1.022,0,0,1-.013.117c-.01.057-.017.1-.023.132a3.221,3.221,0,0,0,.018.438,4.074,4.074,0,0,1,.019.51c0,.06-.006.15-.019.271s-.018.214-.018.28a.634.634,0,0,0,0,.162,1.439,1.439,0,0,1,.014.163c-.006.151-.022.406-.046.768s-.039.638-.045.831c0,.089,0,.221-.009.393s-.013.29-.018.356v.348c0,.177,0,.308-.009.392-.006.067-.018.155-.037.266s-.03.185-.036.221,0,.08,0,.131-.007.095-.009.131a.272.272,0,0,1-.023.091.374.374,0,0,1-.086.113.4.4,0,0,1-.115.086c-.054.017-.109.033-.164.044h-.124c-.045,0-.072,0-.077-.009s-.04-.036-.064-.09a.473.473,0,0,1-.11-.09,1.416,1.416,0,0,1-.119-.159c-.036-.057-.08-.128-.132-.212s-.086-.144-.1-.18a4.752,4.752,0,0,0-.334-.434q-.241-.287-.352-.442c-.036-.055-.083-.131-.141-.23s-.1-.174-.132-.222c-.018-.023-.051-.061-.1-.112s-.077-.089-.1-.113c-.079-.121-.2-.315-.356-.583s-.277-.465-.356-.591c-.018-.024-.137-.213-.356-.569-.25-.41-.378-.621-.384-.632-.036-.066-.083-.163-.137-.289s-.094-.217-.118-.271c-.019-.036-.044-.087-.074-.154a4.063,4.063,0,0,1,.019.515,2.19,2.19,0,0,1-.022.266,2.291,2.291,0,0,0-.023.258c0,.035,0,.089.009.158s.009.119.009.149c-.005.144-.024.381-.054.709s-.049.58-.055.755c0,.089,0,.214-.014.37s-.017.266-.022.325c0,.044,0,.148-.009.317s-.012.292-.018.371c-.006.06-.02.144-.041.252s-.035.185-.041.226,0,.074-.009.131-.011.106-.014.145a.352.352,0,0,1-.023.1.436.436,0,0,1-.092.135.368.368,0,0,1-.119.1.488.488,0,0,1-.173.027.362.362,0,0,1-.2-.027.434.434,0,0,1-.055-.127,2.848,2.848,0,0,1-.1-.569,1.855,1.855,0,0,1,0-.293c.009-.166.013-.258.013-.277,0-.042,0-.118-.013-.23a1.755,1.755,0,0,1,0-.285v-.026a19.374,19.374,0,0,1,.366-2.908,5.1,5.1,0,0,1,.392-1.337.586.586,0,0,1,.046-.072.174.174,0,0,1,.009-.072.221.221,0,0,1,.128-.117.207.207,0,0,1,.123-.023.264.264,0,0,1,.1.018,1.875,1.875,0,0,1,.169.194q.174.2.512.678a3.3,3.3,0,0,1,.2.316c.078.138.128.222.146.253s.081.109.151.2a2.4,2.4,0,0,1,.169.244l.009.018a22.682,22.682,0,0,1,1.315,2.44q.329.694.484,1.12c.006-.175.01-.272.01-.29,0-.037-.005-.114-.014-.234s-.014-.227-.014-.316v-.028Z" transform="translate(-532.461 -380.228)"/><path class="c" d="M603.867,385.041a20.846,20.846,0,0,1,.329-3.161,3.917,3.917,0,0,1,.4-1.3.519.519,0,0,1,.082-.1.285.285,0,0,1,.081-.063.129.129,0,0,1,.074.041.181.181,0,0,1,.055.067.84.84,0,0,1,.009.095.913.913,0,0,1-.014.117c-.009.057-.016.1-.022.132a3.258,3.258,0,0,0,.019.438,4.042,4.042,0,0,1,.018.51c0,.06-.006.15-.018.271s-.019.214-.019.28a.622.622,0,0,0,0,.162,1.484,1.484,0,0,1,.014.163c-.007.151-.022.406-.046.768s-.04.638-.046.831c0,.089,0,.221-.009.393s-.012.29-.019.356v.348c0,.177,0,.308-.009.392-.006.067-.018.155-.037.266s-.03.185-.036.221,0,.08-.005.131-.007.095-.009.131a.258.258,0,0,1-.023.091.373.373,0,0,1-.086.113.4.4,0,0,1-.115.086c-.055.017-.11.033-.165.044h-.123c-.046,0-.072,0-.078-.009s-.039-.036-.064-.09a.464.464,0,0,1-.109-.09,1.287,1.287,0,0,1-.119-.159c-.036-.057-.081-.128-.133-.212s-.087-.144-.1-.18a5.141,5.141,0,0,0-.334-.434q-.242-.287-.352-.442c-.037-.055-.083-.131-.142-.23s-.1-.174-.132-.222c-.018-.023-.05-.061-.1-.112s-.077-.089-.1-.113c-.08-.121-.2-.315-.357-.583s-.276-.465-.356-.591c-.018-.024-.137-.213-.356-.569q-.374-.615-.384-.632c-.036-.066-.082-.163-.137-.289s-.095-.217-.119-.271c-.018-.036-.042-.087-.073-.154a4.209,4.209,0,0,1,.018.515,2.3,2.3,0,0,1-.023.266,2.156,2.156,0,0,0-.023.258c0,.035,0,.089.009.158s.009.119.009.149c-.006.144-.025.381-.055.709s-.049.58-.055.755c0,.089,0,.214-.013.37s-.018.266-.023.325c0,.044,0,.148-.009.317s-.012.292-.019.371c-.006.06-.019.144-.041.252s-.035.185-.042.226a1.307,1.307,0,0,1-.009.131c-.006.058-.01.106-.014.145a.335.335,0,0,1-.023.1.407.407,0,0,1-.091.135.385.385,0,0,1-.119.1.493.493,0,0,1-.174.027.361.361,0,0,1-.2-.027.447.447,0,0,1-.055-.127,2.883,2.883,0,0,1-.1-.569,2.208,2.208,0,0,1,.006-.293c.008-.166.014-.258.014-.277,0-.042-.005-.118-.014-.23a2,2,0,0,1-.006-.285v-.026a19.357,19.357,0,0,1,.366-2.908,5.111,5.111,0,0,1,.393-1.337.427.427,0,0,1,.045-.072.2.2,0,0,1,.008-.072.223.223,0,0,1,.129-.117.206.206,0,0,1,.122-.023.266.266,0,0,1,.1.018,1.72,1.72,0,0,1,.169.194q.174.2.512.678a2.958,2.958,0,0,1,.2.316c.079.138.128.222.146.253s.081.109.151.2a2.615,2.615,0,0,1,.169.244l.009.018a22.811,22.811,0,0,1,1.315,2.44q.328.694.484,1.12c0-.175.009-.272.009-.29,0-.037,0-.114-.014-.234s-.014-.227-.014-.316v-.028Z" transform="translate(-547.398 -380.228)"/><path class="c" d="M623.177,386.049a10.091,10.091,0,0,1,1.836.2c.061.013.147.027.26.045l.3.05a1.772,1.772,0,0,1,.219.05.549.549,0,0,0,.119.008.249.249,0,0,1,.11.014c.012.01.018.036.018.082a.169.169,0,0,1-.027.1.649.649,0,0,1-.3.144,2.5,2.5,0,0,0-.26.1,1.608,1.608,0,0,1-.352.1.763.763,0,0,1-.164,0,.646.646,0,0,0-.165,0,.381.381,0,0,0-.1.018.438.438,0,0,1-.091.018q-.147,0-.457-.022c-.208-.015-.366-.023-.476-.023h-.447c-.055,0-.136,0-.242.01s-.184.009-.233.009-.1,0-.178-.009-.144-.01-.187-.01-.083.005-.16.013a1.5,1.5,0,0,1-.16.014,1.338,1.338,0,0,1-.179-.045.407.407,0,0,1-.151-.072.442.442,0,0,1-.091-.145H621.6c-.012,0-.027-.022-.045-.068a.207.207,0,0,1-.018-.113.686.686,0,0,1,.041-.191,1.258,1.258,0,0,0,.05-.189,1.542,1.542,0,0,0-.005-.43c-.021-.2-.032-.338-.032-.41,0-.037,0-.108.005-.213s0-.184,0-.239c-.005-.03-.014-.075-.027-.136s-.022-.106-.027-.136c-.008-.12-.015-.331-.028-.632s-.024-.533-.037-.695c-.012-.127-.025-.35-.036-.669-.018-.385-.025-.62-.018-.7.005-.06.036-.241.091-.542a3.186,3.186,0,0,1,.11-.5.87.87,0,0,1,.1-.144.1.1,0,0,1,.018-.028.023.023,0,0,0,.018-.009.438.438,0,0,1,.175-.126.37.37,0,0,1,.164.026.024.024,0,0,1,.019.01,2.681,2.681,0,0,1,.375-.064,1.357,1.357,0,0,1,.238-.018h.2a.9.9,0,0,0,.145-.023.984.984,0,0,1,.183-.023h.01a6.675,6.675,0,0,1,1.571.154,3.562,3.562,0,0,1,.9.261l.091.036a.978.978,0,0,1,.124.054.147.147,0,0,1,.06.045c0,.012-.017.036-.051.072a.282.282,0,0,1-.1.072.433.433,0,0,1-.109.022.894.894,0,0,1-.142,0l-.114,0a2.075,2.075,0,0,0-.3.063,2.036,2.036,0,0,1-.315.064c-.03,0-.078,0-.142-.005a.671.671,0,0,0-.141.005.3.3,0,0,0-.082.018l-.082.026-.37,0c-.18,0-.312,0-.4,0h-.393l-.229.009a1.04,1.04,0,0,1-.219,0,1.3,1.3,0,0,1-.2-.023l-.187-.031a.971.971,0,0,0-.164-.01v.19c0,.066,0,.163,0,.289s-.005.216-.005.27a1.794,1.794,0,0,0,.023.222,1.873,1.873,0,0,1,.023.267v.027c.019.205.031.424.037.659.036-.006.116-.012.237-.018a1.042,1.042,0,0,1,.146.013l.128.019a.439.439,0,0,0,.114-.009.766.766,0,0,1,.133-.014h.018a6.965,6.965,0,0,1,1.371.145,1.723,1.723,0,0,1,.676.234.58.58,0,0,1,.146.127.223.223,0,0,1-.024.081.133.133,0,0,1-.04.064.207.207,0,0,1-.065.026.183.183,0,0,1-.072,0,.269.269,0,0,0-.083.005.655.655,0,0,0-.214.063,1.414,1.414,0,0,1-.242.082h-.128a.674.674,0,0,0-.127.008.212.212,0,0,0-.077.022.224.224,0,0,1-.078.023,3.373,3.373,0,0,1-.346,0c-.183,0-.311,0-.384,0-.056,0-.173,0-.356-.008a2.4,2.4,0,0,1-.384-.028.555.555,0,0,1-.092-.026l-.1-.042a.445.445,0,0,1-.088-.041.1.1,0,0,1-.055-.018q-.018.759-.082,1.3a3.368,3.368,0,0,1-.3,1.039,1.612,1.612,0,0,1,.3-.1.609.609,0,0,1,.155-.037c.055-.007.116-.011.182-.014s.115-.006.141-.009.084-.011.169-.027a1.3,1.3,0,0,1,.219-.022Z" transform="translate(-562.973 -380.242)"/><path class="c" d="M642.9,380.84a1.666,1.666,0,0,0-1.343.316,3,3,0,0,0-.772,1.007,3.119,3.119,0,0,0-.333,1.378,2.217,2.217,0,0,0,.37,1.278,2.368,2.368,0,0,0,.9.872,2.015,2.015,0,0,0,.654.211,2.064,2.064,0,0,0,.525.028,1.586,1.586,0,0,0,.292-.059,3.428,3.428,0,0,0,1.352-1,1.851,1.851,0,0,0,.133-.2c.057-.093.111-.181.16-.262a.54.54,0,0,1,.091-.131c.024-.012.033.055.028.2a.776.776,0,0,1-.028.226,2.47,2.47,0,0,1-.42.813c-.116.15-.207.268-.274.352a3.051,3.051,0,0,1-.288.3,2.185,2.185,0,0,1-.37.284,2.6,2.6,0,0,1-.557.172c-.013.006-.058.02-.138.045a.69.69,0,0,1-.182.036,2.2,2.2,0,0,1-.305,0,3.126,3.126,0,0,1-.58-.126,2.853,2.853,0,0,1-.749-.338,3.228,3.228,0,0,1-1.014-1.075,2.952,2.952,0,0,1-.457-1.5,3.88,3.88,0,0,1,1-2.773,2.947,2.947,0,0,1,.89-.7,2.756,2.756,0,0,1,.717-.266,2.65,2.65,0,0,1,.868.036,3.419,3.419,0,0,1,1.051.416c.146.085.256.149.329.194a2.283,2.283,0,0,1,.283.217,1.47,1.47,0,0,1,.274.3.834.834,0,0,1,.092.511.78.78,0,0,1-.174.42,1.218,1.218,0,0,1-.315.216.7.7,0,0,1-.3.109.22.22,0,0,1-.146-.091.257.257,0,0,1-.037-.122.3.3,0,0,1,0-.1.548.548,0,0,1,.069-.1,1.194,1.194,0,0,0,.1-.145c.072-.138.1-.214.082-.226a4.283,4.283,0,0,1-.457-.289,2.917,2.917,0,0,0-.4-.252,1.123,1.123,0,0,0-.183-.073c-.062-.018-.132-.036-.215-.054a1.546,1.546,0,0,1-.2-.054Z" transform="translate(-575.922 -379.866)"/><path class="c" d="M661.926,384.651q.009-.452.174-2.314a8.457,8.457,0,0,1,.174-1.174c-.221.006-.4.015-.54.028q-.045,0-.639.036l-.612.027a1.016,1.016,0,0,1-.124-.009c-.045-.005-.095-.013-.146-.022l-.123-.022a2.242,2.242,0,0,1-.265-.037.429.429,0,0,1-.118-.235.56.56,0,0,1,.045-.163.454.454,0,0,0,.028-.19.079.079,0,0,1,.018-.054.941.941,0,0,1,.329-.1,1.24,1.24,0,0,1,.243-.018h.2l.2-.031c.094-.015.178-.026.251-.032h.028a19.618,19.618,0,0,1,2.712.009,3.671,3.671,0,0,1,1.169.2c.1.042.156.085.173.127a.306.306,0,0,1-.022.077c-.016.039-.029.062-.041.067a.155.155,0,0,1-.083.032c-.03,0-.071,0-.123,0a.486.486,0,0,0-.114.01,1.822,1.822,0,0,0-.365.072,3.11,3.11,0,0,1-.447.09c-.055.005-.138.011-.247.014s-.189.008-.238.014-.086.016-.15.031-.112.027-.142.032c-.122.012-.279.022-.475.028v.135a2.4,2.4,0,0,0,.068.465,3.424,3.424,0,0,1,.078.465c.006.048.01.123.014.226s0,.174,0,.216a.564.564,0,0,0,.023.131c.015.058.025.1.032.131q.009.208-.009.655t-.018.528c0,.078,0,.186-.009.325s-.009.223-.009.252c-.006.049-.009.147-.009.294s0,.257-.009.33c-.006.047-.016.127-.033.239s-.026.2-.032.258a1.763,1.763,0,0,0,0,.244,1.525,1.525,0,0,1,0,.226,1.979,1.979,0,0,1-.073.244.626.626,0,0,1-.092.19.412.412,0,0,1-.164.063.535.535,0,0,1-.119-.018.232.232,0,0,1-.092-.036.941.941,0,0,1-.082-.217,3.943,3.943,0,0,1-.155-.749.959.959,0,0,1-.019-.2c0-.072,0-.148.005-.226s0-.135,0-.171,0-.106-.013-.208-.014-.19-.014-.263v-.008A.023.023,0,0,0,661.926,384.651Z" transform="translate(-590.25 -380.144)"/></g><rect class="c" width="3.207" height="29.008" transform="translate(14.224 35.413)"/><path class="d" d="M321.772,414.149h.059L318.8,406.5h6.519Z" transform="translate(-303.51 -341.887)"/><path class="b" d="M296.7,211.647a7.542,7.542,0,0,0-5.98,2.94q0-1.223,0-2.446a3.875,3.875,0,0,0-.02-.395v-8.2a4.393,4.393,0,0,1,1.29-2.72,4.509,4.509,0,0,1,6.318,0,4.407,4.407,0,0,1,1.305,3.308l1.508.062a5.894,5.894,0,0,0-1.745-4.425,6.032,6.032,0,0,0-8.454,0,5.889,5.889,0,0,0-1.73,3.682v5.6a3.934,3.934,0,0,0-1.532-.733V195.608a3.416,3.416,0,0,1,1-2.108,3.5,3.5,0,0,1,4.913,0,3.418,3.418,0,0,1,1.014,2.57l1.508.062a4.912,4.912,0,0,0-1.456-3.689,5.029,5.029,0,0,0-7.047,0,4.905,4.905,0,0,0-1.441,3.069l0,12.7c-.609-.007-1.22-.011-1.83-.009v-20.9a4.4,4.4,0,0,1,1.29-2.721,4.51,4.51,0,0,1,6.32,0,4.4,4.4,0,0,1,1.3,3.308l1.508.061a5.885,5.885,0,0,0-1.746-4.425,6.032,6.032,0,0,0-8.453,0,5.9,5.9,0,0,0-1.73,3.681l0,21.012a3.837,3.837,0,0,0-2.135.779V196.554l0-.062a5.888,5.888,0,0,0-1.731-3.681,6.032,6.032,0,0,0-8.452,0,5.887,5.887,0,0,0-1.746,4.426l1.507-.061a4.407,4.407,0,0,1,1.305-3.308,4.51,4.51,0,0,1,6.319,0,4.4,4.4,0,0,1,1.29,2.721v11.1a7.535,7.535,0,0,0-13.549,4.447,7.428,7.428,0,0,0,2.43,5.477l1.023-1.1a5.983,5.983,0,1,1,10.092-4.379h0v.328h.051c.006.989.01,1.979.008,2.97q-.017,5.057-.038,10.115-.019,5.24-.034,10.481c-.011,3.326-.028,6.652-.028,9.979a1.63,1.63,0,0,0,.176.736q1.894,3.619,3.817,7.224c.349.66.694,1.321,1.061,1.97a.779.779,0,0,0,1.43.02c.047-.078.088-.161.13-.241,1.56-2.946,3.108-5.9,4.69-8.829a2.387,2.387,0,0,0,.3-1.2q-.013-7.724-.011-15.449,0-5.893,0-11.787a6.021,6.021,0,0,1,12,.646,5.937,5.937,0,0,1-1.944,4.38l1.022,1.1a7.427,7.427,0,0,0-5.1-12.92Zm-16.058,4.7,3.458.007q.028,14.539.055,29.173l-3.461-.045C280.674,235.806,280.658,226.064,280.64,216.345Zm4.251,37.735-3.681-6.918h7.359C287.351,249.452,286.15,251.712,284.891,254.08Zm.74-8.584c-.019-9.682-.037-19.426-.056-29.3,1.164.022,2.293.046,3.459.069q.027,14.678.054,29.271C287.915,245.519,286.8,245.507,285.631,245.5Zm3.454-30.858a1.7,1.7,0,0,1-.031.217l-8.4-.051c0-.571-.008-1.1-.01-1.628,0-.239,0-.479.006-.717h.027v-.708a2.328,2.328,0,0,1,2.339-2.065c1.244-.022,2.487-.005,3.731-.016a2.355,2.355,0,0,1,2.339,2.238C289.1,212.817,289.088,213.728,289.085,214.638Z" transform="translate(-265.616 -181.802)"/><path class="d" d="M284.186,275.46a5.047,5.047,0,1,1-5.046-4.989A5.019,5.019,0,0,1,284.186,275.46Z" transform="translate(-271.655 -244.975)"/><path class="e" d="M366.2,299.138a5.047,5.047,0,1,1-5.047-4.99A5.02,5.02,0,0,1,366.2,299.138Z" transform="translate(-330.086 -261.844)"/><path class="f" d="M291.708,226.092a3.648,3.648,0,1,1-3.647-3.606A3.628,3.628,0,0,1,291.708,226.092Z" transform="translate(-279.008 -210.788)"/><path class="g" d="M341.045,193.426a3.487,3.487,0,1,1-3.486-3.446A3.467,3.467,0,0,1,341.045,193.426Z" transform="translate(-314.388 -187.628)"/><path class="h" d="M350.635,224.68a2.6,2.6,0,1,1-2.6-2.572A2.587,2.587,0,0,1,350.635,224.68Z" transform="translate(-322.48 -210.518)"/><path class="i" d="M362.9,250.043a3.647,3.647,0,1,1-3.647-3.607A3.626,3.626,0,0,1,362.9,250.043Z" transform="translate(-329.727 -227.851)"/></g></svg>