<svg xmlns="http://www.w3.org/2000/svg" width="26" height="26" viewBox="0 0 26 26" fill="none"><path d="M19.5 0H6.5C2.912 0 0 2.912 0 6.5V19.5C0 23.075 2.925 26 6.5 26H19.5C23.075 26 26 23.075 26 19.5V6.5C26 2.925 23.075 0 19.5 0ZM7.306 7.202C9.594 7.033 13 7.02 13 7.02C13 7.02 16.406 7.046 18.681 7.202C18.993 7.241 19.695 7.267 20.306 7.93C20.475 8.112 20.605 8.372 20.696 8.645L14.183 13.182C13.468 13.676 12.519 13.676 11.804 13.182L5.304 8.658C5.395 8.398 5.525 8.138 5.681 7.956C6.318 7.267 6.994 7.241 7.306 7.202ZM21.047 13.637C21.047 15.002 20.917 16.38 20.917 16.38C20.917 16.38 20.774 17.537 20.293 18.057C19.669 18.733 18.993 18.733 18.681 18.785C16.406 18.954 13 18.967 13 18.967C13 18.967 8.775 18.902 7.475 18.785C7.124 18.72 6.305 18.746 5.681 18.057C5.2 17.537 5.07 16.38 5.07 16.38C5.07 16.38 4.94 15.002 4.94 13.637V12.363C4.94 11.232 5.031 10.088 5.057 9.737L11.206 14.027C11.739 14.404 12.363 14.586 12.987 14.586C13.611 14.586 14.235 14.404 14.768 14.027L20.917 9.737C20.943 10.088 21.034 11.232 21.034 12.363V13.637H21.047Z" fill="white"></path></svg>