<svg xmlns="http://www.w3.org/2000/svg" width="50.124" height="32.539" viewBox="0 0 50.124 32.539"><defs><style>.a{fill:#f6921e;}.b{fill:#604627;}.c{fill:#e2e8ed;}.d{fill:#ec297b;}.e{fill:#06edff;}</style></defs><g transform="translate(-6.306 -26.547)"><rect class="a" width="50.124" height="32.539" rx="4" transform="translate(6.306 26.547)"/><path class="b" d="M56.431,30.056v4.109H6.31V30.056A3.5,3.5,0,0,1,9.816,26.55h43.11A3.5,3.5,0,0,1,56.431,30.056Z" transform="translate(-0.002 -0.002)"/><path class="c" d="M20.021,57.8H33.027V70.8H20.021Z" transform="translate(-7.757 -17.675)"/><circle class="d" cx="2.283" cy="2.283" r="2.283" transform="translate(16.484 43.068)"/><path class="d" d="M27.285,80.583V78.436a3.348,3.348,0,0,1,6.7,0v2.148Z" transform="translate(-11.866 -27.455)"/><path class="e" d="M89.756,26.547V40.122l-3.694-3.694-3.694,3.694V26.547Z" transform="translate(-43.021)"/><g transform="translate(31.305 43.629)"><path class="c" d="M83.023,87.508H64.615a.76.76,0,1,1,0-1.52H83.023a.76.76,0,1,1,0,1.52Z" transform="translate(-63.855 -77.248)"/><path class="c" d="M83.023,77.493H64.615a.76.76,0,1,1,0-1.52H83.023a.76.76,0,1,1,0,1.52Z" transform="translate(-63.855 -71.584)"/><path class="c" d="M83.023,67.389H64.615a.76.76,0,1,1,0-1.52H83.023a.76.76,0,1,1,0,1.52Z" transform="translate(-63.855 -65.869)"/></g></g></svg>