<svg xmlns="http://www.w3.org/2000/svg" width="59.791" height="40.017" viewBox="0 0 59.791 40.017"><defs><style>.a{fill:#ffc107;}.b{fill:#f6921e;}.c{fill:#ec297b;}.d{fill:#fff;font-size:15px;font-family:Montserrat-SemiBold, Montserrat;font-weight:600;}</style></defs><g transform="translate(0 -78.999)"><path class="a" d="M60.455,260.564a5.263,5.263,0,0,1-4.042,1.895h-40a5.263,5.263,0,0,1-4.042-1.895l19.3-16.083,2,1.368a4.819,4.819,0,0,0,5.473,0l2-1.368Z" transform="translate(-11.153 -143.443)"/><path class="b" d="M58.058,87.628l-19.6,13.41-2,1.368a4.819,4.819,0,0,1-5.473,0l-2-1.368L9.388,87.607a5.286,5.286,0,0,1,4.337-2.274h40A5.193,5.193,0,0,1,58.058,87.628Z" transform="translate(-8.461 0)"/><g transform="translate(0 87.607)"><path class="b" d="M20.525,121.806l-19.3,16.083A5.239,5.239,0,0,1,0,134.521V111.364a5.187,5.187,0,0,1,.926-2.989Z" transform="translate(0 -108.375)"/><path class="b" d="M324.526,111.556v23.156a5.239,5.239,0,0,1-1.221,3.368L304,122l19.6-13.41A5.169,5.169,0,0,1,324.526,111.556Z" transform="translate(-274.003 -108.567)"/></g><path class="c" d="M298.166,10.417A10.417,10.417,0,1,1,287.749,0,10.417,10.417,0,0,1,298.166,10.417Zm0,0" transform="translate(-238.375 78.999)"/><text class="d" transform="translate(52.498 93.999)"><tspan x="-5.715" y="0">1</tspan></text></g></svg>