<svg xmlns="http://www.w3.org/2000/svg" width="50.523" height="33.682" viewBox="0 0 50.523 33.682">
  <g id="Group_2417" data-name="Group 2417" transform="translate(0 -85.333)">
    <path id="Path_1125" data-name="Path 1125" d="M60.455,260.564a5.263,5.263,0,0,1-4.042,1.895h-40a5.263,5.263,0,0,1-4.042-1.895l19.3-16.083,2,1.368a4.819,4.819,0,0,0,5.473,0l2-1.368Z" transform="translate(-11.153 -143.443)" fill="#ffc107"/>
    <path id="Path_1126" data-name="Path 1126" d="M58.058,87.628l-19.6,13.41-2,1.368a4.819,4.819,0,0,1-5.473,0l-2-1.368L9.388,87.607a5.286,5.286,0,0,1,4.337-2.274h40A5.193,5.193,0,0,1,58.058,87.628Z" transform="translate(-8.461)" fill="#f6921e"/>
    <g id="Group_2036" data-name="Group 2036" transform="translate(0 87.607)">
      <path id="Path_1127" data-name="Path 1127" d="M20.525,121.806l-19.3,16.083A5.239,5.239,0,0,1,0,134.521V111.364a5.187,5.187,0,0,1,.926-2.989Z" transform="translate(0 -108.375)" fill="#f6921e"/>
      <path id="Path_1128" data-name="Path 1128" d="M324.526,111.556v23.156a5.239,5.239,0,0,1-1.221,3.368L304,122l19.6-13.41A5.169,5.169,0,0,1,324.526,111.556Z" transform="translate(-274.003 -108.567)" fill="#f6921e"/>
    </g>
  </g>
</svg>
