<svg xmlns="http://www.w3.org/2000/svg" width="38.568" height="38.568" viewBox="0 0 38.568 38.568"><defs><style>.a{fill:#ec297b;}</style></defs><path class="a" d="M173.469,137.812c-3.382,0-5.65,2.208-5.65,4.52,0,2.336,2.3,4.52,5.65,4.52,3.382,0,5.65-2.208,5.65-4.52V123.123a1.13,1.13,0,0,0-1.44-1.086l-15.819,4.52a1.13,1.13,0,0,0-.82,1.086v15.585a6.632,6.632,0,0,0-3.39-.9c-3.382,0-5.65,2.208-5.65,4.52,0,2.336,2.3,4.52,5.65,4.52,3.382,0,5.65-2.208,5.65-4.52V133.015l13.559-3.874v9.567A6.632,6.632,0,0,0,173.469,137.812Zm0,6.78c-1.837,0-3.39-1.035-3.39-2.26s1.552-2.26,3.39-2.26,3.39,1.035,3.39,2.26S175.306,144.592,173.469,144.592Zm-15.819,4.52c-1.838,0-3.39-1.035-3.39-2.26s1.552-2.26,3.39-2.26,3.39,1.035,3.39,2.26S159.487,149.111,157.65,149.111Zm5.65-18.447v-2.169l13.559-3.874v2.169Z" transform="translate(-140.55 -112.803)"/><path class="a" d="M5.65,25.009c3.382,0,5.65-2.208,5.65-4.52V11.3h3.39a5.659,5.659,0,0,0,5.555-4.615A5.659,5.659,0,0,0,24.859,1.13,1.13,1.13,0,0,0,23.729,0h-6.78a7.919,7.919,0,0,0-7.91,7.91v8.956a6.632,6.632,0,0,0-3.39-.9C2.267,15.97,0,18.177,0,20.489,0,22.825,2.3,25.009,5.65,25.009ZM11.3,7.91a5.656,5.656,0,0,1,5.65-5.65h5.456a3.4,3.4,0,0,1-3.2,2.26h-4.52a1.13,1.13,0,1,0,0,2.26h3.2a3.4,3.4,0,0,1-3.2,2.26H11.3ZM5.65,18.23c1.837,0,3.39,1.035,3.39,2.26s-1.552,2.26-3.39,2.26-3.39-1.035-3.39-2.26S3.812,18.23,5.65,18.23Z"/></svg>