<svg xmlns="http://www.w3.org/2000/svg" width="30.328" height="47.053" viewBox="0 0 30.328 47.053"><defs><style>.a{fill:#f6921e;}.b{fill:#fff;}</style></defs><g transform="translate(-90.996 0)"><g transform="translate(90.996 0)"><g transform="translate(0 0)"><path class="a" d="M120.807,3.058,117.36.3a1.384,1.384,0,0,0-1.723,0L113.052,2.37,110.468.3a1.384,1.384,0,0,0-1.723,0L106.16,2.37,103.575.3a1.384,1.384,0,0,0-1.723,0L99.267,2.37,96.682.3a1.384,1.384,0,0,0-1.723,0L91.513,3.058A1.385,1.385,0,0,0,91,4.135V42.918a1.385,1.385,0,0,0,.517,1.077l3.446,2.757a1.384,1.384,0,0,0,1.723,0l2.585-2.069,2.585,2.069a1.384,1.384,0,0,0,1.723,0l2.585-2.069,2.585,2.069a1.384,1.384,0,0,0,1.723,0l2.585-2.069,2.585,2.069a1.382,1.382,0,0,0,1.723,0l3.446-2.757a1.384,1.384,0,0,0,.517-1.077V4.135a1.384,1.384,0,0,0-.517-1.077Z" transform="translate(-90.996 0)"/></g></g><g transform="translate(96.51 8.363)"><g transform="translate(0)"><path class="b" d="M159.741,101.894a1.381,1.381,0,0,0,.582.128h.323a1.379,1.379,0,1,1-1.2,2.066,1.378,1.378,0,0,0-2.386,1.381,4.124,4.124,0,0,0,2.2,1.8v1.647a1.379,1.379,0,1,0,2.757,0v-1.632a4.125,4.125,0,0,0-1.379-8.017,1.379,1.379,0,1,1,1.2-2.066,1.378,1.378,0,0,0,2.386-1.381,4.125,4.125,0,0,0-2.2-1.8V92.373a1.379,1.379,0,0,0-2.757,0V94a4.106,4.106,0,0,0,.474,7.889Zm9.176,16.67H152.375a1.379,1.379,0,0,0,0,2.757h16.542a1.379,1.379,0,0,0,0-2.757Zm-16.542-2.757h16.542a1.379,1.379,0,1,0,0-2.757H152.375a1.379,1.379,0,1,0,0,2.757Z" transform="translate(-150.996 -90.994)"/></g></g></g></svg>