<svg xmlns="http://www.w3.org/2000/svg" width="46.994" height="31.329" viewBox="0 0 46.994 31.329"><defs><style>.a{fill:#f6921e;}.b{fill:#604627;}.c{fill:#fafafa;}</style></defs><g transform="translate(0 -85.333)"><path class="a" d="M4.9,85.333H42.1a4.9,4.9,0,0,1,4.9,4.9v21.539a4.9,4.9,0,0,1-4.9,4.9H4.9a4.9,4.9,0,0,1-4.9-4.9V90.228A4.9,4.9,0,0,1,4.9,85.333Z"/><rect class="b" width="46.994" height="7.832" transform="translate(0 91.207)"/><g transform="translate(5.874 104.914)"><path class="c" d="M72.811,300.624H64.979a.979.979,0,1,1,0-1.958h7.832a.979.979,0,0,1,0,1.958Z" transform="translate(-64 -298.666)"/><path class="c" d="M78.686,343.291H64.979a.979.979,0,0,1,0-1.958H78.686a.979.979,0,0,1,0,1.958Z" transform="translate(-64 -337.417)"/></g></g></svg>