<svg xmlns="http://www.w3.org/2000/svg" width="39.717" height="39.744" viewBox="0 0 39.717 39.744"><defs><style>.a{fill:#f6921e;}</style></defs><path class="a" d="M39.366,12.4,31.2,20.279,29.523,18.5l6.181-5.96a1.5,1.5,0,0,0,.038-2.125L30.224,4.7A1.507,1.507,0,0,0,28.1,4.657l-4.871,4.7,4.23,4.38a.943.943,0,0,1-.044,1.311.954.954,0,0,1-.942.217L20.333,8.755l8.028-7.749a1.237,1.237,0,0,1,1.737.046l9.28,9.62A1.233,1.233,0,0,1,39.366,12.4ZM11.64,35.752a1.48,1.48,0,0,1-1.068.419,1.519,1.519,0,0,1-1.058-.456L4,29.989a1.5,1.5,0,0,1,.038-2.122L6.572,30.5a.911.911,0,0,0,1.286.026.9.9,0,0,0,.019-1.282L5.342,26.608l.675-.653,2.538,2.637a.907.907,0,1,0,1.3-1.261L7.324,24.7,8,24.045l2.535,2.634a.908.908,0,1,0,1.308-1.258L9.306,22.787l.675-.653,2.538,2.632a.907.907,0,0,0,1.543-.435l-4.7-4.988L.373,28.007A1.236,1.236,0,0,0,.357,29.74l9.28,9.626a1.228,1.228,0,0,0,1.732.04l8.856-8.537-1.674-1.776ZM27.855,12.1a3.05,3.05,0,1,1,4.31.076A3.049,3.049,0,0,1,27.855,12.1Zm1.31-1.263A1.228,1.228,0,1,0,29.2,9.1,1.238,1.238,0,0,0,29.165,10.837Zm4.929,15.626-7.987,7.526L8.307,15.1,16.3,7.577ZM17.636,12.843a.687.687,0,0,0-.189-.491l-.87-.92a.688.688,0,0,0-.97-.029l-.471.442a.687.687,0,0,0-.03.97l.865.926a.681.681,0,0,0,.484.214c.182.008.964-.63.964-.63A.706.706,0,0,0,17.636,12.843ZM30,26.677a.684.684,0,0,0,.028-.972l-10-10.608a.669.669,0,0,0-.481-.217.691.691,0,0,0-.49.185l-.472.446a.684.684,0,0,0-.029.97l10,10.61a.7.7,0,0,0,.485.218.689.689,0,0,0,.494-.188ZM7.5,14.242l7.987-7.528L13.423,4.525,5.438,12.055ZM1.877,8.272a2.37,2.37,0,0,1,.1-3.357L6.5.65a2.37,2.37,0,0,1,3.357.1l2.806,2.976L4.679,11.249ZM3.3,6.634,4.768,8.193,9.61,3.632,8.14,2.075ZM38.145,37.213A1.18,1.18,0,0,1,36.6,38.672l-9.479-3.617L35.1,27.527Zm-2.533-3.251-1.2-3.809-4.638,4.375,3.732,1.424Z" transform="translate(-0.01 0)"/></svg>