<svg xmlns="http://www.w3.org/2000/svg" xmlns:xlink="http://www.w3.org/1999/xlink" width="45.034" height="45.034" viewBox="0 0 45.034 45.034"><defs><style>.a{fill:#f6921e;}.b{clip-path:url(#a);}.c{fill:#ecc19c;}.d{fill:#eb6d4a;}.e{fill:#543e36;}.f{fill:#c34628;}</style><clipPath id="a"><circle cx="22.517" cy="22.517" r="22.517"/></clipPath></defs><circle class="a" cx="22.517" cy="22.517" r="22.517" transform="translate(0 0)"/><g class="b" transform="translate(0 0)"><path class="c" d="M72.292,20.947v7.484c0,.108,0,.216-.005.325,0,.089,0,.175-.01.264s-.007.157-.015.236c0,.056-.007.113-.012.17,0,.035-.005.066-.01.1,0,.062-.01.125-.02.187-.01.118-.025.234-.042.352,0,.03-.007.059-.012.089-.007.059-.017.118-.027.177v.007c-.015.086-.029.17-.044.256-.022.118-.044.236-.069.352,0,.005,0,.01,0,.015a.4.4,0,0,1-.01.052c0,.005,0,.01-.005.015-.012.064-.027.125-.042.187a.48.48,0,0,1-.02.081c-.007.044-.02.088-.029.133-.007.025-.012.052-.022.076s-.012.045-.017.064c-.052.2-.111.4-.172.6-.03.094-.059.185-.091.278,0,.01-.007.02-.01.029l-.089.251c-.01.025-.02.049-.029.076-.03.079-.059.157-.091.236-.037.1-.076.189-.116.283s-.071.167-.108.251c0,.015-.012.027-.017.042-.042.089-.081.177-.123.264s-.086.182-.133.273c-.089.18-.185.359-.281.534l-.133.236a14.483,14.483,0,0,1-1.258,1.831q-.092.122-.192.236c-.091.111-.185.219-.278.325s-.167.187-.253.278q-.354.38-.724.721c-.049.049-.1.094-.152.14-.084.076-.167.15-.253.221-.066.059-.135.116-.2.172-.177.145-.354.285-.534.416-.074.057-.15.111-.226.163-.123.089-.249.172-.374.254-.069.047-.14.091-.212.133-.251.155-.5.3-.756.421-.062.032-.123.062-.185.091s-.125.059-.192.089-.163.071-.244.1a.79.79,0,0,1-.1.037c-.1.039-.194.076-.29.108-.12.045-.244.081-.364.116-.084.025-.17.047-.253.066a.034.034,0,0,1-.017.005c-.084.02-.167.039-.251.054a.646.646,0,0,1-.066.012c-.069.012-.138.025-.207.032a2.944,2.944,0,0,1-.3.032.68.68,0,0,1-.1.007c-.079,0-.157.007-.234.007h-.007c-.076,0-.152,0-.229-.007a.526.526,0,0,1-.089-.007c-.069,0-.14-.01-.214-.02a.283.283,0,0,1-.047-.005c-.091-.012-.182-.027-.275-.044s-.157-.03-.239-.049a7.092,7.092,0,0,1-1.292-.435,9.454,9.454,0,0,1-1.13-.6c-.189-.116-.379-.239-.566-.369-.094-.067-.187-.133-.281-.2q-.439-.321-.869-.7c-.079-.071-.157-.143-.236-.216s-.157-.145-.234-.217q-.288-.277-.561-.576-.107-.115-.214-.236c-.2-.221-.389-.45-.571-.689-.071-.086-.138-.174-.2-.263q-.373-.495-.706-1.031c-.059-.1-.118-.194-.175-.29-.069-.116-.135-.234-.2-.352a13.417,13.417,0,0,1-.669-1.378c-.03-.069-.059-.138-.084-.207-.039-.089-.074-.18-.106-.268q-.074-.2-.14-.391c-.044-.13-.086-.264-.128-.4s-.076-.256-.111-.386-.076-.278-.108-.421c0-.015-.007-.03-.01-.045q-.07-.3-.125-.6c-.049-.266-.089-.536-.118-.81-.012-.086-.02-.172-.027-.258s-.017-.18-.022-.271c-.012-.165-.02-.332-.025-.5,0-.108-.005-.216-.005-.325V20.947A10.019,10.019,0,0,1,62.264,10.929h.01a10.13,10.13,0,0,1,2.22.246,10.022,10.022,0,0,1,7.8,9.684C72.292,20.888,72.292,20.918,72.292,20.947Z" transform="translate(-39.746 -8.313)"/></g><g class="b" transform="translate(0 0)"><path class="c" d="M65.683,141.222v0H39.575v0a12.987,12.987,0,0,1,.7-4.215q.122-.358.266-.709v0c.094-.234.2-.463.3-.689a12.9,12.9,0,0,1,1.59-2.535c.157-.195.317-.384.482-.566.081-.094.167-.184.253-.275s.172-.177.261-.266a12.965,12.965,0,0,1,1.41-1.216c.248-.185.5-.357.76-.524s.527-.323.8-.47a.016.016,0,0,1,.01,0c.106-.057.209-.118.313-.182a7.793,7.793,0,0,0,.883-.615,8.23,8.23,0,0,0,3.115-6.46l1.9.01,1.956.01a8.223,8.223,0,0,0,3.093,6.442,6.686,6.686,0,0,0,.546.4c.02.015.037.027.057.039.089.059.177.118.271.172s.2.123.308.18a.122.122,0,0,1,.044.022c.217.121.431.246.64.377.1.062.2.125.3.2.2.13.4.273.6.421a0,0,0,0,0,0,0h0c.249.185.49.382.726.583s.463.413.682.633A12.985,12.985,0,0,1,65.683,141.222Z" transform="translate(-30.103 -93.174)"/></g><g class="b" transform="translate(0 0)"><path class="d" d="M65.679,161.73H39.572a12.986,12.986,0,0,1,.7-4.215q.122-.358.266-.709v0c.094-.234.2-.463.305-.689a12.906,12.906,0,0,1,1.59-2.535c.157-.194.318-.384.482-.566.081-.094.167-.185.253-.276s.172-.177.261-.266a12.962,12.962,0,0,1,1.41-1.216c.249-.185.5-.357.76-.524.135-.086.271-.17.408-.251s.259-.15.389-.222a.008.008,0,0,1,.01,0v0c.106-.059.209-.118.313-.18a7.6,7.6,0,0,0,.878-.62l.005.005a7.015,7.015,0,0,0,5.018,2.119h.02a7.03,7.03,0,0,0,5.03-2.116l0,0a6.614,6.614,0,0,0,.544.406c.02.015.037.027.056.039.089.059.18.116.271.172s.2.121.308.177a.246.246,0,0,1,.044.022c.116.064.234.13.347.2s.2.118.293.18.2.125.3.2c.2.13.4.273.6.421h.005c.248.187.492.382.726.585s.463.414.682.633A12.987,12.987,0,0,1,65.679,161.73Z" transform="translate(-30.1 -113.682)"/></g><g class="b" transform="translate(0 0)"><path class="e" d="M72.292,84.05c0,.108,0,.216-.005.325,0,.089,0,.175-.01.264s-.007.157-.015.236c0,.056-.007.113-.012.17,0,.035-.005.066-.01.1,0,.062-.01.125-.02.187-.012.118-.025.236-.042.352,0,.03-.007.059-.012.089-.007.059-.017.118-.027.177-.012.089-.029.177-.044.264-.02.1-.039.2-.062.3a.468.468,0,0,1-.012.062c0,.017-.007.034-.01.052s0,.01-.005.015a.129.129,0,0,1,0,.032c-.012.052-.022.1-.037.155a.478.478,0,0,1-.02.081,1.468,1.468,0,0,1-.037.143.308.308,0,0,1-.015.066c-.005.022-.012.045-.017.064-.052.2-.111.4-.172.6-.03.094-.059.185-.091.278,0,.01-.007.02-.01.029l-.089.251c-.01.025-.02.049-.029.076-.03.079-.059.157-.091.236-.037.1-.076.189-.116.283s-.071.167-.108.251c0,.015-.012.027-.017.042-.042.089-.081.177-.123.264s-.086.182-.133.273c-.089.18-.185.359-.281.534l-.133.236a14.484,14.484,0,0,1-1.258,1.831q-.092.122-.192.236c-.091.111-.185.219-.278.325s-.167.187-.253.278q-.354.38-.724.721c-.049.049-.1.094-.152.14-.084.076-.167.15-.253.221-.066.059-.135.116-.2.172-.177.145-.354.285-.534.416-.074.057-.15.111-.226.163-.123.089-.249.172-.374.254-.069.047-.14.091-.212.133-.251.155-.5.3-.756.421-.062.032-.123.062-.185.091s-.125.059-.192.089-.163.071-.244.1a.789.789,0,0,1-.1.037c-.1.039-.194.076-.29.108-.12.045-.244.081-.364.116-.084.025-.17.047-.253.066a.034.034,0,0,1-.017.005c-.084.02-.167.039-.251.054a.647.647,0,0,1-.066.012c-.069.012-.138.025-.207.032a2.947,2.947,0,0,1-.3.032.68.68,0,0,1-.1.007c-.079,0-.157.007-.234.007h-.007c-.076,0-.152,0-.229-.007a.526.526,0,0,1-.089-.007c-.069,0-.14-.01-.214-.02a.284.284,0,0,1-.047-.005c-.091-.012-.182-.027-.275-.044s-.157-.03-.239-.049a7.092,7.092,0,0,1-1.292-.435,9.454,9.454,0,0,1-1.13-.6c-.189-.113-.377-.236-.566-.369-.094-.067-.187-.133-.281-.2q-.439-.321-.869-.7c-.079-.071-.157-.143-.236-.216s-.157-.145-.234-.217q-.288-.277-.561-.576-.107-.115-.214-.236c-.2-.221-.389-.45-.571-.689-.071-.086-.138-.174-.2-.263q-.373-.495-.706-1.031c-.059-.1-.118-.194-.175-.29-.069-.116-.135-.234-.2-.352a13.417,13.417,0,0,1-.669-1.378c-.03-.069-.059-.138-.084-.207-.039-.089-.074-.18-.106-.268q-.074-.2-.14-.391c-.044-.13-.086-.264-.128-.4s-.076-.256-.111-.386-.076-.278-.108-.421c0-.015-.007-.03-.01-.045q-.07-.3-.125-.6c-.049-.266-.089-.536-.118-.81-.012-.086-.02-.172-.027-.258s-.017-.18-.022-.271c-.012-.165-.02-.332-.025-.5,0-.108-.005-.216-.005-.325l1.6,3.145,2.749,1.2,3.25.292h0l2.409.219h.015l2.254.2s0,0,0,0l5.028.453Z" transform="translate(-39.746 -63.932)"/></g><g class="b" transform="translate(0 0)"><path class="e" d="M62.283,76.285l0,2.424v0l0,.849v.667l0,2.215v0l0,0h0l-.007-.005L52.584,77.51c0-.015-.007-.03-.01-.045q-.07-.3-.125-.6c-.049-.266-.089-.536-.118-.81-.012-.086-.02-.172-.027-.258s-.017-.18-.022-.271c-.012-.165-.02-.332-.025-.5,0-.108-.005-.216-.005-.325V71.764c0,.042,0,.084,0,.125a9.8,9.8,0,0,0,.352,2.294,9.934,9.934,0,0,0,.628,1.691v0a4.015,4.015,0,0,0,2.3,2.4c.049.007.1.012.15.017a8.654,8.654,0,0,0,.962.054c1.255,0,2.37-1.009,3.071-1.417l.015-.007c.037-.022.074-.045.106-.067a.178.178,0,0,1,.03-.017,4.974,4.974,0,0,1,2.392-.554Z" transform="translate(-39.745 -54.587)"/><path class="e" d="M104.1,71.759l0,2.941a12.061,12.061,0,0,1-.2,2.163c-.052.281-.111.559-.18.834l-2.271,3.28-7.368,1.459h0l0,0v0l-.007-6.158h.02a4.992,4.992,0,0,1,2.394.554.16.16,0,0,1,.027.017l.108.066.012.007c.7.408,1.816,1.418,3.071,1.418a8.654,8.654,0,0,0,.962-.054c.052-.005.1-.01.152-.017a4.012,4.012,0,0,0,2.3-2.4v0a9.953,9.953,0,0,0,.628-1.691,9.686,9.686,0,0,0,.352-2.326C104.1,71.821,104.1,71.791,104.1,71.759Z" transform="translate(-71.557 -54.583)"/></g><g class="b"><ellipse class="c" cx="2.455" cy="0.759" rx="2.455" ry="0.759" transform="translate(20.071 24.122)"/></g><g class="b" transform="translate(0 0)"><path class="e" d="M62.272,10.929h-.01A10.019,10.019,0,0,0,52.252,20.947v4.418a9.54,9.54,0,0,1,1.536-3.915c1.216-1.39.908-3.5,3.635-3.5,1.759,0,1.858.65,4.838.65h.014c2.98,0,3.079-.65,4.838-.65,2.727,0,2.419,2.114,3.635,3.5a9.542,9.542,0,0,1,1.535,3.915V20.947A10.02,10.02,0,0,0,62.272,10.929Z" transform="translate(-39.745 -8.313)"/></g><g class="b" transform="translate(0 0)"><path class="f" d="M79.681,150.475l-.271.276a8.893,8.893,0,0,1-12.706,0l-.258-.266c.128-.076.258-.15.389-.222a.008.008,0,0,1,.01,0v0c.106-.059.209-.118.313-.18a7.6,7.6,0,0,0,.878-.62l.005.005a7.015,7.015,0,0,0,5.018,2.119h.02a7.03,7.03,0,0,0,5.03-2.116l0,0a6.613,6.613,0,0,0,.544.406c.02.015.037.027.056.039.089.059.18.116.271.172s.2.121.308.177a.246.246,0,0,1,.044.022C79.45,150.34,79.568,150.407,79.681,150.475Z" transform="translate(-50.542 -113.681)"/></g></svg>