<svg xmlns="http://www.w3.org/2000/svg" width="45.132" height="56.933" viewBox="0 0 45.132 56.933"><defs><style>.a{fill:#8f10ff;}</style></defs><path class="a" d="M145.854,178.465h-5.807v5.74h5.807a2.1,2.1,0,0,0,2.1-2.1v-1.543a2.1,2.1,0,0,0-2.1-2.1Zm0,0" transform="translate(-122.866 -156.539)"/><path class="a" d="M145.854,119.742h-5.807v5.74h5.807a2.1,2.1,0,0,0,2.1-2.1V121.84a2.1,2.1,0,0,0-2.1-2.1Zm0,0" transform="translate(-122.866 -105.031)"/><path class="a" d="M1.723,21.871H.2A21.068,21.068,0,0,0,5.877,35.549L6.946,34.48a.737.737,0,0,1,1.042,1.042L6.919,36.591A21.071,21.071,0,0,0,20.6,42.267V40.745a.737.737,0,1,1,1.474,0v1.522a21.025,21.025,0,0,0,6.049-1.1A9.455,9.455,0,0,1,26.9,36.53a16.357,16.357,0,1,1,9.783-9.708c.056,0,.112,0,.168,0a10.1,10.1,0,0,1,4.525,1.066,21.031,21.031,0,0,0,1.087-6.013H40.944a.737.737,0,1,1,0-1.474h1.522A21.068,21.068,0,0,0,36.791,6.719L35.722,7.788a.737.737,0,1,1-1.042-1.042l1.069-1.069A21.069,21.069,0,0,0,22.071,0V1.523a.737.737,0,0,1-1.474,0V0A21.067,21.067,0,0,0,6.919,5.676L7.988,6.745A.737.737,0,1,1,6.945,7.788L5.876,6.719A21.07,21.07,0,0,0,.2,20.4H1.723a.737.737,0,1,1,0,1.474Zm0,0" transform="translate(-0.2 -0.001)"/><path class="a" d="M80.965,65.857a14.881,14.881,0,1,0-9.182,13.76,9.849,9.849,0,0,1,7.99-7.911,14.764,14.764,0,0,0,1.193-5.85ZM71.5,63.077a3.568,3.568,0,0,1-1.4,2.835,3.568,3.568,0,0,1,1.4,2.835v1.544A3.576,3.576,0,0,1,68.2,73.852v1.655a.737.737,0,1,1-1.474,0V73.864H64.786v1.643a.737.737,0,0,1-1.474,0V73.864H61.381a.737.737,0,0,1-.737-.737V58.7a.737.737,0,0,1,.737-.737h1.932V56.206a.737.737,0,0,1,1.474,0v1.755h1.941V56.206a.737.737,0,1,1,1.474,0v1.767a3.577,3.577,0,0,1,3.3,3.561Zm0,0" transform="translate(-44.936 -44.724)"/><path class="a" d="M278.31,276.895a.738.738,0,0,1-.7.5h-1.564l1.248.882a.737.737,0,0,1,.274.836l-.487,1.459,1.3-.921a.737.737,0,0,1,.851,0l1.3.921-.487-1.459a.737.737,0,0,1,.274-.836l1.247-.882h-1.564a.738.738,0,0,1-.7-.5l-.5-1.5Zm0,0" transform="translate(-242.156 -241.56)"/><path class="a" d="M253.785,363.059v12.328l5.126-3.012a.737.737,0,0,1,.747,0l5.126,3.012V363.059a10.137,10.137,0,0,1-11,0Zm0,0" transform="translate(-222.63 -318.454)"/><path class="a" d="M229.543,238.508a8.481,8.481,0,1,0,8.477-8.23A8.366,8.366,0,0,0,229.543,238.508Zm9.177-5.248,1.032,3.09H243.1a.737.737,0,0,1,.426,1.339l-2.694,1.905,1.027,3.075a.737.737,0,0,1-1.125.836l-2.716-1.921L235.3,243.5a.737.737,0,0,1-1.125-.835l1.027-3.075-2.695-1.905a.737.737,0,0,1,.426-1.339h3.352l1.032-3.09a.737.737,0,0,1,1.4,0Zm0,0" transform="translate(-201.366 -201.986)"/></svg>