<svg xmlns="http://www.w3.org/2000/svg" width="38.642" height="28.5" viewBox="0 0 38.642 28.5"><defs><style>.a{fill:#ec297b;}</style></defs><g transform="translate(0 -67.19)"><path class="a" d="M38.642,84.153a8.086,8.086,0,0,0-3.195-6.466,4.754,4.754,0,0,1-1.839-3.758v-1.9h.586A1.239,1.239,0,0,0,35.431,70.8v-.765a1.239,1.239,0,0,0-1.237-1.237H26.809a1.239,1.239,0,0,0-1.237,1.237V70.8a1.239,1.239,0,0,0,1.237,1.237h.586v1.838a4.836,4.836,0,0,1-1.85,3.824,8.2,8.2,0,0,0-2.307,2.785,10.627,10.627,0,0,1-.324-2.6V70.433h.507a1.021,1.021,0,0,0,1.02-1.02v-1.2a1.021,1.021,0,0,0-1.02-1.02H18.862a.566.566,0,1,0,0,1.132h4.447V69.3H15.333v-.978H16.6a.566.566,0,0,0,0-1.132H15.221a1.021,1.021,0,0,0-1.02,1.02v1.2a1.021,1.021,0,0,0,1.02,1.02h.507v7.447a10.629,10.629,0,0,1-.324,2.6,8.207,8.207,0,0,0-2.318-2.793,4.754,4.754,0,0,1-1.839-3.758v-1.9h.586A1.239,1.239,0,0,0,13.07,70.8v-.765a1.239,1.239,0,0,0-1.237-1.237H4.448A1.239,1.239,0,0,0,3.21,70.032V70.8a1.239,1.239,0,0,0,1.237,1.237h.586v1.838A4.836,4.836,0,0,1,3.184,77.7,8.125,8.125,0,0,0,2.8,90.283a.566.566,0,1,0,.745-.852,6.994,6.994,0,0,1,.329-10.837,5.975,5.975,0,0,0,2.292-4.721V72.034h3.95v1.9A5.892,5.892,0,0,0,12.4,78.586a7.055,7.055,0,0,1,2.449,3.53,10.654,10.654,0,0,1-.61,1.194,6.109,6.109,0,0,0-2.359-4.045,6.505,6.505,0,0,1-.767-.691,1.492,1.492,0,0,0-1.08-.46H6.245a1.492,1.492,0,0,0-1.083.462,6.505,6.505,0,0,1-.768.695A6.158,6.158,0,0,0,8.551,90.292a3.537,3.537,0,0,0-.381.868,6.878,6.878,0,0,1-2.859-.6A.566.566,0,0,0,4.85,91.6a8.026,8.026,0,0,0,3.19.7,3.59,3.59,0,0,0,.329,1.329A3.525,3.525,0,0,0,11.6,95.69H27.04a3.525,3.525,0,0,0,3.232-2.068,3.591,3.591,0,0,0,.329-1.33,8.14,8.14,0,0,0,8.04-8.139ZM4.448,70.9a.105.105,0,0,1-.105-.105v-.765a.105.105,0,0,1,.105-.105h7.385a.105.105,0,0,1,.105.105V70.8a.105.105,0,0,1-.105.105ZM26.7,70.8v-.765a.105.105,0,0,1,.105-.105h7.385a.105.105,0,0,1,.105.105V70.8a.105.105,0,0,1-.105.105H26.809A.105.105,0,0,1,26.7,70.8ZM4.54,87.638a5,5,0,0,1,.544-7.469,7.64,7.64,0,0,0,.9-.816.356.356,0,0,1,.259-.107H10.03a.356.356,0,0,1,.258.106,7.64,7.64,0,0,0,.9.811,4.99,4.99,0,0,1,1.972,3.989,5.068,5.068,0,0,1-.053.717L9.635,88.947a4.989,4.989,0,0,1-5.1-1.31Zm24.7,5.51a2.4,2.4,0,0,1-2.2,1.41H11.6a2.428,2.428,0,0,1-1.848-4l4.3-5.042.021-.025.006-.007h0a11.783,11.783,0,0,0,2.784-7.6V70.433h4.922v7.447a11.78,11.78,0,0,0,2.783,7.6l4.324,5.076a2.4,2.4,0,0,1,.356,2.593Zm1.227-1.987a3.542,3.542,0,0,0-.381-.869,6.11,6.11,0,0,0,4.921-1.954.566.566,0,1,0-.829-.771A5.035,5.035,0,0,1,29,88.943l-3.47-4.072a5.006,5.006,0,0,1,1.912-4.7,7.641,7.641,0,0,0,.9-.816.356.356,0,0,1,.259-.107h3.785a.356.356,0,0,1,.258.106,7.648,7.648,0,0,0,.9.811,5.033,5.033,0,0,1,1.687,5.665.566.566,0,0,0,1.068.377,6.165,6.165,0,0,0-2.066-6.941,6.509,6.509,0,0,1-.767-.691,1.492,1.492,0,0,0-1.08-.46H28.606a1.492,1.492,0,0,0-1.083.462,6.5,6.5,0,0,1-.768.695,6.125,6.125,0,0,0-2.35,4.039,10.661,10.661,0,0,1-.61-1.193,7.056,7.056,0,0,1,2.439-3.523,5.975,5.975,0,0,0,2.292-4.721V72.034h3.95v1.9a5.892,5.892,0,0,0,2.282,4.656,7.008,7.008,0,0,1-4.286,12.575Z" transform="translate(0)"/><path class="a" d="M149.853,241.484l-4.3-5.043A12.555,12.555,0,0,1,142.8,230.7a.981.981,0,0,0-.962-.792h-1.949a.981.981,0,0,0-.962.792,12.554,12.554,0,0,1-2.761,5.738l-4.3,5.043a1.674,1.674,0,0,0,1.274,2.759h15.439A1.672,1.672,0,0,0,149.853,241.484Zm-.782,1.312a.5.5,0,0,1-.491.314H133.14a.541.541,0,0,1-.412-.892l4.3-5.043a13.69,13.69,0,0,0,2.986-6.133h1.7a13.689,13.689,0,0,0,2.986,6.133l4.3,5.042A.5.5,0,0,1,149.07,242.8Z" transform="translate(-121.539 -150.44)"/></g></svg>