<svg xmlns="http://www.w3.org/2000/svg" width="38.942" height="38.941" viewBox="0 0 38.942 38.941"><defs><style>.a{fill:#f6921e;}</style></defs><path class="a" d="M38.074,16.17l-4.556-1.118a14.679,14.679,0,0,0-.958-2.327l2.327-3.879a1.135,1.135,0,0,0-.16-1.392l-3.24-3.24a1.135,1.135,0,0,0-1.392-.16L26.217,6.381a14.692,14.692,0,0,0-2.327-.958L22.794.867A1.171,1.171,0,0,0,21.676,0H17.113a1.171,1.171,0,0,0-1.118.867L14.9,5.423a14.7,14.7,0,0,0-2.327.958L8.693,4.054a1.135,1.135,0,0,0-1.392.16l-3.24,3.24A1.135,1.135,0,0,0,3.9,8.846l2.327,3.879a14.676,14.676,0,0,0-.958,2.327L.867,16.17A1.124,1.124,0,0,0,0,17.265v4.563a1.124,1.124,0,0,0,.867,1.1l4.4,1.118a14.68,14.68,0,0,0,.958,2.327L3.9,30.248a1.135,1.135,0,0,0,.16,1.392L7.3,34.88a1.135,1.135,0,0,0,1.392.16l3.879-2.327a14.693,14.693,0,0,0,2.327.958l1.1,4.4a1.171,1.171,0,0,0,1.118.867h4.563a1.171,1.171,0,0,0,1.118-.867l1.1-4.4a14.7,14.7,0,0,0,2.327-.958L30.1,35.04a1.135,1.135,0,0,0,1.392-.16l3.24-3.24a1.135,1.135,0,0,0,.16-1.392L32.56,26.369a14.677,14.677,0,0,0,.958-2.327l4.556-1.118a1.124,1.124,0,0,0,.867-1.1V17.265A1.124,1.124,0,0,0,38.074,16.17Zm-18.68,9.081a5.7,5.7,0,1,1,5.7-5.7A5.706,5.706,0,0,1,19.395,25.251Z"/></svg>