<svg xmlns="http://www.w3.org/2000/svg" width="67" height="67" viewBox="0 0 67 67"><defs><style>.a{fill:#f6921e;}.b{fill:#333;}</style></defs><g transform="translate(-0.279 -0.279)"><circle class="a" cx="33.5" cy="33.5" r="33.5" transform="translate(0.279 0.279)"/><g transform="translate(17.537 21.597)"><ellipse class="b" cx="4.5" cy="4" rx="4.5" ry="4" transform="translate(-0.258 -0.318)"/><ellipse class="b" cx="4.5" cy="4" rx="4.5" ry="4" transform="translate(23.742 -0.318)"/><path class="b" d="M153.6,351.531a20.831,20.831,0,0,1-14.818-6.139,2.1,2.1,0,1,1,2.963-2.963,17.159,17.159,0,0,0,23.707,0,2.1,2.1,0,1,1,2.963,2.963A20.814,20.814,0,0,1,153.6,351.531Z" transform="translate(-137.605 -318.644)"/></g></g></svg>