<svg xmlns="http://www.w3.org/2000/svg" width="67" height="67" viewBox="0 0 67 67"><defs><style>.a{fill:#f6921e;}.b{fill:#333;}.c{fill:#fafafa;}</style></defs><circle class="a" cx="33.5" cy="33.5" r="33.5"/><g transform="translate(12.525 16.798)"><path class="b" d="M302.342,138.793a2.1,2.1,0,0,1-2.094-2.095,4.189,4.189,0,1,0-8.378,0,2.095,2.095,0,0,1-4.189,0,8.378,8.378,0,1,1,16.756,0A2.093,2.093,0,0,1,302.342,138.793Z" transform="translate(-262.546 -128.32)"/><path class="b" d="M110.342,138.793a2.1,2.1,0,0,1-2.095-2.095,4.189,4.189,0,1,0-8.378,0,2.095,2.095,0,0,1-4.189,0,8.378,8.378,0,0,1,16.756,0A2.093,2.093,0,0,1,110.342,138.793Z" transform="translate(-95.68 -128.32)"/></g><path class="c" d="M118.467,289.154a2.1,2.1,0,0,0-1.667-.834H72.48a2.1,2.1,0,0,0-2.019,2.664,25.125,25.125,0,0,0,48.35,0A2.076,2.076,0,0,0,118.467,289.154Z" transform="translate(-61.169 -250.577)"/></svg>