<svg xmlns="http://www.w3.org/2000/svg" width="65.774" height="65.85" viewBox="0 0 65.774 65.85"><defs><style>.a{fill:#f6921e;}.b{fill:#333;}</style></defs><g transform="translate(-0.304 0)"><path class="a" d="M46.329,2.756C24.313-6.78.3,9.68.312,32.92c-.039,23.179,23.637,39.2,45.2,30.55C72.654,52.506,72.957,14.356,46.329,2.756Z" transform="translate(-0.007 0)"/><g transform="translate(17.109 30.212)"><path class="b" d="M317.757,238.115a8.479,8.479,0,0,0-6.436-.978.993.993,0,0,1-.5-1.922,10.45,10.45,0,0,1,7.939,1.184.993.993,0,1,1-1,1.716Z" transform="translate(-287.04 -234.893)"/><path class="b" d="M131.1,237.758a.993.993,0,0,1,.357-1.359,10.451,10.451,0,0,1,7.939-1.184.993.993,0,0,1-.5,1.922,8.479,8.479,0,0,0-6.435.978A.993.993,0,0,1,131.1,237.758Z" transform="translate(-130.968 -234.893)"/><path class="b" d="M196.635,346.376a.994.994,0,0,1-.493-1.316,8.406,8.406,0,0,1,15.291,0,.993.993,0,0,1-1.81.819,6.412,6.412,0,0,0-11.672,0A.993.993,0,0,1,196.635,346.376Z" transform="translate(-187.682 -326.611)"/></g></g></svg>