<svg xmlns="http://www.w3.org/2000/svg" width="18.596" height="35.938" viewBox="0 0 18.596 35.938"><defs><style>.a,.h{fill:#f6921e;}.b{fill:#f9ec31;}.b,.d,.e,.f,.g,.h{fill-rule:evenodd;}.c{fill:#2e2e2e;}.d{fill:#ec297b;}.e{fill:#d9ef0a;}.f{fill:#8f10ff;}.g{fill:#06edff;}</style></defs><rect class="a" width="1.545" height="13.972" transform="translate(6.851 17.058)"/><path class="b" d="M320.233,410.182h.028L318.8,406.5h3.14Z" transform="translate(-311.437 -375.375)"/><path class="c" d="M280.587,196.178a3.633,3.633,0,0,0-2.881,1.416q0-.589,0-1.178a1.867,1.867,0,0,0-.01-.19v-3.949a2.116,2.116,0,0,1,.621-1.31,2.172,2.172,0,0,1,3.043,0,2.123,2.123,0,0,1,.629,1.593l.726.03a2.839,2.839,0,0,0-.841-2.131,2.905,2.905,0,0,0-4.072,0,2.837,2.837,0,0,0-.833,1.773v2.7a1.9,1.9,0,0,0-.738-.353v-6.125a1.646,1.646,0,0,1,.482-1.015,1.688,1.688,0,0,1,2.366,0,1.646,1.646,0,0,1,.488,1.238l.726.03a2.366,2.366,0,0,0-.7-1.777,2.422,2.422,0,0,0-3.394,0,2.363,2.363,0,0,0-.694,1.478l0,6.119c-.293,0-.588-.005-.881,0V184.453a2.119,2.119,0,0,1,.621-1.311,2.172,2.172,0,0,1,3.044,0,2.121,2.121,0,0,1,.629,1.593l.726.03a2.835,2.835,0,0,0-.841-2.131,2.905,2.905,0,0,0-4.072,0,2.84,2.84,0,0,0-.833,1.773v10.121a1.848,1.848,0,0,0-1.028.375v-6.026a2.836,2.836,0,0,0-.834-1.773,2.906,2.906,0,0,0-4.071,0,2.835,2.835,0,0,0-.841,2.132l.726-.029a2.123,2.123,0,0,1,.629-1.594,2.172,2.172,0,0,1,3.044,0,2.12,2.12,0,0,1,.621,1.31v5.344a3.629,3.629,0,0,0-6.526,2.142,3.578,3.578,0,0,0,1.17,2.638l.493-.529a2.882,2.882,0,1,1,4.861-2.109h0v.158h.025c0,.477.005.953,0,1.43q-.008,2.436-.018,4.872-.009,2.524-.016,5.049c-.006,1.6-.014,3.2-.014,4.806a.785.785,0,0,0,.085.355q.912,1.743,1.839,3.479c.168.318.334.636.511.949a.375.375,0,0,0,.689.01c.023-.037.042-.078.063-.116.751-1.419,1.5-2.84,2.259-4.253a1.15,1.15,0,0,0,.143-.579q-.006-3.721-.005-7.441,0-2.839,0-5.677a2.9,2.9,0,0,1,5.78.311,2.86,2.86,0,0,1-.936,2.11l.492.529a3.577,3.577,0,0,0-2.455-6.223Zm-7.735,2.263,1.666,0q.013,7,.026,14.052l-1.667-.022C272.869,207.814,272.861,203.122,272.853,198.44Zm2.047,18.176-1.773-3.332h3.545Zm.357-4.134c-.009-4.664-.018-9.357-.027-14.114l1.666.033q.013,7.07.026,14.1Zm1.664-14.863a.814.814,0,0,1-.015.1l-4.048-.025c0-.275,0-.53-.005-.784,0-.115,0-.23,0-.345h.013v-.341a1.121,1.121,0,0,1,1.127-.995c.6-.011,1.2,0,1.8-.008a1.134,1.134,0,0,1,1.127,1.078C276.929,196.741,276.922,197.18,276.921,197.618Z" transform="translate(-265.616 -181.802)"/><path class="b" d="M278.954,272.874a2.431,2.431,0,1,1-2.431-2.4A2.417,2.417,0,0,1,278.954,272.874Z" transform="translate(-272.918 -258.19)"/><path class="d" d="M360.968,296.552a2.431,2.431,0,1,1-2.431-2.4A2.418,2.418,0,0,1,360.968,296.552Z" transform="translate(-343.573 -278.588)"/><path class="e" d="M287.927,224.223a1.757,1.757,0,1,1-1.757-1.737A1.748,1.748,0,0,1,287.927,224.223Z" transform="translate(-281.81 -216.851)"/><path class="f" d="M337.43,191.64a1.679,1.679,0,1,1-1.679-1.66A1.67,1.67,0,0,1,337.43,191.64Z" transform="translate(-324.591 -188.847)"/><path class="g" d="M347.937,223.347a1.254,1.254,0,1,1-1.253-1.239A1.246,1.246,0,0,1,347.937,223.347Z" transform="translate(-334.376 -216.526)"/><path class="h" d="M359.114,248.173a1.757,1.757,0,1,1-1.757-1.737A1.747,1.747,0,0,1,359.114,248.173Z" transform="translate(-343.138 -237.484)"/></svg>