<svg xmlns="http://www.w3.org/2000/svg" width="44" height="60.002" viewBox="0 0 44 60.002"><defs><style>.a{fill:#06edff;}</style></defs><path class="a" d="M2.51,27.21c.41,1.53-.65,3.91.44,5.78s3.73,2.2,4.78,3.26a17,17,0,0,1,1.69,3L4.12,54.72a2,2,0,0,0,3,2.27l3.32-2.35,1.17,3.89a2,2,0,0,0,3.81.08L20.6,43.7a3.58,3.58,0,0,0,2.8,0l5.14,14.95a2,2,0,0,0,3.81-.08l1.17-3.89L36.84,57a2,2,0,0,0,3-2.27L34.58,39.29a17.84,17.84,0,0,1,1.68-3C37.35,35.17,40,34.87,41.05,33s.05-4.3.44-5.78S44,24.19,44,22s-2.14-3.82-2.51-5.22.65-3.91-.44-5.78-3.73-2.2-4.78-3.26S34.89,4,33,2.94s-4.3,0-5.78-.43S24.2,0,22,0s-3.81,2.13-5.22,2.51c-1.56.41-3.9-.66-5.78.43S8.81,6.66,7.74,7.73,4,9.11,3,11s0,4.3-.44,5.78S0,19.79,0,22s2.13,3.79,2.51,5.21ZM13.57,58,12.4,54.09a2,2,0,0,0-3.08-1L6,55.41C11.36,39.8,10.9,41,11,41c1.84,1.07,4.3,0,5.78.43a8.26,8.26,0,0,1,2,1.22Zm21.11-5a2,2,0,0,0-3.08,1.1L30.43,58,25.17,42.69a7.61,7.61,0,0,1,2-1.21c1.57-.42,3.9.65,5.78-.44.1-.06-.35-1.22,5,14.36ZM3.12,19.7c1.43-2,1.63-2.66,1.4-5.25s-.09-2.77,2.24-3.84,2.79-1.54,3.85-3.86S12,4.29,14.46,4.52a6.145,6.145,0,0,0,5.25-1.4c2.02-1.4,2.47-1.49,4.58,0S27,4.74,29.54,4.52s2.78-.09,3.85,2.23,1.55,2.79,3.85,3.86,2.47,1.34,2.24,3.84a6.1,6.1,0,0,0,1.4,5.25c1.4,2.01,1.49,2.47,0,4.58s-1.63,2.66-1.4,5.25.09,2.77-2.24,3.85-2.78,1.53-3.85,3.85-1.34,2.46-3.85,2.24a6.161,6.161,0,0,0-5.25,1.39c-2.02,1.39-2.47,1.49-4.58,0a5.73,5.73,0,0,0-3.8-1.48c-1.44,0-3.07.41-3.91-.07-1.15-.67-1.46-3.09-2.85-4.47S5.33,33.12,4.68,32s.27-3.4-.24-5.29S2,23.33,2,22a4.66,4.66,0,0,1,1.12-2.3Z"/><path class="a" d="M22,37A15,15,0,1,0,7,22,15,15,0,0,0,22,37ZM22,9a13,13,0,1,1-9.192,3.808A13,13,0,0,1,22,9Z"/><path class="a" d="M15.05,25.23a1,1,0,0,0,.95-1,6.35,6.35,0,0,1,1.92-4.72c1.51-1.5,3.29-1.9,5.48-2.27a11.58,11.58,0,0,0,4.25-1.64c1.3,5-1.07,11.2-6,12.84a11.78,11.78,0,0,1-3.58.59,20.07,20.07,0,0,1,6-6.83,1,1,0,0,0-1.17-1.62,20.79,20.79,0,0,0-7.31,9,1,1,0,0,0,.84,1.33c5.23.56,9.93-1.56,12.26-6.6a13.91,13.91,0,0,0,.42-10.69,1,1,0,0,0-1.51-.44,10.48,10.48,0,0,1-4.55,2.05c-2.45.41-4.63.91-6.56,2.82A8.36,8.36,0,0,0,14,24.27a1,1,0,0,0,1.05.96Z"/></svg>