<svg xmlns="http://www.w3.org/2000/svg" width="42.914" height="50.861" viewBox="0 0 42.914 50.861"><defs><style>.a{fill:#06edff;}</style></defs><g transform="translate(-40)"><path class="a" d="M81.689,8.236,62.219.152a1.987,1.987,0,0,0-1.524,0L41.225,8.236A1.987,1.987,0,0,0,40,10.071V19.9A33.271,33.271,0,0,0,60.706,50.714a1.987,1.987,0,0,0,1.5,0A33.271,33.271,0,0,0,82.914,19.9V10.071A1.987,1.987,0,0,0,81.689,8.236ZM78.94,19.9A29.3,29.3,0,0,1,61.457,46.716,29.305,29.305,0,0,1,43.973,19.9V11.4L61.457,4.138,78.94,11.4Zm-19.679,6.7L67.8,18.055a1.987,1.987,0,1,1,2.81,2.81l-9.944,9.944a1.987,1.987,0,0,1-2.81,0L52.3,25.256a1.987,1.987,0,0,1,2.81-2.81Z"/></g></svg>