<svg xmlns="http://www.w3.org/2000/svg" width="26" height="26" viewBox="0 0 26 26" fill="none"><path fill-rule="evenodd" clip-rule="evenodd" d="M6.79897 12.779C6.79897 9.21703 9.71096 6.31798 13.2729 6.31798C15.0021 6.31798 16.601 7.00702 17.8229 8.22902C19.045 9.45103 19.7211 11.076 19.7211 12.805C19.7211 16.367 16.8219 19.266 13.2599 19.266C12.1031 19.266 10.9591 18.954 9.97106 18.369L9.73699 18.226L7.29298 18.863L7.94298 16.471L7.78699 16.224C7.13699 15.184 6.79897 14.001 6.79897 12.779ZM15.769 16.484C16.1461 16.432 16.926 16.016 17.082 15.561C17.238 15.106 17.238 14.716 17.186 14.638C17.1407 14.5699 17.0358 14.5217 16.8803 14.45L16.8091 14.417C16.6886 14.3528 16.2802 14.1495 15.9428 13.9882C15.7341 13.8884 15.5526 13.8048 15.483 13.78C15.301 13.715 15.1711 13.676 15.0409 13.871C14.911 14.066 14.5469 14.508 14.43 14.638C14.326 14.768 14.2091 14.781 14.014 14.69C13.9874 14.6776 13.9528 14.663 13.911 14.6454C13.6467 14.5338 13.0939 14.3006 12.4539 13.728C11.882 13.208 11.492 12.571 11.375 12.376C11.258 12.181 11.375 12.09 11.4659 11.986C11.57 11.843 11.882 11.44 11.9469 11.323C12.012 11.193 11.986 11.076 11.9341 10.985C11.9036 10.9316 11.7568 10.5788 11.6092 10.2175C11.5051 9.96257 11.4005 9.70334 11.336 9.54203C11.193 9.19633 11.0389 9.20037 10.9242 9.20347L10.894 9.20402C10.7771 9.19101 10.6469 9.19101 10.517 9.19101C10.387 9.19101 10.1789 9.24298 9.99692 9.43801C9.98232 9.45491 9.96519 9.47388 9.94598 9.49506C9.74397 9.71778 9.32106 10.1844 9.32106 11.063C9.32106 11.9524 9.949 12.819 10.1028 13.0313L10.1271 13.065C10.218 13.195 11.492 15.158 13.442 16.003C13.8969 16.198 14.261 16.315 14.5469 16.406C15.0151 16.549 15.431 16.536 15.769 16.484Z" fill="white"></path><path fill-rule="evenodd" clip-rule="evenodd" d="M6.5 0H19.5C23.088 0 26 2.91199 26 6.5V19.5C26 23.088 23.088 26 19.5 26H6.5C2.91199 26 0 23.088 0 19.5V6.5C0 2.91199 2.91199 0 6.5 0ZM9.55497 19.617C10.686 20.241 11.9729 20.566 13.2729 20.566C17.563 20.566 21.0599 17.082 21.0599 12.779C21.0599 10.699 20.2539 8.74897 18.7849 7.27997C17.3159 5.81096 15.3659 5.00497 13.286 5.00497C8.99606 5.00497 5.49897 8.48904 5.49897 12.779C5.49897 14.144 5.86301 15.483 6.53904 16.666L5.43407 20.696L9.55497 19.617Z" fill="white"></path></svg>