<svg xmlns="http://www.w3.org/2000/svg" width="50.966" height="50.966" viewBox="0 0 50.966 50.966"><defs><style>.a{fill:#ec297b;}</style></defs><g transform="translate(3.185)"><path class="a" d="M73.722,3.5H54.61V1.593a1.593,1.593,0,0,0-3.185,0V3.5H32.313A1.564,1.564,0,0,0,30.72,5.1V31.8H75.315V5.1A1.564,1.564,0,0,0,73.722,3.5Z" transform="translate(-30.72)"/></g><g transform="translate(0 34.455)"><path class="a" d="M49.373,332.288H1.593A1.633,1.633,0,0,0,0,333.881a1.564,1.564,0,0,0,1.593,1.593H22.244l-9.4,9.928a1.577,1.577,0,1,0,2.283,2.177l8.76-9.237v8.866a1.593,1.593,0,0,0,3.185,0V338.34l8.76,9.237a1.577,1.577,0,1,0,2.283-2.177l-9.4-9.928H49.373a1.593,1.593,0,1,0,0-3.185Z" transform="translate(0 -332.288)"/></g></svg>