<svg xmlns="http://www.w3.org/2000/svg" width="58.178" height="65.121" viewBox="0 0 58.178 65.121"><defs><style>.a{fill:#a7c7d3;}.b{fill:#89b4c9;}.c{fill:#6c96b3;}.d{fill:#618aaa;}.e{fill:#2f5066;}.f{fill:#fdb659;}.g{fill:#83d9ff;}.h{fill:#5fc9ed;}.i{fill:#38627c;}.j{fill:#4f7693;}.k{fill:#fecbaa;}</style></defs><g transform="translate(4.216 0)"><path class="a" d="M80.4,285.445H72.614a2.3,2.3,0,0,0-2.3,2.3v9.314a2.3,2.3,0,0,0-2.3-2.3H60.225a2.3,2.3,0,0,0-2.3,2.3v6.14a2.3,2.3,0,0,0-2.3-2.3H47.836a2.3,2.3,0,0,0-2.3,2.3v5.716a2.3,2.3,0,0,0-2.3-2.3H35.447a2.3,2.3,0,0,0-2.3,2.3v4.371H82.7V287.747a2.3,2.3,0,0,0-2.3-2.3Zm0,0" transform="translate(-33.144 -249.139)"/><path class="a" d="M345.129,37.278a.972.972,0,0,1-.973-.972V.972a.973.973,0,0,1,1.945,0V36.306A.973.973,0,0,1,345.129,37.278Zm0,0" transform="translate(-304.599 0)"/><path class="a" d="M45.534,458.563H33.145v-4.371a2.3,2.3,0,0,1,2.3-2.3h7.784a2.3,2.3,0,0,1,2.3,2.3Zm0,0" transform="translate(-33.145 -394.414)"/></g><path class="b" d="M142.94,419.338H130.551V409.251a2.3,2.3,0,0,1,2.3-2.3h7.784a2.3,2.3,0,0,1,2.3,2.3Zm0,0" transform="translate(-113.946 -355.189)"/><path class="c" d="M240.346,377.2H227.957V360.974a2.3,2.3,0,0,1,2.3-2.3h7.784a2.3,2.3,0,0,1,2.3,2.3Zm0,0" transform="translate(-198.963 -313.052)"/><path class="d" d="M337.753,313.288H325.364V287.747a2.3,2.3,0,0,1,2.3-2.3h7.784a2.3,2.3,0,0,1,2.3,2.3Zm0,0" transform="translate(-283.981 -249.139)"/><path class="e" d="M57.206,498.656H.973a.972.972,0,0,1,0-1.945H57.206a.972.972,0,0,1,0,1.945Zm0,0" transform="translate(0 -433.534)"/><path class="f" d="M351.8,26.831h12.461a.419.419,0,0,0,.277-.733l-3.237-2.851a.418.418,0,0,1,0-.628l3.237-2.85a.419.419,0,0,0-.277-.733H351.8Zm0,0" transform="translate(-307.059 -16.614)"/><path class="g" d="M235.141,109.012l-13.5,7.332c-1.2.654-1.534,1.8-1.954,3.285L217,129.123l3.545,1.218,3.033-3.914,2.553-7.719,6.793-4.128a4.972,4.972,0,0,0,2.212-5.568Zm0,0" transform="translate(-189.403 -95.147)"/><path class="h" d="M235.141,109.012l-1.558.846a4.969,4.969,0,0,1-2.3,3.3l-6.19,3.761a1.922,1.922,0,0,0-.826,1.037l-.884,2.672a10.019,10.019,0,0,1-5.712,6.124L217,129.123l6.579-2.7,2.553-7.719,6.793-4.128a4.972,4.972,0,0,0,2.212-5.568Zm0,0" transform="translate(-189.403 -95.147)"/><path class="i" d="M223.583,245.93l3.887,4.595c.644.853,1.2,1.453,1.089,2.391l-.909,7.35h-2.372l-.62-6.318a1.055,1.055,0,0,0-.632-.866L217,248.626Zm0,0" transform="translate(-189.404 -214.65)"/><path class="j" d="M182.518,248.626l-.379,6.966a3.066,3.066,0,0,1-.17,1.4l-4.477,9.42h2.516l6.731-8.942a3.643,3.643,0,0,0,.572-1.652l1.785-9.886Zm0,0" transform="translate(-154.917 -214.65)"/><path class="k" d="M232.351,113.138l1.1,2.155a2.061,2.061,0,0,1-.895,2.773l-.853.437a2.06,2.06,0,0,1-2.773-.895l-1.1-2.155a2.06,2.06,0,0,1,.895-2.773l.853-.437A2.061,2.061,0,0,1,232.351,113.138Zm0,0" transform="translate(-198.654 -97.769)"/></svg>