<svg xmlns="http://www.w3.org/2000/svg" width="36" height="36" viewBox="0 0 36 36"><defs><style>.a{fill:#ec297b;}</style></defs><path class="a" d="M23.75,11.5a.75.75,0,0,1,0,1.5H23V11.5Z" transform="translate(11.5 5.75)"/><path class="a" d="M12.5,11.5H28.25V13H12.5Z" transform="translate(6.25 5.75)"/><path class="a" d="M26.25,30H12a.743.743,0,0,0,.75-.75V28.5h13.5a2.247,2.247,0,0,0,2.25-2.25V12.75h.75A.743.743,0,0,0,30,12V26.25A3.751,3.751,0,0,1,26.25,30Z" transform="translate(6 6)"/><path class="a" d="M30,3.75V18a.743.743,0,0,0-.75-.75H28.5V3.75A2.247,2.247,0,0,0,26.25,1.5H12.75V.75A.743.743,0,0,0,12,0H26.25A3.751,3.751,0,0,1,30,3.75Z" transform="translate(6)"/><path class="a" d="M22.25,6a.75.75,0,0,1,0,1.5h-6a.75.75,0,0,1,0-1.5Z" transform="translate(7.75 3)"/><path class="a" d="M22.25,16a.75.75,0,0,1,0,1.5h-6a.75.75,0,0,1,0-1.5Z" transform="translate(7.75 8)"/><path class="a" d="M22.25,19a.75.75,0,0,1,0,1.5h-6a.75.75,0,0,1,0-1.5Z" transform="translate(7.75 9.5)"/><path class="a" d="M13,23v.75a.75.75,0,0,1-1.5,0V23Z" transform="translate(5.75 11.5)"/><path class="a" d="M11.5,12.5H13V28.25H11.5Z" transform="translate(5.75 6.25)"/><path class="a" d="M11.5,11.5H13V13H11.5Z" transform="translate(5.75 5.75)"/><path class="a" d="M11.5,1H13V16.75H11.5Z" transform="translate(5.75 0.5)"/><path class="a" d="M13,.75V1.5H11.5V.75a.75.75,0,0,1,1.5,0Z" transform="translate(5.75)"/><path class="a" d="M1,11.5H16.75V13H1Z" transform="translate(0.5 5.75)"/><path class="a" d="M8.75,6a.75.75,0,0,1,0,1.5H6.5V6Z" transform="translate(3.25 3)"/><path class="a" d="M8.775,19.725a.725.725,0,0,1,0,1.05.725.725,0,0,1-1.05,0L6,19.05,7.05,18Z" transform="translate(3 9)"/><path class="a" d="M7.725,16.225a.742.742,0,0,1,1.05,1.05L7.05,19,6,17.95Z" transform="translate(3 8)"/><path class="a" d="M0,0H1.485V1.485H0Z" transform="translate(7.946 26.998) rotate(-45)"/><path class="a" d="M7,7V9.25a.75.75,0,0,1-1.5,0V7Z" transform="translate(2.75 3.5)"/><path class="a" d="M5.5,6H7V7.5H5.5Z" transform="translate(2.75 3)"/><path class="a" d="M7,4.75V7H5.5V4.75a.75.75,0,0,1,1.5,0Z" transform="translate(2.75 2)"/><path class="a" d="M7,17.95,5.95,19,4.225,17.275a.742.742,0,1,1,1.05-1.05Z" transform="translate(2 8)"/><path class="a" d="M6.5,6V7.5H4.25a.75.75,0,0,1,0-1.5Z" transform="translate(1.75 3)"/><path class="a" d="M5.275,20.775a.725.725,0,0,1-1.05,0,.725.725,0,0,1,0-1.05L5.95,18,7,19.05Z" transform="translate(2 9)"/><path class="a" d="M1.5,11.5V13H.75a.75.75,0,0,1,0-1.5Z" transform="translate(0 5.75)"/><path class="a" d="M0,3.75A3.751,3.751,0,0,1,3.75,0H18a.743.743,0,0,0-.75.75V1.5H3.75A2.247,2.247,0,0,0,1.5,3.75v13.5H.75A.743.743,0,0,0,0,18Z"/><path class="a" d="M1.5,26.25A2.247,2.247,0,0,0,3.75,28.5h13.5v.75A.743.743,0,0,0,18,30H3.75A3.751,3.751,0,0,1,0,26.25V12a.743.743,0,0,0,.75.75H1.5Z" transform="translate(0 6)"/></svg>