<svg xmlns="http://www.w3.org/2000/svg" width="26" height="26" viewBox="0 0 26 26" fill="none"><path d="M11.3229 15.1844V10.4394L15.7039 12.8314L11.3229 15.1844Z" fill="white"></path><path fill-rule="evenodd" clip-rule="evenodd" d="M6.5 0H19.5C23.075 0 26 2.925 26 6.5V19.5C26 23.075 23.075 26 19.5 26H6.5C2.925 26 0 23.075 0 19.5V6.5C0 2.91199 2.91199 0 6.5 0ZM20.917 16.38C20.917 16.38 21.0599 15.002 21.0599 13.637V12.363C21.0599 10.998 20.93 9.62003 20.93 9.62003C20.93 9.62003 20.8 8.43699 20.306 7.92997C19.7439 7.32004 19.1047 7.24926 18.763 7.21133L18.681 7.20197C16.406 7.04598 13 7.02003 13 7.02003C13 7.02003 9.59401 7.03297 7.30599 7.20197L7.22903 7.21086C6.89181 7.24871 6.27069 7.31829 5.69401 7.94298C5.21301 8.46301 5.07003 9.62003 5.07003 9.62003C5.07003 9.62003 4.94006 10.998 4.94006 12.363V13.637C4.94006 15.002 5.07003 16.38 5.07003 16.38C5.07003 16.38 5.2 17.537 5.68099 18.057C6.20214 18.6324 6.85928 18.7092 7.26616 18.7567C7.34646 18.7661 7.41708 18.7743 7.475 18.785C8.775 18.902 13 18.967 13 18.967C13 18.967 16.406 18.954 18.681 18.785C18.993 18.733 19.669 18.733 20.293 18.057C20.774 17.537 20.917 16.38 20.917 16.38Z" fill="white"></path></svg>